<svg width="255" height="170" viewBox="0 0 255 170" fill="none" xmlns="http://www.w3.org/2000/svg">
<path d="M76.3019 163.396C76.0889 163.396 75.9741 163.396 75.8594 163.396C73.4792 163.396 71.099 163.396 68.7194 163.396C68.6238 163.396 68.5275 163.402 68.4325 163.394C68.1717 163.373 68.0148 163.23 68.0008 163.013C67.9868 162.787 68.1545 162.65 68.4012 162.608C68.4937 162.592 68.5919 162.601 68.6875 162.601C71.0779 162.601 73.469 162.601 75.8594 162.601H76.2929C75.7293 162.184 75.2307 161.813 74.7302 161.444C74.4279 161.221 74.1225 161.001 73.8216 160.777C73.5589 160.582 73.506 160.325 73.6845 160.14C73.8681 159.95 74.1123 159.952 74.3839 160.152C75.4959 160.971 76.6079 161.789 77.718 162.61C78.0961 162.89 78.0936 163.112 77.7129 163.393C76.6028 164.214 75.4908 165.032 74.3788 165.851C74.1098 166.048 73.8547 166.048 73.6775 165.859C73.513 165.684 73.5614 165.418 73.8024 165.239C74.6084 164.642 75.4175 164.048 76.3012 163.397L76.3019 163.396Z" fill="black"/>
<rect width="255" height="170" rx="24" fill="#E7E6E2"/>
<path d="M22.0462 93L18.3516 79.9091H20.902L23.2607 89.5291H23.3821L25.9006 79.9091H28.2209L30.7457 89.5355H30.8608L33.2195 79.9091H35.7699L32.0753 93H29.7358L27.1151 83.8146H27.0128L24.3857 93H22.0462ZM40.6566 93.1918C39.6722 93.1918 38.8221 92.9872 38.1062 92.5781C37.3945 92.1648 36.8469 91.581 36.4634 90.8267C36.0799 90.0682 35.8881 89.1754 35.8881 88.1484C35.8881 87.1385 36.0799 86.2521 36.4634 85.4893C36.8512 84.7223 37.3924 84.1257 38.087 83.6996C38.7816 83.2692 39.5977 83.054 40.5352 83.054C41.1403 83.054 41.7113 83.152 42.2482 83.348C42.7894 83.5398 43.2667 83.8381 43.68 84.2429C44.0977 84.6477 44.4258 85.1634 44.6644 85.7898C44.9031 86.4119 45.0224 87.1534 45.0224 88.0142V88.7237H36.9748V87.1641H42.8043C42.8001 86.7209 42.7042 86.3267 42.5167 85.9815C42.3292 85.6321 42.0671 85.3572 41.7305 85.157C41.3981 84.9567 41.0103 84.8565 40.5671 84.8565C40.0941 84.8565 39.6786 84.9716 39.3207 85.2017C38.9627 85.4276 38.6836 85.7259 38.4833 86.0966C38.2873 86.4631 38.1871 86.8658 38.1829 87.3047V88.6662C38.1829 89.2372 38.2873 89.7273 38.4961 90.1364C38.7049 90.5412 38.9968 90.8523 39.3718 91.0696C39.7468 91.2827 40.1857 91.3892 40.6886 91.3892C41.0252 91.3892 41.3299 91.3423 41.6026 91.2486C41.8754 91.1506 42.1119 91.0078 42.3121 90.8203C42.5124 90.6328 42.6637 90.4006 42.766 90.1236L44.9265 90.3665C44.7901 90.9375 44.5302 91.4361 44.1467 91.8622C43.7674 92.2841 43.2816 92.6122 42.6893 92.8466C42.0969 93.0767 41.4194 93.1918 40.6566 93.1918ZM47.0822 93V79.9091H49.3961V84.8054H49.492C49.6113 84.5668 49.7797 84.3132 49.997 84.0447C50.2143 83.772 50.5083 83.5398 50.8791 83.348C51.2498 83.152 51.7228 83.054 52.2981 83.054C53.0566 83.054 53.7406 83.2479 54.35 83.6357C54.9636 84.0192 55.4494 84.5881 55.8074 85.3423C56.1696 86.0923 56.3507 87.0128 56.3507 88.1037C56.3507 89.1818 56.1738 90.098 55.8201 90.8523C55.4664 91.6065 54.9849 92.1818 54.3755 92.5781C53.7662 92.9744 53.0758 93.1726 52.3045 93.1726C51.742 93.1726 51.2754 93.0788 50.9047 92.8913C50.5339 92.7038 50.2356 92.478 50.0098 92.2138C49.7882 91.9453 49.6156 91.6918 49.492 91.4531H49.3578V93H47.0822ZM49.3514 88.0909C49.3514 88.7259 49.4409 89.282 49.6199 89.7592C49.8031 90.2365 50.0652 90.6094 50.4061 90.8778C50.7512 91.142 51.1689 91.2741 51.6589 91.2741C52.1703 91.2741 52.5985 91.1378 52.9437 90.8651C53.2889 90.5881 53.5488 90.2109 53.7235 89.7337C53.9025 89.2521 53.992 88.7045 53.992 88.0909C53.992 87.4815 53.9047 86.9403 53.7299 86.4673C53.5552 85.9943 53.2953 85.6236 52.9501 85.3551C52.6049 85.0866 52.1745 84.9524 51.6589 84.9524C51.1646 84.9524 50.7449 85.0824 50.3997 85.3423C50.0545 85.6023 49.7924 85.9666 49.6135 86.4354C49.4387 86.9041 49.3514 87.456 49.3514 88.0909ZM66.4261 93.1726C65.6548 93.1726 64.9645 92.9744 64.3551 92.5781C63.7457 92.1818 63.2642 91.6065 62.9105 90.8523C62.5568 90.098 62.38 89.1818 62.38 88.1037C62.38 87.0128 62.5589 86.0923 62.9169 85.3423C63.2791 84.5881 63.767 84.0192 64.3807 83.6357C64.9943 83.2479 65.6783 83.054 66.4325 83.054C67.0078 83.054 67.4808 83.152 67.8516 83.348C68.2223 83.5398 68.5163 83.772 68.7337 84.0447C68.951 84.3132 69.1193 84.5668 69.2386 84.8054H69.3345V79.9091H71.6548V93H69.3793V91.4531H69.2386C69.1193 91.6918 68.9467 91.9453 68.7209 92.2138C68.495 92.478 68.1967 92.7038 67.826 92.8913C67.4553 93.0788 66.9886 93.1726 66.4261 93.1726ZM67.0717 91.2741C67.5618 91.2741 67.9794 91.142 68.3246 90.8778C68.6697 90.6094 68.9318 90.2365 69.1108 89.7592C69.2898 89.282 69.3793 88.7259 69.3793 88.0909C69.3793 87.456 69.2898 86.9041 69.1108 86.4354C68.9361 85.9666 68.6761 85.6023 68.331 85.3423C67.9901 85.0824 67.5703 84.9524 67.0717 84.9524C66.5561 84.9524 66.1257 85.0866 65.7805 85.3551C65.4354 85.6236 65.1754 85.9943 65.0007 86.4673C64.826 86.9403 64.7386 87.4815 64.7386 88.0909C64.7386 88.7045 64.826 89.2521 65.0007 89.7337C65.1797 90.2109 65.4418 90.5881 65.7869 90.8651C66.1364 91.1378 66.5646 91.2741 67.0717 91.2741ZM78.4672 93.1918C77.4828 93.1918 76.6326 92.9872 75.9167 92.5781C75.2051 92.1648 74.6575 91.581 74.274 90.8267C73.8904 90.0682 73.6987 89.1754 73.6987 88.1484C73.6987 87.1385 73.8904 86.2521 74.274 85.4893C74.6618 84.7223 75.2029 84.1257 75.8975 83.6996C76.5922 83.2692 77.4082 83.054 78.3457 83.054C78.9508 83.054 79.5218 83.152 80.0588 83.348C80.6 83.5398 81.0772 83.8381 81.4906 84.2429C81.9082 84.6477 82.2363 85.1634 82.475 85.7898C82.7136 86.4119 82.8329 87.1534 82.8329 88.0142V88.7237H74.7853V87.1641H80.6149C80.6106 86.7209 80.5147 86.3267 80.3272 85.9815C80.1397 85.6321 79.8777 85.3572 79.541 85.157C79.2086 84.9567 78.8208 84.8565 78.3777 84.8565C77.9047 84.8565 77.4892 84.9716 77.1312 85.2017C76.7733 85.4276 76.4941 85.7259 76.2939 86.0966C76.0978 86.4631 75.9977 86.8658 75.9934 87.3047V88.6662C75.9934 89.2372 76.0978 89.7273 76.3066 90.1364C76.5154 90.5412 76.8074 90.8523 77.1824 91.0696C77.5574 91.2827 77.9963 91.3892 78.4991 91.3892C78.8358 91.3892 79.1404 91.3423 79.4132 91.2486C79.6859 91.1506 79.9224 91.0078 80.1227 90.8203C80.323 90.6328 80.4743 90.4006 80.5765 90.1236L82.737 90.3665C82.6007 90.9375 82.3407 91.4361 81.9572 91.8622C81.5779 92.2841 81.0922 92.6122 80.4998 92.8466C79.9075 93.0767 79.2299 93.1918 78.4672 93.1918ZM93.2791 83.1818L89.7827 93H87.2259L83.7294 83.1818H86.1967L88.4531 90.4751H88.5554L90.8182 83.1818H93.2791ZM98.8929 93.1918C97.9086 93.1918 97.0584 92.9872 96.3425 92.5781C95.6309 92.1648 95.0833 91.581 94.6998 90.8267C94.3162 90.0682 94.1245 89.1754 94.1245 88.1484C94.1245 87.1385 94.3162 86.2521 94.6998 85.4893C95.0875 84.7223 95.6287 84.1257 96.3233 83.6996C97.0179 83.2692 97.834 83.054 98.7715 83.054C99.3766 83.054 99.9476 83.152 100.485 83.348C101.026 83.5398 101.503 83.8381 101.916 84.2429C102.334 84.6477 102.662 85.1634 102.901 85.7898C103.139 86.4119 103.259 87.1534 103.259 88.0142V88.7237H95.2111V87.1641H101.041C101.036 86.7209 100.941 86.3267 100.753 85.9815C100.566 85.6321 100.303 85.3572 99.9668 85.157C99.6344 84.9567 99.2466 84.8565 98.8034 84.8565C98.3304 84.8565 97.915 84.9716 97.557 85.2017C97.199 85.4276 96.9199 85.7259 96.7196 86.0966C96.5236 86.4631 96.4235 86.8658 96.4192 87.3047V88.6662C96.4192 89.2372 96.5236 89.7273 96.7324 90.1364C96.9412 90.5412 97.2331 90.8523 97.6081 91.0696C97.9831 91.2827 98.4221 91.3892 98.9249 91.3892C99.2615 91.3892 99.5662 91.3423 99.839 91.2486C100.112 91.1506 100.348 91.0078 100.548 90.8203C100.749 90.6328 100.9 90.4006 101.002 90.1236L103.163 90.3665C103.026 90.9375 102.767 91.4361 102.383 91.8622C102.004 92.2841 101.518 92.6122 100.926 92.8466C100.333 93.0767 99.6557 93.1918 98.8929 93.1918ZM107.53 79.9091V93H105.216V79.9091H107.53ZM114.192 93.1918C113.233 93.1918 112.403 92.9808 111.699 92.5589C110.996 92.1371 110.451 91.5469 110.063 90.7884C109.68 90.0298 109.488 89.1435 109.488 88.1293C109.488 87.1151 109.68 86.2266 110.063 85.4638C110.451 84.701 110.996 84.1087 111.699 83.6868C112.403 83.2649 113.233 83.054 114.192 83.054C115.151 83.054 115.982 83.2649 116.685 83.6868C117.388 84.1087 117.932 84.701 118.315 85.4638C118.703 86.2266 118.897 87.1151 118.897 88.1293C118.897 89.1435 118.703 90.0298 118.315 90.7884C117.932 91.5469 117.388 92.1371 116.685 92.5589C115.982 92.9808 115.151 93.1918 114.192 93.1918ZM114.205 91.3381C114.725 91.3381 115.16 91.1953 115.509 90.9098C115.858 90.62 116.118 90.2322 116.289 89.7464C116.464 89.2607 116.551 88.7195 116.551 88.1229C116.551 87.522 116.464 86.9787 116.289 86.4929C116.118 86.0028 115.858 85.6129 115.509 85.3232C115.16 85.0334 114.725 84.8885 114.205 84.8885C113.672 84.8885 113.229 85.0334 112.876 85.3232C112.526 85.6129 112.264 86.0028 112.089 86.4929C111.919 86.9787 111.834 87.522 111.834 88.1229C111.834 88.7195 111.919 89.2607 112.089 89.7464C112.264 90.2322 112.526 90.62 112.876 90.9098C113.229 91.1953 113.672 91.3381 114.205 91.3381ZM120.861 96.6818V83.1818H123.136V84.8054H123.271C123.39 84.5668 123.558 84.3132 123.776 84.0447C123.993 83.772 124.287 83.5398 124.658 83.348C125.028 83.152 125.501 83.054 126.077 83.054C126.835 83.054 127.519 83.2479 128.129 83.6357C128.742 84.0192 129.228 84.5881 129.586 85.3423C129.948 86.0923 130.129 87.0128 130.129 88.1037C130.129 89.1818 129.952 90.098 129.599 90.8523C129.245 91.6065 128.763 92.1818 128.154 92.5781C127.545 92.9744 126.854 93.1726 126.083 93.1726C125.521 93.1726 125.054 93.0788 124.683 92.8913C124.313 92.7038 124.014 92.478 123.788 92.2138C123.567 91.9453 123.394 91.6918 123.271 91.4531H123.175V96.6818H120.861ZM123.13 88.0909C123.13 88.7259 123.219 89.282 123.398 89.7592C123.582 90.2365 123.844 90.6094 124.185 90.8778C124.53 91.142 124.947 91.2741 125.438 91.2741C125.949 91.2741 126.377 91.1378 126.722 90.8651C127.067 90.5881 127.327 90.2109 127.502 89.7337C127.681 89.2521 127.771 88.7045 127.771 88.0909C127.771 87.4815 127.683 86.9403 127.509 86.4673C127.334 85.9943 127.074 85.6236 126.729 85.3551C126.384 85.0866 125.953 84.9524 125.438 84.9524C124.943 84.9524 124.523 85.0824 124.178 85.3423C123.833 85.6023 123.571 85.9666 123.392 86.4354C123.217 86.9041 123.13 87.456 123.13 88.0909ZM132.111 93V83.1818H134.322V84.8501H134.438C134.642 84.2876 134.981 83.8487 135.454 83.5334C135.927 83.2138 136.491 83.054 137.148 83.054C137.812 83.054 138.373 83.2159 138.829 83.5398C139.289 83.8594 139.613 84.2962 139.8 84.8501H139.903C140.12 84.3047 140.487 83.87 141.002 83.5462C141.522 83.218 142.138 83.054 142.849 83.054C143.753 83.054 144.49 83.3395 145.061 83.9105C145.632 84.4815 145.918 85.3146 145.918 86.4098V93H143.597V86.7678C143.597 86.1584 143.435 85.7131 143.112 85.4318C142.788 85.1463 142.391 85.0036 141.923 85.0036C141.364 85.0036 140.928 85.1783 140.612 85.5277C140.301 85.8729 140.146 86.3224 140.146 86.8764V93H137.876V86.6719C137.876 86.1648 137.723 85.7599 137.416 85.4574C137.114 85.1548 136.717 85.0036 136.227 85.0036C135.895 85.0036 135.592 85.0888 135.32 85.2592C135.047 85.4254 134.83 85.6619 134.668 85.9688C134.506 86.2713 134.425 86.625 134.425 87.0298V93H132.111ZM152.612 93.1918C151.627 93.1918 150.777 92.9872 150.061 92.5781C149.35 92.1648 148.802 91.581 148.419 90.8267C148.035 90.0682 147.843 89.1754 147.843 88.1484C147.843 87.1385 148.035 86.2521 148.419 85.4893C148.806 84.7223 149.347 84.1257 150.042 83.6996C150.737 83.2692 151.553 83.054 152.49 83.054C153.095 83.054 153.666 83.152 154.203 83.348C154.744 83.5398 155.222 83.8381 155.635 84.2429C156.053 84.6477 156.381 85.1634 156.619 85.7898C156.858 86.4119 156.977 87.1534 156.977 88.0142V88.7237H148.93V87.1641H154.759C154.755 86.7209 154.659 86.3267 154.472 85.9815C154.284 85.6321 154.022 85.3572 153.686 85.157C153.353 84.9567 152.965 84.8565 152.522 84.8565C152.049 84.8565 151.634 84.9716 151.276 85.2017C150.918 85.4276 150.639 85.7259 150.438 86.0966C150.242 86.4631 150.142 86.8658 150.138 87.3047V88.6662C150.138 89.2372 150.242 89.7273 150.451 90.1364C150.66 90.5412 150.952 90.8523 151.327 91.0696C151.702 91.2827 152.141 91.3892 152.644 91.3892C152.98 91.3892 153.285 91.3423 153.558 91.2486C153.83 91.1506 154.067 91.0078 154.267 90.8203C154.468 90.6328 154.619 90.4006 154.721 90.1236L156.882 90.3665C156.745 90.9375 156.485 91.4361 156.102 91.8622C155.722 92.2841 155.237 92.6122 154.644 92.8466C154.052 93.0767 153.374 93.1918 152.612 93.1918ZM161.249 87.2472V93H158.935V83.1818H161.147V84.8501H161.262C161.488 84.3004 161.848 83.8636 162.342 83.5398C162.841 83.2159 163.456 83.054 164.189 83.054C164.867 83.054 165.457 83.1989 165.96 83.4886C166.467 83.7784 166.859 84.1982 167.136 84.7479C167.417 85.2976 167.556 85.9645 167.551 86.7486V93H165.238V87.1065C165.238 86.4503 165.067 85.9368 164.726 85.5661C164.39 85.1953 163.923 85.0099 163.326 85.0099C162.922 85.0099 162.561 85.0994 162.246 85.2784C161.935 85.4531 161.69 85.7067 161.511 86.0391C161.336 86.3714 161.249 86.7741 161.249 87.2472ZM174.806 83.1818V84.9716H169.162V83.1818H174.806ZM170.556 80.8295H172.87V90.0469C172.87 90.358 172.917 90.5966 173.01 90.7628C173.108 90.9247 173.236 91.0355 173.394 91.0952C173.551 91.1548 173.726 91.1847 173.918 91.1847C174.063 91.1847 174.195 91.174 174.314 91.1527C174.438 91.1314 174.532 91.1122 174.596 91.0952L174.985 92.9041C174.862 92.9467 174.685 92.9936 174.455 93.0447C174.229 93.0959 173.952 93.1257 173.624 93.1342C173.044 93.1513 172.522 93.0639 172.058 92.8722C171.593 92.6761 171.225 92.3736 170.952 91.9645C170.684 91.5554 170.551 91.044 170.556 90.4304V80.8295Z" fill="black"/>
<path d="M21.5032 112.001C22.2866 112.001 23.07 111.998 23.8534 112.002C24.4062 112.004 24.8279 112.329 24.96 112.851C24.984 112.947 24.998 113.048 24.998 113.147C25.0005 114.715 25.0005 116.283 24.999 117.852C24.9985 118.392 24.6738 118.819 24.1611 118.957C24.062 118.983 23.9569 118.998 23.8544 118.998C22.2876 119 20.7208 119 19.1535 118.999C18.4947 118.999 18.0019 118.508 18.0009 117.846C17.9994 116.286 17.9999 114.726 18.0009 113.167C18.0014 112.484 18.4802 112.004 19.165 112.001C19.9444 111.998 20.7238 112.001 21.5027 112.001H21.5032ZM21.0115 116.236C20.9804 116.209 20.9614 116.194 20.9444 116.177C20.6378 115.871 20.3316 115.563 20.024 115.258C19.8854 115.121 19.6858 115.098 19.5342 115.197C19.3136 115.341 19.2856 115.614 19.4777 115.808C19.8769 116.211 20.2786 116.611 20.6793 117.012C20.9009 117.234 21.1005 117.231 21.3236 117.005C21.5377 116.789 21.7533 116.574 21.9684 116.359C22.4842 115.843 23.0005 115.327 23.5157 114.811C23.6223 114.704 23.6783 114.577 23.6418 114.426C23.5663 114.112 23.2201 114.022 22.9815 114.258C22.4747 114.76 21.9724 115.266 21.4692 115.771C21.3166 115.923 21.1665 116.078 21.011 116.237L21.0115 116.236Z" fill="#9C0000"/>
<path d="M21.5032 134.001C22.2866 134.001 23.07 133.998 23.8534 134.002C24.4062 134.004 24.8279 134.329 24.96 134.851C24.984 134.947 24.998 135.048 24.998 135.147C25.0005 136.715 25.0005 138.283 24.999 139.852C24.9985 140.392 24.6738 140.819 24.1611 140.957C24.062 140.983 23.9569 140.998 23.8544 140.998C22.2876 141 20.7208 141 19.1535 140.999C18.4947 140.999 18.0019 140.508 18.0009 139.846C17.9994 138.286 17.9999 136.726 18.0009 135.167C18.0014 134.484 18.4802 134.004 19.165 134.001C19.9444 133.998 20.7238 134.001 21.5027 134.001H21.5032ZM21.0115 138.236C20.9804 138.209 20.9614 138.194 20.9444 138.177C20.6378 137.871 20.3316 137.563 20.024 137.258C19.8854 137.121 19.6858 137.098 19.5342 137.197C19.3136 137.341 19.2856 137.614 19.4777 137.808C19.8769 138.211 20.2786 138.611 20.6793 139.012C20.9009 139.234 21.1005 139.231 21.3236 139.005C21.5377 138.789 21.7533 138.574 21.9684 138.359C22.4842 137.843 23.0005 137.327 23.5157 136.811C23.6223 136.704 23.6783 136.577 23.6418 136.426C23.5663 136.112 23.2201 136.022 22.9815 136.258C22.4747 136.76 21.9724 137.266 21.4692 137.771C21.3166 137.923 21.1665 138.078 21.011 138.237L21.0115 138.236Z" fill="#9C0000"/>
<path d="M124.503 112.001C125.287 112.001 126.07 111.998 126.853 112.002C127.406 112.004 127.828 112.329 127.96 112.851C127.984 112.947 127.998 113.048 127.998 113.147C128 114.715 128 116.283 127.999 117.852C127.998 118.392 127.674 118.819 127.161 118.957C127.062 118.983 126.957 118.998 126.854 118.998C125.288 119 123.721 119 122.154 118.999C121.495 118.999 121.002 118.508 121.001 117.846C120.999 116.286 121 114.726 121.001 113.167C121.001 112.484 121.48 112.004 122.165 112.001C122.944 111.998 123.724 112.001 124.503 112.001H124.503ZM124.011 116.236C123.98 116.209 123.961 116.194 123.944 116.177C123.638 115.871 123.332 115.563 123.024 115.258C122.885 115.121 122.686 115.098 122.534 115.197C122.314 115.341 122.286 115.614 122.478 115.808C122.877 116.211 123.279 116.611 123.679 117.012C123.901 117.234 124.101 117.231 124.324 117.005C124.538 116.789 124.753 116.574 124.968 116.359C125.484 115.843 126 115.327 126.516 114.811C126.622 114.704 126.678 114.577 126.642 114.426C126.566 114.112 126.22 114.022 125.981 114.258C125.475 114.76 124.972 115.266 124.469 115.771C124.317 115.923 124.167 116.078 124.011 116.237L124.011 116.236Z" fill="#9C0000"/>
<path d="M124.503 134.001C125.287 134.001 126.07 133.998 126.853 134.002C127.406 134.004 127.828 134.329 127.96 134.851C127.984 134.947 127.998 135.048 127.998 135.147C128 136.715 128 138.283 127.999 139.852C127.998 140.392 127.674 140.819 127.161 140.957C127.062 140.983 126.957 140.998 126.854 140.998C125.288 141 123.721 141 122.154 140.999C121.495 140.999 121.002 140.508 121.001 139.846C120.999 138.286 121 136.726 121.001 135.167C121.001 134.484 121.48 134.004 122.165 134.001C122.944 133.998 123.724 134.001 124.503 134.001H124.503ZM124.011 138.236C123.98 138.209 123.961 138.194 123.944 138.177C123.638 137.871 123.332 137.563 123.024 137.258C122.885 137.121 122.686 137.098 122.534 137.197C122.314 137.341 122.286 137.614 122.478 137.808C122.877 138.211 123.279 138.611 123.679 139.012C123.901 139.234 124.101 139.231 124.324 139.005C124.538 138.789 124.753 138.574 124.968 138.359C125.484 137.843 126 137.327 126.516 136.811C126.622 136.704 126.678 136.577 126.642 136.426C126.566 136.112 126.22 136.022 125.981 136.258C125.475 136.76 124.972 137.266 124.469 137.771C124.317 137.923 124.167 138.078 124.011 138.237L124.011 138.236Z" fill="#9C0000"/>
<path d="M30.7891 120V112H35.9141V113.215H32.2383V115.387H35.5625V116.602H32.2383V120H30.7891ZM37.0859 120V114H38.457V115H38.5195C38.6289 114.654 38.8164 114.387 39.082 114.199C39.3503 114.009 39.6562 113.914 40 113.914C40.0781 113.914 40.1654 113.918 40.2617 113.926C40.3607 113.931 40.4427 113.94 40.5078 113.953V115.254C40.4479 115.233 40.3529 115.215 40.2227 115.199C40.0951 115.181 39.9714 115.172 39.8516 115.172C39.5938 115.172 39.362 115.228 39.1563 115.34C38.9531 115.449 38.793 115.602 38.6758 115.797C38.5586 115.992 38.5 116.217 38.5 116.473V120H37.0859ZM43.8174 120.117C43.2314 120.117 42.7236 119.988 42.2939 119.73C41.8643 119.473 41.5309 119.112 41.2939 118.648C41.0596 118.185 40.9424 117.643 40.9424 117.023C40.9424 116.404 41.0596 115.861 41.2939 115.395C41.5309 114.928 41.8643 114.566 42.2939 114.309C42.7236 114.051 43.2314 113.922 43.8174 113.922C44.4033 113.922 44.9111 114.051 45.3408 114.309C45.7705 114.566 46.1025 114.928 46.3369 115.395C46.5739 115.861 46.6924 116.404 46.6924 117.023C46.6924 117.643 46.5739 118.185 46.3369 118.648C46.1025 119.112 45.7705 119.473 45.3408 119.73C44.9111 119.988 44.4033 120.117 43.8174 120.117ZM43.8252 118.984C44.1429 118.984 44.4085 118.897 44.6221 118.723C44.8356 118.546 44.9945 118.309 45.0986 118.012C45.2054 117.715 45.2588 117.384 45.2588 117.02C45.2588 116.652 45.2054 116.32 45.0986 116.023C44.9945 115.724 44.8356 115.486 44.6221 115.309C44.4085 115.132 44.1429 115.043 43.8252 115.043C43.4997 115.043 43.2288 115.132 43.0127 115.309C42.7992 115.486 42.639 115.724 42.5322 116.023C42.4281 116.32 42.376 116.652 42.376 117.02C42.376 117.384 42.4281 117.715 42.5322 118.012C42.639 118.309 42.7992 118.546 43.0127 118.723C43.2288 118.897 43.4997 118.984 43.8252 118.984ZM49.3066 116.484V120H47.8926V114H49.2441V115.02H49.3145C49.4525 114.684 49.6725 114.417 49.9746 114.219C50.2793 114.021 50.6556 113.922 51.1035 113.922C51.5176 113.922 51.8783 114.01 52.1855 114.187C52.4954 114.365 52.735 114.621 52.9043 114.957C53.0762 115.293 53.1608 115.701 53.1582 116.18V120H51.7441V116.398C51.7441 115.997 51.64 115.684 51.4316 115.457C51.2259 115.23 50.9408 115.117 50.5762 115.117C50.3288 115.117 50.1087 115.172 49.916 115.281C49.7259 115.388 49.5762 115.543 49.4668 115.746C49.36 115.949 49.3066 116.195 49.3066 116.484ZM57.5918 114V115.094H54.1426V114H57.5918ZM54.9941 112.562H56.4082V118.195C56.4082 118.385 56.4368 118.531 56.4941 118.633C56.554 118.732 56.6322 118.799 56.7285 118.836C56.8249 118.872 56.9316 118.891 57.0488 118.891C57.1374 118.891 57.2181 118.884 57.291 118.871C57.3665 118.858 57.4238 118.846 57.4629 118.836L57.7012 119.941C57.6257 119.967 57.5176 119.996 57.377 120.027C57.2389 120.059 57.0697 120.077 56.8691 120.082C56.515 120.092 56.196 120.039 55.9121 119.922C55.6283 119.802 55.403 119.617 55.2363 119.367C55.0723 119.117 54.9915 118.805 54.9941 118.43V112.562ZM62.2178 116.086V117.25H58.6162V116.086H62.2178ZM66.3613 120.117C65.7598 120.117 65.2402 119.992 64.8027 119.742C64.3678 119.49 64.0332 119.133 63.7988 118.672C63.5645 118.208 63.4473 117.663 63.4473 117.035C63.4473 116.418 63.5645 115.876 63.7988 115.41C64.0358 114.941 64.3665 114.577 64.791 114.316C65.2155 114.053 65.7142 113.922 66.2871 113.922C66.6569 113.922 67.0059 113.982 67.334 114.102C67.6647 114.219 67.9564 114.401 68.209 114.648C68.4642 114.896 68.6647 115.211 68.8105 115.594C68.9564 115.974 69.0293 116.427 69.0293 116.953V117.387H64.1113V116.434H67.6738C67.6712 116.163 67.6126 115.922 67.498 115.711C67.3835 115.497 67.2233 115.329 67.0176 115.207C66.8145 115.085 66.5775 115.023 66.3066 115.023C66.0176 115.023 65.7637 115.094 65.5449 115.234C65.3262 115.372 65.1556 115.555 65.0332 115.781C64.9134 116.005 64.8522 116.251 64.8496 116.52V117.352C64.8496 117.701 64.9134 118 65.041 118.25C65.1686 118.497 65.347 118.687 65.5762 118.82C65.8053 118.951 66.0736 119.016 66.3809 119.016C66.5866 119.016 66.7728 118.987 66.9395 118.93C67.1061 118.87 67.2507 118.783 67.373 118.668C67.4954 118.553 67.5879 118.411 67.6504 118.242L68.9707 118.391C68.8874 118.74 68.7285 119.044 68.4941 119.305C68.2624 119.562 67.9655 119.763 67.6035 119.906C67.2415 120.047 66.8275 120.117 66.3613 120.117ZM71.6396 116.484V120H70.2256V114H71.5771V115.02H71.6475C71.7855 114.684 72.0055 114.417 72.3076 114.219C72.6123 114.021 72.9886 113.922 73.4365 113.922C73.8506 113.922 74.2113 114.01 74.5186 114.187C74.8285 114.365 75.068 114.621 75.2373 114.957C75.4092 115.293 75.4938 115.701 75.4912 116.18V120H74.0771V116.398C74.0771 115.997 73.973 115.684 73.7646 115.457C73.5589 115.23 73.2738 115.117 72.9092 115.117C72.6618 115.117 72.4417 115.172 72.249 115.281C72.0589 115.388 71.9092 115.543 71.7998 115.746C71.693 115.949 71.6396 116.195 71.6396 116.484ZM79.1553 120.105C78.6839 120.105 78.262 119.984 77.8896 119.742C77.5173 119.5 77.223 119.148 77.0068 118.687C76.7907 118.227 76.6826 117.667 76.6826 117.008C76.6826 116.341 76.792 115.779 77.0107 115.32C77.2321 114.859 77.5303 114.512 77.9053 114.277C78.2803 114.04 78.6982 113.922 79.1592 113.922C79.5107 113.922 79.7998 113.982 80.0264 114.102C80.2529 114.219 80.4326 114.361 80.5654 114.527C80.6982 114.691 80.8011 114.846 80.874 114.992H80.9326V112H82.3506V120H80.96V119.055H80.874C80.8011 119.201 80.6956 119.355 80.5576 119.52C80.4196 119.681 80.2373 119.819 80.0107 119.934C79.7842 120.048 79.499 120.105 79.1553 120.105ZM79.5498 118.945C79.8493 118.945 80.1045 118.865 80.3154 118.703C80.5264 118.539 80.6865 118.311 80.7959 118.02C80.9053 117.728 80.96 117.388 80.96 117C80.96 116.612 80.9053 116.275 80.7959 115.988C80.6891 115.702 80.5303 115.479 80.3193 115.32C80.111 115.161 79.8545 115.082 79.5498 115.082C79.2347 115.082 78.9717 115.164 78.7607 115.328C78.5498 115.492 78.391 115.719 78.2842 116.008C78.1774 116.297 78.124 116.628 78.124 117C78.124 117.375 78.1774 117.71 78.2842 118.004C78.3936 118.296 78.5537 118.526 78.7646 118.695C78.9782 118.862 79.2399 118.945 79.5498 118.945Z" fill="#7B7B7B"/>
<path d="M136.473 120L134.215 112H135.773L137.215 117.879H137.289L138.828 112H140.246L141.789 117.883H141.859L143.301 112H144.859L142.602 120H141.172L139.57 114.387H139.508L137.902 120H136.473ZM147.807 120.117C147.221 120.117 146.713 119.988 146.283 119.73C145.854 119.473 145.52 119.112 145.283 118.648C145.049 118.185 144.932 117.643 144.932 117.023C144.932 116.404 145.049 115.861 145.283 115.395C145.52 114.928 145.854 114.566 146.283 114.309C146.713 114.051 147.221 113.922 147.807 113.922C148.393 113.922 148.9 114.051 149.33 114.309C149.76 114.566 150.092 114.928 150.326 115.395C150.563 115.861 150.682 116.404 150.682 117.023C150.682 117.643 150.563 118.185 150.326 118.648C150.092 119.112 149.76 119.473 149.33 119.73C148.9 119.988 148.393 120.117 147.807 120.117ZM147.814 118.984C148.132 118.984 148.398 118.897 148.611 118.723C148.825 118.546 148.984 118.309 149.088 118.012C149.195 117.715 149.248 117.384 149.248 117.02C149.248 116.652 149.195 116.32 149.088 116.023C148.984 115.724 148.825 115.486 148.611 115.309C148.398 115.132 148.132 115.043 147.814 115.043C147.489 115.043 147.218 115.132 147.002 115.309C146.788 115.486 146.628 115.724 146.521 116.023C146.417 116.32 146.365 116.652 146.365 117.02C146.365 117.384 146.417 117.715 146.521 118.012C146.628 118.309 146.788 118.546 147.002 118.723C147.218 118.897 147.489 118.984 147.814 118.984ZM151.882 120V114H153.253V115H153.315C153.425 114.654 153.612 114.387 153.878 114.199C154.146 114.009 154.452 113.914 154.796 113.914C154.874 113.914 154.961 113.918 155.058 113.926C155.157 113.931 155.239 113.94 155.304 113.953V115.254C155.244 115.233 155.149 115.215 155.019 115.199C154.891 115.181 154.767 115.172 154.647 115.172C154.39 115.172 154.158 115.228 153.952 115.34C153.749 115.449 153.589 115.602 153.472 115.797C153.354 115.992 153.296 116.217 153.296 116.473V120H151.882ZM158.223 120.105C157.751 120.105 157.329 119.984 156.957 119.742C156.585 119.5 156.29 119.148 156.074 118.687C155.858 118.227 155.75 117.667 155.75 117.008C155.75 116.341 155.859 115.779 156.078 115.32C156.299 114.859 156.598 114.512 156.973 114.277C157.348 114.04 157.766 113.922 158.227 113.922C158.578 113.922 158.867 113.982 159.094 114.102C159.32 114.219 159.5 114.361 159.633 114.527C159.766 114.691 159.868 114.846 159.941 114.992H160V112H161.418V120H160.027V119.055H159.941C159.868 119.201 159.763 119.355 159.625 119.52C159.487 119.681 159.305 119.819 159.078 119.934C158.852 120.048 158.566 120.105 158.223 120.105ZM158.617 118.945C158.917 118.945 159.172 118.865 159.383 118.703C159.594 118.539 159.754 118.311 159.863 118.02C159.973 117.728 160.027 117.388 160.027 117C160.027 116.612 159.973 116.275 159.863 115.988C159.757 115.702 159.598 115.479 159.387 115.32C159.178 115.161 158.922 115.082 158.617 115.082C158.302 115.082 158.039 115.164 157.828 115.328C157.617 115.492 157.458 115.719 157.352 116.008C157.245 116.297 157.191 116.628 157.191 117C157.191 117.375 157.245 117.71 157.352 118.004C157.461 118.296 157.621 118.526 157.832 118.695C158.046 118.862 158.307 118.945 158.617 118.945ZM162.925 122.25V114H164.315V114.992H164.397C164.47 114.846 164.573 114.691 164.706 114.527C164.839 114.361 165.019 114.219 165.245 114.102C165.472 113.982 165.761 113.922 166.112 113.922C166.576 113.922 166.994 114.04 167.366 114.277C167.741 114.512 168.038 114.859 168.257 115.32C168.478 115.779 168.589 116.341 168.589 117.008C168.589 117.667 168.481 118.227 168.265 118.687C168.049 119.148 167.754 119.5 167.382 119.742C167.009 119.984 166.588 120.105 166.116 120.105C165.772 120.105 165.487 120.048 165.261 119.934C165.034 119.819 164.852 119.681 164.714 119.52C164.578 119.355 164.473 119.201 164.397 119.055H164.339V122.25H162.925ZM164.312 117C164.312 117.388 164.366 117.728 164.476 118.02C164.588 118.311 164.748 118.539 164.956 118.703C165.167 118.865 165.422 118.945 165.722 118.945C166.034 118.945 166.296 118.862 166.507 118.695C166.718 118.526 166.877 118.296 166.983 118.004C167.093 117.71 167.147 117.375 167.147 117C167.147 116.628 167.094 116.297 166.987 116.008C166.881 115.719 166.722 115.492 166.511 115.328C166.3 115.164 166.037 115.082 165.722 115.082C165.42 115.082 165.163 115.161 164.952 115.32C164.741 115.479 164.581 115.702 164.472 115.988C164.365 116.275 164.312 116.612 164.312 117ZM169.8 120V114H171.171V115H171.233C171.343 114.654 171.53 114.387 171.796 114.199C172.064 114.009 172.37 113.914 172.714 113.914C172.792 113.914 172.879 113.918 172.976 113.926C173.075 113.931 173.157 113.94 173.222 113.953V115.254C173.162 115.233 173.067 115.215 172.937 115.199C172.809 115.181 172.685 115.172 172.565 115.172C172.308 115.172 172.076 115.228 171.87 115.34C171.667 115.449 171.507 115.602 171.39 115.797C171.272 115.992 171.214 116.217 171.214 116.473V120H169.8ZM176.57 120.117C175.969 120.117 175.449 119.992 175.012 119.742C174.577 119.49 174.242 119.133 174.008 118.672C173.773 118.208 173.656 117.663 173.656 117.035C173.656 116.418 173.773 115.876 174.008 115.41C174.245 114.941 174.576 114.577 175 114.316C175.424 114.053 175.923 113.922 176.496 113.922C176.866 113.922 177.215 113.982 177.543 114.102C177.874 114.219 178.165 114.401 178.418 114.648C178.673 114.896 178.874 115.211 179.02 115.594C179.165 115.974 179.238 116.427 179.238 116.953V117.387H174.32V116.434H177.883C177.88 116.163 177.822 115.922 177.707 115.711C177.592 115.497 177.432 115.329 177.227 115.207C177.023 115.085 176.786 115.023 176.516 115.023C176.227 115.023 175.973 115.094 175.754 115.234C175.535 115.372 175.365 115.555 175.242 115.781C175.122 116.005 175.061 116.251 175.059 116.52V117.352C175.059 117.701 175.122 118 175.25 118.25C175.378 118.497 175.556 118.687 175.785 118.82C176.014 118.951 176.283 119.016 176.59 119.016C176.796 119.016 176.982 118.987 177.148 118.93C177.315 118.87 177.46 118.783 177.582 118.668C177.704 118.553 177.797 118.411 177.859 118.242L179.18 118.391C179.096 118.74 178.938 119.044 178.703 119.305C178.471 119.562 178.174 119.763 177.813 119.906C177.451 120.047 177.036 120.117 176.57 120.117ZM185.177 115.586L183.888 115.727C183.851 115.596 183.787 115.474 183.696 115.359C183.608 115.245 183.488 115.152 183.337 115.082C183.186 115.012 183.001 114.977 182.782 114.977C182.488 114.977 182.241 115.04 182.04 115.168C181.842 115.296 181.744 115.461 181.747 115.664C181.744 115.839 181.808 115.98 181.938 116.09C182.071 116.199 182.29 116.289 182.595 116.359L183.618 116.578C184.186 116.701 184.608 116.895 184.884 117.16C185.162 117.426 185.303 117.773 185.306 118.203C185.303 118.581 185.192 118.914 184.974 119.203C184.757 119.49 184.457 119.714 184.071 119.875C183.686 120.036 183.243 120.117 182.743 120.117C182.009 120.117 181.418 119.964 180.97 119.656C180.522 119.346 180.255 118.915 180.169 118.363L181.548 118.23C181.61 118.501 181.743 118.706 181.946 118.844C182.149 118.982 182.414 119.051 182.739 119.051C183.075 119.051 183.345 118.982 183.548 118.844C183.754 118.706 183.856 118.535 183.856 118.332C183.856 118.16 183.79 118.018 183.657 117.906C183.527 117.794 183.324 117.708 183.048 117.648L182.024 117.434C181.449 117.314 181.023 117.112 180.747 116.828C180.471 116.542 180.334 116.18 180.337 115.742C180.334 115.372 180.435 115.052 180.638 114.781C180.843 114.508 181.129 114.297 181.493 114.148C181.86 113.997 182.284 113.922 182.763 113.922C183.466 113.922 184.019 114.072 184.423 114.371C184.829 114.671 185.08 115.076 185.177 115.586ZM191.214 115.586L189.925 115.727C189.888 115.596 189.825 115.474 189.733 115.359C189.645 115.245 189.525 115.152 189.374 115.082C189.223 115.012 189.038 114.977 188.819 114.977C188.525 114.977 188.278 115.04 188.077 115.168C187.879 115.296 187.782 115.461 187.784 115.664C187.782 115.839 187.845 115.98 187.976 116.09C188.108 116.199 188.327 116.289 188.632 116.359L189.655 116.578C190.223 116.701 190.645 116.895 190.921 117.16C191.2 117.426 191.34 117.773 191.343 118.203C191.34 118.581 191.229 118.914 191.011 119.203C190.795 119.49 190.494 119.714 190.108 119.875C189.723 120.036 189.28 120.117 188.78 120.117C188.046 120.117 187.455 119.964 187.007 119.656C186.559 119.346 186.292 118.915 186.206 118.363L187.585 118.23C187.647 118.501 187.78 118.706 187.983 118.844C188.187 118.982 188.451 119.051 188.776 119.051C189.112 119.051 189.382 118.982 189.585 118.844C189.791 118.706 189.894 118.535 189.894 118.332C189.894 118.16 189.827 118.018 189.694 117.906C189.564 117.794 189.361 117.708 189.085 117.648L188.062 117.434C187.486 117.314 187.06 117.112 186.784 116.828C186.508 116.542 186.371 116.18 186.374 115.742C186.371 115.372 186.472 115.052 186.675 114.781C186.881 114.508 187.166 114.297 187.53 114.148C187.897 113.997 188.321 113.922 188.8 113.922C189.503 113.922 190.056 114.072 190.46 114.371C190.866 114.671 191.118 115.076 191.214 115.586Z" fill="#7B7B7B"/>
<path d="M30.7891 141V133H33.7891C34.4036 133 34.9193 133.107 35.3359 133.32C35.7552 133.534 36.0716 133.833 36.2852 134.219C36.5013 134.602 36.6094 135.048 36.6094 135.559C36.6094 136.072 36.5 136.517 36.2813 136.895C36.0651 137.27 35.7461 137.56 35.3242 137.766C34.9023 137.969 34.3841 138.07 33.7695 138.07H31.6328V136.867H33.5742C33.9336 136.867 34.2279 136.818 34.457 136.719C34.6862 136.617 34.8555 136.47 34.9648 136.277C35.0768 136.082 35.1328 135.842 35.1328 135.559C35.1328 135.275 35.0768 135.033 34.9648 134.832C34.8529 134.629 34.6823 134.475 34.4531 134.371C34.224 134.264 33.9284 134.211 33.5664 134.211H32.2383V141H30.7891ZM34.9219 137.375L36.9023 141H35.2852L33.3398 137.375H34.9219ZM40.4512 141.117C39.8496 141.117 39.3301 140.992 38.8926 140.742C38.4577 140.49 38.123 140.133 37.8887 139.672C37.6543 139.208 37.5371 138.663 37.5371 138.035C37.5371 137.418 37.6543 136.876 37.8887 136.41C38.1257 135.941 38.4564 135.577 38.8809 135.316C39.3053 135.053 39.804 134.922 40.377 134.922C40.7467 134.922 41.0957 134.982 41.4238 135.102C41.7546 135.219 42.0462 135.401 42.2988 135.648C42.554 135.896 42.7546 136.211 42.9004 136.594C43.0462 136.974 43.1191 137.427 43.1191 137.953V138.387H38.2012V137.434H41.7637C41.7611 137.163 41.7025 136.922 41.5879 136.711C41.4733 136.497 41.3132 136.329 41.1074 136.207C40.9043 136.085 40.6673 136.023 40.3965 136.023C40.1074 136.023 39.8535 136.094 39.6348 136.234C39.416 136.372 39.2454 136.555 39.123 136.781C39.0033 137.005 38.9421 137.251 38.9395 137.52V138.352C38.9395 138.701 39.0033 139 39.1309 139.25C39.2585 139.497 39.4368 139.687 39.666 139.82C39.8952 139.951 40.1634 140.016 40.4707 140.016C40.6764 140.016 40.8626 139.987 41.0293 139.93C41.196 139.87 41.3405 139.783 41.4629 139.668C41.5853 139.553 41.6777 139.411 41.7402 139.242L43.0605 139.391C42.9772 139.74 42.8184 140.044 42.584 140.305C42.3522 140.562 42.0553 140.763 41.6934 140.906C41.3314 141.047 40.9173 141.117 40.4512 141.117ZM46.042 141.121C45.6618 141.121 45.3193 141.053 45.0146 140.918C44.7126 140.78 44.473 140.577 44.2959 140.309C44.1214 140.04 44.0342 139.71 44.0342 139.316C44.0342 138.978 44.0967 138.698 44.2217 138.477C44.3467 138.255 44.5173 138.078 44.7334 137.945C44.9495 137.812 45.193 137.712 45.4639 137.645C45.7373 137.574 46.0199 137.523 46.3115 137.492C46.6631 137.456 46.9482 137.423 47.167 137.395C47.3857 137.363 47.5446 137.316 47.6436 137.254C47.7451 137.189 47.7959 137.089 47.7959 136.953V136.93C47.7959 136.635 47.7087 136.408 47.5342 136.246C47.3597 136.085 47.1084 136.004 46.7803 136.004C46.4339 136.004 46.1592 136.079 45.9561 136.23C45.7555 136.382 45.6201 136.56 45.5498 136.766L44.2295 136.578C44.3337 136.214 44.5055 135.909 44.7451 135.664C44.9847 135.417 45.2777 135.232 45.624 135.109C45.9704 134.984 46.3532 134.922 46.7725 134.922C47.0615 134.922 47.3493 134.956 47.6357 135.023C47.9222 135.091 48.1839 135.203 48.4209 135.359C48.6579 135.513 48.848 135.723 48.9912 135.988C49.137 136.254 49.21 136.586 49.21 136.984V141H47.8506V140.176H47.8037C47.7178 140.342 47.5967 140.499 47.4404 140.645C47.2868 140.788 47.0928 140.904 46.8584 140.992C46.6266 141.078 46.3545 141.121 46.042 141.121ZM46.4092 140.082C46.693 140.082 46.9391 140.026 47.1475 139.914C47.3558 139.799 47.516 139.648 47.6279 139.461C47.7425 139.273 47.7998 139.069 47.7998 138.848V138.141C47.7555 138.177 47.68 138.211 47.5732 138.242C47.4691 138.273 47.3519 138.301 47.2217 138.324C47.0915 138.348 46.9626 138.368 46.835 138.387C46.7074 138.405 46.5967 138.421 46.5029 138.434C46.292 138.462 46.1032 138.509 45.9365 138.574C45.7699 138.639 45.6383 138.73 45.542 138.848C45.4456 138.962 45.3975 139.111 45.3975 139.293C45.3975 139.553 45.4925 139.75 45.6826 139.883C45.8727 140.016 46.1149 140.082 46.4092 140.082ZM53.249 141.117C52.6501 141.117 52.1357 140.986 51.7061 140.723C51.279 140.46 50.9495 140.096 50.7178 139.633C50.4886 139.167 50.374 138.63 50.374 138.023C50.374 137.414 50.4912 136.876 50.7256 136.41C50.96 135.941 51.2907 135.577 51.7178 135.316C52.1475 135.053 52.6553 134.922 53.2412 134.922C53.7282 134.922 54.1592 135.012 54.5342 135.191C54.9118 135.368 55.2126 135.62 55.4365 135.945C55.6605 136.268 55.7881 136.646 55.8193 137.078H54.4678C54.4131 136.789 54.2829 136.548 54.0771 136.355C53.874 136.16 53.6019 136.062 53.2607 136.062C52.9717 136.062 52.7178 136.141 52.499 136.297C52.2803 136.451 52.1097 136.672 51.9873 136.961C51.8675 137.25 51.8076 137.596 51.8076 138C51.8076 138.409 51.8675 138.76 51.9873 139.055C52.1071 139.346 52.2751 139.572 52.4912 139.73C52.71 139.887 52.9665 139.965 53.2607 139.965C53.4691 139.965 53.6553 139.926 53.8193 139.848C53.986 139.767 54.1253 139.651 54.2373 139.5C54.3493 139.349 54.4261 139.165 54.4678 138.949H55.8193C55.7855 139.374 55.6605 139.75 55.4443 140.078C55.2282 140.404 54.9339 140.659 54.5615 140.844C54.1891 141.026 53.7516 141.117 53.249 141.117ZM59.9766 135V136.094H56.5273V135H59.9766ZM57.3789 133.562H58.793V139.195C58.793 139.385 58.8216 139.531 58.8789 139.633C58.9388 139.732 59.0169 139.799 59.1133 139.836C59.2096 139.872 59.3164 139.891 59.4336 139.891C59.5221 139.891 59.6029 139.884 59.6758 139.871C59.7513 139.858 59.8086 139.846 59.8477 139.836L60.0859 140.941C60.0104 140.967 59.9023 140.996 59.7617 141.027C59.6237 141.059 59.4544 141.077 59.2539 141.082C58.8997 141.092 58.5807 141.039 58.2969 140.922C58.013 140.802 57.7878 140.617 57.6211 140.367C57.457 140.117 57.3763 139.805 57.3789 139.43V133.562ZM66.2471 139.719V134.312H67.4736V139.719H66.2471ZM64.1572 137.629V136.402H69.5635V137.629H64.1572ZM75.1504 133L77.2324 139.297H77.3145L79.3926 133H80.9863L78.166 141H76.377L73.5605 133H75.1504ZM81.9775 141V135H83.3916V141H81.9775ZM82.6885 134.148C82.4645 134.148 82.2718 134.074 82.1104 133.926C81.9489 133.775 81.8682 133.594 81.8682 133.383C81.8682 133.169 81.9489 132.988 82.1104 132.84C82.2718 132.689 82.4645 132.613 82.6885 132.613C82.915 132.613 83.1077 132.689 83.2666 132.84C83.4281 132.988 83.5088 133.169 83.5088 133.383C83.5088 133.594 83.4281 133.775 83.2666 133.926C83.1077 134.074 82.915 134.148 82.6885 134.148ZM87.8418 135V136.094H84.3926V135H87.8418ZM85.2441 133.562H86.6582V139.195C86.6582 139.385 86.6868 139.531 86.7441 139.633C86.804 139.732 86.8822 139.799 86.9785 139.836C87.0749 139.872 87.1816 139.891 87.2988 139.891C87.3874 139.891 87.4681 139.884 87.541 139.871C87.6165 139.858 87.6738 139.846 87.7129 139.836L87.9512 140.941C87.8757 140.967 87.7676 140.996 87.627 141.027C87.4889 141.059 87.3197 141.077 87.1191 141.082C86.765 141.092 86.446 141.039 86.1621 140.922C85.8783 140.802 85.653 140.617 85.4863 140.367C85.3223 140.117 85.2415 139.805 85.2441 139.43V133.562ZM91.6162 141.117C91.0146 141.117 90.4951 140.992 90.0576 140.742C89.6227 140.49 89.2881 140.133 89.0537 139.672C88.8193 139.208 88.7021 138.663 88.7021 138.035C88.7021 137.418 88.8193 136.876 89.0537 136.41C89.2907 135.941 89.6214 135.577 90.0459 135.316C90.4704 135.053 90.9691 134.922 91.542 134.922C91.9118 134.922 92.2607 134.982 92.5889 135.102C92.9196 135.219 93.2113 135.401 93.4639 135.648C93.7191 135.896 93.9196 136.211 94.0654 136.594C94.2113 136.974 94.2842 137.427 94.2842 137.953V138.387H89.3662V137.434H92.9287C92.9261 137.163 92.8675 136.922 92.7529 136.711C92.6383 136.497 92.4782 136.329 92.2725 136.207C92.0693 136.085 91.8324 136.023 91.5615 136.023C91.2725 136.023 91.0186 136.094 90.7998 136.234C90.5811 136.372 90.4105 136.555 90.2881 136.781C90.1683 137.005 90.1071 137.251 90.1045 137.52V138.352C90.1045 138.701 90.1683 139 90.2959 139.25C90.4235 139.497 90.6019 139.687 90.8311 139.82C91.0602 139.951 91.3285 140.016 91.6357 140.016C91.8415 140.016 92.0277 139.987 92.1943 139.93C92.361 139.87 92.5055 139.783 92.6279 139.668C92.7503 139.553 92.8428 139.411 92.9053 139.242L94.2256 139.391C94.1423 139.74 93.9834 140.044 93.749 140.305C93.5173 140.562 93.2204 140.763 92.8584 140.906C92.4964 141.047 92.0824 141.117 91.6162 141.117Z" fill="#7B7B7B"/>
<path d="M134.789 141V133H137.789C138.404 133 138.919 133.107 139.336 133.32C139.755 133.534 140.072 133.833 140.285 134.219C140.501 134.602 140.609 135.048 140.609 135.559C140.609 136.072 140.5 136.517 140.281 136.895C140.065 137.27 139.746 137.56 139.324 137.766C138.902 137.969 138.384 138.07 137.77 138.07H135.633V136.867H137.574C137.934 136.867 138.228 136.818 138.457 136.719C138.686 136.617 138.855 136.47 138.965 136.277C139.077 136.082 139.133 135.842 139.133 135.559C139.133 135.275 139.077 135.033 138.965 134.832C138.853 134.629 138.682 134.475 138.453 134.371C138.224 134.264 137.928 134.211 137.566 134.211H136.238V141H134.789ZM138.922 137.375L140.902 141H139.285L137.34 137.375H138.922ZM144.451 141.117C143.85 141.117 143.33 140.992 142.893 140.742C142.458 140.49 142.123 140.133 141.889 139.672C141.654 139.208 141.537 138.663 141.537 138.035C141.537 137.418 141.654 136.876 141.889 136.41C142.126 135.941 142.456 135.577 142.881 135.316C143.305 135.053 143.804 134.922 144.377 134.922C144.747 134.922 145.096 134.982 145.424 135.102C145.755 135.219 146.046 135.401 146.299 135.648C146.554 135.896 146.755 136.211 146.9 136.594C147.046 136.974 147.119 137.427 147.119 137.953V138.387H142.201V137.434H145.764C145.761 137.163 145.702 136.922 145.588 136.711C145.473 136.497 145.313 136.329 145.107 136.207C144.904 136.085 144.667 136.023 144.396 136.023C144.107 136.023 143.854 136.094 143.635 136.234C143.416 136.372 143.245 136.555 143.123 136.781C143.003 137.005 142.942 137.251 142.939 137.52V138.352C142.939 138.701 143.003 139 143.131 139.25C143.258 139.497 143.437 139.687 143.666 139.82C143.895 139.951 144.163 140.016 144.471 140.016C144.676 140.016 144.863 139.987 145.029 139.93C145.196 139.87 145.34 139.783 145.463 139.668C145.585 139.553 145.678 139.411 145.74 139.242L147.061 139.391C146.977 139.74 146.818 140.044 146.584 140.305C146.352 140.562 146.055 140.763 145.693 140.906C145.331 141.047 144.917 141.117 144.451 141.117ZM153.058 136.586L151.769 136.727C151.732 136.596 151.668 136.474 151.577 136.359C151.489 136.245 151.369 136.152 151.218 136.082C151.067 136.012 150.882 135.977 150.663 135.977C150.369 135.977 150.121 136.04 149.921 136.168C149.723 136.296 149.625 136.461 149.628 136.664C149.625 136.839 149.689 136.98 149.819 137.09C149.952 137.199 150.171 137.289 150.476 137.359L151.499 137.578C152.067 137.701 152.489 137.895 152.765 138.16C153.043 138.426 153.184 138.773 153.187 139.203C153.184 139.581 153.073 139.914 152.854 140.203C152.638 140.49 152.338 140.714 151.952 140.875C151.567 141.036 151.124 141.117 150.624 141.117C149.89 141.117 149.299 140.964 148.851 140.656C148.403 140.346 148.136 139.915 148.05 139.363L149.429 139.23C149.491 139.501 149.624 139.706 149.827 139.844C150.03 139.982 150.295 140.051 150.62 140.051C150.956 140.051 151.226 139.982 151.429 139.844C151.634 139.706 151.737 139.535 151.737 139.332C151.737 139.16 151.671 139.018 151.538 138.906C151.408 138.794 151.205 138.708 150.929 138.648L149.905 138.434C149.33 138.314 148.904 138.112 148.628 137.828C148.352 137.542 148.215 137.18 148.218 136.742C148.215 136.372 148.315 136.052 148.519 135.781C148.724 135.508 149.009 135.297 149.374 135.148C149.741 134.997 150.164 134.922 150.644 134.922C151.347 134.922 151.9 135.072 152.304 135.371C152.71 135.671 152.961 136.076 153.058 136.586ZM154.353 143.25V135H155.743V135.992H155.825C155.898 135.846 156.001 135.691 156.134 135.527C156.267 135.361 156.446 135.219 156.673 135.102C156.899 134.982 157.188 134.922 157.54 134.922C158.004 134.922 158.422 135.04 158.794 135.277C159.169 135.512 159.466 135.859 159.685 136.32C159.906 136.779 160.017 137.341 160.017 138.008C160.017 138.667 159.909 139.227 159.692 139.687C159.476 140.148 159.182 140.5 158.81 140.742C158.437 140.984 158.015 141.105 157.544 141.105C157.2 141.105 156.915 141.048 156.688 140.934C156.462 140.819 156.28 140.681 156.142 140.52C156.006 140.355 155.901 140.201 155.825 140.055H155.767V143.25H154.353ZM155.739 138C155.739 138.388 155.794 138.728 155.903 139.02C156.015 139.311 156.175 139.539 156.384 139.703C156.595 139.865 156.85 139.945 157.149 139.945C157.462 139.945 157.724 139.862 157.935 139.695C158.146 139.526 158.304 139.296 158.411 139.004C158.521 138.71 158.575 138.375 158.575 138C158.575 137.628 158.522 137.297 158.415 137.008C158.308 136.719 158.149 136.492 157.938 136.328C157.728 136.164 157.465 136.082 157.149 136.082C156.847 136.082 156.591 136.161 156.38 136.32C156.169 136.479 156.009 136.702 155.899 136.988C155.793 137.275 155.739 137.612 155.739 138ZM163.845 141.117C163.259 141.117 162.751 140.988 162.321 140.73C161.892 140.473 161.558 140.112 161.321 139.648C161.087 139.185 160.97 138.643 160.97 138.023C160.97 137.404 161.087 136.861 161.321 136.395C161.558 135.928 161.892 135.566 162.321 135.309C162.751 135.051 163.259 134.922 163.845 134.922C164.431 134.922 164.938 135.051 165.368 135.309C165.798 135.566 166.13 135.928 166.364 136.395C166.601 136.861 166.72 137.404 166.72 138.023C166.72 138.643 166.601 139.185 166.364 139.648C166.13 140.112 165.798 140.473 165.368 140.73C164.938 140.988 164.431 141.117 163.845 141.117ZM163.853 139.984C164.17 139.984 164.436 139.897 164.649 139.723C164.863 139.546 165.022 139.309 165.126 139.012C165.233 138.715 165.286 138.384 165.286 138.02C165.286 137.652 165.233 137.32 165.126 137.023C165.022 136.724 164.863 136.486 164.649 136.309C164.436 136.132 164.17 136.043 163.853 136.043C163.527 136.043 163.256 136.132 163.04 136.309C162.826 136.486 162.666 136.724 162.56 137.023C162.455 137.32 162.403 137.652 162.403 138.02C162.403 138.384 162.455 138.715 162.56 139.012C162.666 139.309 162.826 139.546 163.04 139.723C163.256 139.897 163.527 139.984 163.853 139.984ZM169.334 137.484V141H167.92V135H169.271V136.02H169.342C169.48 135.684 169.7 135.417 170.002 135.219C170.307 135.021 170.683 134.922 171.131 134.922C171.545 134.922 171.906 135.01 172.213 135.187C172.523 135.365 172.762 135.621 172.932 135.957C173.104 136.293 173.188 136.701 173.186 137.18V141H171.771V137.398C171.771 136.997 171.667 136.684 171.459 136.457C171.253 136.23 170.968 136.117 170.604 136.117C170.356 136.117 170.136 136.172 169.943 136.281C169.753 136.388 169.604 136.543 169.494 136.746C169.387 136.949 169.334 137.195 169.334 137.484ZM179.365 136.586L178.076 136.727C178.04 136.596 177.976 136.474 177.885 136.359C177.796 136.245 177.676 136.152 177.525 136.082C177.374 136.012 177.189 135.977 176.971 135.977C176.676 135.977 176.429 136.04 176.229 136.168C176.031 136.296 175.933 136.461 175.936 136.664C175.933 136.839 175.997 136.98 176.127 137.09C176.26 137.199 176.479 137.289 176.783 137.359L177.807 137.578C178.374 137.701 178.796 137.895 179.072 138.16C179.351 138.426 179.492 138.773 179.494 139.203C179.492 139.581 179.381 139.914 179.162 140.203C178.946 140.49 178.645 140.714 178.26 140.875C177.874 141.036 177.432 141.117 176.932 141.117C176.197 141.117 175.606 140.964 175.158 140.656C174.71 140.346 174.443 139.915 174.357 139.363L175.736 139.23C175.799 139.501 175.932 139.706 176.135 139.844C176.338 139.982 176.602 140.051 176.928 140.051C177.264 140.051 177.533 139.982 177.736 139.844C177.942 139.706 178.045 139.535 178.045 139.332C178.045 139.16 177.979 139.018 177.846 138.906C177.715 138.794 177.512 138.708 177.236 138.648L176.213 138.434C175.637 138.314 175.212 138.112 174.936 137.828C174.66 137.542 174.523 137.18 174.525 136.742C174.523 136.372 174.623 136.052 174.826 135.781C175.032 135.508 175.317 135.297 175.682 135.148C176.049 134.997 176.472 134.922 176.951 134.922C177.654 134.922 178.208 135.072 178.611 135.371C179.018 135.671 179.269 136.076 179.365 136.586ZM180.66 141V135H182.074V141H180.66ZM181.371 134.148C181.147 134.148 180.954 134.074 180.793 133.926C180.632 133.775 180.551 133.594 180.551 133.383C180.551 133.169 180.632 132.988 180.793 132.84C180.954 132.689 181.147 132.613 181.371 132.613C181.598 132.613 181.79 132.689 181.949 132.84C182.111 132.988 182.191 133.169 182.191 133.383C182.191 133.594 182.111 133.775 181.949 133.926C181.79 134.074 181.598 134.148 181.371 134.148ZM188.888 135L186.751 141H185.188L183.052 135H184.56L185.938 139.457H186.001L187.384 135H188.888ZM192.318 141.117C191.717 141.117 191.197 140.992 190.76 140.742C190.325 140.49 189.99 140.133 189.756 139.672C189.521 139.208 189.404 138.663 189.404 138.035C189.404 137.418 189.521 136.876 189.756 136.41C189.993 135.941 190.324 135.577 190.748 135.316C191.173 135.053 191.671 134.922 192.244 134.922C192.614 134.922 192.963 134.982 193.291 135.102C193.622 135.219 193.913 135.401 194.166 135.648C194.421 135.896 194.622 136.211 194.768 136.594C194.913 136.974 194.986 137.427 194.986 137.953V138.387H190.068V137.434H193.631C193.628 137.163 193.57 136.922 193.455 136.711C193.34 136.497 193.18 136.329 192.975 136.207C192.771 136.085 192.535 136.023 192.264 136.023C191.975 136.023 191.721 136.094 191.502 136.234C191.283 136.372 191.113 136.555 190.99 136.781C190.87 137.005 190.809 137.251 190.807 137.52V138.352C190.807 138.701 190.87 139 190.998 139.25C191.126 139.497 191.304 139.687 191.533 139.82C191.762 139.951 192.031 140.016 192.338 140.016C192.544 140.016 192.73 139.987 192.896 139.93C193.063 139.87 193.208 139.783 193.33 139.668C193.452 139.553 193.545 139.411 193.607 139.242L194.928 139.391C194.844 139.74 194.686 140.044 194.451 140.305C194.219 140.562 193.923 140.763 193.561 140.906C193.199 141.047 192.785 141.117 192.318 141.117Z" fill="#7B7B7B"/>
<path d="M55.4446 42.8311C55.4446 42.5022 55.4446 42.2328 55.4446 41.9634V24.8338C55.4446 23.9218 54.9968 23.39 54.1011 23.2383C54.1011 22.9619 54.1011 22.6751 54.1011 22.3847C54.1011 22.0943 54.1011 21.8004 54.1011 21.496C53.6288 21.3001 53.1845 21.1111 52.6492 20.8872C55.4341 20.3204 58.0407 21.0132 58.0197 24.3369C57.9777 31.0614 58.0092 37.7859 58.0057 44.5104C58.0057 46.8791 56.8021 48.0756 54.423 48.0756C51.3092 48.0756 48.1953 48.0756 45.0815 48.0756H44.3013V52.9563C45.8722 52.9563 47.4011 52.9143 48.93 52.9773C49.4898 53.0018 50.0776 53.1942 50.5884 53.4426C51.2077 53.7435 51.5541 54.3208 51.5716 55.031C51.5891 55.7063 51.5751 56.3815 51.5751 57.1058H24.4147C24.4147 56.3186 24.3517 55.5523 24.4287 54.7966C24.5406 53.7505 25.6392 52.9703 26.9267 52.9598C28.4836 52.9458 30.0371 52.9563 31.65 52.9563V48.0756C31.3981 48.0756 31.1567 48.0756 30.9152 48.0756C27.7349 48.0756 24.5511 48.0756 21.3708 48.0756C19.2226 48.0756 17.9596 46.8161 17.9561 44.6784C17.9561 37.8454 17.9561 31.009 17.9561 24.169C17.9561 22.0033 19.2401 20.7298 21.4093 20.7263C24.838 20.7263 28.2702 20.7263 31.6989 20.7263C31.9194 20.7263 32.1398 20.7263 32.3952 20.7263V23.3223C32.1468 23.3223 31.8879 23.3223 31.6325 23.3223C28.2492 23.3223 24.8625 23.3223 21.4792 23.3223C20.5801 23.3223 20.5241 23.3818 20.5241 24.2915C20.5241 30.2497 20.5241 36.2045 20.5241 42.1628V42.8311H55.4481H55.4446Z" fill="#9C0000"/>
<path d="M45.9771 30.1028C45.3194 30.2392 44.875 30.0818 44.7211 29.3576C44.6826 29.1721 44.4167 29.0007 44.2208 28.8887C43.9689 28.7488 43.647 28.7243 43.4126 28.5634C43.0417 28.3149 42.7198 28.3219 42.3595 28.5494C41.9886 28.7873 41.6562 28.7733 41.3763 28.3744C41.2504 28.1925 41.072 28.042 40.897 27.8986C40.5716 27.6327 40.5157 27.3633 40.7151 26.9679C41.079 26.2367 40.4877 24.7568 39.732 24.4874C39.2981 24.3334 39.1232 24.0955 39.1862 23.6442C39.2176 23.4238 39.2142 23.1928 39.1862 22.9689C39.1372 22.5526 39.2456 22.2797 39.704 22.1992C40.1518 22.1222 40.3267 21.8004 40.4772 21.384C40.7151 20.7228 41.1734 20.1175 40.6136 19.3968C40.5542 19.3233 40.6591 19.0644 40.7536 18.9384C40.9145 18.725 41.1559 18.5676 41.3099 18.3506C41.6318 17.9028 41.9711 17.8923 42.4539 18.1232C42.7024 18.2422 43.1012 18.1897 43.3776 18.0777C43.8534 17.8853 44.3153 17.6264 44.7176 17.3115C44.938 17.1401 44.987 16.6118 45.1794 16.5733C45.6972 16.4683 46.2535 16.5313 46.7923 16.5593C46.8728 16.5628 46.9988 16.7447 47.0163 16.8567C47.1212 17.5529 47.618 17.7874 48.2093 17.9448C48.6187 18.0533 48.958 18.4731 49.4618 18.1687C49.6718 18.0428 50.0566 17.8888 50.1791 17.9833C50.6199 18.3227 50.9838 18.7635 51.3616 19.1763C51.3931 19.2113 51.3511 19.3548 51.3057 19.4177C50.6234 20.3379 51.4351 21.0551 51.645 21.8458C51.6765 21.9683 51.9144 22.0838 52.0754 22.1117C53.0165 22.2867 52.6876 23.0179 52.7681 23.5882C52.8521 24.169 52.5372 24.3579 52.0719 24.5398C51.8445 24.6273 51.5856 24.8932 51.5366 25.1206C51.4141 25.6804 50.7564 26.1038 51.1167 26.7965C51.2392 27.0309 51.3861 27.4333 51.2812 27.5767C50.9628 28.0036 50.5324 28.3464 50.1231 28.6963C50.0636 28.7453 49.8747 28.6578 49.7522 28.6123C48.7271 28.2345 47.5516 28.7593 47.0163 29.7144C46.8588 29.9943 46.3725 30.0888 46.0366 30.2672C46.0156 30.2077 45.9946 30.1483 45.9736 30.0923L45.9771 30.1028ZM45.9421 20.135C44.1788 20.149 42.7618 21.5625 42.7548 23.3153C42.7443 25.0612 44.2383 26.5516 45.9806 26.5446C47.737 26.5341 49.1924 25.0402 49.161 23.2803C49.1295 21.517 47.702 20.1245 45.9421 20.1385V20.135Z" fill="#9C0000"/>
<path d="M37.353 32.6219H33.8158C33.8053 32.391 33.7808 32.1775 33.7808 31.9606C33.7808 27.6082 33.7808 23.2524 33.7808 18.9C33.7808 17.7699 34.3161 17.2101 35.4042 17.1926C36.7267 17.1681 37.402 17.6789 37.4055 18.823C37.423 23.3328 37.4125 27.8462 37.4055 32.356C37.4055 32.419 37.3775 32.4854 37.346 32.6219H37.353Z" fill="#9C0000"/>
<path d="M30.5339 40.5359C28.3682 40.5359 26.2025 40.5359 24.0368 40.5359C23.8339 40.5359 23.5854 40.5954 23.4385 40.5009C23.2006 40.347 22.8787 40.0916 22.8752 39.8746C22.8717 39.6507 23.1761 39.3778 23.407 39.2099C23.5435 39.1119 23.7989 39.1679 24.0018 39.1679C28.3787 39.1679 32.7555 39.1679 37.1359 39.1679C37.3178 39.1679 37.5488 39.1049 37.6642 39.1959C37.9056 39.3778 38.238 39.6437 38.238 39.8746C38.238 40.0916 37.8916 40.4134 37.6362 40.5009C37.3109 40.6129 36.9225 40.5359 36.5621 40.5359C34.5539 40.5359 32.5456 40.5359 30.5374 40.5359H30.5339Z" fill="#9C0000"/>
<path d="M27.1786 31.0089C28.3297 31.0089 29.4808 31.0159 30.6318 31.0054C31.1042 31.0019 31.468 31.1559 31.468 31.6632C31.468 32.1565 31.1077 32.3629 30.6458 32.3664C28.2982 32.3734 25.9541 32.3734 23.6064 32.3664C23.1481 32.3664 22.7982 32.1565 22.8122 31.6457C22.8262 31.1139 23.2041 31.0054 23.6624 31.0089C24.8345 31.0159 26.01 31.0089 27.1821 31.0089H27.1786Z" fill="#9C0000"/>
<path d="M42.0236 36.7538C42.7373 37.3591 43.4021 37.9259 44.0703 38.4927C44.4377 38.8041 44.6616 39.1609 44.2872 39.5878C43.9094 40.0146 43.528 39.8187 43.1677 39.5143C42.3455 38.8146 41.5093 38.1253 40.6906 37.4186C40.1308 36.9358 40.1238 36.5859 40.6976 36.0926C41.5303 35.3683 42.3874 34.6721 43.2271 33.9584C43.5875 33.6505 43.9794 33.5735 44.3012 33.9374C44.6371 34.3187 44.4657 34.6861 44.1088 34.987C43.4231 35.5643 42.7408 36.1486 42.0236 36.7573V36.7538Z" fill="#9C0000"/>
<path d="M50.7318 36.7503C50.0461 36.173 49.3953 35.6272 48.7446 35.0744C48.3842 34.77 48.0273 34.4201 48.4367 33.9478C48.818 33.5105 49.2274 33.6924 49.6123 34.0248C50.4309 34.728 51.2706 35.4068 52.0858 36.117C52.6211 36.5823 52.6141 36.9427 52.0858 37.3975C51.2496 38.1148 50.3995 38.818 49.5598 39.5282C49.1959 39.8361 48.811 39.9971 48.4472 39.5667C48.0693 39.1224 48.3317 38.7865 48.6886 38.4856C49.3568 37.9223 50.0216 37.3556 50.7318 36.7538V36.7503Z" fill="#9C0000"/>
<path d="M27.1471 35.0884C25.996 35.0884 24.8449 35.0849 23.6939 35.0884C23.2075 35.0884 22.8157 34.945 22.8122 34.3957C22.8122 33.8254 23.2215 33.7239 23.7009 33.7274C25.982 33.7344 28.2597 33.7344 30.5408 33.7274C31.0236 33.7274 31.4505 33.8324 31.461 34.3747C31.475 34.9485 31.0446 35.0989 30.5303 35.0954C29.4002 35.0849 28.2737 35.0954 27.1436 35.0954L27.1471 35.0884Z" fill="#9C0000"/>
<path d="M27.217 28.2695C28.3436 28.2695 29.4737 28.2695 30.6003 28.2695C31.0726 28.2695 31.4959 28.3745 31.4819 28.9517C31.4714 29.515 31.0376 29.634 30.5793 29.634C28.3016 29.641 26.024 29.641 23.7463 29.634C23.2845 29.634 22.8437 29.5115 22.8262 28.9622C22.8087 28.35 23.274 28.266 23.7638 28.266C24.9149 28.266 26.0625 28.266 27.2135 28.266L27.217 28.2695Z" fill="#9C0000"/>
<path d="M27.2102 37.8104C26.0591 37.8104 24.908 37.8035 23.757 37.8104C23.2462 37.8139 22.8123 37.6775 22.8333 37.0967C22.8508 36.5579 23.2776 36.439 23.757 36.4425C26.0346 36.4495 28.3158 36.4495 30.5934 36.4425C31.0762 36.4425 31.4821 36.5719 31.4821 37.1282C31.4821 37.6845 31.0797 37.8139 30.5969 37.8104C29.4703 37.8035 28.3403 37.8104 27.2137 37.8104H27.2102Z" fill="#9C0000"/>
<path d="M27.1714 26.8735C26.0203 26.8735 24.8728 26.87 23.7217 26.8735C23.2704 26.8735 22.868 26.751 22.8435 26.2472C22.8155 25.7084 23.2214 25.509 23.6972 25.5055C26.0203 25.495 28.3435 25.495 30.6631 25.5055C31.1005 25.5055 31.4888 25.6664 31.4993 26.1877C31.5098 26.772 31.0865 26.8665 30.6211 26.8665C29.4701 26.8665 28.3225 26.8665 27.1714 26.8665V26.8735Z" fill="#9C0000"/>
<path d="M47.9678 33.4056C47.6389 34.6511 47.352 35.7602 47.0581 36.8658C46.7887 37.8839 46.5053 38.902 46.2394 39.9201C46.1205 40.382 45.914 40.7423 45.3647 40.6374C44.777 40.5219 44.7875 40.0531 44.8959 39.6262C45.4312 37.562 45.9875 35.5048 46.5508 33.4475C46.6593 33.0452 46.9217 32.7198 47.3765 32.8668C47.6179 32.9472 47.7928 33.2376 47.9678 33.4056Z" fill="#9C0000"/>
<path d="M35.5791 37.1212C34.9458 36.0191 34.393 35.0569 33.8018 34.0283H37.3529C36.7687 35.0499 36.2089 36.0261 35.5791 37.1212Z" fill="#9C0000"/>
</svg>
