<svg width="255" height="170" viewBox="0 0 255 170" fill="none" xmlns="http://www.w3.org/2000/svg">
<path d="M76.3019 163.396C76.0889 163.396 75.9741 163.396 75.8594 163.396C73.4792 163.396 71.099 163.396 68.7194 163.396C68.6238 163.396 68.5275 163.402 68.4325 163.394C68.1717 163.373 68.0148 163.23 68.0008 163.013C67.9868 162.787 68.1545 162.65 68.4012 162.608C68.4937 162.592 68.5919 162.601 68.6875 162.601C71.0779 162.601 73.469 162.601 75.8594 162.601H76.2929C75.7293 162.184 75.2307 161.813 74.7302 161.444C74.4279 161.221 74.1225 161.001 73.8216 160.777C73.5589 160.582 73.506 160.325 73.6845 160.14C73.8681 159.95 74.1123 159.952 74.3839 160.152C75.4959 160.971 76.6079 161.789 77.718 162.61C78.0961 162.89 78.0936 163.112 77.7129 163.393C76.6028 164.214 75.4908 165.032 74.3788 165.851C74.1098 166.048 73.8547 166.048 73.6775 165.859C73.513 165.684 73.5614 165.418 73.8024 165.239C74.6084 164.642 75.4175 164.048 76.3012 163.397L76.3019 163.396Z" fill="black"/>
<rect width="255" height="170" rx="24" fill="#E7E6E2"/>
<path d="M19.2912 93V79.9091H24.3026C25.2486 79.9091 26.0348 80.0582 26.6612 80.3565C27.2919 80.6506 27.7628 81.0533 28.0739 81.5646C28.3892 82.076 28.5469 82.6555 28.5469 83.3033C28.5469 83.8359 28.4446 84.2919 28.2401 84.6712C28.0355 85.0462 27.7607 85.3509 27.4155 85.5852C27.0703 85.8196 26.6847 85.9879 26.2585 86.0902V86.218C26.723 86.2436 27.1683 86.3864 27.5945 86.6463C28.0249 86.902 28.3764 87.2642 28.6491 87.733C28.9219 88.2017 29.0582 88.7685 29.0582 89.4332C29.0582 90.1108 28.8942 90.7202 28.5661 91.2614C28.2379 91.7983 27.7436 92.2223 27.0831 92.5334C26.4226 92.8445 25.5916 93 24.5902 93H19.2912ZM21.6626 91.0185H24.2131C25.0739 91.0185 25.6939 90.8544 26.0732 90.5263C26.4567 90.1939 26.6484 89.7678 26.6484 89.2479C26.6484 88.8601 26.5526 88.5107 26.3608 88.1996C26.169 87.8842 25.8963 87.6371 25.5426 87.4581C25.1889 87.2749 24.767 87.1832 24.277 87.1832H21.6626V91.0185ZM21.6626 85.4766H24.0085C24.4176 85.4766 24.7862 85.402 25.1143 85.2528C25.4425 85.0994 25.7003 84.8842 25.8878 84.6072C26.0795 84.326 26.1754 83.9936 26.1754 83.6101C26.1754 83.103 25.9964 82.6854 25.6385 82.3572C25.2848 82.0291 24.7585 81.8651 24.0597 81.8651H21.6626V85.4766ZM31.019 93V83.1818H33.2626V84.8182H33.3649C33.5439 84.2514 33.8507 83.8146 34.2853 83.5078C34.7243 83.1967 35.225 83.0412 35.7875 83.0412C35.9153 83.0412 36.0581 83.0476 36.2157 83.0604C36.3777 83.0689 36.5119 83.0838 36.6184 83.1051V85.2337C36.5204 85.1996 36.3649 85.1697 36.1518 85.1442C35.943 85.1143 35.7406 85.0994 35.5446 85.0994C35.1227 85.0994 34.7434 85.1911 34.4068 85.3743C34.0744 85.5533 33.8123 85.8026 33.6206 86.1222C33.4288 86.4418 33.3329 86.8104 33.3329 87.228V93H31.019ZM40.8052 93.1982C40.1831 93.1982 39.6227 93.0874 39.1241 92.8658C38.6298 92.6399 38.2377 92.3075 37.948 91.8686C37.6625 91.4297 37.5197 90.8885 37.5197 90.245C37.5197 89.6911 37.622 89.233 37.8265 88.8707C38.0311 88.5085 38.3102 88.2188 38.6639 88.0014C39.0176 87.7841 39.416 87.62 39.8592 87.5092C40.3066 87.3942 40.769 87.3111 41.2463 87.2599C41.8216 87.2003 42.2882 87.147 42.6461 87.1001C43.0041 87.049 43.264 86.9723 43.426 86.87C43.5922 86.7635 43.6752 86.5994 43.6752 86.3778V86.3395C43.6752 85.858 43.5325 85.4851 43.247 85.2209C42.9615 84.9567 42.5502 84.8246 42.0133 84.8246C41.4466 84.8246 40.997 84.9482 40.6646 85.1953C40.3365 85.4425 40.1149 85.7344 39.9998 86.071L37.8393 85.7642C38.0098 85.1676 38.291 84.669 38.6831 84.2685C39.0751 83.8636 39.5545 83.5611 40.1213 83.3608C40.688 83.1562 41.3145 83.054 42.0005 83.054C42.4735 83.054 42.9444 83.1094 43.4132 83.2202C43.8819 83.331 44.3102 83.5142 44.698 83.7699C45.0858 84.0213 45.3968 84.3643 45.6312 84.799C45.8699 85.2337 45.9892 85.777 45.9892 86.429V93H43.7647V91.6513H43.688C43.5474 91.924 43.3493 92.1797 43.0936 92.4183C42.8422 92.6527 42.5247 92.8423 42.1412 92.9872C41.7619 93.1278 41.3166 93.1982 40.8052 93.1982ZM41.4061 91.4979C41.8706 91.4979 42.2733 91.4062 42.6142 91.223C42.9551 91.0355 43.2172 90.7884 43.4004 90.4815C43.5879 90.1747 43.6816 89.8402 43.6816 89.478V88.321C43.6092 88.3807 43.4856 88.4361 43.3109 88.4872C43.1404 88.5384 42.9487 88.5831 42.7356 88.6214C42.5225 88.6598 42.3116 88.6939 42.1028 88.7237C41.894 88.7536 41.7129 88.7791 41.5595 88.8004C41.2143 88.8473 40.9054 88.924 40.6326 89.0305C40.3599 89.1371 40.1447 89.2862 39.987 89.478C39.8294 89.6655 39.7505 89.9084 39.7505 90.2067C39.7505 90.6328 39.9061 90.9545 40.2172 91.1719C40.5282 91.3892 40.9245 91.4979 41.4061 91.4979ZM50.6298 87.2472V93H48.3159V83.1818H50.5275V84.8501H50.6426C50.8684 84.3004 51.2285 83.8636 51.7228 83.5398C52.2214 83.2159 52.8372 83.054 53.5701 83.054C54.2477 83.054 54.8379 83.1989 55.3407 83.4886C55.8478 83.7784 56.2399 84.1982 56.5169 84.7479C56.7981 85.2976 56.9366 85.9645 56.9324 86.7486V93H54.6184V87.1065C54.6184 86.4503 54.448 85.9368 54.1071 85.5661C53.7704 85.1953 53.3038 85.0099 52.7072 85.0099C52.3024 85.0099 51.9423 85.0994 51.627 85.2784C51.3159 85.4531 51.0708 85.7067 50.8919 86.0391C50.7172 86.3714 50.6298 86.7741 50.6298 87.2472ZM62.9281 93.1726C62.1568 93.1726 61.4664 92.9744 60.8571 92.5781C60.2477 92.1818 59.7662 91.6065 59.4125 90.8523C59.0588 90.098 58.8819 89.1818 58.8819 88.1037C58.8819 87.0128 59.0609 86.0923 59.4189 85.3423C59.7811 84.5881 60.269 84.0192 60.8826 83.6357C61.4963 83.2479 62.1802 83.054 62.9345 83.054C63.5098 83.054 63.9828 83.152 64.3535 83.348C64.7243 83.5398 65.0183 83.772 65.2356 84.0447C65.4529 84.3132 65.6213 84.5668 65.7406 84.8054H65.8365V79.9091H68.1568V93H65.8812V91.4531H65.7406C65.6213 91.6918 65.4487 91.9453 65.2228 92.2138C64.997 92.478 64.6987 92.7038 64.3279 92.8913C63.9572 93.0788 63.4906 93.1726 62.9281 93.1726ZM63.5737 91.2741C64.0637 91.2741 64.4814 91.142 64.8265 90.8778C65.1717 90.6094 65.4338 90.2365 65.6127 89.7592C65.7917 89.282 65.8812 88.7259 65.8812 88.0909C65.8812 87.456 65.7917 86.9041 65.6127 86.4354C65.438 85.9666 65.1781 85.6023 64.8329 85.3423C64.492 85.0824 64.0723 84.9524 63.5737 84.9524C63.0581 84.9524 62.6277 85.0866 62.2825 85.3551C61.9373 85.6236 61.6774 85.9943 61.5027 86.4673C61.3279 86.9403 61.2406 87.4815 61.2406 88.0909C61.2406 88.7045 61.3279 89.2521 61.5027 89.7337C61.6816 90.2109 61.9437 90.5881 62.2889 90.8651C62.6383 91.1378 63.0666 91.2741 63.5737 91.2741ZM70.6225 93V83.1818H72.9364V93H70.6225ZM71.7859 81.7884C71.4194 81.7884 71.104 81.6669 70.8398 81.424C70.5756 81.1768 70.4435 80.8807 70.4435 80.5355C70.4435 80.1861 70.5756 79.8899 70.8398 79.647C71.104 79.3999 71.4194 79.2763 71.7859 79.2763C72.1566 79.2763 72.4719 79.3999 72.7319 79.647C72.9961 79.8899 73.1282 80.1861 73.1282 80.5355C73.1282 80.8807 72.9961 81.1768 72.7319 81.424C72.4719 81.6669 72.1566 81.7884 71.7859 81.7884ZM77.6298 87.2472V93H75.3159V83.1818H77.5275V84.8501H77.6426C77.8684 84.3004 78.2285 83.8636 78.7228 83.5398C79.2214 83.2159 79.8372 83.054 80.5701 83.054C81.2477 83.054 81.8379 83.1989 82.3407 83.4886C82.8478 83.7784 83.2399 84.1982 83.5169 84.7479C83.7981 85.2976 83.9366 85.9645 83.9324 86.7486V93H81.6184V87.1065C81.6184 86.4503 81.448 85.9368 81.1071 85.5661C80.7704 85.1953 80.3038 85.0099 79.7072 85.0099C79.3024 85.0099 78.9423 85.0994 78.627 85.2784C78.3159 85.4531 78.0708 85.7067 77.8919 86.0391C77.7172 86.3714 77.6298 86.7741 77.6298 87.2472ZM90.5545 96.8864C89.7235 96.8864 89.0098 96.7734 88.4132 96.5476C87.8166 96.326 87.3372 96.0277 86.975 95.6527C86.6127 95.2777 86.3613 94.8622 86.2207 94.4062L88.3045 93.9013C88.3983 94.093 88.5346 94.2827 88.7136 94.4702C88.8926 94.6619 89.1333 94.8196 89.4359 94.9432C89.7427 95.071 90.1284 95.1349 90.5929 95.1349C91.2491 95.1349 91.7924 94.9751 92.2228 94.6555C92.6532 94.3402 92.8684 93.8203 92.8684 93.0959V91.2358H92.7534C92.6341 91.4744 92.4593 91.7195 92.2292 91.9709C92.0034 92.2223 91.7029 92.4332 91.3279 92.6037C90.9572 92.7741 90.4906 92.8594 89.9281 92.8594C89.1738 92.8594 88.4899 92.6825 87.8762 92.3288C87.2669 91.9709 86.7811 91.4382 86.4189 90.7308C86.0609 90.0192 85.8819 89.1286 85.8819 88.0589C85.8819 86.9808 86.0609 86.071 86.4189 85.3295C86.7811 84.5838 87.269 84.0192 87.8826 83.6357C88.4963 83.2479 89.1802 83.054 89.9345 83.054C90.5098 83.054 90.9828 83.152 91.3535 83.348C91.7285 83.5398 92.0268 83.772 92.2484 84.0447C92.47 84.3132 92.6383 84.5668 92.7534 84.8054H92.8812V83.1818H95.1632V93.1598C95.1632 93.9993 94.9629 94.6939 94.5623 95.2436C94.1618 95.7933 93.6142 96.2045 92.9196 96.4773C92.225 96.75 91.4366 96.8864 90.5545 96.8864ZM90.5737 91.044C91.0637 91.044 91.4814 90.9247 91.8265 90.6861C92.1717 90.4474 92.4338 90.1044 92.6127 89.657C92.7917 89.2095 92.8812 88.6726 92.8812 88.0462C92.8812 87.4283 92.7917 86.8871 92.6127 86.4226C92.438 85.9581 92.1781 85.598 91.8329 85.3423C91.492 85.0824 91.0723 84.9524 90.5737 84.9524C90.0581 84.9524 89.6277 85.0866 89.2825 85.3551C88.9373 85.6236 88.6774 85.9922 88.5027 86.4609C88.3279 86.9254 88.2406 87.4538 88.2406 88.0462C88.2406 88.647 88.3279 89.1733 88.5027 89.625C88.6816 90.0724 88.9437 90.4219 89.2889 90.6733C89.6383 90.9205 90.0666 91.044 90.5737 91.044ZM105.911 93.1918C105.017 93.1918 104.247 93.0298 103.604 92.706C102.96 92.3821 102.464 91.9453 102.115 91.3956C101.769 90.8416 101.597 90.2173 101.597 89.5227C101.597 88.9986 101.703 88.5341 101.916 88.1293C102.134 87.7244 102.432 87.3494 102.811 87.0043C103.195 86.6591 103.638 86.3161 104.141 85.9751L106.461 84.3963C106.802 84.1747 107.06 83.9403 107.235 83.6932C107.414 83.446 107.503 83.1562 107.503 82.8239C107.503 82.5426 107.384 82.2763 107.145 82.0249C106.911 81.7734 106.587 81.6477 106.173 81.6477C105.896 81.6477 105.651 81.7138 105.438 81.8459C105.23 81.9737 105.066 82.142 104.946 82.3509C104.831 82.5597 104.774 82.7812 104.774 83.0156C104.774 83.3011 104.852 83.5909 105.01 83.8849C105.172 84.179 105.381 84.4837 105.637 84.799C105.896 85.1143 106.173 85.4489 106.468 85.8026L112.61 93H110.105L105.004 87.1577C104.624 86.7145 104.258 86.2777 103.904 85.8473C103.555 85.4169 103.267 84.9695 103.041 84.505C102.82 84.0362 102.709 83.5291 102.709 82.9837C102.709 82.3658 102.852 81.8139 103.137 81.3281C103.423 80.8381 103.821 80.4524 104.333 80.1712C104.848 79.8899 105.451 79.7493 106.142 79.7493C106.832 79.7493 107.424 79.8857 107.919 80.1584C108.413 80.4311 108.794 80.7933 109.063 81.245C109.331 81.6967 109.465 82.1889 109.465 82.7216C109.465 83.3395 109.312 83.8935 109.005 84.3835C108.698 84.8693 108.272 85.3104 107.727 85.7067L105.08 87.6435C104.646 87.9588 104.335 88.2784 104.147 88.6023C103.96 88.9219 103.866 89.1946 103.866 89.4205C103.866 89.7656 103.953 90.0788 104.128 90.3601C104.303 90.6413 104.548 90.8672 104.863 91.0376C105.183 91.2038 105.556 91.2869 105.982 91.2869C106.45 91.2869 106.913 91.1825 107.369 90.9737C107.825 90.7607 108.24 90.4581 108.615 90.0661C108.99 89.674 109.289 89.2053 109.51 88.6598C109.732 88.1101 109.843 87.5007 109.843 86.8317H111.83C111.83 87.6584 111.739 88.3786 111.556 88.9922C111.372 89.6016 111.136 90.1172 110.846 90.5391C110.556 90.9567 110.249 91.2912 109.926 91.5426C109.823 91.6151 109.725 91.6875 109.632 91.7599C109.538 91.8324 109.44 91.9048 109.338 91.9773C108.877 92.3949 108.338 92.7017 107.72 92.8977C107.107 93.0938 106.504 93.1918 105.911 93.1918ZM118.502 79.9091H121.404L125.29 89.3949H125.444L129.33 79.9091H132.232V93H129.957V84.0064H129.835L126.217 92.9616H124.517L120.899 83.9872H120.778V93H118.502V79.9091ZM139.059 93.1918C138.075 93.1918 137.224 92.9872 136.509 92.5781C135.797 92.1648 135.249 91.581 134.866 90.8267C134.482 90.0682 134.29 89.1754 134.29 88.1484C134.29 87.1385 134.482 86.2521 134.866 85.4893C135.254 84.7223 135.795 84.1257 136.489 83.6996C137.184 83.2692 138 83.054 138.938 83.054C139.543 83.054 140.114 83.152 140.651 83.348C141.192 83.5398 141.669 83.8381 142.082 84.2429C142.5 84.6477 142.828 85.1634 143.067 85.7898C143.305 86.4119 143.425 87.1534 143.425 88.0142V88.7237H135.377V87.1641H141.207C141.202 86.7209 141.107 86.3267 140.919 85.9815C140.732 85.6321 140.469 85.3572 140.133 85.157C139.8 84.9567 139.413 84.8565 138.969 84.8565C138.496 84.8565 138.081 84.9716 137.723 85.2017C137.365 85.4276 137.086 85.7259 136.886 86.0966C136.69 86.4631 136.589 86.8658 136.585 87.3047V88.6662C136.585 89.2372 136.69 89.7273 136.898 90.1364C137.107 90.5412 137.399 90.8523 137.774 91.0696C138.149 91.2827 138.588 91.3892 139.091 91.3892C139.428 91.3892 139.732 91.3423 140.005 91.2486C140.278 91.1506 140.514 91.0078 140.714 90.8203C140.915 90.6328 141.066 90.4006 141.168 90.1236L143.329 90.3665C143.192 90.9375 142.933 91.4361 142.549 91.8622C142.17 92.2841 141.684 92.6122 141.092 92.8466C140.499 93.0767 139.822 93.1918 139.059 93.1918ZM145.382 93V83.1818H147.626V84.8182H147.728C147.907 84.2514 148.214 83.8146 148.649 83.5078C149.088 83.1967 149.588 83.0412 150.151 83.0412C150.279 83.0412 150.421 83.0476 150.579 83.0604C150.741 83.0689 150.875 83.0838 150.982 83.1051V85.2337C150.884 85.1996 150.728 85.1697 150.515 85.1442C150.306 85.1143 150.104 85.0994 149.908 85.0994C149.486 85.0994 149.107 85.1911 148.77 85.3743C148.438 85.5533 148.176 85.8026 147.984 86.1222C147.792 86.4418 147.696 86.8104 147.696 87.228V93H145.382ZM156.397 93.1918C155.417 93.1918 154.576 92.9766 153.873 92.5462C153.174 92.1158 152.635 91.5213 152.255 90.7628C151.88 90 151.693 89.1222 151.693 88.1293C151.693 87.1321 151.885 86.2521 152.268 85.4893C152.652 84.7223 153.193 84.1257 153.892 83.6996C154.595 83.2692 155.426 83.054 156.385 83.054C157.181 83.054 157.887 83.201 158.5 83.495C159.118 83.7848 159.61 84.196 159.977 84.7287C160.343 85.2571 160.552 85.875 160.603 86.5824H158.392C158.302 86.1094 158.089 85.7152 157.752 85.3999C157.42 85.0803 156.975 84.9205 156.417 84.9205C155.944 84.9205 155.528 85.0483 155.17 85.304C154.812 85.5554 154.533 85.9176 154.333 86.3906C154.137 86.8636 154.039 87.4304 154.039 88.0909C154.039 88.7599 154.137 89.3352 154.333 89.8168C154.529 90.294 154.804 90.6626 155.157 90.9226C155.515 91.1783 155.935 91.3061 156.417 91.3061C156.757 91.3061 157.062 91.2422 157.331 91.1143C157.603 90.9822 157.831 90.7926 158.015 90.5455C158.198 90.2983 158.324 89.9979 158.392 89.6442H160.603C160.548 90.3388 160.343 90.9545 159.99 91.4915C159.636 92.0241 159.154 92.4418 158.545 92.7443C157.936 93.0426 157.22 93.1918 156.397 93.1918ZM164.817 87.2472V93H162.503V79.9091H164.766V84.8501H164.881C165.111 84.2962 165.467 83.8594 165.949 83.5398C166.434 83.2159 167.052 83.054 167.802 83.054C168.484 83.054 169.079 83.1967 169.586 83.4822C170.093 83.7678 170.485 84.1854 170.762 84.7351C171.043 85.2848 171.184 85.956 171.184 86.7486V93H168.87V87.1065C168.87 86.446 168.699 85.9325 168.358 85.5661C168.022 85.1953 167.549 85.0099 166.939 85.0099C166.53 85.0099 166.164 85.0994 165.84 85.2784C165.52 85.4531 165.269 85.7067 165.086 86.0391C164.907 86.3714 164.817 86.7741 164.817 87.2472Z" fill="black"/>
<path d="M21.5032 133.001C22.2866 133.001 23.07 132.998 23.8534 133.002C24.4062 133.004 24.8279 133.329 24.96 133.851C24.984 133.947 24.998 134.048 24.998 134.147C25.0005 135.715 25.0005 137.283 24.999 138.852C24.9985 139.392 24.6738 139.819 24.1611 139.957C24.062 139.983 23.9569 139.998 23.8544 139.998C22.2876 140 20.7208 140 19.1535 139.999C18.4947 139.999 18.0019 139.508 18.0009 138.846C17.9994 137.286 17.9999 135.726 18.0009 134.167C18.0014 133.484 18.4802 133.004 19.165 133.001C19.9444 132.998 20.7238 133.001 21.5027 133.001H21.5032ZM21.0115 137.236C20.9804 137.209 20.9614 137.194 20.9444 137.177C20.6378 136.871 20.3316 136.563 20.024 136.258C19.8854 136.121 19.6858 136.098 19.5342 136.197C19.3136 136.341 19.2856 136.614 19.4777 136.808C19.8769 137.211 20.2786 137.611 20.6793 138.012C20.9009 138.234 21.1005 138.231 21.3236 138.005C21.5377 137.789 21.7533 137.574 21.9684 137.359C22.4842 136.843 23.0005 136.327 23.5157 135.811C23.6223 135.704 23.6783 135.577 23.6418 135.426C23.5663 135.112 23.2201 135.022 22.9815 135.258C22.4747 135.76 21.9724 136.266 21.4692 136.771C21.3166 136.923 21.1665 137.078 21.011 137.237L21.0115 137.236Z" fill="#9C0000"/>
<path d="M21.5032 112.001C22.2866 112.001 23.07 111.998 23.8534 112.002C24.4062 112.004 24.8279 112.329 24.96 112.851C24.984 112.947 24.998 113.048 24.998 113.147C25.0005 114.715 25.0005 116.283 24.999 117.852C24.9985 118.392 24.6738 118.819 24.1611 118.957C24.062 118.983 23.9569 118.998 23.8544 118.998C22.2876 119 20.7208 119 19.1535 118.999C18.4947 118.999 18.0019 118.508 18.0009 117.846C17.9994 116.286 17.9999 114.726 18.0009 113.167C18.0014 112.484 18.4802 112.004 19.165 112.001C19.9444 111.998 20.7238 112.001 21.5027 112.001H21.5032ZM21.0115 116.236C20.9804 116.209 20.9614 116.194 20.9444 116.177C20.6378 115.871 20.3316 115.563 20.024 115.258C19.8854 115.121 19.6858 115.098 19.5342 115.197C19.3136 115.341 19.2856 115.614 19.4777 115.808C19.8769 116.211 20.2786 116.611 20.6793 117.012C20.9009 117.234 21.1005 117.231 21.3236 117.005C21.5377 116.789 21.7533 116.574 21.9684 116.359C22.4842 115.843 23.0005 115.327 23.5157 114.811C23.6223 114.704 23.6783 114.577 23.6418 114.426C23.5663 114.112 23.2201 114.022 22.9815 114.258C22.4747 114.76 21.9724 115.266 21.4692 115.771C21.3166 115.923 21.1665 116.078 21.011 116.237L21.0115 116.236Z" fill="#9C0000"/>
<path d="M125.503 133.001C126.287 133.001 127.07 132.998 127.853 133.002C128.406 133.004 128.828 133.329 128.96 133.851C128.984 133.947 128.998 134.048 128.998 134.147C129 135.715 129 137.283 128.999 138.852C128.998 139.392 128.674 139.819 128.161 139.957C128.062 139.983 127.957 139.998 127.854 139.998C126.288 140 124.721 140 123.154 139.999C122.495 139.999 122.002 139.508 122.001 138.846C121.999 137.286 122 135.726 122.001 134.167C122.001 133.484 122.48 133.004 123.165 133.001C123.944 132.998 124.724 133.001 125.503 133.001H125.503ZM125.011 137.236C124.98 137.209 124.961 137.194 124.944 137.177C124.638 136.871 124.332 136.563 124.024 136.258C123.885 136.121 123.686 136.098 123.534 136.197C123.314 136.341 123.286 136.614 123.478 136.808C123.877 137.211 124.279 137.611 124.679 138.012C124.901 138.234 125.101 138.231 125.324 138.005C125.538 137.789 125.753 137.574 125.968 137.359C126.484 136.843 127 136.327 127.516 135.811C127.622 135.704 127.678 135.577 127.642 135.426C127.566 135.112 127.22 135.022 126.981 135.258C126.475 135.76 125.972 136.266 125.469 136.771C125.317 136.923 125.167 137.078 125.011 137.237L125.011 137.236Z" fill="#9C0000"/>
<path d="M125.503 112.001C126.287 112.001 127.07 111.998 127.853 112.002C128.406 112.004 128.828 112.329 128.96 112.851C128.984 112.947 128.998 113.048 128.998 113.147C129 114.715 129 116.283 128.999 117.852C128.998 118.392 128.674 118.819 128.161 118.957C128.062 118.983 127.957 118.998 127.854 118.998C126.288 119 124.721 119 123.154 118.999C122.495 118.999 122.002 118.508 122.001 117.846C121.999 116.286 122 114.726 122.001 113.167C122.001 112.484 122.48 112.004 123.165 112.001C123.944 111.998 124.724 112.001 125.503 112.001H125.503ZM125.011 116.236C124.98 116.209 124.961 116.194 124.944 116.177C124.638 115.871 124.332 115.563 124.024 115.258C123.885 115.121 123.686 115.098 123.534 115.197C123.314 115.341 123.286 115.614 123.478 115.808C123.877 116.211 124.279 116.611 124.679 117.012C124.901 117.234 125.101 117.231 125.324 117.005C125.538 116.789 125.753 116.574 125.968 116.359C126.484 115.843 127 115.327 127.516 114.811C127.622 114.704 127.678 114.577 127.642 114.426C127.566 114.112 127.22 114.022 126.981 114.258C126.475 114.76 125.972 115.266 125.469 115.771C125.317 115.923 125.167 116.078 125.011 116.237L125.011 116.236Z" fill="#9C0000"/>
<path d="M31.7891 119V111H33.2383V117.785H36.7617V119H31.7891ZM40.5742 119.117C39.9883 119.117 39.4805 118.988 39.0508 118.73C38.6211 118.473 38.2878 118.112 38.0508 117.648C37.8164 117.185 37.6992 116.643 37.6992 116.023C37.6992 115.404 37.8164 114.861 38.0508 114.395C38.2878 113.928 38.6211 113.566 39.0508 113.309C39.4805 113.051 39.9883 112.922 40.5742 112.922C41.1602 112.922 41.668 113.051 42.0977 113.309C42.5273 113.566 42.8594 113.928 43.0937 114.395C43.3307 114.861 43.4492 115.404 43.4492 116.023C43.4492 116.643 43.3307 117.185 43.0937 117.648C42.8594 118.112 42.5273 118.473 42.0977 118.73C41.668 118.988 41.1602 119.117 40.5742 119.117ZM40.582 117.984C40.8997 117.984 41.1654 117.897 41.3789 117.723C41.5924 117.546 41.7513 117.309 41.8555 117.012C41.9622 116.715 42.0156 116.384 42.0156 116.02C42.0156 115.652 41.9622 115.32 41.8555 115.023C41.7513 114.724 41.5924 114.486 41.3789 114.309C41.1654 114.132 40.8997 114.043 40.582 114.043C40.2565 114.043 39.9857 114.132 39.7695 114.309C39.556 114.486 39.3958 114.724 39.2891 115.023C39.1849 115.32 39.1328 115.652 39.1328 116.02C39.1328 116.384 39.1849 116.715 39.2891 117.012C39.3958 117.309 39.556 117.546 39.7695 117.723C39.9857 117.897 40.2565 117.984 40.582 117.984ZM47.2588 121.375C46.751 121.375 46.3148 121.306 45.9502 121.168C45.5856 121.033 45.2926 120.85 45.0713 120.621C44.8499 120.392 44.6963 120.138 44.6104 119.859L45.8838 119.551C45.9411 119.668 46.0244 119.784 46.1338 119.898C46.2432 120.016 46.3903 120.112 46.5752 120.188C46.7627 120.266 46.9984 120.305 47.2822 120.305C47.6833 120.305 48.0153 120.207 48.2783 120.012C48.5413 119.819 48.6729 119.501 48.6729 119.059V117.922H48.6025C48.5296 118.068 48.4229 118.217 48.2822 118.371C48.1442 118.525 47.9606 118.654 47.7314 118.758C47.5049 118.862 47.2197 118.914 46.876 118.914C46.415 118.914 45.9971 118.806 45.6221 118.59C45.2497 118.371 44.9528 118.046 44.7314 117.613C44.5127 117.178 44.4033 116.634 44.4033 115.98C44.4033 115.322 44.5127 114.766 44.7314 114.312C44.9528 113.857 45.251 113.512 45.626 113.277C46.001 113.04 46.4189 112.922 46.8799 112.922C47.2314 112.922 47.5205 112.982 47.7471 113.102C47.9762 113.219 48.1585 113.361 48.2939 113.527C48.4294 113.691 48.5322 113.846 48.6025 113.992H48.6807V113H50.0752V119.098C50.0752 119.611 49.9528 120.035 49.708 120.371C49.4632 120.707 49.1286 120.958 48.7041 121.125C48.2796 121.292 47.7979 121.375 47.2588 121.375ZM47.2705 117.805C47.57 117.805 47.8252 117.732 48.0361 117.586C48.2471 117.44 48.4072 117.23 48.5166 116.957C48.626 116.684 48.6807 116.355 48.6807 115.973C48.6807 115.595 48.626 115.264 48.5166 114.98C48.4098 114.697 48.251 114.477 48.04 114.32C47.8317 114.161 47.5752 114.082 47.2705 114.082C46.9554 114.082 46.6924 114.164 46.4814 114.328C46.2705 114.492 46.1117 114.717 46.0049 115.004C45.8981 115.288 45.8447 115.611 45.8447 115.973C45.8447 116.34 45.8981 116.661 46.0049 116.938C46.1143 117.211 46.2744 117.424 46.4854 117.578C46.6989 117.729 46.9606 117.805 47.2705 117.805ZM54.1416 119.117C53.5557 119.117 53.0479 118.988 52.6182 118.73C52.1885 118.473 51.8551 118.112 51.6182 117.648C51.3838 117.185 51.2666 116.643 51.2666 116.023C51.2666 115.404 51.3838 114.861 51.6182 114.395C51.8551 113.928 52.1885 113.566 52.6182 113.309C53.0479 113.051 53.5557 112.922 54.1416 112.922C54.7275 112.922 55.2354 113.051 55.665 113.309C56.0947 113.566 56.4268 113.928 56.6611 114.395C56.8981 114.861 57.0166 115.404 57.0166 116.023C57.0166 116.643 56.8981 117.185 56.6611 117.648C56.4268 118.112 56.0947 118.473 55.665 118.73C55.2354 118.988 54.7275 119.117 54.1416 119.117ZM54.1494 117.984C54.4671 117.984 54.7327 117.897 54.9463 117.723C55.1598 117.546 55.3187 117.309 55.4229 117.012C55.5296 116.715 55.583 116.384 55.583 116.02C55.583 115.652 55.5296 115.32 55.4229 115.023C55.3187 114.724 55.1598 114.486 54.9463 114.309C54.7327 114.132 54.4671 114.043 54.1494 114.043C53.8239 114.043 53.5531 114.132 53.3369 114.309C53.1234 114.486 52.9632 114.724 52.8564 115.023C52.7523 115.32 52.7002 115.652 52.7002 116.02C52.7002 116.384 52.7523 116.715 52.8564 117.012C52.9632 117.309 53.1234 117.546 53.3369 117.723C53.5531 117.897 53.8239 117.984 54.1494 117.984ZM63.1719 119.105C62.7005 119.105 62.2786 118.984 61.9063 118.742C61.5339 118.5 61.2396 118.148 61.0234 117.687C60.8073 117.227 60.6992 116.667 60.6992 116.008C60.6992 115.341 60.8086 114.779 61.0273 114.32C61.2487 113.859 61.5469 113.512 61.9219 113.277C62.2969 113.04 62.7148 112.922 63.1758 112.922C63.5273 112.922 63.8164 112.982 64.043 113.102C64.2695 113.219 64.4492 113.361 64.582 113.527C64.7148 113.691 64.8177 113.846 64.8906 113.992H64.9492V111H66.3672V119H64.9766V118.055H64.8906C64.8177 118.201 64.7122 118.355 64.5742 118.52C64.4362 118.681 64.2539 118.819 64.0273 118.934C63.8008 119.048 63.5156 119.105 63.1719 119.105ZM63.5664 117.945C63.8659 117.945 64.1211 117.865 64.332 117.703C64.543 117.539 64.7031 117.311 64.8125 117.02C64.9219 116.728 64.9766 116.388 64.9766 116C64.9766 115.612 64.9219 115.275 64.8125 114.988C64.7057 114.702 64.5469 114.479 64.3359 114.32C64.1276 114.161 63.8711 114.082 63.5664 114.082C63.2513 114.082 62.9883 114.164 62.7773 114.328C62.5664 114.492 62.4076 114.719 62.3008 115.008C62.194 115.297 62.1406 115.628 62.1406 116C62.1406 116.375 62.194 116.71 62.3008 117.004C62.4102 117.296 62.5703 117.526 62.7813 117.695C62.9948 117.862 63.2565 117.945 63.5664 117.945ZM70.5303 119.117C69.9287 119.117 69.4092 118.992 68.9717 118.742C68.5368 118.49 68.2021 118.133 67.9678 117.672C67.7334 117.208 67.6162 116.663 67.6162 116.035C67.6162 115.418 67.7334 114.876 67.9678 114.41C68.2048 113.941 68.5355 113.577 68.96 113.316C69.3844 113.053 69.8831 112.922 70.4561 112.922C70.8258 112.922 71.1748 112.982 71.5029 113.102C71.8337 113.219 72.1253 113.401 72.3779 113.648C72.6331 113.896 72.8337 114.211 72.9795 114.594C73.1253 114.974 73.1982 115.427 73.1982 115.953V116.387H68.2803V115.434H71.8428C71.8402 115.163 71.7816 114.922 71.667 114.711C71.5524 114.497 71.3923 114.329 71.1865 114.207C70.9834 114.085 70.7464 114.023 70.4756 114.023C70.1865 114.023 69.9326 114.094 69.7139 114.234C69.4951 114.372 69.3245 114.555 69.2021 114.781C69.0824 115.005 69.0212 115.251 69.0186 115.52V116.352C69.0186 116.701 69.0824 117 69.21 117.25C69.3376 117.497 69.516 117.687 69.7451 117.82C69.9743 117.951 70.2425 118.016 70.5498 118.016C70.7555 118.016 70.9417 117.987 71.1084 117.93C71.2751 117.87 71.4196 117.783 71.542 117.668C71.6644 117.553 71.7568 117.411 71.8193 117.242L73.1396 117.391C73.0563 117.74 72.8975 118.044 72.6631 118.305C72.4313 118.562 72.1344 118.763 71.7725 118.906C71.4105 119.047 70.9964 119.117 70.5303 119.117ZM79.1367 114.586L77.8477 114.727C77.8112 114.596 77.7474 114.474 77.6563 114.359C77.5677 114.245 77.4479 114.152 77.2969 114.082C77.1458 114.012 76.9609 113.977 76.7422 113.977C76.4479 113.977 76.2005 114.04 76 114.168C75.8021 114.296 75.7044 114.461 75.707 114.664C75.7044 114.839 75.7682 114.98 75.8984 115.09C76.0313 115.199 76.25 115.289 76.5547 115.359L77.5781 115.578C78.1458 115.701 78.5677 115.895 78.8438 116.16C79.1224 116.426 79.263 116.773 79.2656 117.203C79.263 117.581 79.1523 117.914 78.9336 118.203C78.7174 118.49 78.4167 118.714 78.0313 118.875C77.6458 119.036 77.2031 119.117 76.7031 119.117C75.9688 119.117 75.3776 118.964 74.9297 118.656C74.4818 118.346 74.2148 117.915 74.1289 117.363L75.5078 117.23C75.5703 117.501 75.7031 117.706 75.9063 117.844C76.1094 117.982 76.3737 118.051 76.6992 118.051C77.0352 118.051 77.3047 117.982 77.5078 117.844C77.7135 117.706 77.8164 117.535 77.8164 117.332C77.8164 117.16 77.75 117.018 77.6172 116.906C77.487 116.794 77.2839 116.708 77.0078 116.648L75.9844 116.434C75.4089 116.314 74.9831 116.112 74.707 115.828C74.431 115.542 74.2943 115.18 74.2969 114.742C74.2943 114.372 74.3945 114.052 74.5977 113.781C74.8034 113.508 75.0885 113.297 75.4531 113.148C75.8203 112.997 76.2435 112.922 76.7227 112.922C77.4258 112.922 77.9792 113.072 78.3828 113.371C78.7891 113.671 79.0404 114.076 79.1367 114.586ZM80.4316 119V113H81.8457V119H80.4316ZM81.1426 112.148C80.9186 112.148 80.7259 112.074 80.5645 111.926C80.403 111.775 80.3223 111.594 80.3223 111.383C80.3223 111.169 80.403 110.988 80.5645 110.84C80.7259 110.689 80.9186 110.613 81.1426 110.613C81.3691 110.613 81.5618 110.689 81.7207 110.84C81.8822 110.988 81.9629 111.169 81.9629 111.383C81.9629 111.594 81.8822 111.775 81.7207 111.926C81.5618 112.074 81.3691 112.148 81.1426 112.148ZM85.9092 121.375C85.4014 121.375 84.9652 121.306 84.6006 121.168C84.236 121.033 83.943 120.85 83.7217 120.621C83.5003 120.392 83.3467 120.138 83.2607 119.859L84.5342 119.551C84.5915 119.668 84.6748 119.784 84.7842 119.898C84.8936 120.016 85.0407 120.112 85.2256 120.188C85.4131 120.266 85.6488 120.305 85.9326 120.305C86.3337 120.305 86.6657 120.207 86.9287 120.012C87.1917 119.819 87.3232 119.501 87.3232 119.059V117.922H87.2529C87.18 118.068 87.0732 118.217 86.9326 118.371C86.7946 118.525 86.611 118.654 86.3818 118.758C86.1553 118.862 85.8701 118.914 85.5264 118.914C85.0654 118.914 84.6475 118.806 84.2725 118.59C83.9001 118.371 83.6032 118.046 83.3818 117.613C83.1631 117.178 83.0537 116.634 83.0537 115.98C83.0537 115.322 83.1631 114.766 83.3818 114.312C83.6032 113.857 83.9014 113.512 84.2764 113.277C84.6514 113.04 85.0693 112.922 85.5303 112.922C85.8818 112.922 86.1709 112.982 86.3975 113.102C86.6266 113.219 86.8089 113.361 86.9443 113.527C87.0798 113.691 87.1826 113.846 87.2529 113.992H87.3311V113H88.7256V119.098C88.7256 119.611 88.6032 120.035 88.3584 120.371C88.1136 120.707 87.779 120.958 87.3545 121.125C86.93 121.292 86.4482 121.375 85.9092 121.375ZM85.9209 117.805C86.2204 117.805 86.4756 117.732 86.6865 117.586C86.8975 117.44 87.0576 117.23 87.167 116.957C87.2764 116.684 87.3311 116.355 87.3311 115.973C87.3311 115.595 87.2764 115.264 87.167 114.98C87.0602 114.697 86.9014 114.477 86.6904 114.32C86.4821 114.161 86.2256 114.082 85.9209 114.082C85.6058 114.082 85.3428 114.164 85.1318 114.328C84.9209 114.492 84.762 114.717 84.6553 115.004C84.5485 115.288 84.4951 115.611 84.4951 115.973C84.4951 116.34 84.5485 116.661 84.6553 116.938C84.7646 117.211 84.9248 117.424 85.1357 117.578C85.3493 117.729 85.611 117.805 85.9209 117.805ZM91.5889 115.484V119H90.1748V113H91.5264V114.02H91.5967C91.7347 113.684 91.9548 113.417 92.2568 113.219C92.5615 113.021 92.9378 112.922 93.3857 112.922C93.7998 112.922 94.1605 113.01 94.4678 113.187C94.7777 113.365 95.0173 113.621 95.1865 113.957C95.3584 114.293 95.443 114.701 95.4404 115.18V119H94.0264V115.398C94.0264 114.997 93.9222 114.684 93.7139 114.457C93.5081 114.23 93.223 114.117 92.8584 114.117C92.611 114.117 92.391 114.172 92.1982 114.281C92.0081 114.388 91.8584 114.543 91.749 114.746C91.6423 114.949 91.5889 115.195 91.5889 115.484Z" fill="#7B7B7B"/>
<path d="M134.789 111H136.563L138.938 116.797H139.031L141.406 111H143.18V119H141.789V113.504H141.715L139.504 118.977H138.465L136.254 113.492H136.18V119H134.789V111ZM147.352 119.117C146.75 119.117 146.23 118.992 145.793 118.742C145.358 118.49 145.023 118.133 144.789 117.672C144.555 117.208 144.438 116.663 144.438 116.035C144.438 115.418 144.555 114.876 144.789 114.41C145.026 113.941 145.357 113.577 145.781 113.316C146.206 113.053 146.704 112.922 147.277 112.922C147.647 112.922 147.996 112.982 148.324 113.102C148.655 113.219 148.947 113.401 149.199 113.648C149.454 113.896 149.655 114.211 149.801 114.594C149.947 114.974 150.02 115.427 150.02 115.953V116.387H145.102V115.434H148.664C148.661 115.163 148.603 114.922 148.488 114.711C148.374 114.497 148.214 114.329 148.008 114.207C147.805 114.085 147.568 114.023 147.297 114.023C147.008 114.023 146.754 114.094 146.535 114.234C146.316 114.372 146.146 114.555 146.023 114.781C145.904 115.005 145.842 115.251 145.84 115.52V116.352C145.84 116.701 145.904 117 146.031 117.25C146.159 117.497 146.337 117.687 146.566 117.82C146.796 117.951 147.064 118.016 147.371 118.016C147.577 118.016 147.763 117.987 147.93 117.93C148.096 117.87 148.241 117.783 148.363 117.668C148.486 117.553 148.578 117.411 148.641 117.242L149.961 117.391C149.878 117.74 149.719 118.044 149.484 118.305C149.253 118.562 148.956 118.763 148.594 118.906C148.232 119.047 147.818 119.117 147.352 119.117ZM151.216 119V113H152.587V114H152.649C152.759 113.654 152.946 113.387 153.212 113.199C153.48 113.009 153.786 112.914 154.13 112.914C154.208 112.914 154.295 112.918 154.392 112.926C154.491 112.931 154.573 112.94 154.638 112.953V114.254C154.578 114.233 154.483 114.215 154.353 114.199C154.225 114.181 154.101 114.172 153.981 114.172C153.724 114.172 153.492 114.228 153.286 114.34C153.083 114.449 152.923 114.602 152.806 114.797C152.688 114.992 152.63 115.217 152.63 115.473V119H151.216ZM157.947 119.117C157.348 119.117 156.834 118.986 156.404 118.723C155.977 118.46 155.648 118.096 155.416 117.633C155.187 117.167 155.072 116.63 155.072 116.023C155.072 115.414 155.189 114.876 155.424 114.41C155.658 113.941 155.989 113.577 156.416 113.316C156.846 113.053 157.354 112.922 157.939 112.922C158.426 112.922 158.857 113.012 159.232 113.191C159.61 113.368 159.911 113.62 160.135 113.945C160.359 114.268 160.486 114.646 160.518 115.078H159.166C159.111 114.789 158.981 114.548 158.775 114.355C158.572 114.16 158.3 114.062 157.959 114.062C157.67 114.062 157.416 114.141 157.197 114.297C156.979 114.451 156.808 114.672 156.686 114.961C156.566 115.25 156.506 115.596 156.506 116C156.506 116.409 156.566 116.76 156.686 117.055C156.805 117.346 156.973 117.572 157.189 117.73C157.408 117.887 157.665 117.965 157.959 117.965C158.167 117.965 158.354 117.926 158.518 117.848C158.684 117.767 158.824 117.651 158.936 117.5C159.048 117.349 159.124 117.165 159.166 116.949H160.518C160.484 117.374 160.359 117.75 160.143 118.078C159.926 118.404 159.632 118.659 159.26 118.844C158.887 119.026 158.45 119.117 157.947 119.117ZM163.093 115.484V119H161.679V111H163.062V114.02H163.132C163.272 113.681 163.49 113.414 163.784 113.219C164.081 113.021 164.459 112.922 164.917 112.922C165.334 112.922 165.697 113.009 166.007 113.184C166.317 113.358 166.556 113.613 166.726 113.949C166.897 114.285 166.983 114.695 166.983 115.18V119H165.569V115.398C165.569 114.995 165.465 114.681 165.257 114.457C165.051 114.23 164.762 114.117 164.39 114.117C164.14 114.117 163.916 114.172 163.718 114.281C163.522 114.388 163.369 114.543 163.257 114.746C163.147 114.949 163.093 115.195 163.093 115.484ZM170.151 119.121C169.771 119.121 169.429 119.053 169.124 118.918C168.822 118.78 168.582 118.577 168.405 118.309C168.231 118.04 168.144 117.71 168.144 117.316C168.144 116.978 168.206 116.698 168.331 116.477C168.456 116.255 168.627 116.078 168.843 115.945C169.059 115.812 169.302 115.712 169.573 115.645C169.847 115.574 170.129 115.523 170.421 115.492C170.772 115.456 171.058 115.423 171.276 115.395C171.495 115.363 171.654 115.316 171.753 115.254C171.854 115.189 171.905 115.089 171.905 114.953V114.93C171.905 114.635 171.818 114.408 171.644 114.246C171.469 114.085 171.218 114.004 170.89 114.004C170.543 114.004 170.269 114.079 170.065 114.23C169.865 114.382 169.729 114.56 169.659 114.766L168.339 114.578C168.443 114.214 168.615 113.909 168.854 113.664C169.094 113.417 169.387 113.232 169.733 113.109C170.08 112.984 170.463 112.922 170.882 112.922C171.171 112.922 171.459 112.956 171.745 113.023C172.032 113.091 172.293 113.203 172.53 113.359C172.767 113.513 172.957 113.723 173.101 113.988C173.246 114.254 173.319 114.586 173.319 114.984V119H171.96V118.176H171.913C171.827 118.342 171.706 118.499 171.55 118.645C171.396 118.788 171.202 118.904 170.968 118.992C170.736 119.078 170.464 119.121 170.151 119.121ZM170.519 118.082C170.802 118.082 171.049 118.026 171.257 117.914C171.465 117.799 171.625 117.648 171.737 117.461C171.852 117.273 171.909 117.069 171.909 116.848V116.141C171.865 116.177 171.789 116.211 171.683 116.242C171.578 116.273 171.461 116.301 171.331 116.324C171.201 116.348 171.072 116.368 170.944 116.387C170.817 116.405 170.706 116.421 170.612 116.434C170.401 116.462 170.213 116.509 170.046 116.574C169.879 116.639 169.748 116.73 169.651 116.848C169.555 116.962 169.507 117.111 169.507 117.293C169.507 117.553 169.602 117.75 169.792 117.883C169.982 118.016 170.224 118.082 170.519 118.082ZM176.155 115.484V119H174.741V113H176.093V114.02H176.163C176.301 113.684 176.521 113.417 176.823 113.219C177.128 113.021 177.504 112.922 177.952 112.922C178.366 112.922 178.727 113.01 179.034 113.187C179.344 113.365 179.584 113.621 179.753 113.957C179.925 114.293 180.009 114.701 180.007 115.18V119H178.593V115.398C178.593 114.997 178.489 114.684 178.28 114.457C178.075 114.23 177.789 114.117 177.425 114.117C177.177 114.117 176.957 114.172 176.765 114.281C176.575 114.388 176.425 114.543 176.315 114.746C176.209 114.949 176.155 115.195 176.155 115.484ZM183.671 119.105C183.2 119.105 182.778 118.984 182.405 118.742C182.033 118.5 181.739 118.148 181.522 117.687C181.306 117.227 181.198 116.667 181.198 116.008C181.198 115.341 181.308 114.779 181.526 114.32C181.748 113.859 182.046 113.512 182.421 113.277C182.796 113.04 183.214 112.922 183.675 112.922C184.026 112.922 184.315 112.982 184.542 113.102C184.769 113.219 184.948 113.361 185.081 113.527C185.214 113.691 185.317 113.846 185.39 113.992H185.448V111H186.866V119H185.476V118.055H185.39C185.317 118.201 185.211 118.355 185.073 118.52C184.935 118.681 184.753 118.819 184.526 118.934C184.3 119.048 184.015 119.105 183.671 119.105ZM184.065 117.945C184.365 117.945 184.62 117.865 184.831 117.703C185.042 117.539 185.202 117.311 185.312 117.02C185.421 116.728 185.476 116.388 185.476 116C185.476 115.612 185.421 115.275 185.312 114.988C185.205 114.702 185.046 114.479 184.835 114.32C184.627 114.161 184.37 114.082 184.065 114.082C183.75 114.082 183.487 114.164 183.276 114.328C183.065 114.492 182.907 114.719 182.8 115.008C182.693 115.297 182.64 115.628 182.64 116C182.64 116.375 182.693 116.71 182.8 117.004C182.909 117.296 183.069 117.526 183.28 117.695C183.494 117.862 183.756 117.945 184.065 117.945ZM188.373 119V113H189.787V119H188.373ZM189.084 112.148C188.86 112.148 188.667 112.074 188.506 111.926C188.344 111.775 188.264 111.594 188.264 111.383C188.264 111.169 188.344 110.988 188.506 110.84C188.667 110.689 188.86 110.613 189.084 110.613C189.311 110.613 189.503 110.689 189.662 110.84C189.824 110.988 189.904 111.169 189.904 111.383C189.904 111.594 189.824 111.775 189.662 111.926C189.503 112.074 189.311 112.148 189.084 112.148ZM195.983 114.586L194.694 114.727C194.658 114.596 194.594 114.474 194.503 114.359C194.414 114.245 194.295 114.152 194.144 114.082C193.993 114.012 193.808 113.977 193.589 113.977C193.295 113.977 193.047 114.04 192.847 114.168C192.649 114.296 192.551 114.461 192.554 114.664C192.551 114.839 192.615 114.98 192.745 115.09C192.878 115.199 193.097 115.289 193.401 115.359L194.425 115.578C194.993 115.701 195.414 115.895 195.69 116.16C195.969 116.426 196.11 116.773 196.112 117.203C196.11 117.581 195.999 117.914 195.78 118.203C195.564 118.49 195.263 118.714 194.878 118.875C194.493 119.036 194.05 119.117 193.55 119.117C192.815 119.117 192.224 118.964 191.776 118.656C191.328 118.346 191.062 117.915 190.976 117.363L192.354 117.23C192.417 117.501 192.55 117.706 192.753 117.844C192.956 117.982 193.22 118.051 193.546 118.051C193.882 118.051 194.151 117.982 194.354 117.844C194.56 117.706 194.663 117.535 194.663 117.332C194.663 117.16 194.597 117.018 194.464 116.906C194.334 116.794 194.131 116.708 193.854 116.648L192.831 116.434C192.256 116.314 191.83 116.112 191.554 115.828C191.278 115.542 191.141 115.18 191.144 114.742C191.141 114.372 191.241 114.052 191.444 113.781C191.65 113.508 191.935 113.297 192.3 113.148C192.667 112.997 193.09 112.922 193.569 112.922C194.272 112.922 194.826 113.072 195.229 113.371C195.636 113.671 195.887 114.076 195.983 114.586ZM199.935 119.117C199.333 119.117 198.813 118.992 198.376 118.742C197.941 118.49 197.606 118.133 197.372 117.672C197.138 117.208 197.021 116.663 197.021 116.035C197.021 115.418 197.138 114.876 197.372 114.41C197.609 113.941 197.94 113.577 198.364 113.316C198.789 113.053 199.287 112.922 199.86 112.922C200.23 112.922 200.579 112.982 200.907 113.102C201.238 113.219 201.53 113.401 201.782 113.648C202.037 113.896 202.238 114.211 202.384 114.594C202.53 114.974 202.603 115.427 202.603 115.953V116.387H197.685V115.434H201.247C201.244 115.163 201.186 114.922 201.071 114.711C200.957 114.497 200.797 114.329 200.591 114.207C200.388 114.085 200.151 114.023 199.88 114.023C199.591 114.023 199.337 114.094 199.118 114.234C198.899 114.372 198.729 114.555 198.606 114.781C198.487 115.005 198.425 115.251 198.423 115.52V116.352C198.423 116.701 198.487 117 198.614 117.25C198.742 117.497 198.92 117.687 199.149 117.82C199.379 117.951 199.647 118.016 199.954 118.016C200.16 118.016 200.346 117.987 200.513 117.93C200.679 117.87 200.824 117.783 200.946 117.668C201.069 117.553 201.161 117.411 201.224 117.242L202.544 117.391C202.461 117.74 202.302 118.044 202.067 118.305C201.836 118.562 201.539 118.763 201.177 118.906C200.815 119.047 200.401 119.117 199.935 119.117Z" fill="#7B7B7B"/>
<path d="M37.1484 135.555C37.0833 135.344 36.9935 135.155 36.8789 134.988C36.7669 134.819 36.6315 134.674 36.4727 134.555C36.3164 134.435 36.1367 134.345 35.9336 134.285C35.7305 134.223 35.5091 134.191 35.2695 134.191C34.8398 134.191 34.457 134.299 34.1211 134.516C33.7852 134.732 33.5208 135.049 33.3281 135.469C33.138 135.885 33.043 136.393 33.043 136.992C33.043 137.596 33.138 138.108 33.3281 138.527C33.5182 138.947 33.7826 139.266 34.1211 139.484C34.4596 139.701 34.8529 139.809 35.3008 139.809C35.707 139.809 36.0586 139.73 36.3555 139.574C36.6549 139.418 36.8854 139.197 37.0469 138.91C37.2083 138.621 37.2891 138.283 37.2891 137.895L37.6172 137.945H35.4453V136.812H38.6914V137.773C38.6914 138.458 38.5456 139.051 38.2539 139.551C37.9622 140.051 37.5612 140.436 37.0508 140.707C36.5404 140.975 35.9544 141.109 35.293 141.109C34.556 141.109 33.9089 140.944 33.3516 140.613C32.7969 140.28 32.3633 139.807 32.0508 139.195C31.7409 138.581 31.5859 137.852 31.5859 137.008C31.5859 136.362 31.6771 135.785 31.8594 135.277C32.0443 134.77 32.3021 134.339 32.6328 133.984C32.9635 133.628 33.3516 133.357 33.7969 133.172C34.2422 132.984 34.7266 132.891 35.25 132.891C35.6927 132.891 36.1055 132.956 36.4883 133.086C36.8711 133.214 37.2109 133.396 37.5078 133.633C37.8073 133.87 38.0534 134.151 38.2461 134.477C38.4388 134.802 38.5651 135.161 38.625 135.555H37.1484ZM43.8545 138.477V135H45.2686V141H43.8975V139.934H43.835C43.6995 140.27 43.4769 140.544 43.167 140.758C42.8597 140.971 42.4808 141.078 42.0303 141.078C41.637 141.078 41.2894 140.991 40.9873 140.816C40.6878 140.639 40.4535 140.383 40.2842 140.047C40.1149 139.708 40.0303 139.299 40.0303 138.82V135H41.4443V138.602C41.4443 138.982 41.5485 139.284 41.7568 139.508C41.9652 139.732 42.2386 139.844 42.5771 139.844C42.7855 139.844 42.9873 139.793 43.1826 139.691C43.3779 139.59 43.5381 139.439 43.6631 139.238C43.7907 139.035 43.8545 138.781 43.8545 138.477ZM46.7227 141V135H48.1367V141H46.7227ZM47.4336 134.148C47.2096 134.148 47.0169 134.074 46.8555 133.926C46.694 133.775 46.6133 133.594 46.6133 133.383C46.6133 133.169 46.694 132.988 46.8555 132.84C47.0169 132.689 47.2096 132.613 47.4336 132.613C47.6602 132.613 47.8529 132.689 48.0117 132.84C48.1732 132.988 48.2539 133.169 48.2539 133.383C48.2539 133.594 48.1732 133.775 48.0117 133.926C47.8529 134.074 47.6602 134.148 47.4336 134.148ZM51.8174 141.105C51.346 141.105 50.9242 140.984 50.5518 140.742C50.1794 140.5 49.8851 140.148 49.6689 139.687C49.4528 139.227 49.3447 138.667 49.3447 138.008C49.3447 137.341 49.4541 136.779 49.6729 136.32C49.8942 135.859 50.1924 135.512 50.5674 135.277C50.9424 135.04 51.3604 134.922 51.8213 134.922C52.1729 134.922 52.4619 134.982 52.6885 135.102C52.915 135.219 53.0947 135.361 53.2275 135.527C53.3604 135.691 53.4632 135.846 53.5361 135.992H53.5947V133H55.0127V141H53.6221V140.055H53.5361C53.4632 140.201 53.3577 140.355 53.2197 140.52C53.0817 140.681 52.8994 140.819 52.6729 140.934C52.4463 141.048 52.1611 141.105 51.8174 141.105ZM52.2119 139.945C52.5114 139.945 52.7666 139.865 52.9775 139.703C53.1885 139.539 53.3486 139.311 53.458 139.02C53.5674 138.728 53.6221 138.388 53.6221 138C53.6221 137.612 53.5674 137.275 53.458 136.988C53.3512 136.702 53.1924 136.479 52.9814 136.32C52.7731 136.161 52.5166 136.082 52.2119 136.082C51.8968 136.082 51.6338 136.164 51.4229 136.328C51.2119 136.492 51.0531 136.719 50.9463 137.008C50.8395 137.297 50.7861 137.628 50.7861 138C50.7861 138.375 50.8395 138.71 50.9463 139.004C51.0557 139.296 51.2158 139.526 51.4268 139.695C51.6403 139.862 51.902 139.945 52.2119 139.945ZM59.1758 141.117C58.5742 141.117 58.0547 140.992 57.6172 140.742C57.1823 140.49 56.8477 140.133 56.6133 139.672C56.3789 139.208 56.2617 138.663 56.2617 138.035C56.2617 137.418 56.3789 136.876 56.6133 136.41C56.8503 135.941 57.181 135.577 57.6055 135.316C58.0299 135.053 58.5286 134.922 59.1016 134.922C59.4714 134.922 59.8203 134.982 60.1484 135.102C60.4792 135.219 60.7708 135.401 61.0234 135.648C61.2786 135.896 61.4792 136.211 61.625 136.594C61.7708 136.974 61.8438 137.427 61.8438 137.953V138.387H56.9258V137.434H60.4883C60.4857 137.163 60.4271 136.922 60.3125 136.711C60.1979 136.497 60.0378 136.329 59.832 136.207C59.6289 136.085 59.3919 136.023 59.1211 136.023C58.832 136.023 58.5781 136.094 58.3594 136.234C58.1406 136.372 57.9701 136.555 57.8477 136.781C57.7279 137.005 57.6667 137.251 57.6641 137.52V138.352C57.6641 138.701 57.7279 139 57.8555 139.25C57.9831 139.497 58.1615 139.687 58.3906 139.82C58.6198 139.951 58.888 140.016 59.1953 140.016C59.401 140.016 59.5872 139.987 59.7539 139.93C59.9206 139.87 60.0651 139.783 60.1875 139.668C60.3099 139.553 60.4023 139.411 60.4648 139.242L61.7852 139.391C61.7018 139.74 61.543 140.044 61.3086 140.305C61.0768 140.562 60.7799 140.763 60.418 140.906C60.056 141.047 59.6419 141.117 59.1758 141.117ZM64.4541 133V141H63.04V133H64.4541ZM65.9082 141V135H67.3223V141H65.9082ZM66.6191 134.148C66.3952 134.148 66.2025 134.074 66.041 133.926C65.8796 133.775 65.7988 133.594 65.7988 133.383C65.7988 133.169 65.8796 132.988 66.041 132.84C66.2025 132.689 66.3952 132.613 66.6191 132.613C66.8457 132.613 67.0384 132.689 67.1973 132.84C67.3587 132.988 67.4395 133.169 67.4395 133.383C67.4395 133.594 67.3587 133.775 67.1973 133.926C67.0384 134.074 66.8457 134.148 66.6191 134.148ZM70.1904 137.484V141H68.7764V135H70.1279V136.02H70.1982C70.3363 135.684 70.5563 135.417 70.8584 135.219C71.1631 135.021 71.5394 134.922 71.9873 134.922C72.4014 134.922 72.762 135.01 73.0693 135.187C73.3792 135.365 73.6188 135.621 73.7881 135.957C73.96 136.293 74.0446 136.701 74.042 137.18V141H72.6279V137.398C72.6279 136.997 72.5238 136.684 72.3154 136.457C72.1097 136.23 71.8245 136.117 71.46 136.117C71.2126 136.117 70.9925 136.172 70.7998 136.281C70.6097 136.388 70.46 136.543 70.3506 136.746C70.2438 136.949 70.1904 137.195 70.1904 137.484ZM78.1357 141.117C77.5342 141.117 77.0146 140.992 76.5771 140.742C76.1423 140.49 75.8076 140.133 75.5732 139.672C75.3389 139.208 75.2217 138.663 75.2217 138.035C75.2217 137.418 75.3389 136.876 75.5732 136.41C75.8102 135.941 76.141 135.577 76.5654 135.316C76.9899 135.053 77.4886 134.922 78.0615 134.922C78.4313 134.922 78.7803 134.982 79.1084 135.102C79.4391 135.219 79.7308 135.401 79.9834 135.648C80.2386 135.896 80.4391 136.211 80.585 136.594C80.7308 136.974 80.8037 137.427 80.8037 137.953V138.387H75.8857V137.434H79.4482C79.4456 137.163 79.387 136.922 79.2725 136.711C79.1579 136.497 78.9977 136.329 78.792 136.207C78.5889 136.085 78.3519 136.023 78.0811 136.023C77.792 136.023 77.5381 136.094 77.3193 136.234C77.1006 136.372 76.93 136.555 76.8076 136.781C76.6878 137.005 76.6266 137.251 76.624 137.52V138.352C76.624 138.701 76.6878 139 76.8154 139.25C76.943 139.497 77.1214 139.687 77.3506 139.82C77.5798 139.951 77.848 140.016 78.1553 140.016C78.361 140.016 78.5472 139.987 78.7139 139.93C78.8805 139.87 79.0251 139.783 79.1475 139.668C79.2699 139.553 79.3623 139.411 79.4248 139.242L80.7451 139.391C80.6618 139.74 80.5029 140.044 80.2686 140.305C80.0368 140.562 79.7399 140.763 79.3779 140.906C79.016 141.047 78.6019 141.117 78.1357 141.117ZM86.7422 136.586L85.4531 136.727C85.4167 136.596 85.3529 136.474 85.2617 136.359C85.1732 136.245 85.0534 136.152 84.9023 136.082C84.7513 136.012 84.5664 135.977 84.3477 135.977C84.0534 135.977 83.806 136.04 83.6055 136.168C83.4076 136.296 83.3099 136.461 83.3125 136.664C83.3099 136.839 83.3737 136.98 83.5039 137.09C83.6367 137.199 83.8555 137.289 84.1602 137.359L85.1836 137.578C85.7513 137.701 86.1732 137.895 86.4492 138.16C86.7279 138.426 86.8685 138.773 86.8711 139.203C86.8685 139.581 86.7578 139.914 86.5391 140.203C86.3229 140.49 86.0221 140.714 85.6367 140.875C85.2513 141.036 84.8086 141.117 84.3086 141.117C83.5742 141.117 82.9831 140.964 82.5352 140.656C82.0872 140.346 81.8203 139.915 81.7344 139.363L83.1133 139.23C83.1758 139.501 83.3086 139.706 83.5117 139.844C83.7148 139.982 83.9792 140.051 84.3047 140.051C84.6406 140.051 84.9102 139.982 85.1133 139.844C85.319 139.706 85.4219 139.535 85.4219 139.332C85.4219 139.16 85.3555 139.018 85.2227 138.906C85.0924 138.794 84.8893 138.708 84.6133 138.648L83.5898 138.434C83.0143 138.314 82.5885 138.112 82.3125 137.828C82.0365 137.542 81.8997 137.18 81.9023 136.742C81.8997 136.372 82 136.052 82.2031 135.781C82.4089 135.508 82.694 135.297 83.0586 135.148C83.4258 134.997 83.849 134.922 84.3281 134.922C85.0313 134.922 85.5846 135.072 85.9883 135.371C86.3945 135.671 86.6458 136.076 86.7422 136.586Z" fill="#7B7B7B"/>
<path d="M134.789 141V133H137.789C138.404 133 138.919 133.115 139.336 133.344C139.755 133.573 140.072 133.888 140.285 134.289C140.501 134.687 140.609 135.141 140.609 135.648C140.609 136.161 140.501 136.617 140.285 137.016C140.069 137.414 139.75 137.728 139.328 137.957C138.906 138.184 138.387 138.297 137.77 138.297H135.781V137.105H137.574C137.934 137.105 138.228 137.043 138.457 136.918C138.686 136.793 138.855 136.621 138.965 136.402C139.077 136.184 139.133 135.932 139.133 135.648C139.133 135.365 139.077 135.115 138.965 134.898C138.855 134.682 138.685 134.514 138.453 134.395C138.224 134.272 137.928 134.211 137.566 134.211H136.238V141H134.789ZM143.425 141.121C143.045 141.121 142.702 141.053 142.397 140.918C142.095 140.78 141.856 140.577 141.679 140.309C141.504 140.04 141.417 139.71 141.417 139.316C141.417 138.978 141.479 138.698 141.604 138.477C141.729 138.255 141.9 138.078 142.116 137.945C142.332 137.812 142.576 137.712 142.847 137.645C143.12 137.574 143.403 137.523 143.694 137.492C144.046 137.456 144.331 137.423 144.55 137.395C144.769 137.363 144.927 137.316 145.026 137.254C145.128 137.189 145.179 137.089 145.179 136.953V136.93C145.179 136.635 145.091 136.408 144.917 136.246C144.743 136.085 144.491 136.004 144.163 136.004C143.817 136.004 143.542 136.079 143.339 136.23C143.138 136.382 143.003 136.56 142.933 136.766L141.612 136.578C141.716 136.214 141.888 135.909 142.128 135.664C142.368 135.417 142.66 135.232 143.007 135.109C143.353 134.984 143.736 134.922 144.155 134.922C144.444 134.922 144.732 134.956 145.019 135.023C145.305 135.091 145.567 135.203 145.804 135.359C146.041 135.513 146.231 135.723 146.374 135.988C146.52 136.254 146.593 136.586 146.593 136.984V141H145.233V140.176H145.187C145.101 140.342 144.979 140.499 144.823 140.645C144.67 140.788 144.476 140.904 144.241 140.992C144.009 141.078 143.737 141.121 143.425 141.121ZM143.792 140.082C144.076 140.082 144.322 140.026 144.53 139.914C144.739 139.799 144.899 139.648 145.011 139.461C145.125 139.273 145.183 139.069 145.183 138.848V138.141C145.138 138.177 145.063 138.211 144.956 138.242C144.852 138.273 144.735 138.301 144.604 138.324C144.474 138.348 144.345 138.368 144.218 138.387C144.09 138.405 143.979 138.421 143.886 138.434C143.675 138.462 143.486 138.509 143.319 138.574C143.153 138.639 143.021 138.73 142.925 138.848C142.828 138.962 142.78 139.111 142.78 139.293C142.78 139.553 142.875 139.75 143.065 139.883C143.256 140.016 143.498 140.082 143.792 140.082ZM150.632 141.117C150.033 141.117 149.519 140.986 149.089 140.723C148.662 140.46 148.332 140.096 148.101 139.633C147.871 139.167 147.757 138.63 147.757 138.023C147.757 137.414 147.874 136.876 148.108 136.41C148.343 135.941 148.674 135.577 149.101 135.316C149.53 135.053 150.038 134.922 150.624 134.922C151.111 134.922 151.542 135.012 151.917 135.191C152.295 135.368 152.595 135.62 152.819 135.945C153.043 136.268 153.171 136.646 153.202 137.078H151.851C151.796 136.789 151.666 136.548 151.46 136.355C151.257 136.16 150.985 136.062 150.644 136.062C150.354 136.062 150.101 136.141 149.882 136.297C149.663 136.451 149.493 136.672 149.37 136.961C149.25 137.25 149.19 137.596 149.19 138C149.19 138.409 149.25 138.76 149.37 139.055C149.49 139.346 149.658 139.572 149.874 139.73C150.093 139.887 150.349 139.965 150.644 139.965C150.852 139.965 151.038 139.926 151.202 139.848C151.369 139.767 151.508 139.651 151.62 139.5C151.732 139.349 151.809 139.165 151.851 138.949H153.202C153.168 139.374 153.043 139.75 152.827 140.078C152.611 140.404 152.317 140.659 151.944 140.844C151.572 141.026 151.134 141.117 150.632 141.117ZM155.652 139.117L155.648 137.41H155.875L158.031 135H159.684L157.031 137.953H156.738L155.652 139.117ZM154.363 141V133H155.777V141H154.363ZM158.129 141L156.176 138.27L157.129 137.273L159.82 141H158.129ZM162.353 141.121C161.972 141.121 161.63 141.053 161.325 140.918C161.023 140.78 160.784 140.577 160.606 140.309C160.432 140.04 160.345 139.71 160.345 139.316C160.345 138.978 160.407 138.698 160.532 138.477C160.657 138.255 160.828 138.078 161.044 137.945C161.26 137.812 161.504 137.712 161.774 137.645C162.048 137.574 162.33 137.523 162.622 137.492C162.974 137.456 163.259 137.423 163.478 137.395C163.696 137.363 163.855 137.316 163.954 137.254C164.056 137.189 164.106 137.089 164.106 136.953V136.93C164.106 136.635 164.019 136.408 163.845 136.246C163.67 136.085 163.419 136.004 163.091 136.004C162.744 136.004 162.47 136.079 162.267 136.23C162.066 136.382 161.931 136.56 161.86 136.766L160.54 136.578C160.644 136.214 160.816 135.909 161.056 135.664C161.295 135.417 161.588 135.232 161.935 135.109C162.281 134.984 162.664 134.922 163.083 134.922C163.372 134.922 163.66 134.956 163.946 135.023C164.233 135.091 164.494 135.203 164.731 135.359C164.968 135.513 165.159 135.723 165.302 135.988C165.448 136.254 165.521 136.586 165.521 136.984V141H164.161V140.176H164.114C164.028 140.342 163.907 140.499 163.751 140.645C163.597 140.788 163.403 140.904 163.169 140.992C162.937 141.078 162.665 141.121 162.353 141.121ZM162.72 140.082C163.004 140.082 163.25 140.026 163.458 139.914C163.666 139.799 163.826 139.648 163.938 139.461C164.053 139.273 164.11 139.069 164.11 138.848V138.141C164.066 138.177 163.991 138.211 163.884 138.242C163.78 138.273 163.662 138.301 163.532 138.324C163.402 138.348 163.273 138.368 163.146 138.387C163.018 138.405 162.907 138.421 162.813 138.434C162.603 138.462 162.414 138.509 162.247 138.574C162.08 138.639 161.949 138.73 161.853 138.848C161.756 138.962 161.708 139.111 161.708 139.293C161.708 139.553 161.803 139.75 161.993 139.883C162.183 140.016 162.425 140.082 162.72 140.082ZM169.552 143.375C169.044 143.375 168.608 143.306 168.243 143.168C167.879 143.033 167.586 142.85 167.364 142.621C167.143 142.392 166.989 142.138 166.903 141.859L168.177 141.551C168.234 141.668 168.317 141.784 168.427 141.898C168.536 142.016 168.683 142.112 168.868 142.188C169.056 142.266 169.291 142.305 169.575 142.305C169.976 142.305 170.308 142.207 170.571 142.012C170.834 141.819 170.966 141.501 170.966 141.059V139.922H170.896C170.823 140.068 170.716 140.217 170.575 140.371C170.437 140.525 170.254 140.654 170.024 140.758C169.798 140.862 169.513 140.914 169.169 140.914C168.708 140.914 168.29 140.806 167.915 140.59C167.543 140.371 167.246 140.046 167.024 139.613C166.806 139.178 166.696 138.634 166.696 137.98C166.696 137.322 166.806 136.766 167.024 136.312C167.246 135.857 167.544 135.512 167.919 135.277C168.294 135.04 168.712 134.922 169.173 134.922C169.524 134.922 169.813 134.982 170.04 135.102C170.269 135.219 170.451 135.361 170.587 135.527C170.722 135.691 170.825 135.846 170.896 135.992H170.974V135H172.368V141.098C172.368 141.611 172.246 142.035 172.001 142.371C171.756 142.707 171.422 142.958 170.997 143.125C170.573 143.292 170.091 143.375 169.552 143.375ZM169.563 139.805C169.863 139.805 170.118 139.732 170.329 139.586C170.54 139.44 170.7 139.23 170.81 138.957C170.919 138.684 170.974 138.355 170.974 137.973C170.974 137.595 170.919 137.264 170.81 136.98C170.703 136.697 170.544 136.477 170.333 136.32C170.125 136.161 169.868 136.082 169.563 136.082C169.248 136.082 168.985 136.164 168.774 136.328C168.563 136.492 168.405 136.717 168.298 137.004C168.191 137.288 168.138 137.611 168.138 137.973C168.138 138.34 168.191 138.661 168.298 138.938C168.407 139.211 168.567 139.424 168.778 139.578C168.992 139.729 169.254 139.805 169.563 139.805ZM173.817 141V135H175.231V141H173.817ZM174.528 134.148C174.304 134.148 174.112 134.074 173.95 133.926C173.789 133.775 173.708 133.594 173.708 133.383C173.708 133.169 173.789 132.988 173.95 132.84C174.112 132.689 174.304 132.613 174.528 132.613C174.755 132.613 174.948 132.689 175.106 132.84C175.268 132.988 175.349 133.169 175.349 133.383C175.349 133.594 175.268 133.775 175.106 133.926C174.948 134.074 174.755 134.148 174.528 134.148ZM178.1 137.484V141H176.686V135H178.037V136.02H178.107C178.245 135.684 178.465 135.417 178.768 135.219C179.072 135.021 179.449 134.922 179.896 134.922C180.311 134.922 180.671 135.01 180.979 135.187C181.288 135.365 181.528 135.621 181.697 135.957C181.869 136.293 181.954 136.701 181.951 137.18V141H180.537V137.398C180.537 136.997 180.433 136.684 180.225 136.457C180.019 136.23 179.734 136.117 179.369 136.117C179.122 136.117 178.902 136.172 178.709 136.281C178.519 136.388 178.369 136.543 178.26 136.746C178.153 136.949 178.1 137.195 178.1 137.484ZM185.998 143.375C185.49 143.375 185.054 143.306 184.689 143.168C184.325 143.033 184.032 142.85 183.811 142.621C183.589 142.392 183.436 142.138 183.35 141.859L184.623 141.551C184.68 141.668 184.764 141.784 184.873 141.898C184.982 142.016 185.13 142.112 185.314 142.188C185.502 142.266 185.738 142.305 186.021 142.305C186.423 142.305 186.755 142.207 187.018 142.012C187.281 141.819 187.412 141.501 187.412 141.059V139.922H187.342C187.269 140.068 187.162 140.217 187.021 140.371C186.883 140.525 186.7 140.654 186.471 140.758C186.244 140.862 185.959 140.914 185.615 140.914C185.154 140.914 184.736 140.806 184.361 140.59C183.989 140.371 183.692 140.046 183.471 139.613C183.252 139.178 183.143 138.634 183.143 137.98C183.143 137.322 183.252 136.766 183.471 136.312C183.692 135.857 183.99 135.512 184.365 135.277C184.74 135.04 185.158 134.922 185.619 134.922C185.971 134.922 186.26 134.982 186.486 135.102C186.715 135.219 186.898 135.361 187.033 135.527C187.169 135.691 187.271 135.846 187.342 135.992H187.42V135H188.814V141.098C188.814 141.611 188.692 142.035 188.447 142.371C188.202 142.707 187.868 142.958 187.443 143.125C187.019 143.292 186.537 143.375 185.998 143.375ZM186.01 139.805C186.309 139.805 186.564 139.732 186.775 139.586C186.986 139.44 187.146 139.23 187.256 138.957C187.365 138.684 187.42 138.355 187.42 137.973C187.42 137.595 187.365 137.264 187.256 136.98C187.149 136.697 186.99 136.477 186.779 136.32C186.571 136.161 186.314 136.082 186.01 136.082C185.695 136.082 185.432 136.164 185.221 136.328C185.01 136.492 184.851 136.717 184.744 137.004C184.637 137.288 184.584 137.611 184.584 137.973C184.584 138.34 184.637 138.661 184.744 138.938C184.854 139.211 185.014 139.424 185.225 139.578C185.438 139.729 185.7 139.805 186.01 139.805Z" fill="#7B7B7B"/>
<path fill-rule="evenodd" clip-rule="evenodd" d="M45.784 19H21.837C21.8142 19 21.7965 19.0076 21.7812 19.0227L18.0228 22.7677C18.0076 22.7828 18 22.803 18 22.8232V50.8813C18 51.5808 18.5753 52.1515 19.2748 52.1515H22.3692C22.4123 52.1515 22.4503 52.1162 22.4503 52.0707V51.0354C22.4503 50.9924 22.4148 50.9545 22.3692 50.9545H19.2748C19.2368 50.9545 19.1987 50.9192 19.1987 50.8813V23.3182C19.1987 23.2955 19.2063 23.2778 19.2216 23.2626L19.6727 22.8131C19.6879 22.798 19.7082 22.7904 19.7284 22.7904H20.5293C21.2288 22.7904 21.8041 22.2197 21.8041 21.5202V20.7222C21.8041 20.6995 21.8117 20.6818 21.8269 20.6667L22.278 20.2172C22.2932 20.202 22.3135 20.1944 22.3337 20.1944H45.784C45.8221 20.1944 45.8601 20.2298 45.8601 20.2702V39.1111C45.8601 39.154 45.8956 39.1919 45.9412 39.1919H46.9803C47.0233 39.1919 47.0614 39.1566 47.0614 39.1111V20.2702C47.0614 19.5707 46.4861 19 45.7866 19H45.784ZM51.907 20.6566H52.5989C53.0602 20.6566 53.4403 21.0328 53.4403 21.4949V21.8838C53.4403 21.9268 53.4758 21.9646 53.5214 21.9646H54.373C55.2701 21.9646 56 22.6944 56 23.5859V28.5859C56 28.9141 55.7339 29.1793 55.4044 29.1793C55.075 29.1793 54.8089 28.9141 54.8089 28.5859V23.5833C54.8063 23.346 54.6086 23.149 54.3679 23.149H53.5163C53.4733 23.149 53.4352 23.1843 53.4352 23.2298V38.1995C53.4352 38.2146 53.4327 38.2247 53.4251 38.2374L52.3176 40.1944C52.3024 40.2197 52.277 40.2348 52.2466 40.2348C52.2162 40.2348 52.1934 40.2197 52.1757 40.1944L51.0682 38.2374C51.0682 38.2374 51.058 38.2121 51.058 38.1995V21.4949C51.0606 21.0354 51.4382 20.6566 51.902 20.6566H51.907ZM32.5953 23.9823L34.9624 27.7374C34.9725 27.7551 34.9877 27.7677 35.0105 27.7727L39.3823 28.8965C39.4102 28.904 39.4304 28.9217 39.438 28.9495C39.4456 28.9747 39.4406 29.0025 39.4228 29.0253L36.592 32.3687C36.5768 32.3838 36.5717 32.404 36.5717 32.4242L36.8302 36.9773C36.8302 37.0051 36.8201 37.0303 36.7973 37.048C36.7744 37.0631 36.7466 37.0682 36.7212 37.0556L32.5548 35.3384C32.5345 35.3308 32.5142 35.3308 32.4939 35.3384L28.3325 37.053C28.3072 37.0631 28.2793 37.0606 28.2565 37.0455C28.2337 37.0303 28.221 37.0025 28.2236 36.9747L28.4821 32.4217C28.4821 32.4015 28.477 32.3813 28.4618 32.3662L25.6309 29.0227C25.6132 29.0025 25.6081 28.9747 25.6157 28.947C25.6233 28.9217 25.6436 28.9015 25.6715 28.8939L30.0432 27.7702C30.0635 27.7652 30.0787 27.7525 30.0914 27.7348L32.4585 23.9798C32.4737 23.9545 32.4965 23.9444 32.5269 23.9444C32.5573 23.9444 32.5801 23.9596 32.5953 23.9823ZM28.6873 43.5985H52.1883C52.898 43.5985 53.4809 44.1768 53.4809 44.8864V55.7121C53.4809 56.4192 52.9005 57 52.1883 57H28.6873C27.9777 57 27.3948 56.4217 27.3948 55.7121V44.8864C27.3948 44.1793 27.9752 43.5985 28.6873 43.5985ZM40.4087 51.4748C40.0792 51.4748 39.8131 51.2096 39.8131 50.8813C39.8131 50.553 40.0792 50.2879 40.4087 50.2879H43.0292C43.3587 50.2879 43.6248 50.553 43.6248 50.8813C43.6248 51.2096 43.3587 51.4748 43.0292 51.4748H40.4087ZM40.4087 48.9874C40.0792 48.9874 39.8131 48.7222 39.8131 48.3939C39.8131 48.0657 40.0792 47.8005 40.4087 47.8005H49.9125C50.242 47.8005 50.5081 48.0657 50.5081 48.3939C50.5081 48.7222 50.242 48.9874 49.9125 48.9874H40.4087ZM34.3111 45.7298L35.3806 47.4242C35.3907 47.4419 35.4059 47.4545 35.4287 47.4596L37.403 47.9672C37.4308 47.9747 37.4511 47.9924 37.4587 48.0202C37.4663 48.048 37.4613 48.0732 37.4435 48.096L36.1687 49.6035C36.1535 49.6187 36.1485 49.6389 36.1485 49.6591L36.265 51.7172C36.265 51.7449 36.2549 51.7702 36.2321 51.7879C36.2093 51.803 36.1814 51.8081 36.1561 51.7955L34.2756 51.0202C34.2553 51.0126 34.235 51.0126 34.2148 51.0202L32.3343 51.7955C32.3089 51.8056 32.281 51.803 32.2582 51.7879C32.2354 51.7727 32.2228 51.7449 32.2253 51.7172L32.3419 49.6591C32.3419 49.6389 32.3368 49.6187 32.3216 49.6035L31.0468 48.096C31.0291 48.0758 31.024 48.048 31.0316 48.0202C31.0392 47.995 31.0595 47.9747 31.0874 47.9672L33.0616 47.4596C33.0819 47.4545 33.0971 47.4419 33.1098 47.4242L34.1793 45.7298C34.1945 45.7045 34.2173 45.6944 34.2477 45.6944C34.273 45.6944 34.2984 45.7071 34.3136 45.7298H34.3111ZM24.9314 40.3763H48.4324C49.1421 40.3763 49.725 40.9545 49.725 41.6641V42.4091C49.725 42.452 49.6895 42.4899 49.6439 42.4899H28.6873C27.3619 42.4899 26.2822 43.5657 26.2822 44.8864V53.6995C26.2822 53.7424 26.2468 53.7803 26.2011 53.7803H24.9289C24.2193 53.7803 23.6364 53.202 23.6364 52.4924V41.6667C23.6364 40.9571 24.2193 40.3788 24.9289 40.3788L24.9314 40.3763Z" fill="#9C0000"/>
</svg>
