<?xml version="1.0" encoding="UTF-8"?>
<svg id="Capa_1" xmlns="http://www.w3.org/2000/svg" version="1.1" viewBox="0 0 24 24">
  <!-- Generator: Adobe Illustrator 29.1.0, SVG Export Plug-In . SVG Version: 2.1.0 Build 142)  -->
  <defs>
    <style>
      .st0 {
        fill: #262626;
      }
    </style>
  </defs>
  <path class="st0" d="M12,15c.8,0,1.5-.3,2.1-.9s.9-1.3.9-2.1-.3-1.5-.9-2.1-1.3-.9-2.1-.9-1.5.3-2.1.9-.9,1.3-.9,2.1.3,1.5.9,2.1,1.3.9,2.1.9ZM12,17c-1.4,0-2.6-.5-3.5-1.5s-1.5-2.2-1.5-3.5.5-2.6,1.5-3.5,2.2-1.5,3.5-1.5,2.6.5,3.5,1.5,1.5,2.2,1.5,3.5-.5,2.6-1.5,3.5-2.2,1.5-3.5,1.5ZM5,13H1v-2h4v2ZM23,13h-4v-2h4v2ZM11,5V1h2v4h-2ZM11,23v-4h2v4h-2ZM6.4,7.8l-2.5-2.4,1.4-1.5,2.4,2.5-1.3,1.4ZM18.7,20.2l-2.4-2.5,1.3-1.4,2.5,2.4-1.4,1.5ZM16.3,6.4l2.4-2.5,1.5,1.4-2.5,2.4-1.4-1.3ZM3.9,18.7l2.5-2.4,1.4,1.3-2.4,2.5-1.5-1.4Z"/>
</svg>