<svg width="49" height="36" viewBox="0 0 49 36" fill="none" xmlns="http://www.w3.org/2000/svg">
<path d="M11.89 35.9635C11.1515 35.9635 10.413 35.9452 9.69292 35.8904C8.97287 35.8356 8.41899 35.7991 8.01281 35.7443C7.51432 34.7215 6.96044 33.3699 6.35117 31.6895C5.7419 30.0091 5.11417 28.1826 4.46797 26.1918C3.82178 24.2009 3.21251 22.1918 2.6217 20.1644C2.0309 18.137 1.51394 16.2374 1.05237 14.484C0.590806 12.7123 0.240015 11.2511 0 10.0457C0.646194 9.84475 1.42163 9.6621 2.3263 9.53424C3.23097 9.40639 4.13564 9.2968 5.02185 9.22374C5.90806 9.15068 6.62811 9.11415 7.18199 9.11415C7.20045 9.31507 7.31123 9.78995 7.45893 10.5388C7.62509 11.3059 7.82818 12.2557 8.08666 13.3881C8.34514 14.5205 8.62208 15.8173 8.93595 17.2237C9.24981 18.6301 9.58214 20.1096 9.93293 21.6438C10.2837 23.1781 10.6161 24.7123 10.9484 26.2648C11.2807 27.8173 11.5946 29.2603 11.89 30.6484L11.373 30.758C11.613 29.8265 11.8715 28.6758 12.1485 27.3242C12.4069 25.9726 12.6654 24.5114 12.9424 22.9589C13.2008 21.4064 13.4593 19.8539 13.6993 18.3196C13.9393 16.7854 14.1609 15.3425 14.3455 14.0274C14.5301 12.7123 14.6963 11.5982 14.8071 10.7032C14.9179 9.80822 14.9917 9.24201 15.0286 9.00456C16.081 9.00456 17.2442 9.11415 18.5365 9.2968C19.8289 9.47945 20.9921 9.75342 22.0075 10.1005C21.546 12.347 21.029 14.6119 20.4751 16.9132C19.9213 19.2146 19.3489 21.4247 18.7766 23.5616C18.2042 25.6986 17.6873 27.6347 17.2072 29.3699C16.7272 31.105 16.321 32.5479 15.9887 33.6804C15.6564 34.8128 15.4533 35.5251 15.361 35.8356C14.9732 35.8721 14.4748 35.9087 13.8655 35.9087C13.2378 35.9087 12.5916 35.9269 11.89 35.9269V35.9635Z" fill="#9C0000"/>
<path d="M24.3154 24.5114C24.3154 23.5068 24.3154 22.2648 24.3154 20.7671C24.3154 19.2694 24.3338 17.6256 24.3708 15.8356C24.4077 14.0457 24.4261 12.2374 24.4815 10.3744C24.5369 8.51142 24.5738 6.72146 24.6292 4.9863C24.6846 3.25114 24.74 1.68037 24.8139 0.273973C25.4601 0.200913 26.1986 0.164384 27.0663 0.127854C27.9156 0.0913242 28.7649 0.0547945 29.5957 0.0365297C30.4265 0.0182648 31.1281 0 31.7004 0C32.2728 0 32.6051 0 32.6605 0C32.679 0.0547945 32.7897 0.365297 32.9374 0.931507C33.1036 1.49772 33.3067 2.24658 33.5652 3.14155C33.8237 4.05479 34.1006 5.0411 34.396 6.13699C34.6914 7.23288 35.0053 8.32877 35.3191 9.46119C35.633 10.5936 35.9099 11.653 36.1869 12.6575C36.4638 13.6621 36.6854 14.5205 36.87 15.2511C37.0546 15.9817 37.1654 16.4749 37.2208 16.7489L36.5007 16.8402C36.63 16.4749 36.8331 15.8721 37.0916 15.0502C37.35 14.2283 37.6454 13.2603 37.9778 12.1644C38.3101 11.0685 38.6424 9.91781 38.9932 8.69407C39.344 7.48858 39.6948 6.30137 40.0087 5.16895C40.341 4.03653 40.6179 3.0137 40.8579 2.10046C41.098 1.20548 41.2641 0.511416 41.3564 0.0547945C41.9288 0.0547945 42.6304 0.0547945 43.4981 0.0913242C44.3659 0.127854 45.2336 0.164384 46.1013 0.200913C46.9876 0.255708 47.7076 0.328767 48.2799 0.438356C48.5384 1.60731 48.7231 3.10502 48.8338 4.96804C48.9446 6.81279 48.9815 8.76712 48.9815 10.831C48.9815 12.4932 48.9631 14.1735 48.9077 15.8721C48.8708 17.5708 48.7969 19.1781 48.7231 20.6575C48.6492 22.1553 48.5569 23.4155 48.4646 24.4384C47.8184 24.4384 47.1353 24.4384 46.3783 24.4018C45.6398 24.3836 44.9197 24.347 44.2366 24.2922C43.5535 24.2557 43.0365 24.2192 42.6304 24.1826C42.7042 23.3425 42.7596 22.2648 42.815 20.9315C42.8704 19.5982 42.9258 18.2466 42.9627 16.8219C42.9812 15.9452 43.0181 15.0868 43.0365 14.1918C43.055 13.3151 43.0735 12.5114 43.0919 11.7808C43.1104 11.0502 43.1289 10.484 43.1473 10.0822C43.0181 10.5936 42.815 11.2511 42.575 12.0548C42.3165 12.8584 42.0396 13.7534 41.7072 14.7215C41.3934 15.6895 41.0426 16.6758 40.7102 17.6804C40.3594 18.6849 40.0271 19.6164 39.7133 20.5114C39.3994 21.4064 39.104 22.1735 38.864 22.8128C38.624 23.4521 38.4393 23.9087 38.3101 24.1826C38.1255 24.1826 37.8485 24.2009 37.4793 24.2192C37.11 24.2192 36.8146 24.2192 36.63 24.2192C36.2792 24.2192 35.9099 24.2192 35.5407 24.1644C35.1714 24.1279 34.7653 24.0913 34.3037 24.0365C34.2668 23.8721 34.1744 23.5251 34.0637 22.9772C33.9344 22.4475 33.7867 21.79 33.5836 21.0046C33.3806 20.2192 33.1775 19.379 32.9374 18.4475C32.7159 17.516 32.4759 16.5662 32.2359 15.6164C31.9958 14.6484 31.7558 13.7169 31.5343 12.8219C31.2943 11.9269 31.0912 11.105 30.8881 10.3562C30.7035 9.60731 30.5373 9.00457 30.4081 8.56621C30.4081 9.78996 30.4265 11.105 30.445 12.4932C30.445 13.8813 30.445 15.2329 30.445 16.5845C30.445 17.9361 30.445 19.1416 30.445 20.274C30.445 21.3881 30.445 22.3196 30.445 23.0685V24.4018C29.9834 24.4018 29.4111 24.4384 28.691 24.4566C27.9894 24.4749 27.2325 24.4932 26.457 24.4932C25.6816 24.4932 24.9431 24.4932 24.26 24.4932L24.3154 24.5114Z" fill="#9C0000"/>
</svg>
