<svg width="44" height="32" viewBox="0 0 44 32" fill="none" xmlns="http://www.w3.org/2000/svg">
<path d="M10.5796 32C9.92247 32 9.26535 31.9837 8.62466 31.935C7.98397 31.8862 7.49113 31.8537 7.12972 31.805C6.68616 30.8948 6.19333 29.6922 5.65121 28.197C5.10908 26.7019 4.55053 25.0767 3.97556 23.3052C3.40058 21.5338 2.85846 19.7461 2.33277 17.9421C1.80707 16.1381 1.34709 14.4479 0.936392 12.8878C0.525694 11.3113 0.213563 10.0112 0 8.93856C0.574977 8.75979 1.26495 8.59727 2.06992 8.48351C2.87489 8.36975 3.67985 8.27224 4.4684 8.20723C5.25694 8.14222 5.89762 8.10972 6.39046 8.10972C6.40689 8.28849 6.50546 8.71104 6.63688 9.37736C6.78473 10.0599 6.96544 10.905 7.19543 11.9127C7.42542 12.9203 7.67184 14.0742 7.95112 15.3256C8.23039 16.5769 8.52609 17.8933 8.83822 19.2585C9.15035 20.6237 9.44606 21.9888 9.74176 23.3702C10.0375 24.7516 10.3167 26.0355 10.5796 27.2707L10.1196 27.3682C10.3332 26.5393 10.5632 25.5155 10.8096 24.3128C11.0396 23.1102 11.2696 21.81 11.516 20.4286C11.746 19.0472 11.976 17.6658 12.1895 16.3007C12.4031 14.9355 12.6002 13.6516 12.7645 12.4815C12.9288 11.3113 13.0766 10.32 13.1752 9.52363C13.2738 8.72729 13.3395 8.22348 13.3723 8.01221C14.3087 8.01221 15.3437 8.10972 16.4936 8.27224C17.6436 8.43476 18.6785 8.67853 19.5821 8.98732C19.1714 10.9863 18.7114 13.0015 18.2186 15.0493C17.7257 17.097 17.2165 19.0635 16.7072 20.965C16.1979 22.8664 15.738 24.5891 15.3108 26.133C14.8837 27.677 14.5223 28.9609 14.2266 29.9685C13.9309 30.9761 13.7502 31.6099 13.668 31.8862C13.323 31.9187 12.8795 31.9512 12.3374 31.9512C11.7788 31.9512 11.2038 31.9675 10.5796 31.9675V32Z" fill="white"/>
<path d="M21.6356 21.81C21.6356 20.9162 21.6356 19.811 21.6356 18.4784C21.6356 17.1457 21.652 15.6831 21.6849 14.0904C21.7177 12.4977 21.7341 10.8888 21.7834 9.23106C21.8327 7.57337 21.8656 5.98069 21.9148 4.43676C21.9641 2.89283 22.0134 1.49517 22.0791 0.243778C22.6541 0.178771 23.3112 0.146267 24.0833 0.113763C24.839 0.0812594 25.5947 0.0487556 26.334 0.0325037C27.0732 0.0162519 27.6975 0 28.2067 0C28.716 0 29.0117 0 29.061 0C29.0774 0.0487556 29.176 0.325037 29.3074 0.828846C29.4553 1.33265 29.636 1.99898 29.866 2.79532C30.096 3.60792 30.3424 4.48552 30.6052 5.46063C30.8681 6.43574 31.1473 7.41085 31.4266 8.41847C31.7059 9.42609 31.9523 10.3687 32.1987 11.2625C32.4451 12.1564 32.6423 12.9202 32.8066 13.5703C32.9708 14.2204 33.0694 14.6592 33.1187 14.903L32.478 14.9842C32.593 14.6592 32.7737 14.1229 33.0037 13.3915C33.2337 12.6602 33.4965 11.7989 33.7922 10.8237C34.0879 9.84864 34.3836 8.82477 34.6958 7.73589C35.0079 6.66327 35.32 5.6069 35.5993 4.59928C35.895 3.59166 36.1414 2.68156 36.355 1.86897C36.5686 1.07262 36.7164 0.455052 36.7985 0.0487556C37.3078 0.0487556 37.9321 0.0487556 38.7042 0.0812594C39.4763 0.113763 40.2484 0.146267 41.0205 0.178771C41.8091 0.227526 42.4498 0.292534 42.959 0.390045C43.189 1.43016 43.3533 2.76282 43.4519 4.42051C43.5504 6.06195 43.5833 7.8009 43.5833 9.63736C43.5833 11.1163 43.5668 12.6115 43.5176 14.1229C43.4847 15.6343 43.419 17.0645 43.3533 18.3809C43.2876 19.7135 43.2054 20.8349 43.1233 21.745C42.5483 21.745 41.9405 21.745 41.2669 21.7125C40.6098 21.6963 39.9691 21.6637 39.3613 21.615C38.7535 21.5825 38.2935 21.55 37.9321 21.5175C37.9978 20.7699 38.0471 19.811 38.0964 18.6246C38.1456 17.4383 38.1949 16.2356 38.2278 14.968C38.2442 14.1879 38.2771 13.424 38.2935 12.6277C38.3099 11.8476 38.3263 11.1325 38.3428 10.4825C38.3592 9.83238 38.3756 9.32858 38.3921 8.97103C38.2771 9.42609 38.0963 10.0112 37.8828 10.7262C37.6528 11.4413 37.4064 12.2377 37.1107 13.099C36.8314 13.9604 36.5193 14.838 36.2236 15.7318C35.9114 16.6257 35.6157 17.4545 35.3365 18.2509C35.0572 19.0472 34.7943 19.7298 34.5808 20.2986C34.3672 20.8674 34.2029 21.2737 34.0879 21.5175C33.9237 21.5175 33.6772 21.5337 33.3487 21.55C33.0201 21.55 32.7573 21.55 32.593 21.55C32.2809 21.55 31.9523 21.55 31.6237 21.5012C31.2952 21.4687 30.9338 21.4362 30.5231 21.3875C30.4902 21.2412 30.4081 20.9324 30.3095 20.4449C30.1945 19.9736 30.0631 19.3885 29.8824 18.6897C29.7017 17.9908 29.521 17.2432 29.3074 16.4144C29.1103 15.5855 28.8967 14.7404 28.6831 13.8954C28.4696 13.034 28.256 12.2052 28.0589 11.4088C27.8453 10.6125 27.6646 9.88114 27.4839 9.21481C27.3196 8.54849 27.1718 8.01217 27.0568 7.62213C27.0568 8.711 27.0732 9.88114 27.0896 11.1163C27.0896 12.3514 27.0896 13.5541 27.0896 14.7567C27.0896 15.9593 27.0896 17.032 27.0896 18.0396C27.0896 19.0309 27.0896 19.8598 27.0896 20.5261V21.7125C26.6789 21.7125 26.1697 21.745 25.529 21.7613C24.9047 21.7775 24.2312 21.7938 23.5412 21.7938C22.8512 21.7938 22.1941 21.7938 21.5863 21.7938L21.6356 21.81Z" fill="white"/>
</svg>
