<svg width="19" height="19" viewBox="0 0 19 19" fill="none" xmlns="http://www.w3.org/2000/svg">
<path d="M17.3196 19C15.1976 19 13.1012 18.5374 11.0302 17.6123C8.95921 16.6871 7.07495 15.3758 5.37742 13.6782C3.67989 11.9807 2.36855 10.0964 1.4434 8.02545C0.518241 5.95447 0.0556641 3.85801 0.0556641 1.7361C0.0556641 1.43055 0.157516 1.17592 0.36122 0.972212C0.564923 0.768508 0.819553 0.666656 1.12511 0.666656H5.25011C5.48776 0.666656 5.69995 0.747289 5.88668 0.908555C6.07341 1.06982 6.18375 1.26079 6.2177 1.48147L6.87974 5.04629C6.91369 5.31789 6.9052 5.54706 6.85428 5.73379C6.80335 5.92051 6.70999 6.08178 6.57418 6.21758L4.10428 8.71295C4.44378 9.34104 4.84695 9.94791 5.31377 10.5336C5.78059 11.1192 6.29409 11.6836 6.85428 12.2268C7.38051 12.7531 7.93221 13.2411 8.50937 13.691C9.08653 14.1408 9.69764 14.5525 10.3427 14.9259L12.7362 12.5324C12.889 12.3796 13.0885 12.265 13.3346 12.1886C13.5807 12.1123 13.8226 12.091 14.0603 12.125L17.5742 12.838C17.8118 12.9059 18.0071 13.0289 18.1598 13.2072C18.3126 13.3854 18.389 13.5849 18.389 13.8055V17.9305C18.389 18.2361 18.2871 18.4907 18.0834 18.6944C17.8797 18.8981 17.6251 19 17.3196 19ZM3.13668 6.77777L4.81724 5.09721L4.38437 2.70369H2.11816C2.20304 3.39968 2.32187 4.08718 2.47465 4.76619C2.62742 5.44521 2.8481 6.11573 3.13668 6.77777ZM12.2524 15.8935C12.9145 16.1821 13.5892 16.4113 14.2767 16.581C14.9642 16.7508 15.656 16.8611 16.352 16.912V14.6713L13.9584 14.1875L12.2524 15.8935Z" fill="#9C0000"/>
</svg>
