<?xml version="1.0" encoding="UTF-8"?>
<svg id="Capa_1" xmlns="http://www.w3.org/2000/svg" version="1.1" viewBox="0 0 24 24">
  <!-- Generator: Adobe Illustrator 29.1.0, SVG Export Plug-In . SVG Version: 2.1.0 Build 142)  -->
  <defs>
    <style>
      .st0 {
        fill: #fff;
      }
    </style>
  </defs>
  <path class="st0" d="M12,21c-2.5,0-4.6-.9-6.4-2.6s-2.6-3.9-2.6-6.4.9-4.6,2.6-6.4,3.9-2.6,6.4-2.6.5,0,.7,0h.7c-.7.5-1.2,1.1-1.6,1.9s-.6,1.6-.6,2.5c0,1.5.5,2.8,1.6,3.8s2.3,1.6,3.8,1.6,1.8-.2,2.5-.6,1.4-1,1.9-1.6v1.4c0,2.5-.9,4.6-2.6,6.4s-3.9,2.6-6.4,2.6ZM12,19c1.5,0,2.8-.4,4-1.2,1.2-.8,2-1.9,2.6-3.2-.3,0-.7.2-1,.2h-1c-2.1,0-3.8-.7-5.2-2.2s-2.2-3.2-2.2-5.2,0-.7,0-1,.1-.7.2-1c-1.3.5-2.4,1.4-3.2,2.6-.8,1.2-1.2,2.5-1.2,4s.7,3.6,2.1,5,3,2.1,5,2.1h-.1Z"/>
</svg>