<svg width="14" height="11" viewBox="0 0 14 11" fill="none" xmlns="http://www.w3.org/2000/svg">
<path d="M1.4 11C1.015 11 0.685417 10.8654 0.41125 10.5961C0.137083 10.3268 0 10.0031 0 9.625V1.375C0 0.996875 0.137083 0.673177 0.41125 0.403906C0.685417 0.134635 1.015 0 1.4 0H12.6C12.985 0 13.3146 0.134635 13.5887 0.403906C13.8629 0.673177 14 0.996875 14 1.375V9.625C14 10.0031 13.8629 10.3268 13.5887 10.5961C13.3146 10.8654 12.985 11 12.6 11H1.4ZM7 6.1875L1.4 2.75V9.625H12.6V2.75L7 6.1875ZM7 4.8125L12.6 1.375H1.4L7 4.8125ZM1.4 2.75V1.375V9.625V2.75Z" fill="white"/>
</svg>
