<svg width="22" height="18" viewBox="0 0 22 18" fill="none" xmlns="http://www.w3.org/2000/svg">
<path d="M2.13889 17.4444C1.55069 17.4444 1.04716 17.2387 0.628299 16.8274C0.209433 16.416 0 15.9214 0 15.3437V2.73958C0 2.16189 0.209433 1.66735 0.628299 1.25596C1.04716 0.844578 1.55069 0.638885 2.13889 0.638885H19.25C19.8382 0.638885 20.3417 0.844578 20.7606 1.25596C21.1795 1.66735 21.3889 2.16189 21.3889 2.73958V15.3437C21.3889 15.9214 21.1795 16.416 20.7606 16.8274C20.3417 17.2387 19.8382 17.4444 19.25 17.4444H2.13889ZM10.6944 10.092L2.13889 4.84027V15.3437H19.25V4.84027L10.6944 10.092ZM10.6944 7.99132L19.25 2.73958H2.13889L10.6944 7.99132ZM2.13889 4.84027V2.73958V15.3437V4.84027Z" fill="#9C0000"/>
</svg>
