<?xml version="1.0" encoding="UTF-8"?>
<svg id="Capa_1" data-name="Capa 1" xmlns="http://www.w3.org/2000/svg" viewBox="0 0 22 18">
  <defs>
    <style>
      .cls-1 {
        fill: #d5da26;
      }
    </style>
  </defs>
  <path class="cls-1" d="M2.14,17.44c-.59,0-1.09-.21-1.51-.62-.42-.41-.63-.91-.63-1.48V2.74c0-.58.21-1.07.63-1.48.42-.41.92-.62,1.51-.62h17.11c.59,0,1.09.21,1.51.62.42.41.63.91.63,1.48v12.6c0,.58-.21,1.07-.63,1.48-.42.41-.92.62-1.51.62H2.14ZM10.69,10.09L2.14,4.84v10.5h17.11V4.84l-8.56,5.25ZM10.69,7.99l8.56-5.25H2.14l8.56,5.25ZM2.14,4.84v-2.1,12.6V4.84Z"/>
</svg>