<svg width="255" height="170" viewBox="0 0 255 170" fill="none" xmlns="http://www.w3.org/2000/svg">
<rect width="255" height="170" rx="24" fill="#E7E6E2"/>
<path d="M61.389 22H19.6079C18.7201 22 18 22.7129 18 23.5917V55.4083C18 56.2871 18.7201 56.9969 19.6079 57H61.3921C62.2798 57 62.9969 56.2871 63 55.4083V23.5917C63 22.7129 62.2798 22.0031 61.3921 22H61.389ZM59.7842 25.9763C59.7842 26.4157 59.4241 26.7722 58.9802 26.7722C58.5363 26.7722 58.1762 26.4157 58.1762 25.9763C58.1762 25.5369 58.5363 25.1804 58.9802 25.1804C59.4241 25.1804 59.7842 25.5369 59.7842 25.9763ZM31.6611 25.9763C31.6611 26.4157 31.301 26.7722 30.8571 26.7722H22.0167C21.5728 26.7722 21.2127 26.4157 21.2127 25.9763C21.2127 25.5369 21.5728 25.1804 22.0167 25.1804H30.854C31.2979 25.1804 31.658 25.5369 31.658 25.9763H31.6611ZM19.6079 55.4083V29.9557H61.3921V55.4083H19.6079ZM35.6778 38.7041V46.6598C35.6778 47.0992 35.3177 47.4557 34.8738 47.4557H24.4286C23.9847 47.4557 23.6246 47.0992 23.6246 46.6598V38.7041C23.6246 38.2647 23.9847 37.9083 24.4286 37.9083H34.8738C35.3177 37.9083 35.6778 38.2647 35.6778 38.7041ZM56.5683 31.5443H48.5318C48.0879 31.5443 47.7279 31.9008 47.7279 32.3402V37.1124C47.7279 37.5518 48.0879 37.9083 48.5318 37.9083H56.5683C57.0122 37.9083 57.3723 37.5518 57.3723 37.1124V32.3402C57.3723 31.9008 57.0122 31.5443 56.5683 31.5443ZM55.7644 36.3165H49.3358V33.1361H55.7644V36.3165ZM56.5683 39.5H48.5318C48.0879 39.5 47.7279 39.8565 47.7279 40.2959V45.068C47.7279 45.5075 48.0879 45.8639 48.5318 45.8639H56.5683C57.0122 45.8639 57.3723 45.5075 57.3723 45.068V40.2959C57.3723 39.8565 57.0122 39.5 56.5683 39.5ZM55.7644 44.2722H49.3358V41.0917H55.7644V44.2722ZM56.5683 47.4526H48.5318C48.0879 47.4526 47.7279 47.809 47.7279 48.2485V53.0206C47.7279 53.4601 48.0879 53.8165 48.5318 53.8165H56.5683C57.0122 53.8165 57.3723 53.4601 57.3723 53.0206V48.2485C57.3723 47.809 57.0122 47.4526 56.5683 47.4526ZM55.7644 52.2278H49.3358V49.0474H55.7644V52.2278ZM42.9103 35.5237V41.8876H45.3222C45.7661 41.8876 46.1262 42.2441 46.1262 42.6835C46.1262 43.1229 45.7661 43.4794 45.3222 43.4794H42.9103V49.8433H45.3222C45.7661 49.8433 46.1262 50.1997 46.1262 50.6392C46.1262 51.0786 45.7661 51.435 45.3222 51.435H42.1095C41.6656 51.435 41.3055 51.0786 41.3055 50.6392V43.4794H38.0928C37.6489 43.4794 37.2888 43.1229 37.2888 42.6835C37.2888 42.2441 37.6489 41.8876 38.0928 41.8876H41.3055V34.7278C41.3055 34.2884 41.6656 33.932 42.1095 33.932H45.3253C45.7692 33.932 46.1293 34.2884 46.1293 34.7278C46.1293 35.1673 45.7692 35.5237 45.3253 35.5237H42.9134H42.9103Z" fill="#9C0000"/>
<path d="M21.6626 79.9091V93H19.2912V79.9091H21.6626ZM26.4423 87.2472V93H24.1284V83.1818H26.34V84.8501H26.4551C26.6809 84.3004 27.041 83.8636 27.5353 83.5398C28.0339 83.2159 28.6497 83.054 29.3826 83.054C30.0602 83.054 30.6504 83.1989 31.1532 83.4886C31.6603 83.7784 32.0524 84.1982 32.3294 84.7479C32.6106 85.2976 32.7491 85.9645 32.7449 86.7486V93H30.4309V87.1065C30.4309 86.4503 30.2605 85.9368 29.9196 85.5661C29.5829 85.1953 29.1163 85.0099 28.5197 85.0099C28.1149 85.0099 27.7548 85.0994 27.4395 85.2784C27.1284 85.4531 26.8833 85.7067 26.7044 86.0391C26.5297 86.3714 26.4423 86.7741 26.4423 87.2472ZM39.9998 83.1818V84.9716H34.3556V83.1818H39.9998ZM35.7491 80.8295H38.063V90.0469C38.063 90.358 38.1099 90.5966 38.2037 90.7628C38.3017 90.9247 38.4295 91.0355 38.5872 91.0952C38.7449 91.1548 38.9196 91.1847 39.1113 91.1847C39.2562 91.1847 39.3883 91.174 39.5076 91.1527C39.6312 91.1314 39.725 91.1122 39.7889 91.0952L40.1788 92.9041C40.0552 92.9467 39.8784 92.9936 39.6483 93.0447C39.4224 93.0959 39.1454 93.1257 38.8173 93.1342C38.2377 93.1513 37.7157 93.0639 37.2512 92.8722C36.7868 92.6761 36.4181 92.3736 36.1454 91.9645C35.877 91.5554 35.7449 91.044 35.7491 90.4304V80.8295ZM46.1761 93.1918C45.1918 93.1918 44.3416 92.9872 43.6257 92.5781C42.9141 92.1648 42.3665 91.581 41.983 90.8267C41.5994 90.0682 41.4077 89.1754 41.4077 88.1484C41.4077 87.1385 41.5994 86.2521 41.983 85.4893C42.3707 84.7223 42.9119 84.1257 43.6065 83.6996C44.3011 83.2692 45.1172 83.054 46.0547 83.054C46.6598 83.054 47.2308 83.152 47.7678 83.348C48.3089 83.5398 48.7862 83.8381 49.1996 84.2429C49.6172 84.6477 49.9453 85.1634 50.1839 85.7898C50.4226 86.4119 50.5419 87.1534 50.5419 88.0142V88.7237H42.4943V87.1641H48.3239C48.3196 86.7209 48.2237 86.3267 48.0362 85.9815C47.8487 85.6321 47.5866 85.3572 47.25 85.157C46.9176 84.9567 46.5298 84.8565 46.0866 84.8565C45.6136 84.8565 45.1982 84.9716 44.8402 85.2017C44.4822 85.4276 44.2031 85.7259 44.0028 86.0966C43.8068 86.4631 43.7067 86.8658 43.7024 87.3047V88.6662C43.7024 89.2372 43.8068 89.7273 44.0156 90.1364C44.2244 90.5412 44.5163 90.8523 44.8913 91.0696C45.2663 91.2827 45.7053 91.3892 46.2081 91.3892C46.5447 91.3892 46.8494 91.3423 47.1222 91.2486C47.3949 91.1506 47.6314 91.0078 47.8317 90.8203C48.032 90.6328 48.1832 90.4006 48.2855 90.1236L50.446 90.3665C50.3097 90.9375 50.0497 91.4361 49.6662 91.8622C49.2869 92.2841 48.8011 92.6122 48.2088 92.8466C47.6165 93.0767 46.9389 93.1918 46.1761 93.1918ZM52.4995 93V83.1818H54.7431V84.8182H54.8453C55.0243 84.2514 55.3311 83.8146 55.7658 83.5078C56.2047 83.1967 56.7054 83.0412 57.2679 83.0412C57.3958 83.0412 57.5385 83.0476 57.6962 83.0604C57.8581 83.0689 57.9924 83.0838 58.0989 83.1051V85.2337C58.0009 85.1996 57.8453 85.1697 57.6323 85.1442C57.4235 85.1143 57.2211 85.0994 57.025 85.0994C56.6032 85.0994 56.2239 85.1911 55.8873 85.3743C55.5549 85.5533 55.2928 85.8026 55.101 86.1222C54.9093 86.4418 54.8134 86.8104 54.8134 87.228V93H52.4995ZM65.1365 83.1818V84.9716H59.3326V83.1818H65.1365ZM60.7836 93V82.255C60.7836 81.5945 60.9199 81.0447 61.1926 80.6058C61.4696 80.1669 61.8404 79.8388 62.3049 79.6214C62.7694 79.4041 63.285 79.2955 63.8517 79.2955C64.2523 79.2955 64.6081 79.3274 64.9192 79.3913C65.2303 79.4553 65.4604 79.5128 65.6096 79.5639L65.1493 81.3537C65.0513 81.3239 64.9277 81.294 64.7786 81.2642C64.6294 81.2301 64.4632 81.2131 64.28 81.2131C63.8496 81.2131 63.5449 81.3175 63.3659 81.5263C63.1912 81.7308 63.1039 82.0249 63.1039 82.4084V93H60.7836ZM69.44 93.1982C68.8178 93.1982 68.2575 93.0874 67.7589 92.8658C67.2646 92.6399 66.8725 92.3075 66.5827 91.8686C66.2972 91.4297 66.1545 90.8885 66.1545 90.245C66.1545 89.6911 66.2567 89.233 66.4613 88.8707C66.6658 88.5085 66.945 88.2188 67.2987 88.0014C67.6523 87.7841 68.0508 87.62 68.494 87.5092C68.9414 87.3942 69.4038 87.3111 69.881 87.2599C70.4563 87.2003 70.9229 87.147 71.2809 87.1001C71.6388 87.049 71.8988 86.9723 72.0607 86.87C72.2269 86.7635 72.31 86.5994 72.31 86.3778V86.3395C72.31 85.858 72.1673 85.4851 71.8817 85.2209C71.5962 84.9567 71.185 84.8246 70.6481 84.8246C70.0813 84.8246 69.6317 84.9482 69.2994 85.1953C68.9712 85.4425 68.7496 85.7344 68.6346 86.071L66.4741 85.7642C66.6445 85.1676 66.9258 84.669 67.3178 84.2685C67.7099 83.8636 68.1893 83.5611 68.756 83.3608C69.3228 83.1562 69.9492 83.054 70.6353 83.054C71.1083 83.054 71.5792 83.1094 72.0479 83.2202C72.5167 83.331 72.945 83.5142 73.3327 83.7699C73.7205 84.0213 74.0316 84.3643 74.266 84.799C74.5046 85.2337 74.6239 85.777 74.6239 86.429V93H72.3995V91.6513H72.3228C72.1822 91.924 71.984 92.1797 71.7283 92.4183C71.4769 92.6527 71.1594 92.8423 70.7759 92.9872C70.3967 93.1278 69.9513 93.1982 69.44 93.1982ZM70.0408 91.4979C70.5053 91.4979 70.908 91.4062 71.2489 91.223C71.5898 91.0355 71.8519 90.7884 72.0352 90.4815C72.2227 90.1747 72.3164 89.8402 72.3164 89.478V88.321C72.244 88.3807 72.1204 88.4361 71.9457 88.4872C71.7752 88.5384 71.5835 88.5831 71.3704 88.6214C71.1573 88.6598 70.9464 88.6939 70.7376 88.7237C70.5288 88.7536 70.3477 88.7791 70.1942 88.8004C69.8491 88.8473 69.5401 88.924 69.2674 89.0305C68.9947 89.1371 68.7795 89.2862 68.6218 89.478C68.4641 89.6655 68.3853 89.9084 68.3853 90.2067C68.3853 90.6328 68.5408 90.9545 68.8519 91.1719C69.163 91.3892 69.5593 91.4979 70.0408 91.4979ZM81.2333 93.1918C80.2532 93.1918 79.4116 92.9766 78.7085 92.5462C78.0096 92.1158 77.4705 91.5213 77.0913 90.7628C76.7163 90 76.5288 89.1222 76.5288 88.1293C76.5288 87.1321 76.7205 86.2521 77.104 85.4893C77.4876 84.7223 78.0288 84.1257 78.7276 83.6996C79.4308 83.2692 80.2617 83.054 81.2205 83.054C82.0174 83.054 82.7227 83.201 83.3363 83.495C83.9542 83.7848 84.4464 84.196 84.8129 84.7287C85.1793 85.2571 85.3881 85.875 85.4393 86.5824H83.2276C83.1381 86.1094 82.9251 85.7152 82.5884 85.3999C82.256 85.0803 81.8107 84.9205 81.2525 84.9205C80.7795 84.9205 80.364 85.0483 80.006 85.304C79.6481 85.5554 79.369 85.9176 79.1687 86.3906C78.9727 86.8636 78.8746 87.4304 78.8746 88.0909C78.8746 88.7599 78.9727 89.3352 79.1687 89.8168C79.3647 90.294 79.6396 90.6626 79.9933 90.9226C80.3512 91.1783 80.771 91.3061 81.2525 91.3061C81.5934 91.3061 81.8981 91.2422 82.1665 91.1143C82.4393 90.9822 82.6673 90.7926 82.8505 90.5455C83.0337 90.2983 83.1594 89.9979 83.2276 89.6442H85.4393C85.3839 90.3388 85.1793 90.9545 84.8256 91.4915C84.4719 92.0241 83.9904 92.4418 83.381 92.7443C82.7717 93.0426 82.0558 93.1918 81.2333 93.1918ZM91.6859 93.1918C90.7015 93.1918 89.8514 92.9872 89.1355 92.5781C88.4238 92.1648 87.8762 91.581 87.4927 90.8267C87.1092 90.0682 86.9174 89.1754 86.9174 88.1484C86.9174 87.1385 87.1092 86.2521 87.4927 85.4893C87.8805 84.7223 88.4217 84.1257 89.1163 83.6996C89.8109 83.2692 90.627 83.054 91.5645 83.054C92.1696 83.054 92.7406 83.152 93.2775 83.348C93.8187 83.5398 94.296 83.8381 94.7093 84.2429C95.127 84.6477 95.4551 85.1634 95.6937 85.7898C95.9324 86.4119 96.0517 87.1534 96.0517 88.0142V88.7237H88.0041V87.1641H93.8336C93.8294 86.7209 93.7335 86.3267 93.546 85.9815C93.3585 85.6321 93.0964 85.3572 92.7598 85.157C92.4274 84.9567 92.0396 84.8565 91.5964 84.8565C91.1234 84.8565 90.7079 84.9716 90.35 85.2017C89.992 85.4276 89.7129 85.7259 89.5126 86.0966C89.3166 86.4631 89.2164 86.8658 89.2122 87.3047V88.6662C89.2122 89.2372 89.3166 89.7273 89.5254 90.1364C89.7342 90.5412 90.0261 90.8523 90.4011 91.0696C90.7761 91.2827 91.215 91.3892 91.7179 91.3892C92.0545 91.3892 92.3592 91.3423 92.6319 91.2486C92.9047 91.1506 93.1412 91.0078 93.3414 90.8203C93.5417 90.6328 93.693 90.4006 93.7953 90.1236L95.9558 90.3665C95.8194 90.9375 95.5595 91.4361 95.176 91.8622C94.7967 92.2841 94.3109 92.6122 93.7186 92.8466C93.1262 93.0767 92.4487 93.1918 91.6859 93.1918ZM107.012 93H102.576V79.9091H107.102C108.402 79.9091 109.518 80.1712 110.451 80.6953C111.389 81.2152 112.109 81.9631 112.612 82.9389C113.115 83.9148 113.366 85.0824 113.366 86.4418C113.366 87.8054 113.113 88.9773 112.605 89.9574C112.103 90.9375 111.376 91.6896 110.426 92.2138C109.48 92.7379 108.342 93 107.012 93ZM104.948 90.9482H106.897C107.809 90.9482 108.57 90.782 109.179 90.4496C109.789 90.1129 110.247 89.6122 110.554 88.9474C110.86 88.2784 111.014 87.4432 111.014 86.4418C111.014 85.4403 110.86 84.6094 110.554 83.9489C110.247 83.2841 109.793 82.7876 109.192 82.4595C108.596 82.1271 107.854 81.9609 106.968 81.9609H104.948V90.9482ZM119.864 93.1918C118.879 93.1918 118.029 92.9872 117.313 92.5781C116.602 92.1648 116.054 91.581 115.67 90.8267C115.287 90.0682 115.095 89.1754 115.095 88.1484C115.095 87.1385 115.287 86.2521 115.67 85.4893C116.058 84.7223 116.599 84.1257 117.294 83.6996C117.989 83.2692 118.805 83.054 119.742 83.054C120.347 83.054 120.918 83.152 121.455 83.348C121.996 83.5398 122.474 83.8381 122.887 84.2429C123.305 84.6477 123.633 85.1634 123.871 85.7898C124.11 86.4119 124.229 87.1534 124.229 88.0142V88.7237H116.182V87.1641H122.011C122.007 86.7209 121.911 86.3267 121.724 85.9815C121.536 85.6321 121.274 85.3572 120.938 85.157C120.605 84.9567 120.217 84.8565 119.774 84.8565C119.301 84.8565 118.886 84.9716 118.528 85.2017C118.17 85.4276 117.891 85.7259 117.69 86.0966C117.494 86.4631 117.394 86.8658 117.39 87.3047V88.6662C117.39 89.2372 117.494 89.7273 117.703 90.1364C117.912 90.5412 118.204 90.8523 118.579 91.0696C118.954 91.2827 119.393 91.3892 119.896 91.3892C120.232 91.3892 120.537 91.3423 120.81 91.2486C121.082 91.1506 121.319 91.0078 121.519 90.8203C121.719 90.6328 121.871 90.4006 121.973 90.1236L124.134 90.3665C123.997 90.9375 123.737 91.4361 123.354 91.8622C122.974 92.2841 122.489 92.6122 121.896 92.8466C121.304 93.0767 120.626 93.1918 119.864 93.1918ZM133.947 85.777L131.838 86.0071C131.778 85.794 131.673 85.5938 131.524 85.4062C131.379 85.2188 131.183 85.0675 130.936 84.9524C130.689 84.8374 130.387 84.7798 130.029 84.7798C129.547 84.7798 129.142 84.8842 128.814 85.093C128.49 85.3018 128.33 85.5724 128.335 85.9048C128.33 86.1903 128.435 86.4226 128.648 86.6016C128.865 86.7805 129.223 86.9276 129.722 87.0426L131.396 87.4006C132.325 87.6009 133.016 87.9183 133.468 88.353C133.923 88.7876 134.154 89.3565 134.158 90.0597C134.154 90.6776 133.972 91.223 133.615 91.696C133.261 92.1648 132.769 92.5312 132.138 92.7955C131.507 93.0597 130.783 93.1918 129.965 93.1918C128.763 93.1918 127.796 92.9403 127.063 92.4375C126.33 91.9304 125.893 91.2251 125.752 90.3217L128.009 90.1044C128.111 90.5476 128.328 90.8821 128.661 91.108C128.993 91.3338 129.426 91.4467 129.958 91.4467C130.508 91.4467 130.949 91.3338 131.281 91.108C131.618 90.8821 131.786 90.603 131.786 90.2706C131.786 89.9893 131.678 89.7571 131.46 89.5739C131.247 89.3906 130.915 89.25 130.463 89.152L128.789 88.8004C127.847 88.6044 127.15 88.2741 126.698 87.8097C126.247 87.3409 126.023 86.7486 126.027 86.0327C126.023 85.4276 126.187 84.9034 126.519 84.4602C126.856 84.0128 127.323 83.6676 127.919 83.4247C128.52 83.1776 129.213 83.054 129.997 83.054C131.147 83.054 132.053 83.299 132.713 83.7891C133.378 84.2791 133.789 84.9418 133.947 85.777ZM136.066 93V83.1818H138.38V93H136.066ZM137.229 81.7884C136.863 81.7884 136.547 81.6669 136.283 81.424C136.019 81.1768 135.887 80.8807 135.887 80.5355C135.887 80.1861 136.019 79.8899 136.283 79.647C136.547 79.3999 136.863 79.2763 137.229 79.2763C137.6 79.2763 137.915 79.3999 138.175 79.647C138.439 79.8899 138.572 80.1861 138.572 80.5355C138.572 80.8807 138.439 81.1768 138.175 81.424C137.915 81.6669 137.6 81.7884 137.229 81.7884ZM145.029 96.8864C144.198 96.8864 143.484 96.7734 142.888 96.5476C142.291 96.326 141.812 96.0277 141.45 95.6527C141.087 95.2777 140.836 94.8622 140.695 94.4062L142.779 93.9013C142.873 94.093 143.009 94.2827 143.188 94.4702C143.367 94.6619 143.608 94.8196 143.911 94.9432C144.217 95.071 144.603 95.1349 145.067 95.1349C145.724 95.1349 146.267 94.9751 146.697 94.6555C147.128 94.3402 147.343 93.8203 147.343 93.0959V91.2358H147.228C147.109 91.4744 146.934 91.7195 146.704 91.9709C146.478 92.2223 146.178 92.4332 145.803 92.6037C145.432 92.7741 144.965 92.8594 144.403 92.8594C143.648 92.8594 142.964 92.6825 142.351 92.3288C141.741 91.9709 141.256 91.4382 140.893 90.7308C140.536 90.0192 140.357 89.1286 140.357 88.0589C140.357 86.9808 140.536 86.071 140.893 85.3295C141.256 84.5838 141.744 84.0192 142.357 83.6357C142.971 83.2479 143.655 83.054 144.409 83.054C144.984 83.054 145.457 83.152 145.828 83.348C146.203 83.5398 146.501 83.772 146.723 84.0447C146.945 84.3132 147.113 84.5668 147.228 84.8054H147.356V83.1818H149.638V93.1598C149.638 93.9993 149.438 94.6939 149.037 95.2436C148.636 95.7933 148.089 96.2045 147.394 96.4773C146.7 96.75 145.911 96.8864 145.029 96.8864ZM145.048 91.044C145.538 91.044 145.956 90.9247 146.301 90.6861C146.646 90.4474 146.908 90.1044 147.087 89.657C147.266 89.2095 147.356 88.6726 147.356 88.0462C147.356 87.4283 147.266 86.8871 147.087 86.4226C146.913 85.9581 146.653 85.598 146.308 85.3423C145.967 85.0824 145.547 84.9524 145.048 84.9524C144.533 84.9524 144.102 85.0866 143.757 85.3551C143.412 85.6236 143.152 85.9922 142.977 86.4609C142.803 86.9254 142.715 87.4538 142.715 88.0462C142.715 88.647 142.803 89.1733 142.977 89.625C143.156 90.0724 143.418 90.4219 143.763 90.6733C144.113 90.9205 144.541 91.044 145.048 91.044ZM154.323 87.2472V93H152.009V83.1818H154.221V84.8501H154.336C154.562 84.3004 154.922 83.8636 155.416 83.5398C155.915 83.2159 156.531 83.054 157.263 83.054C157.941 83.054 158.531 83.1989 159.034 83.4886C159.541 83.7784 159.933 84.1982 160.21 84.7479C160.491 85.2976 160.63 85.9645 160.626 86.7486V93H158.312V87.1065C158.312 86.4503 158.141 85.9368 157.8 85.5661C157.464 85.1953 156.997 85.0099 156.401 85.0099C155.996 85.0099 155.636 85.0994 155.32 85.2784C155.009 85.4531 154.764 85.7067 154.585 86.0391C154.411 86.3714 154.323 86.7741 154.323 87.2472Z" fill="black"/>
<path d="M21.5032 112.001C22.2866 112.001 23.07 111.998 23.8534 112.002C24.4062 112.004 24.8279 112.329 24.96 112.851C24.984 112.947 24.998 113.048 24.998 113.147C25.0005 114.715 25.0005 116.283 24.999 117.852C24.9985 118.392 24.6738 118.819 24.1611 118.957C24.062 118.983 23.9569 118.998 23.8544 118.998C22.2876 119 20.7208 119 19.1535 118.999C18.4947 118.999 18.0019 118.508 18.0009 117.846C17.9994 116.286 17.9999 114.726 18.0009 113.167C18.0014 112.484 18.4802 112.004 19.165 112.001C19.9444 111.998 20.7238 112.001 21.5027 112.001H21.5032ZM21.0115 116.236C20.9804 116.209 20.9614 116.194 20.9444 116.177C20.6378 115.871 20.3316 115.563 20.024 115.258C19.8854 115.121 19.6858 115.098 19.5342 115.197C19.3136 115.341 19.2856 115.614 19.4777 115.808C19.8769 116.211 20.2786 116.611 20.6793 117.012C20.9009 117.234 21.1005 117.231 21.3236 117.005C21.5377 116.789 21.7533 116.574 21.9684 116.359C22.4842 115.843 23.0005 115.327 23.5157 114.811C23.6223 114.704 23.6783 114.577 23.6418 114.426C23.5663 114.112 23.2201 114.022 22.9815 114.258C22.4747 114.76 21.9724 115.266 21.4692 115.771C21.3166 115.923 21.1665 116.078 21.011 116.237L21.0115 116.236Z" fill="#9C0000"/>
<path d="M21.5032 134.001C22.2866 134.001 23.07 133.998 23.8534 134.002C24.4062 134.004 24.8279 134.329 24.96 134.851C24.984 134.947 24.998 135.048 24.998 135.147C25.0005 136.715 25.0005 138.283 24.999 139.852C24.9985 140.392 24.6738 140.819 24.1611 140.957C24.062 140.983 23.9569 140.998 23.8544 140.998C22.2876 141 20.7208 141 19.1535 140.999C18.4947 140.999 18.0019 140.508 18.0009 139.846C17.9994 138.286 17.9999 136.726 18.0009 135.167C18.0014 134.484 18.4802 134.004 19.165 134.001C19.9444 133.998 20.7238 134.001 21.5027 134.001H21.5032ZM21.0115 138.236C20.9804 138.209 20.9614 138.194 20.9444 138.177C20.6378 137.871 20.3316 137.563 20.024 137.258C19.8854 137.121 19.6858 137.098 19.5342 137.197C19.3136 137.341 19.2856 137.614 19.4777 137.808C19.8769 138.211 20.2786 138.611 20.6793 139.012C20.9009 139.234 21.1005 139.231 21.3236 139.005C21.5377 138.789 21.7533 138.574 21.9684 138.359C22.4842 137.843 23.0005 137.327 23.5157 136.811C23.6223 136.704 23.6783 136.577 23.6418 136.426C23.5663 136.112 23.2201 136.022 22.9815 136.258C22.4747 136.76 21.9724 137.266 21.4692 137.771C21.3166 137.923 21.1665 138.078 21.011 138.237L21.0115 138.236Z" fill="#9C0000"/>
<path d="M125.503 112.001C126.287 112.001 127.07 111.998 127.853 112.002C128.406 112.004 128.828 112.329 128.96 112.851C128.984 112.947 128.998 113.048 128.998 113.147C129 114.715 129 116.283 128.999 117.852C128.998 118.392 128.674 118.819 128.161 118.957C128.062 118.983 127.957 118.998 127.854 118.998C126.288 119 124.721 119 123.154 118.999C122.495 118.999 122.002 118.508 122.001 117.846C121.999 116.286 122 114.726 122.001 113.167C122.001 112.484 122.48 112.004 123.165 112.001C123.944 111.998 124.724 112.001 125.503 112.001H125.503ZM125.011 116.236C124.98 116.209 124.961 116.194 124.944 116.177C124.638 115.871 124.332 115.563 124.024 115.258C123.885 115.121 123.686 115.098 123.534 115.197C123.314 115.341 123.286 115.614 123.478 115.808C123.877 116.211 124.279 116.611 124.679 117.012C124.901 117.234 125.101 117.231 125.324 117.005C125.538 116.789 125.753 116.574 125.968 116.359C126.484 115.843 127 115.327 127.516 114.811C127.622 114.704 127.678 114.577 127.642 114.426C127.566 114.112 127.22 114.022 126.981 114.258C126.475 114.76 125.972 115.266 125.469 115.771C125.317 115.923 125.167 116.078 125.011 116.237L125.011 116.236Z" fill="#9C0000"/>
<path d="M125.503 134.001C126.287 134.001 127.07 133.998 127.853 134.002C128.406 134.004 128.828 134.329 128.96 134.851C128.984 134.947 128.998 135.048 128.998 135.147C129 136.715 129 138.283 128.999 139.852C128.998 140.392 128.674 140.819 128.161 140.957C128.062 140.983 127.957 140.998 127.854 140.998C126.288 141 124.721 141 123.154 140.999C122.495 140.999 122.002 140.508 122.001 139.846C121.999 138.286 122 136.726 122.001 135.167C122.001 134.484 122.48 134.004 123.165 134.001C123.944 133.998 124.724 134.001 125.503 134.001H125.503ZM125.011 138.236C124.98 138.209 124.961 138.194 124.944 138.177C124.638 137.871 124.332 137.563 124.024 137.258C123.885 137.121 123.686 137.098 123.534 137.197C123.314 137.341 123.286 137.614 123.478 137.808C123.877 138.211 124.279 138.611 124.679 139.012C124.901 139.234 125.101 139.231 125.324 139.005C125.538 138.789 125.753 138.574 125.968 138.359C126.484 137.843 127 137.327 127.516 136.811C127.622 136.704 127.678 136.577 127.642 136.426C127.566 136.112 127.22 136.022 126.981 136.258C126.475 136.76 125.972 137.266 125.469 137.771C125.317 137.923 125.167 138.078 125.011 138.237L125.011 138.236Z" fill="#9C0000"/>
<path d="M34.5 120H31.7891V112H34.5547C35.349 112 36.0313 112.16 36.6016 112.48C37.1745 112.798 37.6146 113.255 37.9219 113.852C38.2292 114.448 38.3828 115.161 38.3828 115.992C38.3828 116.826 38.2279 117.542 37.918 118.141C37.6107 118.74 37.1667 119.199 36.5859 119.52C36.0078 119.84 35.3125 120 34.5 120ZM33.2383 118.746H34.4297C34.987 118.746 35.4518 118.645 35.8242 118.441C36.1966 118.236 36.4766 117.93 36.6641 117.523C36.8516 117.115 36.9453 116.604 36.9453 115.992C36.9453 115.38 36.8516 114.872 36.6641 114.469C36.4766 114.062 36.1992 113.759 35.832 113.559C35.4674 113.355 35.0143 113.254 34.4727 113.254H33.2383V118.746ZM42.3535 120.117C41.752 120.117 41.2324 119.992 40.7949 119.742C40.36 119.49 40.0254 119.133 39.791 118.672C39.5566 118.208 39.4395 117.663 39.4395 117.035C39.4395 116.418 39.5566 115.876 39.791 115.41C40.028 114.941 40.3587 114.577 40.7832 114.316C41.2077 114.053 41.7064 113.922 42.2793 113.922C42.6491 113.922 42.998 113.982 43.3262 114.102C43.6569 114.219 43.9486 114.401 44.2012 114.648C44.4564 114.896 44.6569 115.211 44.8027 115.594C44.9486 115.974 45.0215 116.427 45.0215 116.953V117.387H40.1035V116.434H43.666C43.6634 116.163 43.6048 115.922 43.4902 115.711C43.3757 115.497 43.2155 115.329 43.0098 115.207C42.8066 115.085 42.5697 115.023 42.2988 115.023C42.0098 115.023 41.7559 115.094 41.5371 115.234C41.3184 115.372 41.1478 115.555 41.0254 115.781C40.9056 116.005 40.8444 116.251 40.8418 116.52V117.352C40.8418 117.701 40.9056 118 41.0332 118.25C41.1608 118.497 41.3392 118.687 41.5684 118.82C41.7975 118.951 42.0658 119.016 42.373 119.016C42.5788 119.016 42.765 118.987 42.9316 118.93C43.0983 118.87 43.2428 118.783 43.3652 118.668C43.4876 118.553 43.5801 118.411 43.6426 118.242L44.9629 118.391C44.8796 118.74 44.7207 119.044 44.4863 119.305C44.2546 119.562 43.9577 119.763 43.5957 119.906C43.2337 120.047 42.8197 120.117 42.3535 120.117ZM50.96 115.586L49.6709 115.727C49.6344 115.596 49.5706 115.474 49.4795 115.359C49.391 115.245 49.2712 115.152 49.1201 115.082C48.9691 115.012 48.7842 114.977 48.5654 114.977C48.2712 114.977 48.0238 115.04 47.8232 115.168C47.6253 115.296 47.5277 115.461 47.5303 115.664C47.5277 115.839 47.5915 115.98 47.7217 116.09C47.8545 116.199 48.0732 116.289 48.3779 116.359L49.4014 116.578C49.9691 116.701 50.391 116.895 50.667 117.16C50.9456 117.426 51.0863 117.773 51.0889 118.203C51.0863 118.581 50.9756 118.914 50.7568 119.203C50.5407 119.49 50.2399 119.714 49.8545 119.875C49.4691 120.036 49.0264 120.117 48.5264 120.117C47.792 120.117 47.2008 119.964 46.7529 119.656C46.305 119.346 46.0381 118.915 45.9521 118.363L47.3311 118.23C47.3936 118.501 47.5264 118.706 47.7295 118.844C47.9326 118.982 48.1969 119.051 48.5225 119.051C48.8584 119.051 49.1279 118.982 49.3311 118.844C49.5368 118.706 49.6396 118.535 49.6396 118.332C49.6396 118.16 49.5732 118.018 49.4404 117.906C49.3102 117.794 49.1071 117.708 48.8311 117.648L47.8076 117.434C47.2321 117.314 46.8063 117.112 46.5303 116.828C46.2542 116.542 46.1175 116.18 46.1201 115.742C46.1175 115.372 46.2178 115.052 46.4209 114.781C46.6266 114.508 46.9118 114.297 47.2764 114.148C47.6436 113.997 48.0667 113.922 48.5459 113.922C49.249 113.922 49.8024 114.072 50.2061 114.371C50.6123 114.671 50.8636 115.076 50.96 115.586ZM52.2549 120V114H53.6689V120H52.2549ZM52.9658 113.148C52.7419 113.148 52.5492 113.074 52.3877 112.926C52.2262 112.775 52.1455 112.594 52.1455 112.383C52.1455 112.169 52.2262 111.988 52.3877 111.84C52.5492 111.689 52.7419 111.613 52.9658 111.613C53.1924 111.613 53.3851 111.689 53.5439 111.84C53.7054 111.988 53.7861 112.169 53.7861 112.383C53.7861 112.594 53.7054 112.775 53.5439 112.926C53.3851 113.074 53.1924 113.148 52.9658 113.148ZM57.7324 122.375C57.2246 122.375 56.7884 122.306 56.4238 122.168C56.0592 122.033 55.7663 121.85 55.5449 121.621C55.3236 121.392 55.1699 121.138 55.084 120.859L56.3574 120.551C56.4147 120.668 56.498 120.784 56.6074 120.898C56.7168 121.016 56.8639 121.112 57.0488 121.188C57.2363 121.266 57.472 121.305 57.7559 121.305C58.1569 121.305 58.4889 121.207 58.752 121.012C59.015 120.819 59.1465 120.501 59.1465 120.059V118.922H59.0762C59.0033 119.068 58.8965 119.217 58.7559 119.371C58.6178 119.525 58.4342 119.654 58.2051 119.758C57.9785 119.862 57.6934 119.914 57.3496 119.914C56.8887 119.914 56.4707 119.806 56.0957 119.59C55.7233 119.371 55.4264 119.046 55.2051 118.613C54.9863 118.178 54.877 117.634 54.877 116.98C54.877 116.322 54.9863 115.766 55.2051 115.312C55.4264 114.857 55.7246 114.512 56.0996 114.277C56.4746 114.04 56.8926 113.922 57.3535 113.922C57.7051 113.922 57.9941 113.982 58.2207 114.102C58.4499 114.219 58.6322 114.361 58.7676 114.527C58.903 114.691 59.0059 114.846 59.0762 114.992H59.1543V114H60.5488V120.098C60.5488 120.611 60.4264 121.035 60.1816 121.371C59.9368 121.707 59.6022 121.958 59.1777 122.125C58.7533 122.292 58.2715 122.375 57.7324 122.375ZM57.7441 118.805C58.0436 118.805 58.2988 118.732 58.5098 118.586C58.7207 118.44 58.8809 118.23 58.9902 117.957C59.0996 117.684 59.1543 117.355 59.1543 116.973C59.1543 116.595 59.0996 116.264 58.9902 115.98C58.8835 115.697 58.7246 115.477 58.5137 115.32C58.3053 115.161 58.0488 115.082 57.7441 115.082C57.429 115.082 57.166 115.164 56.9551 115.328C56.7441 115.492 56.5853 115.717 56.4785 116.004C56.3717 116.288 56.3184 116.611 56.3184 116.973C56.3184 117.34 56.3717 117.661 56.4785 117.938C56.5879 118.211 56.748 118.424 56.959 118.578C57.1725 118.729 57.4342 118.805 57.7441 118.805ZM63.4121 116.484V120H61.998V114H63.3496V115.02H63.4199C63.5579 114.684 63.778 114.417 64.0801 114.219C64.3848 114.021 64.7611 113.922 65.209 113.922C65.623 113.922 65.9837 114.01 66.291 114.187C66.6009 114.365 66.8405 114.621 67.0098 114.957C67.1816 115.293 67.2663 115.701 67.2637 116.18V120H65.8496V116.398C65.8496 115.997 65.7454 115.684 65.5371 115.457C65.3314 115.23 65.0462 115.117 64.6816 115.117C64.4342 115.117 64.2142 115.172 64.0215 115.281C63.8314 115.388 63.6816 115.543 63.5723 115.746C63.4655 115.949 63.4121 116.195 63.4121 116.484ZM76.1719 115.586L74.8828 115.727C74.8464 115.596 74.7826 115.474 74.6914 115.359C74.6029 115.245 74.4831 115.152 74.332 115.082C74.181 115.012 73.9961 114.977 73.7773 114.977C73.4831 114.977 73.2357 115.04 73.0352 115.168C72.8372 115.296 72.7396 115.461 72.7422 115.664C72.7396 115.839 72.8034 115.98 72.9336 116.09C73.0664 116.199 73.2852 116.289 73.5898 116.359L74.6133 116.578C75.181 116.701 75.6029 116.895 75.8789 117.16C76.1576 117.426 76.2982 117.773 76.3008 118.203C76.2982 118.581 76.1875 118.914 75.9688 119.203C75.7526 119.49 75.4518 119.714 75.0664 119.875C74.681 120.036 74.2383 120.117 73.7383 120.117C73.0039 120.117 72.4128 119.964 71.9648 119.656C71.5169 119.346 71.25 118.915 71.1641 118.363L72.543 118.23C72.6055 118.501 72.7383 118.706 72.9414 118.844C73.1445 118.982 73.4089 119.051 73.7344 119.051C74.0703 119.051 74.3398 118.982 74.543 118.844C74.7487 118.706 74.8516 118.535 74.8516 118.332C74.8516 118.16 74.7852 118.018 74.6523 117.906C74.5221 117.794 74.319 117.708 74.043 117.648L73.0195 117.434C72.444 117.314 72.0182 117.112 71.7422 116.828C71.4661 116.542 71.3294 116.18 71.332 115.742C71.3294 115.372 71.4297 115.052 71.6328 114.781C71.8385 114.508 72.1237 114.297 72.4883 114.148C72.8555 113.997 73.2786 113.922 73.7578 113.922C74.4609 113.922 75.0143 114.072 75.418 114.371C75.8242 114.671 76.0755 115.076 76.1719 115.586ZM78.3457 122.25C78.153 122.25 77.9746 122.234 77.8105 122.203C77.6491 122.174 77.5202 122.141 77.4238 122.102L77.752 121C77.9577 121.06 78.1413 121.089 78.3027 121.086C78.4642 121.083 78.6061 121.033 78.7285 120.934C78.8535 120.837 78.959 120.676 79.0449 120.449L79.166 120.125L76.9902 114H78.4902L79.873 118.531H79.9355L81.3223 114H82.8262L80.4238 120.727C80.3118 121.044 80.1634 121.316 79.9785 121.543C79.7936 121.772 79.5671 121.947 79.2988 122.066C79.0332 122.189 78.7155 122.25 78.3457 122.25ZM88.5469 115.586L87.2578 115.727C87.2214 115.596 87.1576 115.474 87.0664 115.359C86.9779 115.245 86.8581 115.152 86.707 115.082C86.556 115.012 86.3711 114.977 86.1523 114.977C85.8581 114.977 85.6107 115.04 85.4102 115.168C85.2122 115.296 85.1146 115.461 85.1172 115.664C85.1146 115.839 85.1784 115.98 85.3086 116.09C85.4414 116.199 85.6602 116.289 85.9648 116.359L86.9883 116.578C87.556 116.701 87.9779 116.895 88.2539 117.16C88.5326 117.426 88.6732 117.773 88.6758 118.203C88.6732 118.581 88.5625 118.914 88.3438 119.203C88.1276 119.49 87.8268 119.714 87.4414 119.875C87.056 120.036 86.6133 120.117 86.1133 120.117C85.3789 120.117 84.7878 119.964 84.3398 119.656C83.8919 119.346 83.625 118.915 83.5391 118.363L84.918 118.23C84.9805 118.501 85.1133 118.706 85.3164 118.844C85.5195 118.982 85.7839 119.051 86.1094 119.051C86.4453 119.051 86.7148 118.982 86.918 118.844C87.1237 118.706 87.2266 118.535 87.2266 118.332C87.2266 118.16 87.1602 118.018 87.0273 117.906C86.8971 117.794 86.694 117.708 86.418 117.648L85.3945 117.434C84.819 117.314 84.3932 117.112 84.1172 116.828C83.8411 116.542 83.7044 116.18 83.707 115.742C83.7044 115.372 83.8047 115.052 84.0078 114.781C84.2135 114.508 84.4987 114.297 84.8633 114.148C85.2305 113.997 85.6536 113.922 86.1328 113.922C86.8359 113.922 87.3893 114.072 87.793 114.371C88.1992 114.671 88.4505 115.076 88.5469 115.586ZM92.8379 114V115.094H89.3887V114H92.8379ZM90.2402 112.562H91.6543V118.195C91.6543 118.385 91.6829 118.531 91.7402 118.633C91.8001 118.732 91.8783 118.799 91.9746 118.836C92.071 118.872 92.1777 118.891 92.2949 118.891C92.3835 118.891 92.4642 118.884 92.5371 118.871C92.6126 118.858 92.6699 118.846 92.709 118.836L92.9473 119.941C92.8717 119.967 92.7637 119.996 92.623 120.027C92.485 120.059 92.3158 120.077 92.1152 120.082C91.7611 120.092 91.4421 120.039 91.1582 119.922C90.8743 119.802 90.6491 119.617 90.4824 119.367C90.3184 119.117 90.2376 118.805 90.2402 118.43V112.562ZM96.6123 120.117C96.0107 120.117 95.4912 119.992 95.0537 119.742C94.6188 119.49 94.2842 119.133 94.0498 118.672C93.8154 118.208 93.6982 117.663 93.6982 117.035C93.6982 116.418 93.8154 115.876 94.0498 115.41C94.2868 114.941 94.6175 114.577 95.042 114.316C95.4665 114.053 95.9652 113.922 96.5381 113.922C96.9079 113.922 97.2568 113.982 97.585 114.102C97.9157 114.219 98.2074 114.401 98.46 114.648C98.7152 114.896 98.9157 115.211 99.0615 115.594C99.2074 115.974 99.2803 116.427 99.2803 116.953V117.387H94.3623V116.434H97.9248C97.9222 116.163 97.8636 115.922 97.749 115.711C97.6344 115.497 97.4743 115.329 97.2686 115.207C97.0654 115.085 96.8285 115.023 96.5576 115.023C96.2686 115.023 96.0146 115.094 95.7959 115.234C95.5771 115.372 95.4066 115.555 95.2842 115.781C95.1644 116.005 95.1032 116.251 95.1006 116.52V117.352C95.1006 117.701 95.1644 118 95.292 118.25C95.4196 118.497 95.598 118.687 95.8271 118.82C96.0563 118.951 96.3245 119.016 96.6318 119.016C96.8376 119.016 97.0238 118.987 97.1904 118.93C97.3571 118.87 97.5016 118.783 97.624 118.668C97.7464 118.553 97.8389 118.411 97.9014 118.242L99.2217 118.391C99.1383 118.74 98.9795 119.044 98.7451 119.305C98.5133 119.562 98.2165 119.763 97.8545 119.906C97.4925 120.047 97.0785 120.117 96.6123 120.117ZM100.477 120V114H101.828V115.02H101.898C102.023 114.676 102.23 114.408 102.52 114.215C102.809 114.02 103.154 113.922 103.555 113.922C103.961 113.922 104.303 114.021 104.582 114.219C104.863 114.414 105.061 114.681 105.176 115.02H105.238C105.371 114.686 105.595 114.421 105.91 114.223C106.228 114.022 106.604 113.922 107.039 113.922C107.591 113.922 108.042 114.096 108.391 114.445C108.74 114.794 108.914 115.303 108.914 115.973V120H107.496V116.191C107.496 115.819 107.397 115.547 107.199 115.375C107.001 115.201 106.759 115.113 106.473 115.113C106.132 115.113 105.865 115.22 105.672 115.434C105.482 115.645 105.387 115.919 105.387 116.258V120H104V116.133C104 115.823 103.906 115.576 103.719 115.391C103.534 115.206 103.292 115.113 102.992 115.113C102.789 115.113 102.604 115.165 102.438 115.27C102.271 115.371 102.138 115.516 102.039 115.703C101.94 115.888 101.891 116.104 101.891 116.352V120H100.477Z" fill="#7B7B7B"/>
<path d="M134.789 112H136.563L138.938 117.797H139.031L141.406 112H143.18V120H141.789V114.504H141.715L139.504 119.977H138.465L136.254 114.492H136.18V120H134.789V112ZM144.695 120V114H146.109V120H144.695ZM145.406 113.148C145.182 113.148 144.99 113.074 144.828 112.926C144.667 112.775 144.586 112.594 144.586 112.383C144.586 112.169 144.667 111.988 144.828 111.84C144.99 111.689 145.182 111.613 145.406 111.613C145.633 111.613 145.826 111.689 145.984 111.84C146.146 111.988 146.227 112.169 146.227 112.383C146.227 112.594 146.146 112.775 145.984 112.926C145.826 113.074 145.633 113.148 145.406 113.148ZM150.181 120.117C149.582 120.117 149.067 119.986 148.638 119.723C148.211 119.46 147.881 119.096 147.649 118.633C147.42 118.167 147.306 117.63 147.306 117.023C147.306 116.414 147.423 115.876 147.657 115.41C147.892 114.941 148.222 114.577 148.649 114.316C149.079 114.053 149.587 113.922 150.173 113.922C150.66 113.922 151.091 114.012 151.466 114.191C151.843 114.368 152.144 114.62 152.368 114.945C152.592 115.268 152.72 115.646 152.751 116.078H151.399C151.345 115.789 151.215 115.548 151.009 115.355C150.806 115.16 150.534 115.062 150.192 115.062C149.903 115.062 149.649 115.141 149.431 115.297C149.212 115.451 149.041 115.672 148.919 115.961C148.799 116.25 148.739 116.596 148.739 117C148.739 117.409 148.799 117.76 148.919 118.055C149.039 118.346 149.207 118.572 149.423 118.73C149.642 118.887 149.898 118.965 150.192 118.965C150.401 118.965 150.587 118.926 150.751 118.848C150.918 118.767 151.057 118.651 151.169 118.5C151.281 118.349 151.358 118.165 151.399 117.949H152.751C152.717 118.374 152.592 118.75 152.376 119.078C152.16 119.404 151.866 119.659 151.493 119.844C151.121 120.026 150.683 120.117 150.181 120.117ZM153.912 120V114H155.283V115H155.346C155.455 114.654 155.643 114.387 155.908 114.199C156.176 114.009 156.482 113.914 156.826 113.914C156.904 113.914 156.992 113.918 157.088 113.926C157.187 113.931 157.269 113.94 157.334 113.953V115.254C157.274 115.233 157.179 115.215 157.049 115.199C156.921 115.181 156.798 115.172 156.678 115.172C156.42 115.172 156.188 115.228 155.982 115.34C155.779 115.449 155.619 115.602 155.502 115.797C155.385 115.992 155.326 116.217 155.326 116.473V120H153.912ZM160.644 120.117C160.058 120.117 159.55 119.988 159.12 119.73C158.69 119.473 158.357 119.112 158.12 118.648C157.886 118.185 157.769 117.643 157.769 117.023C157.769 116.404 157.886 115.861 158.12 115.395C158.357 114.928 158.69 114.566 159.12 114.309C159.55 114.051 160.058 113.922 160.644 113.922C161.229 113.922 161.737 114.051 162.167 114.309C162.597 114.566 162.929 114.928 163.163 115.395C163.4 115.861 163.519 116.404 163.519 117.023C163.519 117.643 163.4 118.185 163.163 118.648C162.929 119.112 162.597 119.473 162.167 119.73C161.737 119.988 161.229 120.117 160.644 120.117ZM160.651 118.984C160.969 118.984 161.235 118.897 161.448 118.723C161.662 118.546 161.821 118.309 161.925 118.012C162.032 117.715 162.085 117.384 162.085 117.02C162.085 116.652 162.032 116.32 161.925 116.023C161.821 115.724 161.662 115.486 161.448 115.309C161.235 115.132 160.969 115.043 160.651 115.043C160.326 115.043 160.055 115.132 159.839 115.309C159.625 115.486 159.465 115.724 159.358 116.023C159.254 116.32 159.202 116.652 159.202 117.02C159.202 117.384 159.254 117.715 159.358 118.012C159.465 118.309 159.625 118.546 159.839 118.723C160.055 118.897 160.326 118.984 160.651 118.984ZM164.719 120V114H166.133V120H164.719ZM165.43 113.148C165.206 113.148 165.013 113.074 164.852 112.926C164.69 112.775 164.609 112.594 164.609 112.383C164.609 112.169 164.69 111.988 164.852 111.84C165.013 111.689 165.206 111.613 165.43 111.613C165.656 111.613 165.849 111.689 166.008 111.84C166.169 111.988 166.25 112.169 166.25 112.383C166.25 112.594 166.169 112.775 166.008 112.926C165.849 113.074 165.656 113.148 165.43 113.148ZM169.001 116.484V120H167.587V114H168.938V115.02H169.009C169.147 114.684 169.367 114.417 169.669 114.219C169.974 114.021 170.35 113.922 170.798 113.922C171.212 113.922 171.573 114.01 171.88 114.187C172.19 114.365 172.429 114.621 172.599 114.957C172.771 115.293 172.855 115.701 172.853 116.18V120H171.438V116.398C171.438 115.997 171.334 115.684 171.126 115.457C170.92 115.23 170.635 115.117 170.271 115.117C170.023 115.117 169.803 115.172 169.61 115.281C169.42 115.388 169.271 115.543 169.161 115.746C169.054 115.949 169.001 116.195 169.001 116.484ZM177.286 114V115.094H173.837V114H177.286ZM174.688 112.562H176.103V118.195C176.103 118.385 176.131 118.531 176.188 118.633C176.248 118.732 176.326 118.799 176.423 118.836C176.519 118.872 176.626 118.891 176.743 118.891C176.832 118.891 176.912 118.884 176.985 118.871C177.061 118.858 177.118 118.846 177.157 118.836L177.396 119.941C177.32 119.967 177.212 119.996 177.071 120.027C176.933 120.059 176.764 120.077 176.563 120.082C176.209 120.092 175.89 120.039 175.606 119.922C175.323 119.802 175.097 119.617 174.931 119.367C174.767 119.117 174.686 118.805 174.688 118.43V112.562ZM181.061 120.117C180.459 120.117 179.939 119.992 179.502 119.742C179.067 119.49 178.732 119.133 178.498 118.672C178.264 118.208 178.146 117.663 178.146 117.035C178.146 116.418 178.264 115.876 178.498 115.41C178.735 114.941 179.066 114.577 179.49 114.316C179.915 114.053 180.413 113.922 180.986 113.922C181.356 113.922 181.705 113.982 182.033 114.102C182.364 114.219 182.656 114.401 182.908 114.648C183.163 114.896 183.364 115.211 183.51 115.594C183.656 115.974 183.729 116.427 183.729 116.953V117.387H178.811V116.434H182.373C182.37 116.163 182.312 115.922 182.197 115.711C182.083 115.497 181.923 115.329 181.717 115.207C181.514 115.085 181.277 115.023 181.006 115.023C180.717 115.023 180.463 115.094 180.244 115.234C180.025 115.372 179.855 115.555 179.732 115.781C179.613 116.005 179.551 116.251 179.549 116.52V117.352C179.549 117.701 179.613 118 179.74 118.25C179.868 118.497 180.046 118.687 180.275 118.82C180.505 118.951 180.773 119.016 181.08 119.016C181.286 119.016 181.472 118.987 181.639 118.93C181.805 118.87 181.95 118.783 182.072 118.668C182.195 118.553 182.287 118.411 182.35 118.242L183.67 118.391C183.587 118.74 183.428 119.044 183.193 119.305C182.962 119.562 182.665 119.763 182.303 119.906C181.941 120.047 181.527 120.117 181.061 120.117ZM184.925 120V114H186.296V115H186.358C186.468 114.654 186.655 114.387 186.921 114.199C187.189 114.009 187.495 113.914 187.839 113.914C187.917 113.914 188.004 113.918 188.101 113.926C188.2 113.931 188.282 113.94 188.347 113.953V115.254C188.287 115.233 188.192 115.215 188.062 115.199C187.934 115.181 187.81 115.172 187.69 115.172C187.433 115.172 187.201 115.228 186.995 115.34C186.792 115.449 186.632 115.602 186.515 115.797C186.397 115.992 186.339 116.217 186.339 116.473V120H184.925ZM190.905 120.121C190.525 120.121 190.183 120.053 189.878 119.918C189.576 119.78 189.336 119.577 189.159 119.309C188.985 119.04 188.897 118.71 188.897 118.316C188.897 117.978 188.96 117.698 189.085 117.477C189.21 117.255 189.381 117.078 189.597 116.945C189.813 116.812 190.056 116.712 190.327 116.645C190.601 116.574 190.883 116.523 191.175 116.492C191.526 116.456 191.812 116.423 192.03 116.395C192.249 116.363 192.408 116.316 192.507 116.254C192.608 116.189 192.659 116.089 192.659 115.953V115.93C192.659 115.635 192.572 115.408 192.397 115.246C192.223 115.085 191.972 115.004 191.644 115.004C191.297 115.004 191.022 115.079 190.819 115.23C190.619 115.382 190.483 115.56 190.413 115.766L189.093 115.578C189.197 115.214 189.369 114.909 189.608 114.664C189.848 114.417 190.141 114.232 190.487 114.109C190.834 113.984 191.216 113.922 191.636 113.922C191.925 113.922 192.213 113.956 192.499 114.023C192.785 114.091 193.047 114.203 193.284 114.359C193.521 114.513 193.711 114.723 193.854 114.988C194 115.254 194.073 115.586 194.073 115.984V120H192.714V119.176H192.667C192.581 119.342 192.46 119.499 192.304 119.645C192.15 119.788 191.956 119.904 191.722 119.992C191.49 120.078 191.218 120.121 190.905 120.121ZM191.272 119.082C191.556 119.082 191.802 119.026 192.011 118.914C192.219 118.799 192.379 118.648 192.491 118.461C192.606 118.273 192.663 118.069 192.663 117.848V117.141C192.619 117.177 192.543 117.211 192.437 117.242C192.332 117.273 192.215 117.301 192.085 117.324C191.955 117.348 191.826 117.368 191.698 117.387C191.571 117.405 191.46 117.421 191.366 117.434C191.155 117.462 190.966 117.509 190.8 117.574C190.633 117.639 190.502 117.73 190.405 117.848C190.309 117.962 190.261 118.111 190.261 118.293C190.261 118.553 190.356 118.75 190.546 118.883C190.736 119.016 190.978 119.082 191.272 119.082ZM198.112 120.117C197.513 120.117 196.999 119.986 196.569 119.723C196.142 119.46 195.813 119.096 195.581 118.633C195.352 118.167 195.237 117.63 195.237 117.023C195.237 116.414 195.354 115.876 195.589 115.41C195.823 114.941 196.154 114.577 196.581 114.316C197.011 114.053 197.519 113.922 198.104 113.922C198.591 113.922 199.022 114.012 199.397 114.191C199.775 114.368 200.076 114.62 200.3 114.945C200.524 115.268 200.651 115.646 200.683 116.078H199.331C199.276 115.789 199.146 115.548 198.94 115.355C198.737 115.16 198.465 115.062 198.124 115.062C197.835 115.062 197.581 115.141 197.362 115.297C197.144 115.451 196.973 115.672 196.851 115.961C196.731 116.25 196.671 116.596 196.671 117C196.671 117.409 196.731 117.76 196.851 118.055C196.97 118.346 197.138 118.572 197.354 118.73C197.573 118.887 197.83 118.965 198.124 118.965C198.332 118.965 198.519 118.926 198.683 118.848C198.849 118.767 198.989 118.651 199.101 118.5C199.213 118.349 199.289 118.165 199.331 117.949H200.683C200.649 118.374 200.524 118.75 200.308 119.078C200.091 119.404 199.797 119.659 199.425 119.844C199.052 120.026 198.615 120.117 198.112 120.117ZM204.84 114V115.094H201.391V114H204.84ZM202.242 112.562H203.656V118.195C203.656 118.385 203.685 118.531 203.742 118.633C203.802 118.732 203.88 118.799 203.977 118.836C204.073 118.872 204.18 118.891 204.297 118.891C204.385 118.891 204.466 118.884 204.539 118.871C204.615 118.858 204.672 118.846 204.711 118.836L204.949 119.941C204.874 119.967 204.766 119.996 204.625 120.027C204.487 120.059 204.318 120.077 204.117 120.082C203.763 120.092 203.444 120.039 203.16 119.922C202.876 119.802 202.651 119.617 202.484 119.367C202.32 119.117 202.24 118.805 202.242 118.43V112.562ZM206.022 120V114H207.437V120H206.022ZM206.733 113.148C206.509 113.148 206.317 113.074 206.155 112.926C205.994 112.775 205.913 112.594 205.913 112.383C205.913 112.169 205.994 111.988 206.155 111.84C206.317 111.689 206.509 111.613 206.733 111.613C206.96 111.613 207.153 111.689 207.312 111.84C207.473 111.988 207.554 112.169 207.554 112.383C207.554 112.594 207.473 112.775 207.312 112.926C207.153 113.074 206.96 113.148 206.733 113.148ZM211.508 120.117C210.922 120.117 210.414 119.988 209.984 119.73C209.555 119.473 209.221 119.112 208.984 118.648C208.75 118.185 208.633 117.643 208.633 117.023C208.633 116.404 208.75 115.861 208.984 115.395C209.221 114.928 209.555 114.566 209.984 114.309C210.414 114.051 210.922 113.922 211.508 113.922C212.094 113.922 212.602 114.051 213.031 114.309C213.461 114.566 213.793 114.928 214.027 115.395C214.264 115.861 214.383 116.404 214.383 117.023C214.383 117.643 214.264 118.185 214.027 118.648C213.793 119.112 213.461 119.473 213.031 119.73C212.602 119.988 212.094 120.117 211.508 120.117ZM211.516 118.984C211.833 118.984 212.099 118.897 212.313 118.723C212.526 118.546 212.685 118.309 212.789 118.012C212.896 117.715 212.949 117.384 212.949 117.02C212.949 116.652 212.896 116.32 212.789 116.023C212.685 115.724 212.526 115.486 212.313 115.309C212.099 115.132 211.833 115.043 211.516 115.043C211.19 115.043 210.919 115.132 210.703 115.309C210.49 115.486 210.329 115.724 210.223 116.023C210.118 116.32 210.066 116.652 210.066 117.02C210.066 117.384 210.118 117.715 210.223 118.012C210.329 118.309 210.49 118.546 210.703 118.723C210.919 118.897 211.19 118.984 211.516 118.984ZM216.997 116.484V120H215.583V114H216.935V115.02H217.005C217.143 114.684 217.363 114.417 217.665 114.219C217.97 114.021 218.346 113.922 218.794 113.922C219.208 113.922 219.569 114.01 219.876 114.187C220.186 114.365 220.425 114.621 220.595 114.957C220.767 115.293 220.851 115.701 220.849 116.18V120H219.435V116.398C219.435 115.997 219.33 115.684 219.122 115.457C218.916 115.23 218.631 115.117 218.267 115.117C218.019 115.117 217.799 115.172 217.606 115.281C217.416 115.388 217.267 115.543 217.157 115.746C217.05 115.949 216.997 116.195 216.997 116.484ZM227.028 115.586L225.739 115.727C225.703 115.596 225.639 115.474 225.548 115.359C225.459 115.245 225.34 115.152 225.188 115.082C225.037 115.012 224.853 114.977 224.634 114.977C224.34 114.977 224.092 115.04 223.892 115.168C223.694 115.296 223.596 115.461 223.599 115.664C223.596 115.839 223.66 115.98 223.79 116.09C223.923 116.199 224.142 116.289 224.446 116.359L225.47 116.578C226.037 116.701 226.459 116.895 226.735 117.16C227.014 117.426 227.155 117.773 227.157 118.203C227.155 118.581 227.044 118.914 226.825 119.203C226.609 119.49 226.308 119.714 225.923 119.875C225.537 120.036 225.095 120.117 224.595 120.117C223.86 120.117 223.269 119.964 222.821 119.656C222.373 119.346 222.106 118.915 222.021 118.363L223.399 118.23C223.462 118.501 223.595 118.706 223.798 118.844C224.001 118.982 224.265 119.051 224.591 119.051C224.927 119.051 225.196 118.982 225.399 118.844C225.605 118.706 225.708 118.535 225.708 118.332C225.708 118.16 225.642 118.018 225.509 117.906C225.379 117.794 225.175 117.708 224.899 117.648L223.876 117.434C223.3 117.314 222.875 117.112 222.599 116.828C222.323 116.542 222.186 116.18 222.188 115.742C222.186 115.372 222.286 115.052 222.489 114.781C222.695 114.508 222.98 114.297 223.345 114.148C223.712 113.997 224.135 113.922 224.614 113.922C225.317 113.922 225.871 114.072 226.274 114.371C226.681 114.671 226.932 115.076 227.028 115.586Z" fill="#7B7B7B"/>
<path d="M33.4727 141L31.2148 133H32.7734L34.2148 138.879H34.2891L35.8281 133H37.2461L38.7891 138.883H38.8594L40.3008 133H41.8594L39.6016 141H38.1719L36.5703 135.387H36.5078L34.9023 141H33.4727ZM42.8018 141V135H44.2158V141H42.8018ZM43.5127 134.148C43.2887 134.148 43.096 134.074 42.9346 133.926C42.7731 133.775 42.6924 133.594 42.6924 133.383C42.6924 133.169 42.7731 132.988 42.9346 132.84C43.096 132.689 43.2887 132.613 43.5127 132.613C43.7393 132.613 43.932 132.689 44.0908 132.84C44.2523 132.988 44.333 133.169 44.333 133.383C44.333 133.594 44.2523 133.775 44.0908 133.926C43.932 134.074 43.7393 134.148 43.5127 134.148ZM45.6699 141V135H47.041V136H47.1035C47.2129 135.654 47.4004 135.387 47.666 135.199C47.9342 135.009 48.2402 134.914 48.584 134.914C48.6621 134.914 48.7493 134.918 48.8457 134.926C48.9447 134.931 49.0267 134.94 49.0918 134.953V136.254C49.0319 136.233 48.9368 136.215 48.8066 136.199C48.679 136.181 48.5553 136.172 48.4355 136.172C48.1777 136.172 47.946 136.228 47.7402 136.34C47.5371 136.449 47.377 136.602 47.2598 136.797C47.1426 136.992 47.084 137.217 47.084 137.473V141H45.6699ZM52.4404 141.117C51.8389 141.117 51.3193 140.992 50.8818 140.742C50.4469 140.49 50.1123 140.133 49.8779 139.672C49.6436 139.208 49.5264 138.663 49.5264 138.035C49.5264 137.418 49.6436 136.876 49.8779 136.41C50.1149 135.941 50.4456 135.577 50.8701 135.316C51.2946 135.053 51.7933 134.922 52.3662 134.922C52.736 134.922 53.085 134.982 53.4131 135.102C53.7438 135.219 54.0355 135.401 54.2881 135.648C54.5433 135.896 54.7438 136.211 54.8896 136.594C55.0355 136.974 55.1084 137.427 55.1084 137.953V138.387H50.1904V137.434H53.7529C53.7503 137.163 53.6917 136.922 53.5771 136.711C53.4626 136.497 53.3024 136.329 53.0967 136.207C52.8936 136.085 52.6566 136.023 52.3857 136.023C52.0967 136.023 51.8428 136.094 51.624 136.234C51.4053 136.372 51.2347 136.555 51.1123 136.781C50.9925 137.005 50.9313 137.251 50.9287 137.52V138.352C50.9287 138.701 50.9925 139 51.1201 139.25C51.2477 139.497 51.4261 139.687 51.6553 139.82C51.8844 139.951 52.1527 140.016 52.46 140.016C52.6657 140.016 52.8519 139.987 53.0186 139.93C53.1852 139.87 53.3298 139.783 53.4521 139.668C53.5745 139.553 53.667 139.411 53.7295 139.242L55.0498 139.391C54.9665 139.74 54.8076 140.044 54.5732 140.305C54.3415 140.562 54.0446 140.763 53.6826 140.906C53.3206 141.047 52.9066 141.117 52.4404 141.117ZM59.3438 135V136.094H55.7969V135H59.3438ZM56.6836 141V134.434C56.6836 134.03 56.7669 133.694 56.9336 133.426C57.1029 133.158 57.3294 132.957 57.6133 132.824C57.8971 132.691 58.2122 132.625 58.5586 132.625C58.8034 132.625 59.0208 132.645 59.2109 132.684C59.401 132.723 59.5417 132.758 59.6328 132.789L59.3516 133.883C59.2917 133.865 59.2161 133.846 59.125 133.828C59.0339 133.807 58.9323 133.797 58.8203 133.797C58.5573 133.797 58.3711 133.861 58.2617 133.988C58.1549 134.113 58.1016 134.293 58.1016 134.527V141H56.6836ZM60.4512 141V135H61.8223V136H61.8848C61.9941 135.654 62.1816 135.387 62.4473 135.199C62.7155 135.009 63.0215 134.914 63.3652 134.914C63.4434 134.914 63.5306 134.918 63.627 134.926C63.7259 134.931 63.8079 134.94 63.873 134.953V136.254C63.8132 136.233 63.7181 136.215 63.5879 136.199C63.4603 136.181 63.3366 136.172 63.2168 136.172C62.959 136.172 62.7272 136.228 62.5215 136.34C62.3184 136.449 62.1582 136.602 62.041 136.797C61.9238 136.992 61.8652 137.217 61.8652 137.473V141H60.4512ZM66.4316 141.121C66.0514 141.121 65.709 141.053 65.4043 140.918C65.1022 140.78 64.8626 140.577 64.6855 140.309C64.5111 140.04 64.4238 139.71 64.4238 139.316C64.4238 138.978 64.4863 138.698 64.6113 138.477C64.7363 138.255 64.9069 138.078 65.123 137.945C65.3392 137.812 65.5827 137.712 65.8535 137.645C66.127 137.574 66.4095 137.523 66.7012 137.492C67.0527 137.456 67.3379 137.423 67.5566 137.395C67.7754 137.363 67.9342 137.316 68.0332 137.254C68.1348 137.189 68.1855 137.089 68.1855 136.953V136.93C68.1855 136.635 68.0983 136.408 67.9238 136.246C67.7493 136.085 67.498 136.004 67.1699 136.004C66.8236 136.004 66.5488 136.079 66.3457 136.23C66.1452 136.382 66.0098 136.56 65.9395 136.766L64.6191 136.578C64.7233 136.214 64.8952 135.909 65.1348 135.664C65.3743 135.417 65.6673 135.232 66.0137 135.109C66.36 134.984 66.7428 134.922 67.1621 134.922C67.4512 134.922 67.7389 134.956 68.0254 135.023C68.3118 135.091 68.5736 135.203 68.8105 135.359C69.0475 135.513 69.2376 135.723 69.3809 135.988C69.5267 136.254 69.5996 136.586 69.5996 136.984V141H68.2402V140.176H68.1934C68.1074 140.342 67.9863 140.499 67.8301 140.645C67.6764 140.788 67.4824 140.904 67.248 140.992C67.0163 141.078 66.7441 141.121 66.4316 141.121ZM66.7988 140.082C67.0827 140.082 67.3288 140.026 67.5371 139.914C67.7454 139.799 67.9056 139.648 68.0176 139.461C68.1322 139.273 68.1895 139.069 68.1895 138.848V138.141C68.1452 138.177 68.0697 138.211 67.9629 138.242C67.8587 138.273 67.7415 138.301 67.6113 138.324C67.4811 138.348 67.3522 138.368 67.2246 138.387C67.097 138.405 66.9863 138.421 66.8926 138.434C66.6816 138.462 66.4928 138.509 66.3262 138.574C66.1595 138.639 66.028 138.73 65.9316 138.848C65.8353 138.962 65.7871 139.111 65.7871 139.293C65.7871 139.553 65.8822 139.75 66.0723 139.883C66.2624 140.016 66.5046 140.082 66.7988 140.082ZM71.0215 141V135H72.373V136.02H72.4434C72.5684 135.676 72.7754 135.408 73.0645 135.215C73.3535 135.02 73.6986 134.922 74.0996 134.922C74.5059 134.922 74.8483 135.021 75.127 135.219C75.4082 135.414 75.6061 135.681 75.7207 136.02H75.7832C75.916 135.686 76.14 135.421 76.4551 135.223C76.7728 135.022 77.1491 134.922 77.584 134.922C78.1361 134.922 78.5866 135.096 78.9355 135.445C79.2845 135.794 79.459 136.303 79.459 136.973V141H78.041V137.191C78.041 136.819 77.9421 136.547 77.7441 136.375C77.5462 136.201 77.304 136.113 77.0176 136.113C76.6764 136.113 76.4095 136.22 76.2168 136.434C76.0267 136.645 75.9316 136.919 75.9316 137.258V141H74.5449V137.133C74.5449 136.823 74.4512 136.576 74.2637 136.391C74.0788 136.206 73.8366 136.113 73.5371 136.113C73.334 136.113 73.1491 136.165 72.9824 136.27C72.8158 136.371 72.6829 136.516 72.584 136.703C72.485 136.888 72.4355 137.104 72.4355 137.352V141H71.0215ZM83.5498 141.117C82.9482 141.117 82.4287 140.992 81.9912 140.742C81.5563 140.49 81.2217 140.133 80.9873 139.672C80.7529 139.208 80.6357 138.663 80.6357 138.035C80.6357 137.418 80.7529 136.876 80.9873 136.41C81.2243 135.941 81.555 135.577 81.9795 135.316C82.404 135.053 82.9027 134.922 83.4756 134.922C83.8454 134.922 84.1943 134.982 84.5225 135.102C84.8532 135.219 85.1449 135.401 85.3975 135.648C85.6527 135.896 85.8532 136.211 85.999 136.594C86.1449 136.974 86.2178 137.427 86.2178 137.953V138.387H81.2998V137.434H84.8623C84.8597 137.163 84.8011 136.922 84.6865 136.711C84.5719 136.497 84.4118 136.329 84.2061 136.207C84.0029 136.085 83.766 136.023 83.4951 136.023C83.2061 136.023 82.9521 136.094 82.7334 136.234C82.5146 136.372 82.3441 136.555 82.2217 136.781C82.1019 137.005 82.0407 137.251 82.0381 137.52V138.352C82.0381 138.701 82.1019 139 82.2295 139.25C82.3571 139.497 82.5355 139.687 82.7646 139.82C82.9938 139.951 83.262 140.016 83.5693 140.016C83.7751 140.016 83.9613 139.987 84.1279 139.93C84.2946 139.87 84.4391 139.783 84.5615 139.668C84.6839 139.553 84.7764 139.411 84.8389 139.242L86.1592 139.391C86.0758 139.74 85.917 140.044 85.6826 140.305C85.4508 140.562 85.154 140.763 84.792 140.906C84.43 141.047 84.016 141.117 83.5498 141.117Z" fill="#7B7B7B"/>
<path d="M135.816 141H134.27L137.086 133H138.875L141.695 141H140.148L138.012 134.641H137.949L135.816 141ZM135.867 137.863H140.086V139.027H135.867V137.863ZM145.121 141.117C144.522 141.117 144.008 140.986 143.578 140.723C143.151 140.46 142.822 140.096 142.59 139.633C142.361 139.167 142.246 138.63 142.246 138.023C142.246 137.414 142.363 136.876 142.598 136.41C142.832 135.941 143.163 135.577 143.59 135.316C144.02 135.053 144.527 134.922 145.113 134.922C145.6 134.922 146.031 135.012 146.406 135.191C146.784 135.368 147.085 135.62 147.309 135.945C147.533 136.268 147.66 136.646 147.691 137.078H146.34C146.285 136.789 146.155 136.548 145.949 136.355C145.746 136.16 145.474 136.062 145.133 136.062C144.844 136.062 144.59 136.141 144.371 136.297C144.152 136.451 143.982 136.672 143.859 136.961C143.74 137.25 143.68 137.596 143.68 138C143.68 138.409 143.74 138.76 143.859 139.055C143.979 139.346 144.147 139.572 144.363 139.73C144.582 139.887 144.839 139.965 145.133 139.965C145.341 139.965 145.527 139.926 145.691 139.848C145.858 139.767 145.997 139.651 146.109 139.5C146.221 139.349 146.298 139.165 146.34 138.949H147.691C147.658 139.374 147.533 139.75 147.316 140.078C147.1 140.404 146.806 140.659 146.434 140.844C146.061 141.026 145.624 141.117 145.121 141.117ZM151.47 141.117C150.871 141.117 150.356 140.986 149.927 140.723C149.5 140.46 149.17 140.096 148.938 139.633C148.709 139.167 148.595 138.63 148.595 138.023C148.595 137.414 148.712 136.876 148.946 136.41C149.181 135.941 149.511 135.577 149.938 135.316C150.368 135.053 150.876 134.922 151.462 134.922C151.949 134.922 152.38 135.012 152.755 135.191C153.132 135.368 153.433 135.62 153.657 135.945C153.881 136.268 154.009 136.646 154.04 137.078H152.688C152.634 136.789 152.504 136.548 152.298 136.355C152.095 136.16 151.823 136.062 151.481 136.062C151.192 136.062 150.938 136.141 150.72 136.297C150.501 136.451 150.33 136.672 150.208 136.961C150.088 137.25 150.028 137.596 150.028 138C150.028 138.409 150.088 138.76 150.208 139.055C150.328 139.346 150.496 139.572 150.712 139.73C150.931 139.887 151.187 139.965 151.481 139.965C151.69 139.965 151.876 139.926 152.04 139.848C152.207 139.767 152.346 139.651 152.458 139.5C152.57 139.349 152.647 139.165 152.688 138.949H154.04C154.006 139.374 153.881 139.75 153.665 140.078C153.449 140.404 153.155 140.659 152.782 140.844C152.41 141.026 151.972 141.117 151.47 141.117ZM157.857 141.117C157.256 141.117 156.736 140.992 156.299 140.742C155.864 140.49 155.529 140.133 155.295 139.672C155.061 139.208 154.943 138.663 154.943 138.035C154.943 137.418 155.061 136.876 155.295 136.41C155.532 135.941 155.863 135.577 156.287 135.316C156.712 135.053 157.21 134.922 157.783 134.922C158.153 134.922 158.502 134.982 158.83 135.102C159.161 135.219 159.452 135.401 159.705 135.648C159.96 135.896 160.161 136.211 160.307 136.594C160.452 136.974 160.525 137.427 160.525 137.953V138.387H155.607V137.434H159.17C159.167 137.163 159.109 136.922 158.994 136.711C158.88 136.497 158.719 136.329 158.514 136.207C158.311 136.085 158.074 136.023 157.803 136.023C157.514 136.023 157.26 136.094 157.041 136.234C156.822 136.372 156.652 136.555 156.529 136.781C156.41 137.005 156.348 137.251 156.346 137.52V138.352C156.346 138.701 156.41 139 156.537 139.25C156.665 139.497 156.843 139.687 157.072 139.82C157.301 139.951 157.57 140.016 157.877 140.016C158.083 140.016 158.269 139.987 158.436 139.93C158.602 139.87 158.747 139.783 158.869 139.668C158.992 139.553 159.084 139.411 159.146 139.242L160.467 139.391C160.383 139.74 160.225 140.044 159.99 140.305C159.758 140.562 159.462 140.763 159.1 140.906C158.738 141.047 158.324 141.117 157.857 141.117ZM166.464 136.586L165.175 136.727C165.138 136.596 165.075 136.474 164.983 136.359C164.895 136.245 164.775 136.152 164.624 136.082C164.473 136.012 164.288 135.977 164.069 135.977C163.775 135.977 163.528 136.04 163.327 136.168C163.129 136.296 163.032 136.461 163.034 136.664C163.032 136.839 163.095 136.98 163.226 137.09C163.358 137.199 163.577 137.289 163.882 137.359L164.905 137.578C165.473 137.701 165.895 137.895 166.171 138.16C166.45 138.426 166.59 138.773 166.593 139.203C166.59 139.581 166.479 139.914 166.261 140.203C166.045 140.49 165.744 140.714 165.358 140.875C164.973 141.036 164.53 141.117 164.03 141.117C163.296 141.117 162.705 140.964 162.257 140.656C161.809 140.346 161.542 139.915 161.456 139.363L162.835 139.23C162.897 139.501 163.03 139.706 163.233 139.844C163.437 139.982 163.701 140.051 164.026 140.051C164.362 140.051 164.632 139.982 164.835 139.844C165.041 139.706 165.144 139.535 165.144 139.332C165.144 139.16 165.077 139.018 164.944 138.906C164.814 138.794 164.611 138.708 164.335 138.648L163.312 138.434C162.736 138.314 162.31 138.112 162.034 137.828C161.758 137.542 161.621 137.18 161.624 136.742C161.621 136.372 161.722 136.052 161.925 135.781C162.131 135.508 162.416 135.297 162.78 135.148C163.147 134.997 163.571 134.922 164.05 134.922C164.753 134.922 165.306 135.072 165.71 135.371C166.116 135.671 166.368 136.076 166.464 136.586ZM167.759 141V135H169.173V141H167.759ZM168.47 134.148C168.246 134.148 168.053 134.074 167.892 133.926C167.73 133.775 167.649 133.594 167.649 133.383C167.649 133.169 167.73 132.988 167.892 132.84C168.053 132.689 168.246 132.613 168.47 132.613C168.696 132.613 168.889 132.689 169.048 132.84C169.209 132.988 169.29 133.169 169.29 133.383C169.29 133.594 169.209 133.775 169.048 133.926C168.889 134.074 168.696 134.148 168.47 134.148ZM170.689 141V133H172.104V135.992H172.162C172.235 135.846 172.338 135.691 172.471 135.527C172.604 135.361 172.783 135.219 173.01 135.102C173.236 134.982 173.525 134.922 173.877 134.922C174.34 134.922 174.758 135.04 175.131 135.277C175.506 135.512 175.803 135.859 176.021 136.32C176.243 136.779 176.354 137.341 176.354 138.008C176.354 138.667 176.245 139.227 176.029 139.687C175.813 140.148 175.519 140.5 175.146 140.742C174.774 140.984 174.352 141.105 173.881 141.105C173.537 141.105 173.252 141.048 173.025 140.934C172.799 140.819 172.617 140.681 172.479 140.52C172.343 140.355 172.238 140.201 172.162 140.055H172.08V141H170.689ZM172.076 138C172.076 138.388 172.131 138.728 172.24 139.02C172.352 139.311 172.512 139.539 172.721 139.703C172.932 139.865 173.187 139.945 173.486 139.945C173.799 139.945 174.061 139.862 174.271 139.695C174.482 139.526 174.641 139.296 174.748 139.004C174.857 138.71 174.912 138.375 174.912 138C174.912 137.628 174.859 137.297 174.752 137.008C174.645 136.719 174.486 136.492 174.275 136.328C174.064 136.164 173.801 136.082 173.486 136.082C173.184 136.082 172.928 136.161 172.717 136.32C172.506 136.479 172.346 136.702 172.236 136.988C172.13 137.275 172.076 137.612 172.076 138ZM177.556 141V135H178.97V141H177.556ZM178.267 134.148C178.043 134.148 177.85 134.074 177.688 133.926C177.527 133.775 177.446 133.594 177.446 133.383C177.446 133.169 177.527 132.988 177.688 132.84C177.85 132.689 178.043 132.613 178.267 132.613C178.493 132.613 178.686 132.689 178.845 132.84C179.006 132.988 179.087 133.169 179.087 133.383C179.087 133.594 179.006 133.775 178.845 133.926C178.686 134.074 178.493 134.148 178.267 134.148ZM181.838 133V141H180.424V133H181.838ZM183.292 141V135H184.706V141H183.292ZM184.003 134.148C183.779 134.148 183.586 134.074 183.425 133.926C183.263 133.775 183.183 133.594 183.183 133.383C183.183 133.169 183.263 132.988 183.425 132.84C183.586 132.689 183.779 132.613 184.003 132.613C184.229 132.613 184.422 132.689 184.581 132.84C184.743 132.988 184.823 133.169 184.823 133.383C184.823 133.594 184.743 133.775 184.581 133.926C184.422 134.074 184.229 134.148 184.003 134.148ZM189.156 135V136.094H185.707V135H189.156ZM186.559 133.562H187.973V139.195C187.973 139.385 188.001 139.531 188.059 139.633C188.118 139.732 188.197 139.799 188.293 139.836C188.389 139.872 188.496 139.891 188.613 139.891C188.702 139.891 188.783 139.884 188.855 139.871C188.931 139.858 188.988 139.846 189.027 139.836L189.266 140.941C189.19 140.967 189.082 140.996 188.941 141.027C188.803 141.059 188.634 141.077 188.434 141.082C188.079 141.092 187.76 141.039 187.477 140.922C187.193 140.802 186.967 140.617 186.801 140.367C186.637 140.117 186.556 139.805 186.559 139.43V133.562ZM191.218 143.25C191.025 143.25 190.847 143.234 190.683 143.203C190.521 143.174 190.392 143.141 190.296 143.102L190.624 142C190.83 142.06 191.013 142.089 191.175 142.086C191.336 142.083 191.478 142.033 191.601 141.934C191.726 141.837 191.831 141.676 191.917 141.449L192.038 141.125L189.862 135H191.362L192.745 139.531H192.808L194.194 135H195.698L193.296 141.727C193.184 142.044 193.035 142.316 192.851 142.543C192.666 142.772 192.439 142.947 192.171 143.066C191.905 143.189 191.588 143.25 191.218 143.25Z" fill="#7B7B7B"/>
</svg>
