<svg width="256" height="170" viewBox="0 0 256 170" fill="none" xmlns="http://www.w3.org/2000/svg">
<path d="M77.3019 163.396C77.0889 163.396 76.9741 163.396 76.8594 163.396C74.4792 163.396 72.099 163.396 69.7194 163.396C69.6238 163.396 69.5275 163.402 69.4325 163.394C69.1717 163.373 69.0148 163.23 69.0008 163.013C68.9868 162.787 69.1545 162.65 69.4012 162.608C69.4937 162.592 69.5919 162.601 69.6875 162.601C72.0779 162.601 74.469 162.601 76.8594 162.601H77.2929C76.7293 162.184 76.2307 161.813 75.7302 161.444C75.4279 161.221 75.1225 161.001 74.8216 160.777C74.5589 160.582 74.506 160.325 74.6845 160.14C74.8681 159.95 75.1123 159.952 75.3839 160.152C76.4959 160.971 77.6079 161.789 78.718 162.61C79.0961 162.89 79.0936 163.112 78.7129 163.393C77.6028 164.214 76.4908 165.032 75.3788 165.851C75.1098 166.048 74.8547 166.048 74.6775 165.859C74.513 165.684 74.5614 165.418 74.8024 165.239C75.6084 164.642 76.4175 164.048 77.3012 163.397L77.3019 163.396Z" fill="black"/>
<rect width="256" height="170" rx="24" fill="#E7E6E2"/>
<path d="M20.2912 93V79.9091H22.6626V91.0121H28.4283V93H20.2912ZM33.2095 93.1982C32.5874 93.1982 32.027 93.0874 31.5284 92.8658C31.0341 92.6399 30.642 92.3075 30.3523 91.8686C30.0668 91.4297 29.924 90.8885 29.924 90.245C29.924 89.6911 30.0263 89.233 30.2308 88.8707C30.4354 88.5085 30.7145 88.2188 31.0682 88.0014C31.4219 87.7841 31.8203 87.62 32.2635 87.5092C32.7109 87.3942 33.1733 87.3111 33.6506 87.2599C34.2259 87.2003 34.6925 87.147 35.0504 87.1001C35.4084 87.049 35.6683 86.9723 35.8303 86.87C35.9964 86.7635 36.0795 86.5994 36.0795 86.3778V86.3395C36.0795 85.858 35.9368 85.4851 35.6513 85.2209C35.3658 84.9567 34.9545 84.8246 34.4176 84.8246C33.8509 84.8246 33.4013 84.9482 33.0689 85.1953C32.7408 85.4425 32.5192 85.7344 32.4041 86.071L30.2436 85.7642C30.4141 85.1676 30.6953 84.669 31.0874 84.2685C31.4794 83.8636 31.9588 83.5611 32.5256 83.3608C33.0923 83.1562 33.7188 83.054 34.4048 83.054C34.8778 83.054 35.3487 83.1094 35.8175 83.2202C36.2862 83.331 36.7145 83.5142 37.1023 83.7699C37.4901 84.0213 37.8011 84.3643 38.0355 84.799C38.2741 85.2337 38.3935 85.777 38.3935 86.429V93H36.169V91.6513H36.0923C35.9517 91.924 35.7536 92.1797 35.4979 92.4183C35.2464 92.6527 34.929 92.8423 34.5455 92.9872C34.1662 93.1278 33.7209 93.1982 33.2095 93.1982ZM33.8104 91.4979C34.2749 91.4979 34.6776 91.4062 35.0185 91.223C35.3594 91.0355 35.6214 90.7884 35.8047 90.4815C35.9922 90.1747 36.0859 89.8402 36.0859 89.478V88.321C36.0135 88.3807 35.8899 88.4361 35.7152 88.4872C35.5447 88.5384 35.353 88.5831 35.1399 88.6214C34.9268 88.6598 34.7159 88.6939 34.5071 88.7237C34.2983 88.7536 34.1172 88.7791 33.9638 88.8004C33.6186 88.8473 33.3097 88.924 33.0369 89.0305C32.7642 89.1371 32.549 89.2862 32.3913 89.478C32.2337 89.6655 32.1548 89.9084 32.1548 90.2067C32.1548 90.6328 32.3104 90.9545 32.6214 91.1719C32.9325 91.3892 33.3288 91.4979 33.8104 91.4979ZM41.8068 96.6818C41.4915 96.6818 41.1996 96.6563 40.9311 96.6051C40.6669 96.5582 40.456 96.5028 40.2983 96.4389L40.8352 94.6364C41.1719 94.7344 41.4723 94.7813 41.7365 94.777C42.0007 94.7727 42.233 94.6896 42.4332 94.5277C42.6378 94.37 42.8104 94.1058 42.951 93.7351L43.1491 93.2045L39.5888 83.1818H42.0433L44.3061 90.5966H44.4084L46.6776 83.1818H49.1385L45.2074 94.1889C45.0241 94.7088 44.7813 95.1541 44.4787 95.5249C44.1761 95.8999 43.8054 96.1854 43.3665 96.3814C42.9318 96.5817 42.4119 96.6818 41.8068 96.6818ZM54.6884 93.1918C53.7296 93.1918 52.8986 92.9808 52.1955 92.5589C51.4924 92.1371 50.9469 91.5469 50.5591 90.7884C50.1756 90.0298 49.9838 89.1435 49.9838 88.1293C49.9838 87.1151 50.1756 86.2266 50.5591 85.4638C50.9469 84.701 51.4924 84.1087 52.1955 83.6868C52.8986 83.2649 53.7296 83.054 54.6884 83.054C55.6472 83.054 56.4782 83.2649 57.1813 83.6868C57.8844 84.1087 58.4277 84.701 58.8113 85.4638C59.199 86.2266 59.3929 87.1151 59.3929 88.1293C59.3929 89.1435 59.199 90.0298 58.8113 90.7884C58.4277 91.5469 57.8844 92.1371 57.1813 92.5589C56.4782 92.9808 55.6472 93.1918 54.6884 93.1918ZM54.7012 91.3381C55.2211 91.3381 55.6557 91.1953 56.0051 90.9098C56.3546 90.62 56.6145 90.2322 56.785 89.7464C56.9597 89.2607 57.0471 88.7195 57.0471 88.1229C57.0471 87.522 56.9597 86.9787 56.785 86.4929C56.6145 86.0028 56.3546 85.6129 56.0051 85.3232C55.6557 85.0334 55.2211 84.8885 54.7012 84.8885C54.1685 84.8885 53.7253 85.0334 53.3716 85.3232C53.0222 85.6129 52.7601 86.0028 52.5854 86.4929C52.415 86.9787 52.3297 87.522 52.3297 88.1229C52.3297 88.7195 52.415 89.2607 52.5854 89.7464C52.7601 90.2322 53.0222 90.62 53.3716 90.9098C53.7253 91.1953 54.1685 91.3381 54.7012 91.3381ZM67.6147 88.8707V83.1818H69.9286V93H67.685V91.255H67.5827C67.3612 91.8047 66.9968 92.2543 66.4897 92.6037C65.9869 92.9531 65.3668 93.1278 64.6296 93.1278C63.9862 93.1278 63.4173 92.9851 62.9229 92.6996C62.4329 92.4098 62.0494 91.9901 61.7724 91.4403C61.4954 90.8864 61.3569 90.2173 61.3569 89.4332V83.1818H63.6708V89.0753C63.6708 89.6974 63.8413 90.1918 64.1822 90.5582C64.5231 90.9247 64.9705 91.108 65.5245 91.108C65.8654 91.108 66.1957 91.0249 66.5153 90.8587C66.8349 90.6925 67.0969 90.4453 67.3015 90.1172C67.5103 89.7848 67.6147 89.3693 67.6147 88.8707ZM77.2108 83.1818V84.9716H71.5666V83.1818H77.2108ZM72.96 80.8295H75.274V90.0469C75.274 90.358 75.3208 90.5966 75.4146 90.7628C75.5126 90.9247 75.6404 91.0355 75.7981 91.0952C75.9558 91.1548 76.1305 91.1847 76.3223 91.1847C76.4672 91.1847 76.5993 91.174 76.7186 91.1527C76.8422 91.1314 76.9359 91.1122 76.9998 91.0952L77.3897 92.9041C77.2662 92.9467 77.0893 92.9936 76.8592 93.0447C76.6333 93.0959 76.3564 93.1257 76.0282 93.1342C75.4487 93.1513 74.9267 93.0639 74.4622 92.8722C73.9977 92.6761 73.6291 92.3736 73.3564 91.9645C73.0879 91.5554 72.9558 91.044 72.96 90.4304V80.8295Z" fill="black"/>
<path d="M22.5032 133.001C23.2866 133.001 24.07 132.998 24.8534 133.002C25.4062 133.004 25.8279 133.329 25.96 133.851C25.984 133.947 25.998 134.048 25.998 134.147C26.0005 135.715 26.0005 137.283 25.999 138.852C25.9985 139.392 25.6738 139.819 25.1611 139.957C25.062 139.983 24.9569 139.998 24.8544 139.998C23.2876 140 21.7208 140 20.1535 139.999C19.4947 139.999 19.0019 139.508 19.0009 138.846C18.9994 137.286 18.9999 135.726 19.0009 134.167C19.0014 133.484 19.4802 133.004 20.165 133.001C20.9444 132.998 21.7238 133.001 22.5027 133.001H22.5032ZM22.0115 137.236C21.9804 137.209 21.9614 137.194 21.9444 137.177C21.6378 136.871 21.3316 136.563 21.024 136.258C20.8854 136.121 20.6858 136.098 20.5342 136.197C20.3136 136.341 20.2856 136.614 20.4777 136.808C20.8769 137.211 21.2786 137.611 21.6793 138.012C21.9009 138.234 22.1005 138.231 22.3236 138.005C22.5377 137.789 22.7533 137.574 22.9684 137.359C23.4842 136.843 24.0005 136.327 24.5157 135.811C24.6223 135.704 24.6783 135.577 24.6418 135.426C24.5663 135.112 24.2201 135.022 23.9815 135.258C23.4747 135.76 22.9724 136.266 22.4692 136.771C22.3166 136.923 22.1665 137.078 22.011 137.237L22.0115 137.236Z" fill="#9C0000"/>
<path d="M22.5032 112.001C23.2866 112.001 24.07 111.998 24.8534 112.002C25.4062 112.004 25.8279 112.329 25.96 112.851C25.984 112.947 25.998 113.048 25.998 113.147C26.0005 114.715 26.0005 116.283 25.999 117.852C25.9985 118.392 25.6738 118.819 25.1611 118.957C25.062 118.983 24.9569 118.998 24.8544 118.998C23.2876 119 21.7208 119 20.1535 118.999C19.4947 118.999 19.0019 118.508 19.0009 117.846C18.9994 116.286 18.9999 114.726 19.0009 113.167C19.0014 112.484 19.4802 112.004 20.165 112.001C20.9444 111.998 21.7238 112.001 22.5027 112.001H22.5032ZM22.0115 116.236C21.9804 116.209 21.9614 116.194 21.9444 116.177C21.6378 115.871 21.3316 115.563 21.024 115.258C20.8854 115.121 20.6858 115.098 20.5342 115.197C20.3136 115.341 20.2856 115.614 20.4777 115.808C20.8769 116.211 21.2786 116.611 21.6793 117.012C21.9009 117.234 22.1005 117.231 22.3236 117.005C22.5377 116.789 22.7533 116.574 22.9684 116.359C23.4842 115.843 24.0005 115.327 24.5157 114.811C24.6223 114.704 24.6783 114.577 24.6418 114.426C24.5663 114.112 24.2201 114.022 23.9815 114.258C23.4747 114.76 22.9724 115.266 22.4692 115.771C22.3166 115.923 22.1665 116.078 22.011 116.237L22.0115 116.236Z" fill="#9C0000"/>
<path d="M126.503 133.001C127.287 133.001 128.07 132.998 128.853 133.002C129.406 133.004 129.828 133.329 129.96 133.851C129.984 133.947 129.998 134.048 129.998 134.147C130 135.715 130 137.283 129.999 138.852C129.998 139.392 129.674 139.819 129.161 139.957C129.062 139.983 128.957 139.998 128.854 139.998C127.288 140 125.721 140 124.154 139.999C123.495 139.999 123.002 139.508 123.001 138.846C122.999 137.286 123 135.726 123.001 134.167C123.001 133.484 123.48 133.004 124.165 133.001C124.944 132.998 125.724 133.001 126.503 133.001H126.503ZM126.011 137.236C125.98 137.209 125.961 137.194 125.944 137.177C125.638 136.871 125.332 136.563 125.024 136.258C124.885 136.121 124.686 136.098 124.534 136.197C124.314 136.341 124.286 136.614 124.478 136.808C124.877 137.211 125.279 137.611 125.679 138.012C125.901 138.234 126.101 138.231 126.324 138.005C126.538 137.789 126.753 137.574 126.968 137.359C127.484 136.843 128 136.327 128.516 135.811C128.622 135.704 128.678 135.577 128.642 135.426C128.566 135.112 128.22 135.022 127.981 135.258C127.475 135.76 126.972 136.266 126.469 136.771C126.317 136.923 126.167 137.078 126.011 137.237L126.011 137.236Z" fill="#9C0000"/>
<path d="M126.503 112.001C127.287 112.001 128.07 111.998 128.853 112.002C129.406 112.004 129.828 112.329 129.96 112.851C129.984 112.947 129.998 113.048 129.998 113.147C130 114.715 130 116.283 129.999 117.852C129.998 118.392 129.674 118.819 129.161 118.957C129.062 118.983 128.957 118.998 128.854 118.998C127.288 119 125.721 119 124.154 118.999C123.495 118.999 123.002 118.508 123.001 117.846C122.999 116.286 123 114.726 123.001 113.167C123.001 112.484 123.48 112.004 124.165 112.001C124.944 111.998 125.724 112.001 126.503 112.001H126.503ZM126.011 116.236C125.98 116.209 125.961 116.194 125.944 116.177C125.638 115.871 125.332 115.563 125.024 115.258C124.885 115.121 124.686 115.098 124.534 115.197C124.314 115.341 124.286 115.614 124.478 115.808C124.877 116.211 125.279 116.611 125.679 117.012C125.901 117.234 126.101 117.231 126.324 117.005C126.538 116.789 126.753 116.574 126.968 116.359C127.484 115.843 128 115.327 128.516 114.811C128.622 114.704 128.678 114.577 128.642 114.426C128.566 114.112 128.22 114.022 127.981 114.258C127.475 114.76 126.972 115.266 126.469 115.771C126.317 115.923 126.167 116.078 126.011 116.237L126.011 116.236Z" fill="#9C0000"/>
<path d="M31.7891 119V111H34.8516C35.4297 111 35.9102 111.091 36.293 111.273C36.6784 111.453 36.9661 111.699 37.1563 112.012C37.349 112.324 37.4453 112.678 37.4453 113.074C37.4453 113.4 37.3828 113.678 37.2578 113.91C37.1328 114.139 36.9648 114.326 36.7539 114.469C36.543 114.612 36.3073 114.715 36.0469 114.777V114.855C36.3307 114.871 36.6029 114.958 36.8633 115.117C37.1263 115.273 37.3411 115.495 37.5078 115.781C37.6745 116.068 37.7578 116.414 37.7578 116.82C37.7578 117.234 37.6576 117.607 37.457 117.937C37.2565 118.266 36.9544 118.525 36.5508 118.715C36.1471 118.905 35.6393 119 35.0273 119H31.7891ZM33.2383 117.789H34.7969C35.3229 117.789 35.7018 117.689 35.9336 117.488C36.168 117.285 36.2852 117.025 36.2852 116.707C36.2852 116.47 36.2266 116.257 36.1094 116.066C35.9922 115.874 35.8255 115.723 35.6094 115.613C35.3932 115.501 35.1354 115.445 34.8359 115.445H33.2383V117.789ZM33.2383 114.402H34.6719C34.9219 114.402 35.1471 114.357 35.3477 114.266C35.5482 114.172 35.7057 114.04 35.8203 113.871C35.9375 113.699 35.9961 113.496 35.9961 113.262C35.9961 112.952 35.8867 112.697 35.668 112.496C35.4518 112.296 35.1302 112.195 34.7031 112.195H33.2383V114.402ZM41.5732 119.117C40.9873 119.117 40.4795 118.988 40.0498 118.73C39.6201 118.473 39.2868 118.112 39.0498 117.648C38.8154 117.185 38.6982 116.643 38.6982 116.023C38.6982 115.404 38.8154 114.861 39.0498 114.395C39.2868 113.928 39.6201 113.566 40.0498 113.309C40.4795 113.051 40.9873 112.922 41.5732 112.922C42.1592 112.922 42.667 113.051 43.0967 113.309C43.5264 113.566 43.8584 113.928 44.0928 114.395C44.3298 114.861 44.4482 115.404 44.4482 116.023C44.4482 116.643 44.3298 117.185 44.0928 117.648C43.8584 118.112 43.5264 118.473 43.0967 118.73C42.667 118.988 42.1592 119.117 41.5732 119.117ZM41.5811 117.984C41.8988 117.984 42.1644 117.897 42.3779 117.723C42.5915 117.546 42.7503 117.309 42.8545 117.012C42.9613 116.715 43.0146 116.384 43.0146 116.02C43.0146 115.652 42.9613 115.32 42.8545 115.023C42.7503 114.724 42.5915 114.486 42.3779 114.309C42.1644 114.132 41.8988 114.043 41.5811 114.043C41.2555 114.043 40.9847 114.132 40.7686 114.309C40.555 114.486 40.3949 114.724 40.2881 115.023C40.1839 115.32 40.1318 115.652 40.1318 116.02C40.1318 116.384 40.1839 116.715 40.2881 117.012C40.3949 117.309 40.555 117.546 40.7686 117.723C40.9847 117.897 41.2555 117.984 41.5811 117.984ZM48.2656 119.117C47.6797 119.117 47.1719 118.988 46.7422 118.73C46.3125 118.473 45.9792 118.112 45.7422 117.648C45.5078 117.185 45.3906 116.643 45.3906 116.023C45.3906 115.404 45.5078 114.861 45.7422 114.395C45.9792 113.928 46.3125 113.566 46.7422 113.309C47.1719 113.051 47.6797 112.922 48.2656 112.922C48.8516 112.922 49.3594 113.051 49.7891 113.309C50.2188 113.566 50.5508 113.928 50.7852 114.395C51.0221 114.861 51.1406 115.404 51.1406 116.023C51.1406 116.643 51.0221 117.185 50.7852 117.648C50.5508 118.112 50.2188 118.473 49.7891 118.73C49.3594 118.988 48.8516 119.117 48.2656 119.117ZM48.2734 117.984C48.5911 117.984 48.8568 117.897 49.0703 117.723C49.2839 117.546 49.4427 117.309 49.5469 117.012C49.6536 116.715 49.707 116.384 49.707 116.02C49.707 115.652 49.6536 115.32 49.5469 115.023C49.4427 114.724 49.2839 114.486 49.0703 114.309C48.8568 114.132 48.5911 114.043 48.2734 114.043C47.9479 114.043 47.6771 114.132 47.4609 114.309C47.2474 114.486 47.0872 114.724 46.9805 115.023C46.8763 115.32 46.8242 115.652 46.8242 116.02C46.8242 116.384 46.8763 116.715 46.9805 117.012C47.0872 117.309 47.2474 117.546 47.4609 117.723C47.6771 117.897 47.9479 117.984 48.2734 117.984ZM53.6299 117.117L53.626 115.41H53.8525L56.0088 113H57.6611L55.0088 115.953H54.7158L53.6299 117.117ZM52.3408 119V111H53.7549V119H52.3408ZM56.1064 119L54.1533 116.27L55.1064 115.273L57.7979 119H56.1064ZM63.3457 114.586L62.0566 114.727C62.0202 114.596 61.9564 114.474 61.8652 114.359C61.7767 114.245 61.6569 114.152 61.5059 114.082C61.3548 114.012 61.1699 113.977 60.9512 113.977C60.6569 113.977 60.4095 114.04 60.209 114.168C60.0111 114.296 59.9134 114.461 59.916 114.664C59.9134 114.839 59.9772 114.98 60.1074 115.09C60.2402 115.199 60.459 115.289 60.7637 115.359L61.7871 115.578C62.3548 115.701 62.7767 115.895 63.0527 116.16C63.3314 116.426 63.472 116.773 63.4746 117.203C63.472 117.581 63.3613 117.914 63.1426 118.203C62.9264 118.49 62.6257 118.714 62.2402 118.875C61.8548 119.036 61.4121 119.117 60.9121 119.117C60.1777 119.117 59.5866 118.964 59.1387 118.656C58.6908 118.346 58.4238 117.915 58.3379 117.363L59.7168 117.23C59.7793 117.501 59.9121 117.706 60.1152 117.844C60.3184 117.982 60.5827 118.051 60.9082 118.051C61.2441 118.051 61.5137 117.982 61.7168 117.844C61.9225 117.706 62.0254 117.535 62.0254 117.332C62.0254 117.16 61.959 117.018 61.8262 116.906C61.696 116.794 61.4928 116.708 61.2168 116.648L60.1934 116.434C59.6178 116.314 59.1921 116.112 58.916 115.828C58.64 115.542 58.5033 115.18 58.5059 114.742C58.5033 114.372 58.6035 114.052 58.8066 113.781C59.0124 113.508 59.2975 113.297 59.6621 113.148C60.0293 112.997 60.4525 112.922 60.9316 112.922C61.6348 112.922 62.1882 113.072 62.5918 113.371C62.998 113.671 63.2493 114.076 63.3457 114.586Z" fill="#7B7B7B"/>
<path d="M135.789 119V111H138.852C139.43 111 139.91 111.091 140.293 111.273C140.678 111.453 140.966 111.699 141.156 112.012C141.349 112.324 141.445 112.678 141.445 113.074C141.445 113.4 141.383 113.678 141.258 113.91C141.133 114.139 140.965 114.326 140.754 114.469C140.543 114.612 140.307 114.715 140.047 114.777V114.855C140.331 114.871 140.603 114.958 140.863 115.117C141.126 115.273 141.341 115.495 141.508 115.781C141.674 116.068 141.758 116.414 141.758 116.82C141.758 117.234 141.658 117.607 141.457 117.937C141.257 118.266 140.954 118.525 140.551 118.715C140.147 118.905 139.639 119 139.027 119H135.789ZM137.238 117.789H138.797C139.323 117.789 139.702 117.689 139.934 117.488C140.168 117.285 140.285 117.025 140.285 116.707C140.285 116.47 140.227 116.257 140.109 116.066C139.992 115.874 139.826 115.723 139.609 115.613C139.393 115.501 139.135 115.445 138.836 115.445H137.238V117.789ZM137.238 114.402H138.672C138.922 114.402 139.147 114.357 139.348 114.266C139.548 114.172 139.706 114.04 139.82 113.871C139.938 113.699 139.996 113.496 139.996 113.262C139.996 112.952 139.887 112.697 139.668 112.496C139.452 112.296 139.13 112.195 138.703 112.195H137.238V114.402ZM142.956 119V113H144.327V114H144.39C144.499 113.654 144.687 113.387 144.952 113.199C145.22 113.009 145.526 112.914 145.87 112.914C145.948 112.914 146.035 112.918 146.132 112.926C146.231 112.931 146.313 112.94 146.378 112.953V114.254C146.318 114.233 146.223 114.215 146.093 114.199C145.965 114.181 145.841 114.172 145.722 114.172C145.464 114.172 145.232 114.228 145.026 114.34C144.823 114.449 144.663 114.602 144.546 114.797C144.429 114.992 144.37 115.217 144.37 115.473V119H142.956ZM149.688 119.117C149.102 119.117 148.594 118.988 148.164 118.73C147.734 118.473 147.401 118.112 147.164 117.648C146.93 117.185 146.813 116.643 146.813 116.023C146.813 115.404 146.93 114.861 147.164 114.395C147.401 113.928 147.734 113.566 148.164 113.309C148.594 113.051 149.102 112.922 149.688 112.922C150.273 112.922 150.781 113.051 151.211 113.309C151.641 113.566 151.973 113.928 152.207 114.395C152.444 114.861 152.563 115.404 152.563 116.023C152.563 116.643 152.444 117.185 152.207 117.648C151.973 118.112 151.641 118.473 151.211 118.73C150.781 118.988 150.273 119.117 149.688 119.117ZM149.695 117.984C150.013 117.984 150.279 117.897 150.492 117.723C150.706 117.546 150.865 117.309 150.969 117.012C151.076 116.715 151.129 116.384 151.129 116.02C151.129 115.652 151.076 115.32 150.969 115.023C150.865 114.724 150.706 114.486 150.492 114.309C150.279 114.132 150.013 114.043 149.695 114.043C149.37 114.043 149.099 114.132 148.883 114.309C148.669 114.486 148.509 114.724 148.402 115.023C148.298 115.32 148.246 115.652 148.246 116.02C148.246 116.384 148.298 116.715 148.402 117.012C148.509 117.309 148.669 117.546 148.883 117.723C149.099 117.897 149.37 117.984 149.695 117.984ZM156.38 119.117C155.781 119.117 155.267 118.986 154.837 118.723C154.41 118.46 154.08 118.096 153.849 117.633C153.619 117.167 153.505 116.63 153.505 116.023C153.505 115.414 153.622 114.876 153.856 114.41C154.091 113.941 154.422 113.577 154.849 113.316C155.278 113.053 155.786 112.922 156.372 112.922C156.859 112.922 157.29 113.012 157.665 113.191C158.043 113.368 158.343 113.62 158.567 113.945C158.791 114.268 158.919 114.646 158.95 115.078H157.599C157.544 114.789 157.414 114.548 157.208 114.355C157.005 114.16 156.733 114.062 156.392 114.062C156.103 114.062 155.849 114.141 155.63 114.297C155.411 114.451 155.241 114.672 155.118 114.961C154.998 115.25 154.938 115.596 154.938 116C154.938 116.409 154.998 116.76 155.118 117.055C155.238 117.346 155.406 117.572 155.622 117.73C155.841 117.887 156.097 117.965 156.392 117.965C156.6 117.965 156.786 117.926 156.95 117.848C157.117 117.767 157.256 117.651 157.368 117.5C157.48 117.349 157.557 117.165 157.599 116.949H158.95C158.916 117.374 158.791 117.75 158.575 118.078C158.359 118.404 158.065 118.659 157.692 118.844C157.32 119.026 156.882 119.117 156.38 119.117ZM161.525 115.484V119H160.111V111H161.494V114.02H161.564C161.705 113.681 161.923 113.414 162.217 113.219C162.514 113.021 162.891 112.922 163.35 112.922C163.766 112.922 164.13 113.009 164.439 113.184C164.749 113.358 164.989 113.613 165.158 113.949C165.33 114.285 165.416 114.695 165.416 115.18V119H164.002V115.398C164.002 114.995 163.898 114.681 163.689 114.457C163.484 114.23 163.195 114.117 162.822 114.117C162.572 114.117 162.348 114.172 162.15 114.281C161.955 114.388 161.801 114.543 161.689 114.746C161.58 114.949 161.525 115.195 161.525 115.484ZM170.682 116.477V113H172.096V119H170.725V117.934H170.662C170.527 118.27 170.304 118.544 169.994 118.758C169.687 118.971 169.308 119.078 168.857 119.078C168.464 119.078 168.117 118.991 167.814 118.816C167.515 118.639 167.281 118.383 167.111 118.047C166.942 117.708 166.857 117.299 166.857 116.82V113H168.271V116.602C168.271 116.982 168.376 117.284 168.584 117.508C168.792 117.732 169.066 117.844 169.404 117.844C169.613 117.844 169.814 117.793 170.01 117.691C170.205 117.59 170.365 117.439 170.49 117.238C170.618 117.035 170.682 116.781 170.682 116.477ZM173.55 119V113H174.921V114H174.983C175.093 113.654 175.28 113.387 175.546 113.199C175.814 113.009 176.12 112.914 176.464 112.914C176.542 112.914 176.629 112.918 176.726 112.926C176.825 112.931 176.907 112.94 176.972 112.953V114.254C176.912 114.233 176.817 114.215 176.687 114.199C176.559 114.181 176.435 114.172 176.315 114.172C176.058 114.172 175.826 114.228 175.62 114.34C175.417 114.449 175.257 114.602 175.14 114.797C175.022 114.992 174.964 115.217 174.964 115.473V119H173.55ZM180.32 119.117C179.719 119.117 179.199 118.992 178.762 118.742C178.327 118.49 177.992 118.133 177.758 117.672C177.523 117.208 177.406 116.663 177.406 116.035C177.406 115.418 177.523 114.876 177.758 114.41C177.995 113.941 178.326 113.577 178.75 113.316C179.174 113.053 179.673 112.922 180.246 112.922C180.616 112.922 180.965 112.982 181.293 113.102C181.624 113.219 181.915 113.401 182.168 113.648C182.423 113.896 182.624 114.211 182.77 114.594C182.915 114.974 182.988 115.427 182.988 115.953V116.387H178.07V115.434H181.633C181.63 115.163 181.572 114.922 181.457 114.711C181.342 114.497 181.182 114.329 180.977 114.207C180.773 114.085 180.536 114.023 180.266 114.023C179.977 114.023 179.723 114.094 179.504 114.234C179.285 114.372 179.115 114.555 178.992 114.781C178.872 115.005 178.811 115.251 178.809 115.52V116.352C178.809 116.701 178.872 117 179 117.25C179.128 117.497 179.306 117.687 179.535 117.82C179.764 117.951 180.033 118.016 180.34 118.016C180.546 118.016 180.732 117.987 180.898 117.93C181.065 117.87 181.21 117.783 181.332 117.668C181.454 117.553 181.547 117.411 181.609 117.242L182.93 117.391C182.846 117.74 182.688 118.044 182.453 118.305C182.221 118.562 181.924 118.763 181.563 118.906C181.201 119.047 180.786 119.117 180.32 119.117ZM188.927 114.586L187.638 114.727C187.601 114.596 187.537 114.474 187.446 114.359C187.358 114.245 187.238 114.152 187.087 114.082C186.936 114.012 186.751 113.977 186.532 113.977C186.238 113.977 185.991 114.04 185.79 114.168C185.592 114.296 185.494 114.461 185.497 114.664C185.494 114.839 185.558 114.98 185.688 115.09C185.821 115.199 186.04 115.289 186.345 115.359L187.368 115.578C187.936 115.701 188.358 115.895 188.634 116.16C188.912 116.426 189.053 116.773 189.056 117.203C189.053 117.581 188.942 117.914 188.724 118.203C188.507 118.49 188.207 118.714 187.821 118.875C187.436 119.036 186.993 119.117 186.493 119.117C185.759 119.117 185.168 118.964 184.72 118.656C184.272 118.346 184.005 117.915 183.919 117.363L185.298 117.23C185.36 117.501 185.493 117.706 185.696 117.844C185.899 117.982 186.164 118.051 186.489 118.051C186.825 118.051 187.095 117.982 187.298 117.844C187.504 117.706 187.606 117.535 187.606 117.332C187.606 117.16 187.54 117.018 187.407 116.906C187.277 116.794 187.074 116.708 186.798 116.648L185.774 116.434C185.199 116.314 184.773 116.112 184.497 115.828C184.221 115.542 184.084 115.18 184.087 114.742C184.084 114.372 184.185 114.052 184.388 113.781C184.593 113.508 184.879 113.297 185.243 113.148C185.61 112.997 186.034 112.922 186.513 112.922C187.216 112.922 187.769 113.072 188.173 113.371C188.579 113.671 188.83 114.076 188.927 114.586Z" fill="#7B7B7B"/>
<path d="M31.7891 133H33.5625L35.9375 138.797H36.0313L38.4063 133H40.1797V141H38.7891V135.504H38.7148L36.5039 140.977H35.4648L33.2539 135.492H33.1797V141H31.7891V133ZM43.4219 141.121C43.0417 141.121 42.6992 141.053 42.3945 140.918C42.0924 140.78 41.8529 140.577 41.6758 140.309C41.5013 140.04 41.4141 139.71 41.4141 139.316C41.4141 138.978 41.4766 138.698 41.6016 138.477C41.7266 138.255 41.8971 138.078 42.1133 137.945C42.3294 137.812 42.5729 137.712 42.8438 137.645C43.1172 137.574 43.3997 137.523 43.6914 137.492C44.043 137.456 44.3281 137.423 44.5469 137.395C44.7656 137.363 44.9245 137.316 45.0234 137.254C45.125 137.189 45.1758 137.089 45.1758 136.953V136.93C45.1758 136.635 45.0885 136.408 44.9141 136.246C44.7396 136.085 44.4883 136.004 44.1602 136.004C43.8138 136.004 43.5391 136.079 43.3359 136.23C43.1354 136.382 43 136.56 42.9297 136.766L41.6094 136.578C41.7135 136.214 41.8854 135.909 42.125 135.664C42.3646 135.417 42.6576 135.232 43.0039 135.109C43.3503 134.984 43.7331 134.922 44.1523 134.922C44.4414 134.922 44.7292 134.956 45.0156 135.023C45.3021 135.091 45.5638 135.203 45.8008 135.359C46.0378 135.513 46.2279 135.723 46.3711 135.988C46.5169 136.254 46.5898 136.586 46.5898 136.984V141H45.2305V140.176H45.1836C45.0977 140.342 44.9766 140.499 44.8203 140.645C44.6667 140.788 44.4727 140.904 44.2383 140.992C44.0065 141.078 43.7344 141.121 43.4219 141.121ZM43.7891 140.082C44.0729 140.082 44.319 140.026 44.5273 139.914C44.7357 139.799 44.8958 139.648 45.0078 139.461C45.1224 139.273 45.1797 139.069 45.1797 138.848V138.141C45.1354 138.177 45.0599 138.211 44.9531 138.242C44.849 138.273 44.7318 138.301 44.6016 138.324C44.4714 138.348 44.3424 138.368 44.2148 138.387C44.0872 138.405 43.9766 138.421 43.8828 138.434C43.6719 138.462 43.4831 138.509 43.3164 138.574C43.1497 138.639 43.0182 138.73 42.9219 138.848C42.8255 138.962 42.7773 139.111 42.7773 139.293C42.7773 139.553 42.8724 139.75 43.0625 139.883C43.2526 140.016 43.4948 140.082 43.7891 140.082ZM50.6211 143.375C50.1133 143.375 49.6771 143.306 49.3125 143.168C48.9479 143.033 48.6549 142.85 48.4336 142.621C48.2122 142.392 48.0586 142.138 47.9727 141.859L49.2461 141.551C49.3034 141.668 49.3867 141.784 49.4961 141.898C49.6055 142.016 49.7526 142.112 49.9375 142.188C50.125 142.266 50.3607 142.305 50.6445 142.305C51.0456 142.305 51.3776 142.207 51.6406 142.012C51.9036 141.819 52.0352 141.501 52.0352 141.059V139.922H51.9648C51.8919 140.068 51.7852 140.217 51.6445 140.371C51.5065 140.525 51.3229 140.654 51.0938 140.758C50.8672 140.862 50.582 140.914 50.2383 140.914C49.7773 140.914 49.3594 140.806 48.9844 140.59C48.612 140.371 48.3151 140.046 48.0938 139.613C47.875 139.178 47.7656 138.634 47.7656 137.98C47.7656 137.322 47.875 136.766 48.0938 136.312C48.3151 135.857 48.6133 135.512 48.9883 135.277C49.3633 135.04 49.7813 134.922 50.2422 134.922C50.5938 134.922 50.8828 134.982 51.1094 135.102C51.3385 135.219 51.5208 135.361 51.6562 135.527C51.7917 135.691 51.8945 135.846 51.9648 135.992H52.043V135H53.4375V141.098C53.4375 141.611 53.3151 142.035 53.0703 142.371C52.8255 142.707 52.4909 142.958 52.0664 143.125C51.6419 143.292 51.1602 143.375 50.6211 143.375ZM50.6328 139.805C50.9323 139.805 51.1875 139.732 51.3984 139.586C51.6094 139.44 51.7695 139.23 51.8789 138.957C51.9883 138.684 52.043 138.355 52.043 137.973C52.043 137.595 51.9883 137.264 51.8789 136.98C51.7721 136.697 51.6133 136.477 51.4023 136.32C51.194 136.161 50.9375 136.082 50.6328 136.082C50.3177 136.082 50.0547 136.164 49.8438 136.328C49.6328 136.492 49.474 136.717 49.3672 137.004C49.2604 137.288 49.207 137.611 49.207 137.973C49.207 138.34 49.2604 138.661 49.3672 138.938C49.4766 139.211 49.6367 139.424 49.8477 139.578C50.0612 139.729 50.3229 139.805 50.6328 139.805ZM56.6133 141.121C56.2331 141.121 55.8906 141.053 55.5859 140.918C55.2839 140.78 55.0443 140.577 54.8672 140.309C54.6927 140.04 54.6055 139.71 54.6055 139.316C54.6055 138.978 54.668 138.698 54.793 138.477C54.918 138.255 55.0885 138.078 55.3047 137.945C55.5208 137.812 55.7643 137.712 56.0352 137.645C56.3086 137.574 56.5911 137.523 56.8828 137.492C57.2344 137.456 57.5195 137.423 57.7383 137.395C57.957 137.363 58.1159 137.316 58.2148 137.254C58.3164 137.189 58.3672 137.089 58.3672 136.953V136.93C58.3672 136.635 58.2799 136.408 58.1055 136.246C57.931 136.085 57.6797 136.004 57.3516 136.004C57.0052 136.004 56.7305 136.079 56.5273 136.23C56.3268 136.382 56.1914 136.56 56.1211 136.766L54.8008 136.578C54.9049 136.214 55.0768 135.909 55.3164 135.664C55.556 135.417 55.849 135.232 56.1953 135.109C56.5417 134.984 56.9245 134.922 57.3438 134.922C57.6328 134.922 57.9206 134.956 58.207 135.023C58.4935 135.091 58.7552 135.203 58.9922 135.359C59.2292 135.513 59.4193 135.723 59.5625 135.988C59.7083 136.254 59.7813 136.586 59.7813 136.984V141H58.4219V140.176H58.375C58.2891 140.342 58.168 140.499 58.0117 140.645C57.8581 140.788 57.6641 140.904 57.4297 140.992C57.1979 141.078 56.9258 141.121 56.6133 141.121ZM56.9805 140.082C57.2643 140.082 57.5104 140.026 57.7188 139.914C57.9271 139.799 58.0872 139.648 58.1992 139.461C58.3138 139.273 58.3711 139.069 58.3711 138.848V138.141C58.3268 138.177 58.2513 138.211 58.1445 138.242C58.0404 138.273 57.9232 138.301 57.793 138.324C57.6628 138.348 57.5339 138.368 57.4063 138.387C57.2786 138.405 57.168 138.421 57.0742 138.434C56.8633 138.462 56.6745 138.509 56.5078 138.574C56.3411 138.639 56.2096 138.73 56.1133 138.848C56.0169 138.962 55.9688 139.111 55.9688 139.293C55.9688 139.553 56.0638 139.75 56.2539 139.883C56.444 140.016 56.6862 140.082 56.9805 140.082ZM61.125 141V140.102L64.2188 136.223V136.172H61.2266V135H65.9492V135.965L63.0039 139.777V139.828H66.0508V141H61.125ZM67.3799 141V135H68.7939V141H67.3799ZM68.0908 134.148C67.8669 134.148 67.6742 134.074 67.5127 133.926C67.3512 133.775 67.2705 133.594 67.2705 133.383C67.2705 133.169 67.3512 132.988 67.5127 132.84C67.6742 132.689 67.8669 132.613 68.0908 132.613C68.3174 132.613 68.5101 132.689 68.6689 132.84C68.8304 132.988 68.9111 133.169 68.9111 133.383C68.9111 133.594 68.8304 133.775 68.6689 133.926C68.5101 134.074 68.3174 134.148 68.0908 134.148ZM71.6621 137.484V141H70.248V135H71.5996V136.02H71.6699C71.8079 135.684 72.028 135.417 72.3301 135.219C72.6348 135.021 73.0111 134.922 73.459 134.922C73.873 134.922 74.2337 135.01 74.541 135.187C74.8509 135.365 75.0905 135.621 75.2598 135.957C75.4316 136.293 75.5163 136.701 75.5137 137.18V141H74.0996V137.398C74.0996 136.997 73.9954 136.684 73.7871 136.457C73.5814 136.23 73.2962 136.117 72.9316 136.117C72.6842 136.117 72.4642 136.172 72.2715 136.281C72.0814 136.388 71.9316 136.543 71.8223 136.746C71.7155 136.949 71.6621 137.195 71.6621 137.484ZM79.6074 141.117C79.0059 141.117 78.4863 140.992 78.0488 140.742C77.6139 140.49 77.2793 140.133 77.0449 139.672C76.8105 139.208 76.6934 138.663 76.6934 138.035C76.6934 137.418 76.8105 136.876 77.0449 136.41C77.2819 135.941 77.6126 135.577 78.0371 135.316C78.4616 135.053 78.9603 134.922 79.5332 134.922C79.903 134.922 80.252 134.982 80.5801 135.102C80.9108 135.219 81.2025 135.401 81.4551 135.648C81.7103 135.896 81.9108 136.211 82.0566 136.594C82.2025 136.974 82.2754 137.427 82.2754 137.953V138.387H77.3574V137.434H80.9199C80.9173 137.163 80.8587 136.922 80.7441 136.711C80.6296 136.497 80.4694 136.329 80.2637 136.207C80.0605 136.085 79.8236 136.023 79.5527 136.023C79.2637 136.023 79.0098 136.094 78.791 136.234C78.5723 136.372 78.4017 136.555 78.2793 136.781C78.1595 137.005 78.0983 137.251 78.0957 137.52V138.352C78.0957 138.701 78.1595 139 78.2871 139.25C78.4147 139.497 78.5931 139.687 78.8223 139.82C79.0514 139.951 79.3197 140.016 79.627 140.016C79.8327 140.016 80.0189 139.987 80.1855 139.93C80.3522 139.87 80.4967 139.783 80.6191 139.668C80.7415 139.553 80.834 139.411 80.8965 139.242L82.2168 139.391C82.1335 139.74 81.9746 140.044 81.7402 140.305C81.5085 140.562 81.2116 140.763 80.8496 140.906C80.4876 141.047 80.0736 141.117 79.6074 141.117ZM88.2139 136.586L86.9248 136.727C86.8883 136.596 86.8245 136.474 86.7334 136.359C86.6449 136.245 86.5251 136.152 86.374 136.082C86.223 136.012 86.0381 135.977 85.8193 135.977C85.5251 135.977 85.2777 136.04 85.0771 136.168C84.8792 136.296 84.7816 136.461 84.7842 136.664C84.7816 136.839 84.8454 136.98 84.9756 137.09C85.1084 137.199 85.3271 137.289 85.6318 137.359L86.6553 137.578C87.223 137.701 87.6449 137.895 87.9209 138.16C88.1995 138.426 88.3402 138.773 88.3428 139.203C88.3402 139.581 88.2295 139.914 88.0107 140.203C87.7946 140.49 87.4938 140.714 87.1084 140.875C86.723 141.036 86.2803 141.117 85.7803 141.117C85.0459 141.117 84.4548 140.964 84.0068 140.656C83.5589 140.346 83.292 139.915 83.2061 139.363L84.585 139.23C84.6475 139.501 84.7803 139.706 84.9834 139.844C85.1865 139.982 85.4508 140.051 85.7764 140.051C86.1123 140.051 86.3818 139.982 86.585 139.844C86.7907 139.706 86.8936 139.535 86.8936 139.332C86.8936 139.16 86.8271 139.018 86.6943 138.906C86.5641 138.794 86.361 138.708 86.085 138.648L85.0615 138.434C84.486 138.314 84.0602 138.112 83.7842 137.828C83.5081 137.542 83.3714 137.18 83.374 136.742C83.3714 136.372 83.4717 136.052 83.6748 135.781C83.8805 135.508 84.1657 135.297 84.5303 135.148C84.8975 134.997 85.3206 134.922 85.7998 134.922C86.5029 134.922 87.0563 135.072 87.46 135.371C87.8662 135.671 88.1175 136.076 88.2139 136.586Z" fill="#7B7B7B"/>
<path d="M135.789 141V133H138.789C139.404 133 139.919 133.107 140.336 133.32C140.755 133.534 141.072 133.833 141.285 134.219C141.501 134.602 141.609 135.048 141.609 135.559C141.609 136.072 141.5 136.517 141.281 136.895C141.065 137.27 140.746 137.56 140.324 137.766C139.902 137.969 139.384 138.07 138.77 138.07H136.633V136.867H138.574C138.934 136.867 139.228 136.818 139.457 136.719C139.686 136.617 139.855 136.47 139.965 136.277C140.077 136.082 140.133 135.842 140.133 135.559C140.133 135.275 140.077 135.033 139.965 134.832C139.853 134.629 139.682 134.475 139.453 134.371C139.224 134.264 138.928 134.211 138.566 134.211H137.238V141H135.789ZM139.922 137.375L141.902 141H140.285L138.34 137.375H139.922ZM145.451 141.117C144.85 141.117 144.33 140.992 143.893 140.742C143.458 140.49 143.123 140.133 142.889 139.672C142.654 139.208 142.537 138.663 142.537 138.035C142.537 137.418 142.654 136.876 142.889 136.41C143.126 135.941 143.456 135.577 143.881 135.316C144.305 135.053 144.804 134.922 145.377 134.922C145.747 134.922 146.096 134.982 146.424 135.102C146.755 135.219 147.046 135.401 147.299 135.648C147.554 135.896 147.755 136.211 147.9 136.594C148.046 136.974 148.119 137.427 148.119 137.953V138.387H143.201V137.434H146.764C146.761 137.163 146.702 136.922 146.588 136.711C146.473 136.497 146.313 136.329 146.107 136.207C145.904 136.085 145.667 136.023 145.396 136.023C145.107 136.023 144.854 136.094 144.635 136.234C144.416 136.372 144.245 136.555 144.123 136.781C144.003 137.005 143.942 137.251 143.939 137.52V138.352C143.939 138.701 144.003 139 144.131 139.25C144.258 139.497 144.437 139.687 144.666 139.82C144.895 139.951 145.163 140.016 145.471 140.016C145.676 140.016 145.863 139.987 146.029 139.93C146.196 139.87 146.34 139.783 146.463 139.668C146.585 139.553 146.678 139.411 146.74 139.242L148.061 139.391C147.977 139.74 147.818 140.044 147.584 140.305C147.352 140.562 147.055 140.763 146.693 140.906C146.331 141.047 145.917 141.117 145.451 141.117ZM149.315 143.25V135H150.706V135.992H150.788C150.861 135.846 150.964 135.691 151.097 135.527C151.229 135.361 151.409 135.219 151.636 135.102C151.862 134.982 152.151 134.922 152.503 134.922C152.966 134.922 153.384 135.04 153.757 135.277C154.132 135.512 154.429 135.859 154.647 136.32C154.869 136.779 154.979 137.341 154.979 138.008C154.979 138.667 154.871 139.227 154.655 139.687C154.439 140.148 154.145 140.5 153.772 140.742C153.4 140.984 152.978 141.105 152.507 141.105C152.163 141.105 151.878 141.048 151.651 140.934C151.425 140.819 151.243 140.681 151.104 140.52C150.969 140.355 150.864 140.201 150.788 140.055H150.729V143.25H149.315ZM150.702 138C150.702 138.388 150.757 138.728 150.866 139.02C150.978 139.311 151.138 139.539 151.347 139.703C151.558 139.865 151.813 139.945 152.112 139.945C152.425 139.945 152.687 139.862 152.897 139.695C153.108 139.526 153.267 139.296 153.374 139.004C153.483 138.71 153.538 138.375 153.538 138C153.538 137.628 153.485 137.297 153.378 137.008C153.271 136.719 153.112 136.492 152.901 136.328C152.69 136.164 152.427 136.082 152.112 136.082C151.81 136.082 151.554 136.161 151.343 136.32C151.132 136.479 150.972 136.702 150.862 136.988C150.756 137.275 150.702 137.612 150.702 138ZM158.808 141.117C158.222 141.117 157.714 140.988 157.284 140.73C156.854 140.473 156.521 140.112 156.284 139.648C156.05 139.185 155.933 138.643 155.933 138.023C155.933 137.404 156.05 136.861 156.284 136.395C156.521 135.928 156.854 135.566 157.284 135.309C157.714 135.051 158.222 134.922 158.808 134.922C159.394 134.922 159.901 135.051 160.331 135.309C160.761 135.566 161.093 135.928 161.327 136.395C161.564 136.861 161.683 137.404 161.683 138.023C161.683 138.643 161.564 139.185 161.327 139.648C161.093 140.112 160.761 140.473 160.331 140.73C159.901 140.988 159.394 141.117 158.808 141.117ZM158.815 139.984C159.133 139.984 159.399 139.897 159.612 139.723C159.826 139.546 159.985 139.309 160.089 139.012C160.196 138.715 160.249 138.384 160.249 138.02C160.249 137.652 160.196 137.32 160.089 137.023C159.985 136.724 159.826 136.486 159.612 136.309C159.399 136.132 159.133 136.043 158.815 136.043C158.49 136.043 158.219 136.132 158.003 136.309C157.789 136.486 157.629 136.724 157.522 137.023C157.418 137.32 157.366 137.652 157.366 138.02C157.366 138.384 157.418 138.715 157.522 139.012C157.629 139.309 157.789 139.546 158.003 139.723C158.219 139.897 158.49 139.984 158.815 139.984ZM162.883 141V135H164.254V136H164.316C164.426 135.654 164.613 135.387 164.879 135.199C165.147 135.009 165.453 134.914 165.797 134.914C165.875 134.914 165.962 134.918 166.059 134.926C166.158 134.931 166.24 134.94 166.305 134.953V136.254C166.245 136.233 166.15 136.215 166.02 136.199C165.892 136.181 165.768 136.172 165.648 136.172C165.391 136.172 165.159 136.228 164.953 136.34C164.75 136.449 164.59 136.602 164.473 136.797C164.355 136.992 164.297 137.217 164.297 137.473V141H162.883ZM170.563 135V136.094H167.113V135H170.563ZM167.965 133.562H169.379V139.195C169.379 139.385 169.408 139.531 169.465 139.633C169.525 139.732 169.603 139.799 169.699 139.836C169.796 139.872 169.902 139.891 170.02 139.891C170.108 139.891 170.189 139.884 170.262 139.871C170.337 139.858 170.395 139.846 170.434 139.836L170.672 140.941C170.596 140.967 170.488 140.996 170.348 141.027C170.21 141.059 170.04 141.077 169.84 141.082C169.486 141.092 169.167 141.039 168.883 140.922C168.599 140.802 168.374 140.617 168.207 140.367C168.043 140.117 167.962 139.805 167.965 139.43V133.562ZM176.401 136.586L175.112 136.727C175.076 136.596 175.012 136.474 174.921 136.359C174.832 136.245 174.713 136.152 174.562 136.082C174.41 136.012 174.226 135.977 174.007 135.977C173.713 135.977 173.465 136.04 173.265 136.168C173.067 136.296 172.969 136.461 172.972 136.664C172.969 136.839 173.033 136.98 173.163 137.09C173.296 137.199 173.515 137.289 173.819 137.359L174.843 137.578C175.41 137.701 175.832 137.895 176.108 138.16C176.387 138.426 176.528 138.773 176.53 139.203C176.528 139.581 176.417 139.914 176.198 140.203C175.982 140.49 175.681 140.714 175.296 140.875C174.91 141.036 174.468 141.117 173.968 141.117C173.233 141.117 172.642 140.964 172.194 140.656C171.746 140.346 171.479 139.915 171.394 139.363L172.772 139.23C172.835 139.501 172.968 139.706 173.171 139.844C173.374 139.982 173.638 140.051 173.964 140.051C174.3 140.051 174.569 139.982 174.772 139.844C174.978 139.706 175.081 139.535 175.081 139.332C175.081 139.16 175.015 139.018 174.882 138.906C174.752 138.794 174.549 138.708 174.272 138.648L173.249 138.434C172.674 138.314 172.248 138.112 171.972 137.828C171.696 137.542 171.559 137.18 171.562 136.742C171.559 136.372 171.659 136.052 171.862 135.781C172.068 135.508 172.353 135.297 172.718 135.148C173.085 134.997 173.508 134.922 173.987 134.922C174.69 134.922 175.244 135.072 175.647 135.371C176.054 135.671 176.305 136.076 176.401 136.586Z" fill="#7B7B7B"/>
<path d="M38.3774 55.6004C36.7304 53.9442 34.8765 52.8013 32.7909 52.0262C30.6516 51.2315 28.4324 50.8453 26.1583 50.7497C25.7446 50.7327 25.3296 50.7235 24.9185 50.6777C24.1892 50.5978 23.6891 50.0938 23.5974 49.3645C23.5699 49.1485 23.5699 48.9299 23.5699 48.7125C23.5686 41.5393 23.5647 34.366 23.5804 27.1927C23.5804 26.7528 23.642 26.2409 23.8737 25.8965C24.0858 25.5823 24.5676 25.2681 24.9316 25.2655C28.943 25.2367 32.7372 26.0091 35.8911 28.6891C36.7264 29.3987 37.3968 30.3126 38.0933 31.1714C38.2949 31.4202 38.4206 31.8077 38.4206 32.1311C38.4389 39.849 38.435 47.5683 38.4337 55.2862C38.4337 55.3477 38.4127 55.4106 38.3774 55.6004Z" fill="#9C0000"/>
<path d="M40.7823 55.6004C40.7823 55.2312 40.7823 54.993 40.7823 54.7547C40.7823 47.5159 40.8098 40.2772 40.7549 33.0384C40.7457 31.868 41.1424 30.9947 41.8481 30.1502C44.1183 27.4336 47.1243 26.0929 50.5257 25.5339C51.6804 25.344 52.8613 25.2904 54.0331 25.2393C54.9967 25.1961 55.5767 25.78 55.6422 26.7423C55.6526 26.8942 55.65 27.0474 55.65 27.2005C55.65 34.3738 55.6526 41.5471 55.6448 48.7217C55.6448 49.0857 55.6238 49.4758 55.4929 49.8071C55.2297 50.4709 54.6576 50.7 53.969 50.7131C51.6739 50.7589 49.4141 51.0404 47.2212 51.7513C44.9104 52.5015 42.83 53.6405 41.0926 55.3635C41.035 55.4211 40.963 55.4643 40.7837 55.6017L40.7823 55.6004Z" fill="#9C0000"/>
<path d="M21.263 30.3964C21.263 30.7616 21.263 31.0196 21.263 31.2788C21.263 37.08 21.322 42.8812 21.2369 48.6798C21.1976 51.3533 23.0672 53.0474 25.4932 53.054C28.8016 53.0618 31.9726 53.7754 34.7914 55.6371C35.2745 55.9565 35.7196 56.3349 36.1268 56.7853C35.2208 56.6491 34.3148 56.5051 33.4075 56.3794C30.844 56.0272 28.274 56.056 25.7144 56.3585C23.9902 56.5614 22.2829 56.9084 20.5691 57.1938C19.4681 57.3771 18.6655 56.7355 18.6642 55.6161C18.6577 47.7437 18.6577 39.8713 18.6642 31.9989C18.6642 31.0484 19.2494 30.4579 20.1986 30.399C20.5194 30.3794 20.8441 30.3964 21.263 30.3964Z" fill="#9C0000"/>
<path d="M42.9937 56.7643C44.2925 55.5716 45.7183 54.7664 47.2802 54.1904C49.3841 53.414 51.5679 53.0867 53.8002 53.0251C56.4946 52.9505 57.953 51.4501 57.953 48.7361C57.9557 42.9139 57.953 37.0905 57.953 31.2683C57.953 31.0104 57.953 30.7538 57.953 30.5102C59.6839 30.0795 60.5912 30.886 60.5807 32.4034C60.5283 40.0349 60.5571 47.6678 60.5571 55.3006C60.5571 56.8494 59.8397 57.4202 58.3249 57.0995C54.7716 56.3454 51.1804 55.9827 47.5512 56.1974C46.0613 56.2851 44.5818 56.5614 42.9924 56.7643H42.9937Z" fill="#9C0000"/>
</svg>
