<svg width="255" height="170" viewBox="0 0 255 170" fill="none" xmlns="http://www.w3.org/2000/svg">
<path d="M77.3019 163.396C77.0889 163.396 76.9741 163.396 76.8594 163.396C74.4792 163.396 72.099 163.396 69.7194 163.396C69.6238 163.396 69.5275 163.402 69.4325 163.394C69.1717 163.373 69.0148 163.23 69.0008 163.013C68.9868 162.787 69.1545 162.65 69.4012 162.608C69.4937 162.592 69.5919 162.601 69.6875 162.601C72.0779 162.601 74.469 162.601 76.8594 162.601H77.2929C76.7293 162.184 76.2307 161.813 75.7302 161.444C75.4279 161.221 75.1225 161.001 74.8216 160.777C74.5589 160.582 74.506 160.325 74.6845 160.14C74.8681 159.95 75.1123 159.952 75.3839 160.152C76.4959 160.971 77.6079 161.789 78.718 162.61C79.0961 162.89 79.0936 163.112 78.7129 163.393C77.6028 164.214 76.4908 165.032 75.3788 165.851C75.1098 166.048 74.8547 166.048 74.6775 165.859C74.513 165.684 74.5614 165.418 74.8024 165.239C75.6084 164.642 76.4175 164.048 77.3012 163.397L77.3019 163.396Z" fill="black"/>
<rect width="255" height="170" rx="24" fill="#E7E6E2"/>
<path d="M28.5433 79.9091H30.9148V88.4616C30.9148 89.3991 30.6932 90.2237 30.25 90.9354C29.8111 91.647 29.1932 92.2031 28.3963 92.6037C27.5994 93 26.6683 93.1982 25.603 93.1982C24.5334 93.1982 23.6001 93 22.8033 92.6037C22.0064 92.2031 21.3885 91.647 20.9496 90.9354C20.5107 90.2237 20.2912 89.3991 20.2912 88.4616V79.9091H22.6626V88.2635C22.6626 88.8089 22.782 89.2947 23.0206 89.7209C23.2635 90.147 23.6044 90.4815 24.0433 90.7244C24.4822 90.9631 25.0021 91.0824 25.603 91.0824C26.2038 91.0824 26.7237 90.9631 27.1626 90.7244C27.6058 90.4815 27.9467 90.147 28.1854 89.7209C28.424 89.2947 28.5433 88.8089 28.5433 88.2635V79.9091ZM41.15 85.777L39.0407 86.0071C38.981 85.794 38.8766 85.5938 38.7275 85.4062C38.5826 85.2188 38.3865 85.0675 38.1394 84.9524C37.8922 84.8374 37.5897 84.7798 37.2317 84.7798C36.7502 84.7798 36.3453 84.8842 36.0172 85.093C35.6934 85.3018 35.5336 85.5724 35.5378 85.9048C35.5336 86.1903 35.638 86.4226 35.851 86.6016C36.0684 86.7805 36.4263 86.9276 36.9249 87.0426L38.5996 87.4006C39.5286 87.6009 40.2189 87.9183 40.6706 88.353C41.1266 88.7876 41.3567 89.3565 41.361 90.0597C41.3567 90.6776 41.1756 91.223 40.8176 91.696C40.464 92.1648 39.9718 92.5312 39.3411 92.7955C38.7104 93.0597 37.986 93.1918 37.1678 93.1918C35.9661 93.1918 34.9988 92.9403 34.2658 92.4375C33.5328 91.9304 33.0961 91.2251 32.9554 90.3217L35.2118 90.1044C35.3141 90.5476 35.5314 90.8821 35.8638 91.108C36.1962 91.3338 36.6287 91.4467 37.1614 91.4467C37.7111 91.4467 38.1522 91.3338 38.4846 91.108C38.8212 90.8821 38.9895 90.603 38.9895 90.2706C38.9895 89.9893 38.8809 89.7571 38.6635 89.5739C38.4505 89.3906 38.1181 89.25 37.6664 89.152L35.9917 88.8004C35.0499 88.6044 34.3532 88.2741 33.9015 87.8097C33.4498 87.3409 33.226 86.7486 33.2303 86.0327C33.226 85.4276 33.3901 84.9034 33.7225 84.4602C34.0591 84.0128 34.5257 83.6676 35.1223 83.4247C35.7232 83.1776 36.4157 83.054 37.1998 83.054C38.3503 83.054 39.2559 83.299 39.9164 83.7891C40.5811 84.2791 40.9924 84.9418 41.15 85.777ZM47.6156 93.1918C46.6312 93.1918 45.7811 92.9872 45.0652 92.5781C44.3535 92.1648 43.8059 91.581 43.4224 90.8267C43.0389 90.0682 42.8471 89.1754 42.8471 88.1484C42.8471 87.1385 43.0389 86.2521 43.4224 85.4893C43.8102 84.7223 44.3514 84.1257 45.046 83.6996C45.7406 83.2692 46.5566 83.054 47.4941 83.054C48.0993 83.054 48.6703 83.152 49.2072 83.348C49.7484 83.5398 50.2257 83.8381 50.639 84.2429C51.0566 84.6477 51.3848 85.1634 51.6234 85.7898C51.862 86.4119 51.9814 87.1534 51.9814 88.0142V88.7237H43.9338V87.1641H49.7633C49.7591 86.7209 49.6632 86.3267 49.4757 85.9815C49.2882 85.6321 49.0261 85.3572 48.6895 85.157C48.3571 84.9567 47.9693 84.8565 47.5261 84.8565C47.0531 84.8565 46.6376 84.9716 46.2797 85.2017C45.9217 85.4276 45.6426 85.7259 45.4423 86.0966C45.2463 86.4631 45.1461 86.8658 45.1419 87.3047V88.6662C45.1419 89.2372 45.2463 89.7273 45.4551 90.1364C45.6639 90.5412 45.9558 90.8523 46.3308 91.0696C46.7058 91.2827 47.1447 91.3892 47.6476 91.3892C47.9842 91.3892 48.2889 91.3423 48.5616 91.2486C48.8343 91.1506 49.0708 91.0078 49.2711 90.8203C49.4714 90.6328 49.6227 90.4006 49.725 90.1236L51.8855 90.3665C51.7491 90.9375 51.4892 91.4361 51.1056 91.8622C50.7264 92.2841 50.2406 92.6122 49.6483 92.8466C49.0559 93.0767 48.3784 93.1918 47.6156 93.1918ZM53.9389 93V83.1818H56.1825V84.8182H56.2848C56.4638 84.2514 56.7706 83.8146 57.2053 83.5078C57.6442 83.1967 58.1449 83.0412 58.7074 83.0412C58.8352 83.0412 58.978 83.0476 59.1357 83.0604C59.2976 83.0689 59.4318 83.0838 59.5384 83.1051V85.2337C59.4403 85.1996 59.2848 85.1697 59.0717 85.1442C58.8629 85.1143 58.6605 85.0994 58.4645 85.0994C58.0426 85.0994 57.6634 85.1911 57.3267 85.3743C56.9943 85.5533 56.7322 85.8026 56.5405 86.1222C56.3487 86.4418 56.2528 86.8104 56.2528 87.228V93H53.9389ZM65.6428 93V79.9091H74.157V81.897H68.0142V85.451H73.7159V87.4389H68.0142V91.0121H74.2081V93H65.6428ZM78.3661 83.1818L80.3477 86.8061L82.3612 83.1818H84.8093L81.8498 88.0909L84.8604 93H82.4251L80.3477 89.4652L78.2894 93H75.8349L78.8263 88.0909L75.9116 83.1818H78.3661ZM86.5991 96.6818V83.1818H88.8746V84.8054H89.0089C89.1282 84.5668 89.2965 84.3132 89.5138 84.0447C89.7312 83.772 90.0252 83.5398 90.396 83.348C90.7667 83.152 91.2397 83.054 91.815 83.054C92.5735 83.054 93.2575 83.2479 93.8668 83.6357C94.4805 84.0192 94.9663 84.5881 95.3242 85.3423C95.6864 86.0923 95.8675 87.0128 95.8675 88.1037C95.8675 89.1818 95.6907 90.098 95.337 90.8523C94.9833 91.6065 94.5018 92.1818 93.8924 92.5781C93.283 92.9744 92.5927 93.1726 91.8214 93.1726C91.2589 93.1726 90.7923 93.0788 90.4215 92.8913C90.0508 92.7038 89.7525 92.478 89.5266 92.2138C89.305 91.9453 89.1325 91.6918 89.0089 91.4531H88.913V96.6818H86.5991ZM88.8683 88.0909C88.8683 88.7259 88.9577 89.282 89.1367 89.7592C89.32 90.2365 89.582 90.6094 89.9229 90.8778C90.2681 91.142 90.6857 91.2741 91.1758 91.2741C91.6871 91.2741 92.1154 91.1378 92.4606 90.8651C92.8058 90.5881 93.0657 90.2109 93.2404 89.7337C93.4194 89.2521 93.5089 88.7045 93.5089 88.0909C93.5089 87.4815 93.4215 86.9403 93.2468 86.4673C93.0721 85.9943 92.8121 85.6236 92.467 85.3551C92.1218 85.0866 91.6914 84.9524 91.1758 84.9524C90.6815 84.9524 90.2617 85.0824 89.9165 85.3423C89.5714 85.6023 89.3093 85.9666 89.1303 86.4354C88.9556 86.9041 88.8683 87.456 88.8683 88.0909ZM102.196 93.1918C101.211 93.1918 100.361 92.9872 99.6452 92.5781C98.9336 92.1648 98.386 91.581 98.0025 90.8267C97.619 90.0682 97.4272 89.1754 97.4272 88.1484C97.4272 87.1385 97.619 86.2521 98.0025 85.4893C98.3903 84.7223 98.9315 84.1257 99.6261 83.6996C100.321 83.2692 101.137 83.054 102.074 83.054C102.679 83.054 103.25 83.152 103.787 83.348C104.328 83.5398 104.806 83.8381 105.219 84.2429C105.637 84.6477 105.965 85.1634 106.203 85.7898C106.442 86.4119 106.561 87.1534 106.561 88.0142V88.7237H98.5138V87.1641H104.343C104.339 86.7209 104.243 86.3267 104.056 85.9815C103.868 85.6321 103.606 85.3572 103.27 85.157C102.937 84.9567 102.549 84.8565 102.106 84.8565C101.633 84.8565 101.218 84.9716 100.86 85.2017C100.502 85.4276 100.223 85.7259 100.022 86.0966C99.8263 86.4631 99.7262 86.8658 99.7219 87.3047V88.6662C99.7219 89.2372 99.8263 89.7273 100.035 90.1364C100.244 90.5412 100.536 90.8523 100.911 91.0696C101.286 91.2827 101.725 91.3892 102.228 91.3892C102.564 91.3892 102.869 91.3423 103.142 91.2486C103.414 91.1506 103.651 91.0078 103.851 90.8203C104.051 90.6328 104.203 90.4006 104.305 90.1236L106.466 90.3665C106.329 90.9375 106.069 91.4361 105.686 91.8622C105.306 92.2841 104.821 92.6122 104.228 92.8466C103.636 93.0767 102.958 93.1918 102.196 93.1918ZM108.519 93V83.1818H110.763V84.8182H110.865C111.044 84.2514 111.351 83.8146 111.785 83.5078C112.224 83.1967 112.725 83.0412 113.287 83.0412C113.415 83.0412 113.558 83.0476 113.716 83.0604C113.878 83.0689 114.012 83.0838 114.118 83.1051V85.2337C114.02 85.1996 113.865 85.1697 113.652 85.1442C113.443 85.1143 113.241 85.0994 113.045 85.0994C112.623 85.0994 112.243 85.1911 111.907 85.3743C111.574 85.5533 111.312 85.8026 111.121 86.1222C110.929 86.4418 110.833 86.8104 110.833 87.228V93H108.519ZM115.656 93V83.1818H117.97V93H115.656ZM116.819 81.7884C116.453 81.7884 116.137 81.6669 115.873 81.424C115.609 81.1768 115.477 80.8807 115.477 80.5355C115.477 80.1861 115.609 79.8899 115.873 79.647C116.137 79.3999 116.453 79.2763 116.819 79.2763C117.19 79.2763 117.505 79.3999 117.765 79.647C118.029 79.8899 118.161 80.1861 118.161 80.5355C118.161 80.8807 118.029 81.1768 117.765 81.424C117.505 81.6669 117.19 81.7884 116.819 81.7884ZM124.696 93.1918C123.711 93.1918 122.861 92.9872 122.145 92.5781C121.434 92.1648 120.886 91.581 120.502 90.8267C120.119 90.0682 119.927 89.1754 119.927 88.1484C119.927 87.1385 120.119 86.2521 120.502 85.4893C120.89 84.7223 121.431 84.1257 122.126 83.6996C122.821 83.2692 123.637 83.054 124.574 83.054C125.179 83.054 125.75 83.152 126.287 83.348C126.828 83.5398 127.306 83.8381 127.719 84.2429C128.137 84.6477 128.465 85.1634 128.703 85.7898C128.942 86.4119 129.061 87.1534 129.061 88.0142V88.7237H121.014V87.1641H126.843C126.839 86.7209 126.743 86.3267 126.556 85.9815C126.368 85.6321 126.106 85.3572 125.77 85.157C125.437 84.9567 125.049 84.8565 124.606 84.8565C124.133 84.8565 123.718 84.9716 123.36 85.2017C123.002 85.4276 122.723 85.7259 122.522 86.0966C122.326 86.4631 122.226 86.8658 122.222 87.3047V88.6662C122.222 89.2372 122.326 89.7273 122.535 90.1364C122.744 90.5412 123.036 90.8523 123.411 91.0696C123.786 91.2827 124.225 91.3892 124.728 91.3892C125.064 91.3892 125.369 91.3423 125.642 91.2486C125.914 91.1506 126.151 91.0078 126.351 90.8203C126.551 90.6328 126.703 90.4006 126.805 90.1236L128.966 90.3665C128.829 90.9375 128.569 91.4361 128.186 91.8622C127.806 92.2841 127.321 92.6122 126.728 92.8466C126.136 93.0767 125.458 93.1918 124.696 93.1918ZM133.333 87.2472V93H131.019V83.1818H133.231V84.8501H133.346C133.572 84.3004 133.932 83.8636 134.426 83.5398C134.925 83.2159 135.54 83.054 136.273 83.054C136.951 83.054 137.541 83.1989 138.044 83.4886C138.551 83.7784 138.943 84.1982 139.22 84.7479C139.501 85.2976 139.64 85.9645 139.635 86.7486V93H137.322V87.1065C137.322 86.4503 137.151 85.9368 136.81 85.5661C136.474 85.1953 136.007 85.0099 135.41 85.0099C135.006 85.0099 134.645 85.0994 134.33 85.2784C134.019 85.4531 133.774 85.7067 133.595 86.0391C133.42 86.3714 133.333 86.7741 133.333 87.2472ZM146.27 93.1918C145.29 93.1918 144.449 92.9766 143.746 92.5462C143.047 92.1158 142.508 91.5213 142.128 90.7628C141.753 90 141.566 89.1222 141.566 88.1293C141.566 87.1321 141.758 86.2521 142.141 85.4893C142.525 84.7223 143.066 84.1257 143.765 83.6996C144.468 83.2692 145.299 83.054 146.258 83.054C147.055 83.054 147.76 83.201 148.373 83.495C148.991 83.7848 149.483 84.196 149.85 84.7287C150.216 85.2571 150.425 85.875 150.476 86.5824H148.265C148.175 86.1094 147.962 85.7152 147.626 85.3999C147.293 85.0803 146.848 84.9205 146.29 84.9205C145.817 84.9205 145.401 85.0483 145.043 85.304C144.685 85.5554 144.406 85.9176 144.206 86.3906C144.01 86.8636 143.912 87.4304 143.912 88.0909C143.912 88.7599 144.01 89.3352 144.206 89.8168C144.402 90.294 144.677 90.6626 145.03 90.9226C145.388 91.1783 145.808 91.3061 146.29 91.3061C146.631 91.3061 146.935 91.2422 147.204 91.1143C147.476 90.9822 147.704 90.7926 147.888 90.5455C148.071 90.2983 148.197 89.9979 148.265 89.6442H150.476C150.421 90.3388 150.216 90.9545 149.863 91.4915C149.509 92.0241 149.028 92.4418 148.418 92.7443C147.809 93.0426 147.093 93.1918 146.27 93.1918ZM156.723 93.1918C155.739 93.1918 154.888 92.9872 154.173 92.5781C153.461 92.1648 152.913 91.581 152.53 90.8267C152.146 90.0682 151.955 89.1754 151.955 88.1484C151.955 87.1385 152.146 86.2521 152.53 85.4893C152.918 84.7223 153.459 84.1257 154.153 83.6996C154.848 83.2692 155.664 83.054 156.602 83.054C157.207 83.054 157.778 83.152 158.315 83.348C158.856 83.5398 159.333 83.8381 159.746 84.2429C160.164 84.6477 160.492 85.1634 160.731 85.7898C160.969 86.4119 161.089 87.1534 161.089 88.0142V88.7237H153.041V87.1641H158.871C158.866 86.7209 158.771 86.3267 158.583 85.9815C158.396 85.6321 158.134 85.3572 157.797 85.157C157.464 84.9567 157.077 84.8565 156.634 84.8565C156.161 84.8565 155.745 84.9716 155.387 85.2017C155.029 85.4276 154.75 85.7259 154.55 86.0966C154.354 86.4631 154.254 86.8658 154.249 87.3047V88.6662C154.249 89.2372 154.354 89.7273 154.562 90.1364C154.771 90.5412 155.063 90.8523 155.438 91.0696C155.813 91.2827 156.252 91.3892 156.755 91.3892C157.092 91.3892 157.396 91.3423 157.669 91.2486C157.942 91.1506 158.178 91.0078 158.379 90.8203C158.579 90.6328 158.73 90.4006 158.832 90.1236L160.993 90.3665C160.857 90.9375 160.597 91.4361 160.213 91.8622C159.834 92.2841 159.348 92.6122 158.756 92.8466C158.163 93.0767 157.486 93.1918 156.723 93.1918Z" fill="black"/>
<path d="M125.503 112.001C126.287 112.001 127.07 111.998 127.853 112.002C128.406 112.004 128.828 112.329 128.96 112.851C128.984 112.947 128.998 113.048 128.998 113.147C129 114.715 129 116.283 128.999 117.852C128.998 118.392 128.674 118.819 128.161 118.957C128.062 118.983 127.957 118.998 127.854 118.998C126.288 119 124.721 119 123.154 118.999C122.495 118.999 122.002 118.508 122.001 117.846C121.999 116.286 122 114.726 122.001 113.167C122.001 112.484 122.48 112.004 123.165 112.001C123.944 111.998 124.724 112.001 125.503 112.001H125.503ZM125.011 116.236C124.98 116.209 124.961 116.194 124.944 116.177C124.638 115.871 124.332 115.563 124.024 115.258C123.885 115.121 123.686 115.098 123.534 115.197C123.314 115.341 123.286 115.614 123.478 115.808C123.877 116.211 124.279 116.611 124.679 117.012C124.901 117.234 125.101 117.231 125.324 117.005C125.538 116.789 125.753 116.574 125.968 116.359C126.484 115.843 127 115.327 127.516 114.811C127.622 114.704 127.678 114.577 127.642 114.426C127.566 114.112 127.22 114.022 126.981 114.258C126.475 114.76 125.972 115.266 125.469 115.771C125.317 115.923 125.167 116.078 125.011 116.237L125.011 116.236Z" fill="#9C0000"/>
<path d="M22.5032 112.001C23.2866 112.001 24.07 111.998 24.8534 112.002C25.4062 112.004 25.8279 112.329 25.96 112.851C25.984 112.947 25.998 113.048 25.998 113.147C26.0005 114.715 26.0005 116.283 25.999 117.852C25.9985 118.392 25.6738 118.819 25.1611 118.957C25.062 118.983 24.9569 118.998 24.8544 118.998C23.2876 119 21.7208 119 20.1535 118.999C19.4947 118.999 19.0019 118.508 19.0009 117.846C18.9994 116.286 18.9999 114.726 19.0009 113.167C19.0014 112.484 19.4802 112.004 20.165 112.001C20.9444 111.998 21.7238 112.001 22.5027 112.001H22.5032ZM22.0115 116.236C21.9804 116.209 21.9614 116.194 21.9444 116.177C21.6378 115.871 21.3316 115.563 21.024 115.258C20.8854 115.121 20.6858 115.098 20.5342 115.197C20.3136 115.341 20.2856 115.614 20.4777 115.808C20.8769 116.211 21.2786 116.611 21.6793 117.012C21.9009 117.234 22.1005 117.231 22.3236 117.005C22.5377 116.789 22.7533 116.574 22.9684 116.359C23.4842 115.843 24.0005 115.327 24.5157 114.811C24.6223 114.704 24.6783 114.577 24.6418 114.426C24.5663 114.112 24.2201 114.022 23.9815 114.258C23.4747 114.76 22.9724 115.266 22.4692 115.771C22.3166 115.923 22.1665 116.078 22.011 116.237L22.0115 116.236Z" fill="#9C0000"/>
<path d="M125.503 134.001C126.287 134.001 127.07 133.998 127.853 134.002C128.406 134.004 128.828 134.329 128.96 134.851C128.984 134.947 128.998 135.048 128.998 135.147C129 136.715 129 138.283 128.999 139.852C128.998 140.392 128.674 140.819 128.161 140.957C128.062 140.983 127.957 140.998 127.854 140.998C126.288 141 124.721 141 123.154 140.999C122.495 140.999 122.002 140.508 122.001 139.846C121.999 138.286 122 136.726 122.001 135.167C122.001 134.484 122.48 134.004 123.165 134.001C123.944 133.998 124.724 134.001 125.503 134.001H125.503ZM125.011 138.236C124.98 138.209 124.961 138.194 124.944 138.177C124.638 137.871 124.332 137.563 124.024 137.258C123.885 137.121 123.686 137.098 123.534 137.197C123.314 137.341 123.286 137.614 123.478 137.808C123.877 138.211 124.279 138.611 124.679 139.012C124.901 139.234 125.101 139.231 125.324 139.005C125.538 138.789 125.753 138.574 125.968 138.359C126.484 137.843 127 137.327 127.516 136.811C127.622 136.704 127.678 136.577 127.642 136.426C127.566 136.112 127.22 136.022 126.981 136.258C126.475 136.76 125.972 137.266 125.469 137.771C125.317 137.923 125.167 138.078 125.011 138.237L125.011 138.236Z" fill="#9C0000"/>
<path d="M22.5032 134.001C23.2866 134.001 24.07 133.998 24.8534 134.002C25.4062 134.004 25.8279 134.329 25.96 134.851C25.984 134.947 25.998 135.048 25.998 135.147C26.0005 136.715 26.0005 138.283 25.999 139.852C25.9985 140.392 25.6738 140.819 25.1611 140.957C25.062 140.983 24.9569 140.998 24.8544 140.998C23.2876 141 21.7208 141 20.1535 140.999C19.4947 140.999 19.0019 140.508 19.0009 139.846C18.9994 138.286 18.9999 136.726 19.0009 135.167C19.0014 134.484 19.4802 134.004 20.165 134.001C20.9444 133.998 21.7238 134.001 22.5027 134.001H22.5032ZM22.0115 138.236C21.9804 138.209 21.9614 138.194 21.9444 138.177C21.6378 137.871 21.3316 137.563 21.024 137.258C20.8854 137.121 20.6858 137.098 20.5342 137.197C20.3136 137.341 20.2856 137.614 20.4777 137.808C20.8769 138.211 21.2786 138.611 21.6793 139.012C21.9009 139.234 22.1005 139.231 22.3236 139.005C22.5377 138.789 22.7533 138.574 22.9684 138.359C23.4842 137.843 24.0005 137.327 24.5157 136.811C24.6223 136.704 24.6783 136.577 24.6418 136.426C24.5663 136.112 24.2201 136.022 23.9815 136.258C23.4747 136.76 22.9724 137.266 22.4692 137.771C22.3166 137.923 22.1665 138.078 22.011 138.237L22.0115 138.236Z" fill="#9C0000"/>
<path d="M36.832 112H38.2812V117.227C38.2812 117.799 38.1458 118.303 37.875 118.738C37.6068 119.173 37.2292 119.513 36.7422 119.758C36.2552 120 35.6862 120.121 35.0352 120.121C34.3815 120.121 33.8112 120 33.3242 119.758C32.8372 119.513 32.4596 119.173 32.1914 118.738C31.9232 118.303 31.7891 117.799 31.7891 117.227V112H33.2383V117.105C33.2383 117.439 33.3112 117.736 33.457 117.996C33.6055 118.257 33.8138 118.461 34.082 118.609C34.3503 118.755 34.668 118.828 35.0352 118.828C35.4023 118.828 35.7201 118.755 35.9883 118.609C36.2591 118.461 36.4674 118.257 36.6133 117.996C36.7591 117.736 36.832 117.439 36.832 117.105V112ZM44.5361 115.586L43.2471 115.727C43.2106 115.596 43.1468 115.474 43.0557 115.359C42.9671 115.245 42.8473 115.152 42.6963 115.082C42.5452 115.012 42.3604 114.977 42.1416 114.977C41.8473 114.977 41.5999 115.04 41.3994 115.168C41.2015 115.296 41.1038 115.461 41.1064 115.664C41.1038 115.839 41.1676 115.98 41.2979 116.09C41.4307 116.199 41.6494 116.289 41.9541 116.359L42.9775 116.578C43.5452 116.701 43.9671 116.895 44.2432 117.16C44.5218 117.426 44.6624 117.773 44.665 118.203C44.6624 118.581 44.5518 118.914 44.333 119.203C44.1169 119.49 43.8161 119.714 43.4307 119.875C43.0452 120.036 42.6025 120.117 42.1025 120.117C41.3682 120.117 40.777 119.964 40.3291 119.656C39.8812 119.346 39.6143 118.915 39.5283 118.363L40.9072 118.23C40.9697 118.501 41.1025 118.706 41.3057 118.844C41.5088 118.982 41.7731 119.051 42.0986 119.051C42.4346 119.051 42.7041 118.982 42.9072 118.844C43.113 118.706 43.2158 118.535 43.2158 118.332C43.2158 118.16 43.1494 118.018 43.0166 117.906C42.8864 117.794 42.6833 117.708 42.4072 117.648L41.3838 117.434C40.8083 117.314 40.3825 117.112 40.1064 116.828C39.8304 116.542 39.6937 116.18 39.6963 115.742C39.6937 115.372 39.7939 115.052 39.9971 114.781C40.2028 114.508 40.488 114.297 40.8525 114.148C41.2197 113.997 41.6429 113.922 42.1221 113.922C42.8252 113.922 43.3786 114.072 43.7822 114.371C44.1885 114.671 44.4398 115.076 44.5361 115.586ZM48.4873 120.117C47.8857 120.117 47.3662 119.992 46.9287 119.742C46.4938 119.49 46.1592 119.133 45.9248 118.672C45.6904 118.208 45.5732 117.663 45.5732 117.035C45.5732 116.418 45.6904 115.876 45.9248 115.41C46.1618 114.941 46.4925 114.577 46.917 114.316C47.3415 114.053 47.8402 113.922 48.4131 113.922C48.7829 113.922 49.1318 113.982 49.46 114.102C49.7907 114.219 50.0824 114.401 50.335 114.648C50.5902 114.896 50.7907 115.211 50.9365 115.594C51.0824 115.974 51.1553 116.427 51.1553 116.953V117.387H46.2373V116.434H49.7998C49.7972 116.163 49.7386 115.922 49.624 115.711C49.5094 115.497 49.3493 115.329 49.1436 115.207C48.9404 115.085 48.7035 115.023 48.4326 115.023C48.1436 115.023 47.8896 115.094 47.6709 115.234C47.4521 115.372 47.2816 115.555 47.1592 115.781C47.0394 116.005 46.9782 116.251 46.9756 116.52V117.352C46.9756 117.701 47.0394 118 47.167 118.25C47.2946 118.497 47.473 118.687 47.7021 118.82C47.9313 118.951 48.1995 119.016 48.5068 119.016C48.7126 119.016 48.8988 118.987 49.0654 118.93C49.2321 118.87 49.3766 118.783 49.499 118.668C49.6214 118.553 49.7139 118.411 49.7764 118.242L51.0967 118.391C51.0133 118.74 50.8545 119.044 50.6201 119.305C50.3883 119.562 50.0915 119.763 49.7295 119.906C49.3675 120.047 48.9535 120.117 48.4873 120.117ZM52.3516 120V114H53.7227V115H53.7852C53.8945 114.654 54.082 114.387 54.3477 114.199C54.6159 114.009 54.9219 113.914 55.2656 113.914C55.3438 113.914 55.431 113.918 55.5273 113.926C55.6263 113.931 55.7083 113.94 55.7734 113.953V115.254C55.7135 115.233 55.6185 115.215 55.4883 115.199C55.3607 115.181 55.237 115.172 55.1172 115.172C54.8594 115.172 54.6276 115.228 54.4219 115.34C54.2188 115.449 54.0586 115.602 53.9414 115.797C53.8242 115.992 53.7656 116.217 53.7656 116.473V120H52.3516ZM62.6602 112H64.0977V117.625C64.0951 118.141 63.9857 118.585 63.7695 118.957C63.5534 119.327 63.2513 119.612 62.8633 119.812C62.4779 120.01 62.0286 120.109 61.5156 120.109C61.0469 120.109 60.625 120.026 60.25 119.859C59.8776 119.69 59.582 119.44 59.3633 119.109C59.1445 118.779 59.0352 118.367 59.0352 117.875H60.4766C60.4792 118.091 60.526 118.277 60.6172 118.434C60.7109 118.59 60.8398 118.71 61.0039 118.793C61.168 118.876 61.3568 118.918 61.5703 118.918C61.8021 118.918 61.9987 118.87 62.1602 118.773C62.3216 118.674 62.444 118.529 62.5273 118.336C62.6133 118.143 62.6576 117.906 62.6602 117.625V112ZM68.2246 120.117C67.6387 120.117 67.1309 119.988 66.7012 119.73C66.2715 119.473 65.9382 119.112 65.7012 118.648C65.4668 118.185 65.3496 117.643 65.3496 117.023C65.3496 116.404 65.4668 115.861 65.7012 115.395C65.9382 114.928 66.2715 114.566 66.7012 114.309C67.1309 114.051 67.6387 113.922 68.2246 113.922C68.8105 113.922 69.3184 114.051 69.748 114.309C70.1777 114.566 70.5098 114.928 70.7441 115.395C70.9811 115.861 71.0996 116.404 71.0996 117.023C71.0996 117.643 70.9811 118.185 70.7441 118.648C70.5098 119.112 70.1777 119.473 69.748 119.73C69.3184 119.988 68.8105 120.117 68.2246 120.117ZM68.2324 118.984C68.5501 118.984 68.8158 118.897 69.0293 118.723C69.2428 118.546 69.4017 118.309 69.5059 118.012C69.6126 117.715 69.666 117.384 69.666 117.02C69.666 116.652 69.6126 116.32 69.5059 116.023C69.4017 115.724 69.2428 115.486 69.0293 115.309C68.8158 115.132 68.5501 115.043 68.2324 115.043C67.9069 115.043 67.6361 115.132 67.4199 115.309C67.2064 115.486 67.0462 115.724 66.9395 116.023C66.8353 116.32 66.7832 116.652 66.7832 117.02C66.7832 117.384 66.8353 117.715 66.9395 118.012C67.0462 118.309 67.2064 118.546 67.4199 118.723C67.6361 118.897 67.9069 118.984 68.2324 118.984ZM76.124 117.477V114H77.5381V120H76.167V118.934H76.1045C75.9691 119.27 75.7464 119.544 75.4365 119.758C75.1292 119.971 74.7503 120.078 74.2998 120.078C73.9066 120.078 73.5589 119.991 73.2568 119.816C72.9574 119.639 72.723 119.383 72.5537 119.047C72.3844 118.708 72.2998 118.299 72.2998 117.82V114H73.7139V117.602C73.7139 117.982 73.818 118.284 74.0264 118.508C74.2347 118.732 74.5081 118.844 74.8467 118.844C75.055 118.844 75.2568 118.793 75.4521 118.691C75.6475 118.59 75.8076 118.439 75.9326 118.238C76.0602 118.035 76.124 117.781 76.124 117.477ZM78.9922 120V114H80.3633V115H80.4258C80.5352 114.654 80.7227 114.387 80.9883 114.199C81.2565 114.009 81.5625 113.914 81.9062 113.914C81.9844 113.914 82.0716 113.918 82.168 113.926C82.2669 113.931 82.349 113.94 82.4141 113.953V115.254C82.3542 115.233 82.2591 115.215 82.1289 115.199C82.0013 115.181 81.8776 115.172 81.7578 115.172C81.5 115.172 81.2682 115.228 81.0625 115.34C80.8594 115.449 80.6992 115.602 80.582 115.797C80.4648 115.992 80.4063 116.217 80.4063 116.473V120H78.9922ZM84.7676 116.484V120H83.3535V114H84.7051V115.02H84.7754C84.9134 114.684 85.1335 114.417 85.4355 114.219C85.7402 114.021 86.1165 113.922 86.5645 113.922C86.9785 113.922 87.3392 114.01 87.6465 114.187C87.9564 114.365 88.196 114.621 88.3652 114.957C88.5371 115.293 88.6217 115.701 88.6191 116.18V120H87.2051V116.398C87.2051 115.997 87.1009 115.684 86.8926 115.457C86.6868 115.23 86.4017 115.117 86.0371 115.117C85.7897 115.117 85.5697 115.172 85.377 115.281C85.1868 115.388 85.0371 115.543 84.9277 115.746C84.821 115.949 84.7676 116.195 84.7676 116.484ZM92.7129 120.117C92.1113 120.117 91.5918 119.992 91.1543 119.742C90.7194 119.49 90.3848 119.133 90.1504 118.672C89.916 118.208 89.7988 117.663 89.7988 117.035C89.7988 116.418 89.916 115.876 90.1504 115.41C90.3874 114.941 90.7181 114.577 91.1426 114.316C91.5671 114.053 92.0658 113.922 92.6387 113.922C93.0085 113.922 93.3574 113.982 93.6855 114.102C94.0163 114.219 94.3079 114.401 94.5605 114.648C94.8158 114.896 95.0163 115.211 95.1621 115.594C95.3079 115.974 95.3809 116.427 95.3809 116.953V117.387H90.4629V116.434H94.0254C94.0228 116.163 93.9642 115.922 93.8496 115.711C93.735 115.497 93.5749 115.329 93.3691 115.207C93.166 115.085 92.929 115.023 92.6582 115.023C92.3691 115.023 92.1152 115.094 91.8965 115.234C91.6777 115.372 91.5072 115.555 91.3848 115.781C91.265 116.005 91.2038 116.251 91.2012 116.52V117.352C91.2012 117.701 91.265 118 91.3926 118.25C91.5202 118.497 91.6986 118.687 91.9277 118.82C92.1569 118.951 92.4251 119.016 92.7324 119.016C92.9382 119.016 93.1243 118.987 93.291 118.93C93.4577 118.87 93.6022 118.783 93.7246 118.668C93.847 118.553 93.9395 118.411 94.002 118.242L95.3223 118.391C95.2389 118.74 95.0801 119.044 94.8457 119.305C94.6139 119.562 94.3171 119.763 93.9551 119.906C93.5931 120.047 93.179 120.117 92.7129 120.117ZM97.2842 122.25C97.0915 122.25 96.9131 122.234 96.749 122.203C96.5876 122.174 96.4587 122.141 96.3623 122.102L96.6904 121C96.8962 121.06 97.0798 121.089 97.2412 121.086C97.4027 121.083 97.5446 121.033 97.667 120.934C97.792 120.837 97.8975 120.676 97.9834 120.449L98.1045 120.125L95.9287 114H97.4287L98.8115 118.531H98.874L100.261 114H101.765L99.3623 120.727C99.2503 121.044 99.1019 121.316 98.917 121.543C98.7321 121.772 98.5055 121.947 98.2373 122.066C97.9717 122.189 97.654 122.25 97.2842 122.25Z" fill="#7B7B7B"/>
<path d="M135.789 120V112H138.789C139.404 112 139.919 112.115 140.336 112.344C140.755 112.573 141.072 112.888 141.285 113.289C141.501 113.687 141.609 114.141 141.609 114.648C141.609 115.161 141.501 115.617 141.285 116.016C141.069 116.414 140.75 116.728 140.328 116.957C139.906 117.184 139.387 117.297 138.77 117.297H136.781V116.105H138.574C138.934 116.105 139.228 116.043 139.457 115.918C139.686 115.793 139.855 115.621 139.965 115.402C140.077 115.184 140.133 114.932 140.133 114.648C140.133 114.365 140.077 114.115 139.965 113.898C139.855 113.682 139.685 113.514 139.453 113.395C139.224 113.272 138.928 113.211 138.566 113.211H137.238V120H135.789ZM142.806 120V114H144.177V115H144.239C144.349 114.654 144.536 114.387 144.802 114.199C145.07 114.009 145.376 113.914 145.72 113.914C145.798 113.914 145.885 113.918 145.981 113.926C146.08 113.931 146.162 113.94 146.228 113.953V115.254C146.168 115.233 146.073 115.215 145.942 115.199C145.815 115.181 145.691 115.172 145.571 115.172C145.313 115.172 145.082 115.228 144.876 115.34C144.673 115.449 144.513 115.602 144.396 115.797C144.278 115.992 144.22 116.217 144.22 116.473V120H142.806ZM149.537 120.117C148.951 120.117 148.443 119.988 148.014 119.73C147.584 119.473 147.251 119.112 147.014 118.648C146.779 118.185 146.662 117.643 146.662 117.023C146.662 116.404 146.779 115.861 147.014 115.395C147.251 114.928 147.584 114.566 148.014 114.309C148.443 114.051 148.951 113.922 149.537 113.922C150.123 113.922 150.631 114.051 151.061 114.309C151.49 114.566 151.822 114.928 152.057 115.395C152.294 115.861 152.412 116.404 152.412 117.023C152.412 117.643 152.294 118.185 152.057 118.648C151.822 119.112 151.49 119.473 151.061 119.73C150.631 119.988 150.123 120.117 149.537 120.117ZM149.545 118.984C149.863 118.984 150.128 118.897 150.342 118.723C150.555 118.546 150.714 118.309 150.818 118.012C150.925 117.715 150.979 117.384 150.979 117.02C150.979 116.652 150.925 116.32 150.818 116.023C150.714 115.724 150.555 115.486 150.342 115.309C150.128 115.132 149.863 115.043 149.545 115.043C149.219 115.043 148.949 115.132 148.732 115.309C148.519 115.486 148.359 115.724 148.252 116.023C148.148 116.32 148.096 116.652 148.096 117.02C148.096 117.384 148.148 117.715 148.252 118.012C148.359 118.309 148.519 118.546 148.732 118.723C148.949 118.897 149.219 118.984 149.545 118.984ZM156.608 114V115.094H153.159V114H156.608ZM154.011 112.562H155.425V118.195C155.425 118.385 155.453 118.531 155.511 118.633C155.571 118.732 155.649 118.799 155.745 118.836C155.841 118.872 155.948 118.891 156.065 118.891C156.154 118.891 156.235 118.884 156.308 118.871C156.383 118.858 156.44 118.846 156.479 118.836L156.718 119.941C156.642 119.967 156.534 119.996 156.394 120.027C156.256 120.059 156.086 120.077 155.886 120.082C155.532 120.092 155.213 120.039 154.929 119.922C154.645 119.802 154.42 119.617 154.253 119.367C154.089 119.117 154.008 118.805 154.011 118.43V112.562ZM160.344 120.117C159.758 120.117 159.25 119.988 158.82 119.73C158.391 119.473 158.057 119.112 157.82 118.648C157.586 118.185 157.469 117.643 157.469 117.023C157.469 116.404 157.586 115.861 157.82 115.395C158.057 114.928 158.391 114.566 158.82 114.309C159.25 114.051 159.758 113.922 160.344 113.922C160.93 113.922 161.438 114.051 161.867 114.309C162.297 114.566 162.629 114.928 162.863 115.395C163.1 115.861 163.219 116.404 163.219 117.023C163.219 117.643 163.1 118.185 162.863 118.648C162.629 119.112 162.297 119.473 161.867 119.73C161.438 119.988 160.93 120.117 160.344 120.117ZM160.352 118.984C160.669 118.984 160.935 118.897 161.148 118.723C161.362 118.546 161.521 118.309 161.625 118.012C161.732 117.715 161.785 117.384 161.785 117.02C161.785 116.652 161.732 116.32 161.625 116.023C161.521 115.724 161.362 115.486 161.148 115.309C160.935 115.132 160.669 115.043 160.352 115.043C160.026 115.043 159.755 115.132 159.539 115.309C159.326 115.486 159.165 115.724 159.059 116.023C158.954 116.32 158.902 116.652 158.902 117.02C158.902 117.384 158.954 117.715 159.059 118.012C159.165 118.309 159.326 118.546 159.539 118.723C159.755 118.897 160.026 118.984 160.352 118.984ZM167.415 114V115.094H163.966V114H167.415ZM164.817 112.562H166.231V118.195C166.231 118.385 166.26 118.531 166.317 118.633C166.377 118.732 166.455 118.799 166.552 118.836C166.648 118.872 166.755 118.891 166.872 118.891C166.961 118.891 167.041 118.884 167.114 118.871C167.19 118.858 167.247 118.846 167.286 118.836L167.524 119.941C167.449 119.967 167.341 119.996 167.2 120.027C167.062 120.059 166.893 120.077 166.692 120.082C166.338 120.092 166.019 120.039 165.735 119.922C165.451 119.802 165.226 119.617 165.06 119.367C164.896 119.117 164.815 118.805 164.817 118.43V112.562ZM169.477 122.25C169.284 122.25 169.105 122.234 168.941 122.203C168.78 122.174 168.651 122.141 168.555 122.102L168.883 121C169.089 121.06 169.272 121.089 169.434 121.086C169.595 121.083 169.737 121.033 169.859 120.934C169.984 120.837 170.09 120.676 170.176 120.449L170.297 120.125L168.121 114H169.621L171.004 118.531H171.066L172.453 114H173.957L171.555 120.727C171.443 121.044 171.294 121.316 171.109 121.543C170.924 121.772 170.698 121.947 170.43 122.066C170.164 122.189 169.846 122.25 169.477 122.25ZM174.936 122.25V114H176.326V114.992H176.408C176.481 114.846 176.584 114.691 176.717 114.527C176.85 114.361 177.029 114.219 177.256 114.102C177.482 113.982 177.771 113.922 178.123 113.922C178.587 113.922 179.005 114.04 179.377 114.277C179.752 114.512 180.049 114.859 180.268 115.32C180.489 115.779 180.6 116.341 180.6 117.008C180.6 117.667 180.492 118.227 180.275 118.687C180.059 119.148 179.765 119.5 179.393 119.742C179.02 119.984 178.598 120.105 178.127 120.105C177.783 120.105 177.498 120.048 177.271 119.934C177.045 119.819 176.863 119.681 176.725 119.52C176.589 119.355 176.484 119.201 176.408 119.055H176.35V122.25H174.936ZM176.322 117C176.322 117.388 176.377 117.728 176.486 118.02C176.598 118.311 176.758 118.539 176.967 118.703C177.178 118.865 177.433 118.945 177.732 118.945C178.045 118.945 178.307 118.862 178.518 118.695C178.729 118.526 178.887 118.296 178.994 118.004C179.104 117.71 179.158 117.375 179.158 117C179.158 116.628 179.105 116.297 178.998 116.008C178.891 115.719 178.732 115.492 178.521 115.328C178.311 115.164 178.048 115.082 177.732 115.082C177.43 115.082 177.174 115.161 176.963 115.32C176.752 115.479 176.592 115.702 176.482 115.988C176.376 116.275 176.322 116.612 176.322 117ZM184.467 120.117C183.865 120.117 183.346 119.992 182.908 119.742C182.473 119.49 182.139 119.133 181.904 118.672C181.67 118.208 181.553 117.663 181.553 117.035C181.553 116.418 181.67 115.876 181.904 115.41C182.141 114.941 182.472 114.577 182.896 114.316C183.321 114.053 183.82 113.922 184.393 113.922C184.762 113.922 185.111 113.982 185.439 114.102C185.77 114.219 186.062 114.401 186.314 114.648C186.57 114.896 186.77 115.211 186.916 115.594C187.062 115.974 187.135 116.427 187.135 116.953V117.387H182.217V116.434H185.779C185.777 116.163 185.718 115.922 185.604 115.711C185.489 115.497 185.329 115.329 185.123 115.207C184.92 115.085 184.683 115.023 184.412 115.023C184.123 115.023 183.869 115.094 183.65 115.234C183.432 115.372 183.261 115.555 183.139 115.781C183.019 116.005 182.958 116.251 182.955 116.52V117.352C182.955 117.701 183.019 118 183.146 118.25C183.274 118.497 183.452 118.687 183.682 118.82C183.911 118.951 184.179 119.016 184.486 119.016C184.692 119.016 184.878 118.987 185.045 118.93C185.212 118.87 185.356 118.783 185.479 118.668C185.601 118.553 185.693 118.411 185.756 118.242L187.076 118.391C186.993 118.74 186.834 119.044 186.6 119.305C186.368 119.562 186.071 119.763 185.709 119.906C185.347 120.047 184.933 120.117 184.467 120.117Z" fill="#7B7B7B"/>
<path d="M31.7891 141V133H34.7891C35.4036 133 35.9193 133.107 36.3359 133.32C36.7552 133.534 37.0716 133.833 37.2852 134.219C37.5013 134.602 37.6094 135.048 37.6094 135.559C37.6094 136.072 37.5 136.517 37.2813 136.895C37.0651 137.27 36.7461 137.56 36.3242 137.766C35.9023 137.969 35.3841 138.07 34.7695 138.07H32.6328V136.867H34.5742C34.9336 136.867 35.2279 136.818 35.457 136.719C35.6862 136.617 35.8555 136.47 35.9648 136.277C36.0768 136.082 36.1328 135.842 36.1328 135.559C36.1328 135.275 36.0768 135.033 35.9648 134.832C35.8529 134.629 35.6823 134.475 35.4531 134.371C35.224 134.264 34.9284 134.211 34.5664 134.211H33.2383V141H31.7891ZM35.9219 137.375L37.9023 141H36.2852L34.3398 137.375H35.9219ZM41.4512 141.117C40.8496 141.117 40.3301 140.992 39.8926 140.742C39.4577 140.49 39.123 140.133 38.8887 139.672C38.6543 139.208 38.5371 138.663 38.5371 138.035C38.5371 137.418 38.6543 136.876 38.8887 136.41C39.1257 135.941 39.4564 135.577 39.8809 135.316C40.3053 135.053 40.804 134.922 41.377 134.922C41.7467 134.922 42.0957 134.982 42.4238 135.102C42.7546 135.219 43.0462 135.401 43.2988 135.648C43.554 135.896 43.7546 136.211 43.9004 136.594C44.0462 136.974 44.1191 137.427 44.1191 137.953V138.387H39.2012V137.434H42.7637C42.7611 137.163 42.7025 136.922 42.5879 136.711C42.4733 136.497 42.3132 136.329 42.1074 136.207C41.9043 136.085 41.6673 136.023 41.3965 136.023C41.1074 136.023 40.8535 136.094 40.6348 136.234C40.416 136.372 40.2454 136.555 40.123 136.781C40.0033 137.005 39.9421 137.251 39.9395 137.52V138.352C39.9395 138.701 40.0033 139 40.1309 139.25C40.2585 139.497 40.4368 139.687 40.666 139.82C40.8952 139.951 41.1634 140.016 41.4707 140.016C41.6764 140.016 41.8626 139.987 42.0293 139.93C42.196 139.87 42.3405 139.783 42.4629 139.668C42.5853 139.553 42.6777 139.411 42.7402 139.242L44.0605 139.391C43.9772 139.74 43.8184 140.044 43.584 140.305C43.3522 140.562 43.0553 140.763 42.6934 140.906C42.3314 141.047 41.9173 141.117 41.4512 141.117ZM50.0576 136.586L48.7686 136.727C48.7321 136.596 48.6683 136.474 48.5771 136.359C48.4886 136.245 48.3688 136.152 48.2178 136.082C48.0667 136.012 47.8818 135.977 47.6631 135.977C47.3688 135.977 47.1214 136.04 46.9209 136.168C46.723 136.296 46.6253 136.461 46.6279 136.664C46.6253 136.839 46.6891 136.98 46.8193 137.09C46.9521 137.199 47.1709 137.289 47.4756 137.359L48.499 137.578C49.0667 137.701 49.4886 137.895 49.7646 138.16C50.0433 138.426 50.1839 138.773 50.1865 139.203C50.1839 139.581 50.0732 139.914 49.8545 140.203C49.6383 140.49 49.3376 140.714 48.9521 140.875C48.5667 141.036 48.124 141.117 47.624 141.117C46.8896 141.117 46.2985 140.964 45.8506 140.656C45.4027 140.346 45.1357 139.915 45.0498 139.363L46.4287 139.23C46.4912 139.501 46.624 139.706 46.8271 139.844C47.0303 139.982 47.2946 140.051 47.6201 140.051C47.9561 140.051 48.2256 139.982 48.4287 139.844C48.6344 139.706 48.7373 139.535 48.7373 139.332C48.7373 139.16 48.6709 139.018 48.5381 138.906C48.4079 138.794 48.2048 138.708 47.9287 138.648L46.9053 138.434C46.3298 138.314 45.904 138.112 45.6279 137.828C45.3519 137.542 45.2152 137.18 45.2178 136.742C45.2152 136.372 45.3154 136.052 45.5186 135.781C45.7243 135.508 46.0094 135.297 46.374 135.148C46.7412 134.997 47.1644 134.922 47.6436 134.922C48.3467 134.922 48.9001 135.072 49.3037 135.371C49.71 135.671 49.9613 136.076 50.0576 136.586ZM54.0088 141.117C53.4072 141.117 52.8877 140.992 52.4502 140.742C52.0153 140.49 51.6807 140.133 51.4463 139.672C51.2119 139.208 51.0947 138.663 51.0947 138.035C51.0947 137.418 51.2119 136.876 51.4463 136.41C51.6833 135.941 52.014 135.577 52.4385 135.316C52.863 135.053 53.3617 134.922 53.9346 134.922C54.3044 134.922 54.6533 134.982 54.9814 135.102C55.3122 135.219 55.6038 135.401 55.8564 135.648C56.1117 135.896 56.3122 136.211 56.458 136.594C56.6038 136.974 56.6768 137.427 56.6768 137.953V138.387H51.7588V137.434H55.3213C55.3187 137.163 55.2601 136.922 55.1455 136.711C55.0309 136.497 54.8708 136.329 54.665 136.207C54.4619 136.085 54.2249 136.023 53.9541 136.023C53.665 136.023 53.4111 136.094 53.1924 136.234C52.9736 136.372 52.8031 136.555 52.6807 136.781C52.5609 137.005 52.4997 137.251 52.4971 137.52V138.352C52.4971 138.701 52.5609 139 52.6885 139.25C52.8161 139.497 52.9945 139.687 53.2236 139.82C53.4528 139.951 53.721 140.016 54.0283 140.016C54.234 140.016 54.4202 139.987 54.5869 139.93C54.7536 139.87 54.8981 139.783 55.0205 139.668C55.1429 139.553 55.2354 139.411 55.2979 139.242L56.6182 139.391C56.5348 139.74 56.376 140.044 56.1416 140.305C55.9098 140.562 55.613 140.763 55.251 140.906C54.889 141.047 54.4749 141.117 54.0088 141.117ZM59.5996 141.121C59.2194 141.121 58.877 141.053 58.5723 140.918C58.2702 140.78 58.0306 140.577 57.8535 140.309C57.679 140.04 57.5918 139.71 57.5918 139.316C57.5918 138.978 57.6543 138.698 57.7793 138.477C57.9043 138.255 58.0749 138.078 58.291 137.945C58.5072 137.812 58.7507 137.712 59.0215 137.645C59.2949 137.574 59.5775 137.523 59.8691 137.492C60.2207 137.456 60.5059 137.423 60.7246 137.395C60.9434 137.363 61.1022 137.316 61.2012 137.254C61.3027 137.189 61.3535 137.089 61.3535 136.953V136.93C61.3535 136.635 61.2663 136.408 61.0918 136.246C60.9173 136.085 60.666 136.004 60.3379 136.004C59.9915 136.004 59.7168 136.079 59.5137 136.23C59.3132 136.382 59.1777 136.56 59.1074 136.766L57.7871 136.578C57.8913 136.214 58.0632 135.909 58.3027 135.664C58.5423 135.417 58.8353 135.232 59.1816 135.109C59.528 134.984 59.9108 134.922 60.3301 134.922C60.6191 134.922 60.9069 134.956 61.1934 135.023C61.4798 135.091 61.7415 135.203 61.9785 135.359C62.2155 135.513 62.4056 135.723 62.5488 135.988C62.6947 136.254 62.7676 136.586 62.7676 136.984V141H61.4082V140.176H61.3613C61.2754 140.342 61.1543 140.499 60.998 140.645C60.8444 140.788 60.6504 140.904 60.416 140.992C60.1842 141.078 59.9121 141.121 59.5996 141.121ZM59.9668 140.082C60.2507 140.082 60.4967 140.026 60.7051 139.914C60.9134 139.799 61.0736 139.648 61.1855 139.461C61.3001 139.273 61.3574 139.069 61.3574 138.848V138.141C61.3132 138.177 61.2376 138.211 61.1309 138.242C61.0267 138.273 60.9095 138.301 60.7793 138.324C60.6491 138.348 60.5202 138.368 60.3926 138.387C60.265 138.405 60.1543 138.421 60.0605 138.434C59.8496 138.462 59.6608 138.509 59.4941 138.574C59.3275 138.639 59.196 138.73 59.0996 138.848C59.0033 138.962 58.9551 139.111 58.9551 139.293C58.9551 139.553 59.0501 139.75 59.2402 139.883C59.4303 140.016 59.6725 140.082 59.9668 140.082ZM64.1895 141V135H65.5605V136H65.623C65.7324 135.654 65.9199 135.387 66.1855 135.199C66.4538 135.009 66.7598 134.914 67.1035 134.914C67.1816 134.914 67.2689 134.918 67.3652 134.926C67.4642 134.931 67.5462 134.94 67.6113 134.953V136.254C67.5514 136.233 67.4564 136.215 67.3262 136.199C67.1986 136.181 67.0749 136.172 66.9551 136.172C66.6973 136.172 66.4655 136.228 66.2598 136.34C66.0566 136.449 65.8965 136.602 65.7793 136.797C65.6621 136.992 65.6035 137.217 65.6035 137.473V141H64.1895ZM70.9209 141.117C70.3219 141.117 69.8076 140.986 69.3779 140.723C68.9508 140.46 68.6214 140.096 68.3896 139.633C68.1605 139.167 68.0459 138.63 68.0459 138.023C68.0459 137.414 68.1631 136.876 68.3975 136.41C68.6318 135.941 68.9626 135.577 69.3896 135.316C69.8193 135.053 70.3271 134.922 70.9131 134.922C71.4001 134.922 71.8311 135.012 72.2061 135.191C72.5837 135.368 72.8844 135.62 73.1084 135.945C73.3324 136.268 73.46 136.646 73.4912 137.078H72.1396C72.085 136.789 71.9548 136.548 71.749 136.355C71.5459 136.16 71.2738 136.062 70.9326 136.062C70.6436 136.062 70.3896 136.141 70.1709 136.297C69.9521 136.451 69.7816 136.672 69.6592 136.961C69.5394 137.25 69.4795 137.596 69.4795 138C69.4795 138.409 69.5394 138.76 69.6592 139.055C69.779 139.346 69.9469 139.572 70.1631 139.73C70.3818 139.887 70.6383 139.965 70.9326 139.965C71.141 139.965 71.3271 139.926 71.4912 139.848C71.6579 139.767 71.7972 139.651 71.9092 139.5C72.0212 139.349 72.098 139.165 72.1396 138.949H73.4912C73.4574 139.374 73.3324 139.75 73.1162 140.078C72.9001 140.404 72.6058 140.659 72.2334 140.844C71.861 141.026 71.4235 141.117 70.9209 141.117ZM76.0664 137.484V141H74.6523V133H76.0352V136.02H76.1055C76.2461 135.681 76.4635 135.414 76.7578 135.219C77.0547 135.021 77.4323 134.922 77.8906 134.922C78.3073 134.922 78.6706 135.009 78.9805 135.184C79.2904 135.358 79.5299 135.613 79.6992 135.949C79.8711 136.285 79.957 136.695 79.957 137.18V141H78.543V137.398C78.543 136.995 78.4388 136.681 78.2305 136.457C78.0247 136.23 77.7357 136.117 77.3633 136.117C77.1133 136.117 76.8893 136.172 76.6914 136.281C76.4961 136.388 76.3424 136.543 76.2305 136.746C76.1211 136.949 76.0664 137.195 76.0664 137.484Z" fill="#7B7B7B"/>
<path d="M135.437 134.215V133H141.82V134.215H139.348V141H137.91V134.215H135.437ZM144.774 141.117C144.173 141.117 143.653 140.992 143.216 140.742C142.781 140.49 142.446 140.133 142.212 139.672C141.978 139.208 141.86 138.663 141.86 138.035C141.86 137.418 141.978 136.876 142.212 136.41C142.449 135.941 142.78 135.577 143.204 135.316C143.629 135.053 144.127 134.922 144.7 134.922C145.07 134.922 145.419 134.982 145.747 135.102C146.078 135.219 146.369 135.401 146.622 135.648C146.877 135.896 147.078 136.211 147.224 136.594C147.369 136.974 147.442 137.427 147.442 137.953V138.387H142.524V137.434H146.087C146.084 137.163 146.026 136.922 145.911 136.711C145.797 136.497 145.636 136.329 145.431 136.207C145.228 136.085 144.991 136.023 144.72 136.023C144.431 136.023 144.177 136.094 143.958 136.234C143.739 136.372 143.569 136.555 143.446 136.781C143.326 137.005 143.265 137.251 143.263 137.52V138.352C143.263 138.701 143.326 139 143.454 139.25C143.582 139.497 143.76 139.687 143.989 139.82C144.218 139.951 144.487 140.016 144.794 140.016C145 140.016 145.186 139.987 145.353 139.93C145.519 139.87 145.664 139.783 145.786 139.668C145.909 139.553 146.001 139.411 146.063 139.242L147.384 139.391C147.3 139.74 147.142 140.044 146.907 140.305C146.675 140.562 146.379 140.763 146.017 140.906C145.655 141.047 145.241 141.117 144.774 141.117ZM153.381 136.586L152.092 136.727C152.055 136.596 151.992 136.474 151.9 136.359C151.812 136.245 151.692 136.152 151.541 136.082C151.39 136.012 151.205 135.977 150.986 135.977C150.692 135.977 150.445 136.04 150.244 136.168C150.046 136.296 149.949 136.461 149.951 136.664C149.949 136.839 150.012 136.98 150.143 137.09C150.275 137.199 150.494 137.289 150.799 137.359L151.822 137.578C152.39 137.701 152.812 137.895 153.088 138.16C153.367 138.426 153.507 138.773 153.51 139.203C153.507 139.581 153.396 139.914 153.178 140.203C152.962 140.49 152.661 140.714 152.275 140.875C151.89 141.036 151.447 141.117 150.947 141.117C150.213 141.117 149.622 140.964 149.174 140.656C148.726 140.346 148.459 139.915 148.373 139.363L149.752 139.23C149.814 139.501 149.947 139.706 150.15 139.844C150.354 139.982 150.618 140.051 150.943 140.051C151.279 140.051 151.549 139.982 151.752 139.844C151.958 139.706 152.061 139.535 152.061 139.332C152.061 139.16 151.994 139.018 151.861 138.906C151.731 138.794 151.528 138.708 151.252 138.648L150.229 138.434C149.653 138.314 149.227 138.112 148.951 137.828C148.675 137.542 148.538 137.18 148.541 136.742C148.538 136.372 148.639 136.052 148.842 135.781C149.048 135.508 149.333 135.297 149.697 135.148C150.064 134.997 150.488 134.922 150.967 134.922C151.67 134.922 152.223 135.072 152.627 135.371C153.033 135.671 153.285 136.076 153.381 136.586ZM157.672 135V136.094H154.223V135H157.672ZM155.074 133.562H156.488V139.195C156.488 139.385 156.517 139.531 156.574 139.633C156.634 139.732 156.712 139.799 156.809 139.836C156.905 139.872 157.012 139.891 157.129 139.891C157.217 139.891 157.298 139.884 157.371 139.871C157.447 139.858 157.504 139.846 157.543 139.836L157.781 140.941C157.706 140.967 157.598 140.996 157.457 141.027C157.319 141.059 157.15 141.077 156.949 141.082C156.595 141.092 156.276 141.039 155.992 140.922C155.708 140.802 155.483 140.617 155.316 140.367C155.152 140.117 155.072 139.805 155.074 139.43V133.562ZM158.854 141V135H160.269V141H158.854ZM159.565 134.148C159.341 134.148 159.149 134.074 158.987 133.926C158.826 133.775 158.745 133.594 158.745 133.383C158.745 133.169 158.826 132.988 158.987 132.84C159.149 132.689 159.341 132.613 159.565 132.613C159.792 132.613 159.985 132.689 160.144 132.84C160.305 132.988 160.386 133.169 160.386 133.383C160.386 133.594 160.305 133.775 160.144 133.926C159.985 134.074 159.792 134.148 159.565 134.148ZM163.137 137.484V141H161.723V135H163.074V136.02H163.145C163.283 135.684 163.503 135.417 163.805 135.219C164.109 135.021 164.486 134.922 164.934 134.922C165.348 134.922 165.708 135.01 166.016 135.187C166.326 135.365 166.565 135.621 166.734 135.957C166.906 136.293 166.991 136.701 166.988 137.18V141H165.574V137.398C165.574 136.997 165.47 136.684 165.262 136.457C165.056 136.23 164.771 136.117 164.406 136.117C164.159 136.117 163.939 136.172 163.746 136.281C163.556 136.388 163.406 136.543 163.297 136.746C163.19 136.949 163.137 137.195 163.137 137.484ZM171.035 143.375C170.527 143.375 170.091 143.306 169.727 143.168C169.362 143.033 169.069 142.85 168.848 142.621C168.626 142.392 168.473 142.138 168.387 141.859L169.66 141.551C169.717 141.668 169.801 141.784 169.91 141.898C170.02 142.016 170.167 142.112 170.352 142.188C170.539 142.266 170.775 142.305 171.059 142.305C171.46 142.305 171.792 142.207 172.055 142.012C172.318 141.819 172.449 141.501 172.449 141.059V139.922H172.379C172.306 140.068 172.199 140.217 172.059 140.371C171.921 140.525 171.737 140.654 171.508 140.758C171.281 140.862 170.996 140.914 170.652 140.914C170.191 140.914 169.773 140.806 169.398 140.59C169.026 140.371 168.729 140.046 168.508 139.613C168.289 139.178 168.18 138.634 168.18 137.98C168.18 137.322 168.289 136.766 168.508 136.312C168.729 135.857 169.027 135.512 169.402 135.277C169.777 135.04 170.195 134.922 170.656 134.922C171.008 134.922 171.297 134.982 171.523 135.102C171.753 135.219 171.935 135.361 172.07 135.527C172.206 135.691 172.309 135.846 172.379 135.992H172.457V135H173.852V141.098C173.852 141.611 173.729 142.035 173.484 142.371C173.24 142.707 172.905 142.958 172.48 143.125C172.056 143.292 171.574 143.375 171.035 143.375ZM171.047 139.805C171.346 139.805 171.602 139.732 171.812 139.586C172.023 139.44 172.184 139.23 172.293 138.957C172.402 138.684 172.457 138.355 172.457 137.973C172.457 137.595 172.402 137.264 172.293 136.98C172.186 136.697 172.027 136.477 171.816 136.32C171.608 136.161 171.352 136.082 171.047 136.082C170.732 136.082 170.469 136.164 170.258 136.328C170.047 136.492 169.888 136.717 169.781 137.004C169.674 137.288 169.621 137.611 169.621 137.973C169.621 138.34 169.674 138.661 169.781 138.938C169.891 139.211 170.051 139.424 170.262 139.578C170.475 139.729 170.737 139.805 171.047 139.805Z" fill="#7B7B7B"/>
<path d="M45.3138 31.261C45.0116 32.4734 44.9041 33.4306 44.6153 34.6463C44.5078 35.0896 44.2156 35.0997 43.8428 35.1132C40.2761 35.224 37.3307 36.6413 35.0268 39.3751C34.9831 39.4288 34.9394 39.4826 34.8991 39.5363C34.3484 40.2416 33.6442 40.4554 32.7867 40.1778C28.7733 38.878 26.0092 35.2106 26.026 31.0124C26.0495 24.7589 31.5474 20.6213 36.968 21.4004C41.8176 22.0957 45.334 26.0889 45.3306 30.9621C45.3138 31.0729 45.3306 31.1703 45.3138 31.261Z" fill="#9C0000"/>
<path d="M26.5231 39.3381C28.3468 41.239 30.466 42.4985 33.0117 43.0761C32.1721 45.904 32.2896 48.6378 33.4852 51.291C34.6708 53.9207 36.6019 55.835 39.1846 57.1751C38.9461 57.1751 38.7077 57.1751 38.4692 57.1751C33.7371 57.1751 29.0017 57.081 24.2763 57.2087C21.2872 57.2893 18.3183 55.1633 18.6911 51.1835C19.1915 45.857 21.8212 41.9611 26.5265 39.3381H26.5231Z" fill="#9C0000"/>
<path d="M51.0535 51.7713C52.0745 52.7721 53.0854 53.7394 54.0627 54.7402C54.7881 55.4791 54.684 56.4933 53.878 56.9769C53.2869 57.3296 52.6555 57.2356 52.0711 56.6579C51.077 55.6739 50.103 54.673 49.1291 53.6856C44.4809 56.8292 39.3189 55.0425 36.9713 51.8452C34.3719 48.312 34.7044 43.4725 37.7975 40.4062C40.9478 37.2828 45.8109 36.9872 49.3474 39.711C52.5446 42.1727 54.1063 47.1634 51.0501 51.7679L51.0535 51.7713ZM37.9923 46.5488C37.9722 49.8502 40.6422 52.5572 43.9503 52.5874C47.1946 52.6176 49.972 49.8402 49.9586 46.5791C49.9452 43.3247 47.245 40.6379 43.9839 40.6245C40.7127 40.611 38.0125 43.281 37.9923 46.5488Z" fill="#9C0000"/>
</svg>
