<svg width="255" height="170" viewBox="0 0 255 170" fill="none" xmlns="http://www.w3.org/2000/svg">
<path d="M76.3019 163.396C76.0889 163.396 75.9741 163.396 75.8594 163.396C73.4792 163.396 71.099 163.396 68.7194 163.396C68.6238 163.396 68.5275 163.402 68.4325 163.394C68.1717 163.373 68.0148 163.23 68.0008 163.013C67.9868 162.787 68.1545 162.65 68.4012 162.608C68.4937 162.592 68.5919 162.601 68.6875 162.601C71.0779 162.601 73.469 162.601 75.8594 162.601H76.2929C75.7293 162.184 75.2307 161.813 74.7302 161.444C74.4279 161.221 74.1225 161.001 73.8216 160.777C73.5589 160.582 73.506 160.325 73.6845 160.14C73.8681 159.95 74.1123 159.952 74.3839 160.152C75.4959 160.971 76.6079 161.789 77.718 162.61C78.0961 162.89 78.0936 163.112 77.7129 163.393C76.6028 164.214 75.4908 165.032 74.3788 165.851C74.1098 166.048 73.8547 166.048 73.6775 165.859C73.513 165.684 73.5614 165.418 73.8024 165.239C74.6084 164.642 75.4175 164.048 76.3012 163.397L76.3019 163.396Z" fill="black"/>
<rect width="255" height="170" rx="24" fill="#E7E6E2"/>
<path d="M19.2912 79.9091H22.1932L26.0795 89.3949H26.233L30.1193 79.9091H33.0213V93H30.7457V84.0064H30.6243L27.0064 92.9616H25.3061L21.6882 83.9872H21.5668V93H19.2912V79.9091ZM39.7841 93.1918C38.8253 93.1918 37.9943 92.9808 37.2912 92.5589C36.5881 92.1371 36.0426 91.5469 35.6548 90.7884C35.2713 90.0298 35.0795 89.1435 35.0795 88.1293C35.0795 87.1151 35.2713 86.2266 35.6548 85.4638C36.0426 84.701 36.5881 84.1087 37.2912 83.6868C37.9943 83.2649 38.8253 83.054 39.7841 83.054C40.7429 83.054 41.5739 83.2649 42.277 83.6868C42.9801 84.1087 43.5234 84.701 43.907 85.4638C44.2947 86.2266 44.4886 87.1151 44.4886 88.1293C44.4886 89.1435 44.2947 90.0298 43.907 90.7884C43.5234 91.5469 42.9801 92.1371 42.277 92.5589C41.5739 92.9808 40.7429 93.1918 39.7841 93.1918ZM39.7969 91.3381C40.3168 91.3381 40.7514 91.1953 41.1009 90.9098C41.4503 90.62 41.7102 90.2322 41.8807 89.7464C42.0554 89.2607 42.1428 88.7195 42.1428 88.1229C42.1428 87.522 42.0554 86.9787 41.8807 86.4929C41.7102 86.0028 41.4503 85.6129 41.1009 85.3232C40.7514 85.0334 40.3168 84.8885 39.7969 84.8885C39.2642 84.8885 38.821 85.0334 38.4673 85.3232C38.1179 85.6129 37.8558 86.0028 37.6811 86.4929C37.5107 86.9787 37.4254 87.522 37.4254 88.1229C37.4254 88.7195 37.5107 89.2607 37.6811 89.7464C37.8558 90.2322 38.1179 90.62 38.4673 90.9098C38.821 91.1953 39.2642 91.3381 39.7969 91.3381ZM51.3553 83.1818V84.9716H45.7111V83.1818H51.3553ZM47.1046 80.8295H49.4185V90.0469C49.4185 90.358 49.4654 90.5966 49.5591 90.7628C49.6571 90.9247 49.785 91.0355 49.9426 91.0952C50.1003 91.1548 50.275 91.1847 50.4668 91.1847C50.6117 91.1847 50.7438 91.174 50.8631 91.1527C50.9867 91.1314 51.0804 91.1122 51.1444 91.0952L51.5343 92.9041C51.4107 92.9467 51.2338 92.9936 51.0037 93.0447C50.7779 93.0959 50.5009 93.1257 50.1728 93.1342C49.5932 93.1513 49.0712 93.0639 48.6067 92.8722C48.1422 92.6761 47.7736 92.3736 47.5009 91.9645C47.2324 91.5554 47.1003 91.044 47.1046 90.4304V80.8295ZM53.2905 93V83.1818H55.6044V93H53.2905ZM54.4538 81.7884C54.0874 81.7884 53.772 81.6669 53.5078 81.424C53.2436 81.1768 53.1115 80.8807 53.1115 80.5355C53.1115 80.1861 53.2436 79.8899 53.5078 79.647C53.772 79.3999 54.0874 79.2763 54.4538 79.2763C54.8246 79.2763 55.1399 79.3999 55.3999 79.647C55.6641 79.8899 55.7962 80.1861 55.7962 80.5355C55.7962 80.8807 55.6641 81.1768 55.3999 81.424C55.1399 81.6669 54.8246 81.7884 54.4538 81.7884ZM62.2665 93.1918C61.3077 93.1918 60.4767 92.9808 59.7736 92.5589C59.0705 92.1371 58.525 91.5469 58.1373 90.7884C57.7537 90.0298 57.562 89.1435 57.562 88.1293C57.562 87.1151 57.7537 86.2266 58.1373 85.4638C58.525 84.701 59.0705 84.1087 59.7736 83.6868C60.4767 83.2649 61.3077 83.054 62.2665 83.054C63.2253 83.054 64.0563 83.2649 64.7594 83.6868C65.4625 84.1087 66.0059 84.701 66.3894 85.4638C66.7772 86.2266 66.9711 87.1151 66.9711 88.1293C66.9711 89.1435 66.7772 90.0298 66.3894 90.7884C66.0059 91.5469 65.4625 92.1371 64.7594 92.5589C64.0563 92.9808 63.2253 93.1918 62.2665 93.1918ZM62.2793 91.3381C62.7992 91.3381 63.2338 91.1953 63.5833 90.9098C63.9327 90.62 64.1926 90.2322 64.3631 89.7464C64.5378 89.2607 64.6252 88.7195 64.6252 88.1229C64.6252 87.522 64.5378 86.9787 64.3631 86.4929C64.1926 86.0028 63.9327 85.6129 63.5833 85.3232C63.2338 85.0334 62.7992 84.8885 62.2793 84.8885C61.7466 84.8885 61.3034 85.0334 60.9498 85.3232C60.6003 85.6129 60.3382 86.0028 60.1635 86.4929C59.9931 86.9787 59.9078 87.522 59.9078 88.1229C59.9078 88.7195 59.9931 89.2607 60.1635 89.7464C60.3382 90.2322 60.6003 90.62 60.9498 90.9098C61.3034 91.1953 61.7466 91.3381 62.2793 91.3381ZM71.2489 87.2472V93H68.935V83.1818H71.1467V84.8501H71.2617C71.4876 84.3004 71.8477 83.8636 72.342 83.5398C72.8406 83.2159 73.4563 83.054 74.1893 83.054C74.8668 83.054 75.457 83.1989 75.9599 83.4886C76.467 83.7784 76.859 84.1982 77.136 84.7479C77.4173 85.2976 77.5558 85.9645 77.5515 86.7486V93H75.2376V87.1065C75.2376 86.4503 75.0671 85.9368 74.7262 85.5661C74.3896 85.1953 73.9229 85.0099 73.3263 85.0099C72.9215 85.0099 72.5614 85.0994 72.2461 85.2784C71.935 85.4531 71.69 85.7067 71.511 86.0391C71.3363 86.3714 71.2489 86.7741 71.2489 87.2472ZM88.6385 96.8864C87.8075 96.8864 87.0938 96.7734 86.4972 96.5476C85.9006 96.326 85.4212 96.0277 85.0589 95.6527C84.6967 95.2777 84.4453 94.8622 84.3047 94.4062L86.3885 93.9013C86.4822 94.093 86.6186 94.2827 86.7976 94.4702C86.9766 94.6619 87.2173 94.8196 87.5199 94.9432C87.8267 95.071 88.2124 95.1349 88.6768 95.1349C89.3331 95.1349 89.8764 94.9751 90.3068 94.6555C90.7372 94.3402 90.9524 93.8203 90.9524 93.0959V91.2358H90.8374C90.718 91.4744 90.5433 91.7195 90.3132 91.9709C90.0874 92.2223 89.7869 92.4332 89.4119 92.6037C89.0412 92.7741 88.5746 92.8594 88.0121 92.8594C87.2578 92.8594 86.5739 92.6825 85.9602 92.3288C85.3509 91.9709 84.8651 91.4382 84.5028 90.7308C84.1449 90.0192 83.9659 89.1286 83.9659 88.0589C83.9659 86.9808 84.1449 86.071 84.5028 85.3295C84.8651 84.5838 85.353 84.0192 85.9666 83.6357C86.5803 83.2479 87.2642 83.054 88.0185 83.054C88.5938 83.054 89.0668 83.152 89.4375 83.348C89.8125 83.5398 90.1108 83.772 90.3324 84.0447C90.554 84.3132 90.7223 84.5668 90.8374 84.8054H90.9652V83.1818H93.2472V93.1598C93.2472 93.9993 93.0469 94.6939 92.6463 95.2436C92.2457 95.7933 91.6982 96.2045 91.0036 96.4773C90.3089 96.75 89.5206 96.8864 88.6385 96.8864ZM88.6577 91.044C89.1477 91.044 89.5653 90.9247 89.9105 90.6861C90.2557 90.4474 90.5178 90.1044 90.6967 89.657C90.8757 89.2095 90.9652 88.6726 90.9652 88.0462C90.9652 87.4283 90.8757 86.8871 90.6967 86.4226C90.522 85.9581 90.2621 85.598 89.9169 85.3423C89.576 85.0824 89.1563 84.9524 88.6577 84.9524C88.142 84.9524 87.7116 85.0866 87.3665 85.3551C87.0213 85.6236 86.7614 85.9922 86.5866 86.4609C86.4119 86.9254 86.3246 87.4538 86.3246 88.0462C86.3246 88.647 86.4119 89.1733 86.5866 89.625C86.7656 90.0724 87.0277 90.4219 87.3729 90.6733C87.7223 90.9205 88.1506 91.044 88.6577 91.044ZM95.6186 93V83.1818H97.8622V84.8182H97.9645C98.1435 84.2514 98.4503 83.8146 98.8849 83.5078C99.3239 83.1967 99.8246 83.0412 100.387 83.0412C100.515 83.0412 100.658 83.0476 100.815 83.0604C100.977 83.0689 101.112 83.0838 101.218 83.1051V85.2337C101.12 85.1996 100.964 85.1697 100.751 85.1442C100.543 85.1143 100.34 85.0994 100.144 85.0994C99.7223 85.0994 99.343 85.1911 99.0064 85.3743C98.674 85.5533 98.4119 85.8026 98.2202 86.1222C98.0284 86.4418 97.9325 86.8104 97.9325 87.228V93H95.6186ZM105.405 93.1982C104.783 93.1982 104.222 93.0874 103.724 92.8658C103.229 92.6399 102.837 92.3075 102.548 91.8686C102.262 91.4297 102.119 90.8885 102.119 90.245C102.119 89.6911 102.222 89.233 102.426 88.8707C102.631 88.5085 102.91 88.2188 103.263 88.0014C103.617 87.7841 104.016 87.62 104.459 87.5092C104.906 87.3942 105.369 87.3111 105.846 87.2599C106.421 87.2003 106.888 87.147 107.246 87.1001C107.604 87.049 107.864 86.9723 108.026 86.87C108.192 86.7635 108.275 86.5994 108.275 86.3778V86.3395C108.275 85.858 108.132 85.4851 107.847 85.2209C107.561 84.9567 107.15 84.8246 106.613 84.8246C106.046 84.8246 105.597 84.9482 105.264 85.1953C104.936 85.4425 104.714 85.7344 104.599 86.071L102.439 85.7642C102.609 85.1676 102.891 84.669 103.283 84.2685C103.675 83.8636 104.154 83.5611 104.721 83.3608C105.288 83.1562 105.914 83.054 106.6 83.054C107.073 83.054 107.544 83.1094 108.013 83.2202C108.482 83.331 108.91 83.5142 109.298 83.7699C109.685 84.0213 109.996 84.3643 110.231 84.799C110.469 85.2337 110.589 85.777 110.589 86.429V93H108.364V91.6513H108.288C108.147 91.924 107.949 92.1797 107.693 92.4183C107.442 92.6527 107.124 92.8423 106.741 92.9872C106.362 93.1278 105.916 93.1982 105.405 93.1982ZM106.006 91.4979C106.47 91.4979 106.873 91.4062 107.214 91.223C107.555 91.0355 107.817 90.7884 108 90.4815C108.188 90.1747 108.281 89.8402 108.281 89.478V88.321C108.209 88.3807 108.085 88.4361 107.911 88.4872C107.74 88.5384 107.548 88.5831 107.335 88.6214C107.122 88.6598 106.911 88.6939 106.702 88.7237C106.494 88.7536 106.313 88.7791 106.159 88.8004C105.814 88.8473 105.505 88.924 105.232 89.0305C104.96 89.1371 104.744 89.2862 104.587 89.478C104.429 89.6655 104.35 89.9084 104.35 90.2067C104.35 90.6328 104.506 90.9545 104.817 91.1719C105.128 91.3892 105.524 91.4979 106.006 91.4979ZM112.915 96.6818V83.1818H115.191V84.8054H115.325C115.445 84.5668 115.613 84.3132 115.83 84.0447C116.048 83.772 116.342 83.5398 116.712 83.348C117.083 83.152 117.556 83.054 118.131 83.054C118.89 83.054 119.574 83.2479 120.183 83.6357C120.797 84.0192 121.283 84.5881 121.641 85.3423C122.003 86.0923 122.184 87.0128 122.184 88.1037C122.184 89.1818 122.007 90.098 121.653 90.8523C121.3 91.6065 120.818 92.1818 120.209 92.5781C119.599 92.9744 118.909 93.1726 118.138 93.1726C117.575 93.1726 117.109 93.0788 116.738 92.8913C116.367 92.7038 116.069 92.478 115.843 92.2138C115.621 91.9453 115.449 91.6918 115.325 91.4531H115.229V96.6818H112.915ZM115.185 88.0909C115.185 88.7259 115.274 89.282 115.453 89.7592C115.636 90.2365 115.898 90.6094 116.239 90.8778C116.585 91.142 117.002 91.2741 117.492 91.2741C118.004 91.2741 118.432 91.1378 118.777 90.8651C119.122 90.5881 119.382 90.2109 119.557 89.7337C119.736 89.2521 119.825 88.7045 119.825 88.0909C119.825 87.4815 119.738 86.9403 119.563 86.4673C119.388 85.9943 119.129 85.6236 118.783 85.3551C118.438 85.0866 118.008 84.9524 117.492 84.9524C116.998 84.9524 116.578 85.0824 116.233 85.3423C115.888 85.6023 115.626 85.9666 115.447 86.4354C115.272 86.9041 115.185 87.456 115.185 88.0909ZM126.479 87.2472V93H124.165V79.9091H126.428V84.8501H126.543C126.773 84.2962 127.129 83.8594 127.611 83.5398C128.097 83.2159 128.714 83.054 129.464 83.054C130.146 83.054 130.741 83.1967 131.248 83.4822C131.755 83.7678 132.147 84.1854 132.424 84.7351C132.705 85.2848 132.846 85.956 132.846 86.7486V93H130.532V87.1065C130.532 86.446 130.362 85.9325 130.021 85.5661C129.684 85.1953 129.211 85.0099 128.602 85.0099C128.192 85.0099 127.826 85.0994 127.502 85.2784C127.183 85.4531 126.931 85.7067 126.748 86.0391C126.569 86.3714 126.479 86.7741 126.479 87.2472ZM135.205 93V83.1818H137.518V93H135.205ZM136.368 81.7884C136.001 81.7884 135.686 81.6669 135.422 81.424C135.158 81.1768 135.026 80.8807 135.026 80.5355C135.026 80.1861 135.158 79.8899 135.422 79.647C135.686 79.3999 136.001 79.2763 136.368 79.2763C136.739 79.2763 137.054 79.3999 137.314 79.647C137.578 79.8899 137.71 80.1861 137.71 80.5355C137.71 80.8807 137.578 81.1768 137.314 81.424C137.054 81.6669 136.739 81.7884 136.368 81.7884ZM144.181 93.1918C143.2 93.1918 142.359 92.9766 141.656 92.5462C140.957 92.1158 140.418 91.5213 140.039 90.7628C139.664 90 139.476 89.1222 139.476 88.1293C139.476 87.1321 139.668 86.2521 140.051 85.4893C140.435 84.7223 140.976 84.1257 141.675 83.6996C142.378 83.2692 143.209 83.054 144.168 83.054C144.965 83.054 145.67 83.201 146.284 83.495C146.901 83.7848 147.394 84.196 147.76 84.7287C148.127 85.2571 148.335 85.875 148.387 86.5824H146.175C146.085 86.1094 145.872 85.7152 145.536 85.3999C145.203 85.0803 144.758 84.9205 144.2 84.9205C143.727 84.9205 143.311 85.0483 142.953 85.304C142.595 85.5554 142.316 85.9176 142.116 86.3906C141.92 86.8636 141.822 87.4304 141.822 88.0909C141.822 88.7599 141.92 89.3352 142.116 89.8168C142.312 90.294 142.587 90.6626 142.941 90.9226C143.298 91.1783 143.718 91.3061 144.2 91.3061C144.541 91.3061 144.845 91.2422 145.114 91.1143C145.387 90.9822 145.615 90.7926 145.798 90.5455C145.981 90.2983 146.107 89.9979 146.175 89.6442H148.387C148.331 90.3388 148.127 90.9545 147.773 91.4915C147.419 92.0241 146.938 92.4418 146.328 92.7443C145.719 93.0426 145.003 93.1918 144.181 93.1918ZM158.047 85.777L155.937 86.0071C155.877 85.794 155.773 85.5938 155.624 85.4062C155.479 85.2188 155.283 85.0675 155.036 84.9524C154.789 84.8374 154.486 84.7798 154.128 84.7798C153.647 84.7798 153.242 84.8842 152.914 85.093C152.59 85.3018 152.43 85.5724 152.434 85.9048C152.43 86.1903 152.534 86.4226 152.748 86.6016C152.965 86.7805 153.323 86.9276 153.821 87.0426L155.496 87.4006C156.425 87.6009 157.115 87.9183 157.567 88.353C158.023 88.7876 158.253 89.3565 158.257 90.0597C158.253 90.6776 158.072 91.223 157.714 91.696C157.36 92.1648 156.868 92.5312 156.238 92.7955C155.607 93.0597 154.882 93.1918 154.064 93.1918C152.863 93.1918 151.895 92.9403 151.162 92.4375C150.429 91.9304 149.993 91.2251 149.852 90.3217L152.108 90.1044C152.211 90.5476 152.428 90.8821 152.76 91.108C153.093 91.3338 153.525 91.4467 154.058 91.4467C154.608 91.4467 155.049 91.3338 155.381 91.108C155.718 90.8821 155.886 90.603 155.886 90.2706C155.886 89.9893 155.777 89.7571 155.56 89.5739C155.347 89.3906 155.015 89.25 154.563 89.152L152.888 88.8004C151.946 88.6044 151.25 88.2741 150.798 87.8097C150.346 87.3409 150.123 86.7486 150.127 86.0327C150.123 85.4276 150.287 84.9034 150.619 84.4602C150.956 84.0128 151.422 83.6676 152.019 83.4247C152.62 83.1776 153.312 83.054 154.096 83.054C155.247 83.054 156.152 83.299 156.813 83.7891C157.478 84.2791 157.889 84.9418 158.047 85.777Z" fill="black"/>
<path d="M21.5032 133.001C22.2866 133.001 23.07 132.998 23.8534 133.002C24.4062 133.004 24.8279 133.329 24.96 133.851C24.984 133.947 24.998 134.048 24.998 134.147C25.0005 135.715 25.0005 137.283 24.999 138.852C24.9985 139.392 24.6738 139.819 24.1611 139.957C24.062 139.983 23.9569 139.998 23.8544 139.998C22.2876 140 20.7208 140 19.1535 139.999C18.4947 139.999 18.0019 139.508 18.0009 138.846C17.9994 137.286 17.9999 135.726 18.0009 134.167C18.0014 133.484 18.4802 133.004 19.165 133.001C19.9444 132.998 20.7238 133.001 21.5027 133.001H21.5032ZM21.0115 137.236C20.9804 137.209 20.9614 137.194 20.9444 137.177C20.6378 136.871 20.3316 136.563 20.024 136.258C19.8854 136.121 19.6858 136.098 19.5342 136.197C19.3136 136.341 19.2856 136.614 19.4777 136.808C19.8769 137.211 20.2786 137.611 20.6793 138.012C20.9009 138.234 21.1005 138.231 21.3236 138.005C21.5377 137.789 21.7533 137.574 21.9684 137.359C22.4842 136.843 23.0005 136.327 23.5157 135.811C23.6223 135.704 23.6783 135.577 23.6418 135.426C23.5663 135.112 23.2201 135.022 22.9815 135.258C22.4747 135.76 21.9724 136.266 21.4692 136.771C21.3166 136.923 21.1665 137.078 21.011 137.237L21.0115 137.236Z" fill="#9C0000"/>
<path d="M21.5032 112.001C22.2866 112.001 23.07 111.998 23.8534 112.002C24.4062 112.004 24.8279 112.329 24.96 112.851C24.984 112.947 24.998 113.048 24.998 113.147C25.0005 114.715 25.0005 116.283 24.999 117.852C24.9985 118.392 24.6738 118.819 24.1611 118.957C24.062 118.983 23.9569 118.998 23.8544 118.998C22.2876 119 20.7208 119 19.1535 118.999C18.4947 118.999 18.0019 118.508 18.0009 117.846C17.9994 116.286 17.9999 114.726 18.0009 113.167C18.0014 112.484 18.4802 112.004 19.165 112.001C19.9444 111.998 20.7238 112.001 21.5027 112.001H21.5032ZM21.0115 116.236C20.9804 116.209 20.9614 116.194 20.9444 116.177C20.6378 115.871 20.3316 115.563 20.024 115.258C19.8854 115.121 19.6858 115.098 19.5342 115.197C19.3136 115.341 19.2856 115.614 19.4777 115.808C19.8769 116.211 20.2786 116.611 20.6793 117.012C20.9009 117.234 21.1005 117.231 21.3236 117.005C21.5377 116.789 21.7533 116.574 21.9684 116.359C22.4842 115.843 23.0005 115.327 23.5157 114.811C23.6223 114.704 23.6783 114.577 23.6418 114.426C23.5663 114.112 23.2201 114.022 22.9815 114.258C22.4747 114.76 21.9724 115.266 21.4692 115.771C21.3166 115.923 21.1665 116.078 21.011 116.237L21.0115 116.236Z" fill="#9C0000"/>
<path d="M125.503 133.001C126.287 133.001 127.07 132.998 127.853 133.002C128.406 133.004 128.828 133.329 128.96 133.851C128.984 133.947 128.998 134.048 128.998 134.147C129 135.715 129 137.283 128.999 138.852C128.998 139.392 128.674 139.819 128.161 139.957C128.062 139.983 127.957 139.998 127.854 139.998C126.288 140 124.721 140 123.154 139.999C122.495 139.999 122.002 139.508 122.001 138.846C121.999 137.286 122 135.726 122.001 134.167C122.001 133.484 122.48 133.004 123.165 133.001C123.944 132.998 124.724 133.001 125.503 133.001H125.503ZM125.011 137.236C124.98 137.209 124.961 137.194 124.944 137.177C124.638 136.871 124.332 136.563 124.024 136.258C123.885 136.121 123.686 136.098 123.534 136.197C123.314 136.341 123.286 136.614 123.478 136.808C123.877 137.211 124.279 137.611 124.679 138.012C124.901 138.234 125.101 138.231 125.324 138.005C125.538 137.789 125.753 137.574 125.968 137.359C126.484 136.843 127 136.327 127.516 135.811C127.622 135.704 127.678 135.577 127.642 135.426C127.566 135.112 127.22 135.022 126.981 135.258C126.475 135.76 125.972 136.266 125.469 136.771C125.317 136.923 125.167 137.078 125.011 137.237L125.011 137.236Z" fill="#9C0000"/>
<path d="M125.503 112.001C126.287 112.001 127.07 111.998 127.853 112.002C128.406 112.004 128.828 112.329 128.96 112.851C128.984 112.947 128.998 113.048 128.998 113.147C129 114.715 129 116.283 128.999 117.852C128.998 118.392 128.674 118.819 128.161 118.957C128.062 118.983 127.957 118.998 127.854 118.998C126.288 119 124.721 119 123.154 118.999C122.495 118.999 122.002 118.508 122.001 117.846C121.999 116.286 122 114.726 122.001 113.167C122.001 112.484 122.48 112.004 123.165 112.001C123.944 111.998 124.724 112.001 125.503 112.001H125.503ZM125.011 116.236C124.98 116.209 124.961 116.194 124.944 116.177C124.638 115.871 124.332 115.563 124.024 115.258C123.885 115.121 123.686 115.098 123.534 115.197C123.314 115.341 123.286 115.614 123.478 115.808C123.877 116.211 124.279 116.611 124.679 117.012C124.901 117.234 125.101 117.231 125.324 117.005C125.538 116.789 125.753 116.574 125.968 116.359C126.484 115.843 127 115.327 127.516 114.811C127.622 114.704 127.678 114.577 127.642 114.426C127.566 114.112 127.22 114.022 126.981 114.258C126.475 114.76 125.972 115.266 125.469 115.771C125.317 115.923 125.167 116.078 125.011 116.237L125.011 116.236Z" fill="#9C0000"/>
<path d="M30.7109 119V117.953L33.4883 115.23C33.7539 114.962 33.9753 114.724 34.1523 114.516C34.3294 114.307 34.4622 114.105 34.5508 113.91C34.6393 113.715 34.6836 113.507 34.6836 113.285C34.6836 113.033 34.6263 112.816 34.5117 112.637C34.3971 112.454 34.2396 112.314 34.0391 112.215C33.8385 112.116 33.6107 112.066 33.3555 112.066C33.0924 112.066 32.862 112.121 32.6641 112.23C32.4661 112.337 32.3125 112.49 32.2031 112.688C32.0964 112.885 32.043 113.121 32.043 113.395H30.6641C30.6641 112.887 30.7799 112.445 31.0117 112.07C31.2435 111.695 31.5625 111.405 31.9688 111.199C32.3776 110.993 32.8464 110.891 33.375 110.891C33.9115 110.891 34.3828 110.991 34.7891 111.191C35.1953 111.392 35.5104 111.667 35.7344 112.016C35.9609 112.365 36.0742 112.763 36.0742 113.211C36.0742 113.51 36.0169 113.805 35.9023 114.094C35.7878 114.383 35.5859 114.703 35.2969 115.055C35.0104 115.406 34.6081 115.832 34.0898 116.332L32.7109 117.734V117.789H36.1953V119H30.7109ZM40.332 119H37.6211V111H40.3867C41.181 111 41.8633 111.16 42.4336 111.48C43.0065 111.798 43.4466 112.255 43.7539 112.852C44.0612 113.448 44.2148 114.161 44.2148 114.992C44.2148 115.826 44.0599 116.542 43.75 117.141C43.4427 117.74 42.9987 118.199 42.418 118.52C41.8398 118.84 41.1445 119 40.332 119ZM39.0703 117.746H40.2617C40.819 117.746 41.2839 117.645 41.6563 117.441C42.0286 117.236 42.3086 116.93 42.4961 116.523C42.6836 116.115 42.7773 115.604 42.7773 114.992C42.7773 114.38 42.6836 113.872 42.4961 113.469C42.3086 113.062 42.0313 112.759 41.6641 112.559C41.2995 112.355 40.8464 112.254 40.3047 112.254H39.0703V117.746ZM49.9844 119.121C49.6042 119.121 49.2617 119.053 48.957 118.918C48.6549 118.78 48.4154 118.577 48.2383 118.309C48.0638 118.04 47.9766 117.71 47.9766 117.316C47.9766 116.978 48.0391 116.698 48.1641 116.477C48.2891 116.255 48.4596 116.078 48.6758 115.945C48.8919 115.812 49.1354 115.712 49.4063 115.645C49.6797 115.574 49.9622 115.523 50.2539 115.492C50.6055 115.456 50.8906 115.423 51.1094 115.395C51.3281 115.363 51.487 115.316 51.5859 115.254C51.6875 115.189 51.7383 115.089 51.7383 114.953V114.93C51.7383 114.635 51.651 114.408 51.4766 114.246C51.3021 114.085 51.0508 114.004 50.7227 114.004C50.3763 114.004 50.1016 114.079 49.8984 114.23C49.6979 114.382 49.5625 114.56 49.4922 114.766L48.1719 114.578C48.276 114.214 48.4479 113.909 48.6875 113.664C48.9271 113.417 49.2201 113.232 49.5664 113.109C49.9128 112.984 50.2956 112.922 50.7148 112.922C51.0039 112.922 51.2917 112.956 51.5781 113.023C51.8646 113.091 52.1263 113.203 52.3633 113.359C52.6003 113.513 52.7904 113.723 52.9336 113.988C53.0794 114.254 53.1523 114.586 53.1523 114.984V119H51.793V118.176H51.7461C51.6602 118.342 51.5391 118.499 51.3828 118.645C51.2292 118.788 51.0352 118.904 50.8008 118.992C50.569 119.078 50.2969 119.121 49.9844 119.121ZM50.3516 118.082C50.6354 118.082 50.8815 118.026 51.0898 117.914C51.2982 117.799 51.4583 117.648 51.5703 117.461C51.6849 117.273 51.7422 117.069 51.7422 116.848V116.141C51.6979 116.177 51.6224 116.211 51.5156 116.242C51.4115 116.273 51.2943 116.301 51.1641 116.324C51.0339 116.348 50.9049 116.368 50.7773 116.387C50.6497 116.405 50.5391 116.421 50.4453 116.434C50.2344 116.462 50.0456 116.509 49.8789 116.574C49.7122 116.639 49.5807 116.73 49.4844 116.848C49.388 116.962 49.3398 117.111 49.3398 117.293C49.3398 117.553 49.4349 117.75 49.625 117.883C49.8151 118.016 50.0573 118.082 50.3516 118.082ZM55.9883 115.484V119H54.5742V113H55.9258V114.02H55.9961C56.1341 113.684 56.3542 113.417 56.6563 113.219C56.9609 113.021 57.3372 112.922 57.7852 112.922C58.1992 112.922 58.5599 113.01 58.8672 113.187C59.1771 113.365 59.4167 113.621 59.5859 113.957C59.7578 114.293 59.8424 114.701 59.8398 115.18V119H58.4258V115.398C58.4258 114.997 58.3216 114.684 58.1133 114.457C57.9076 114.23 57.6224 114.117 57.2578 114.117C57.0104 114.117 56.7904 114.172 56.5977 114.281C56.4076 114.388 56.2578 114.543 56.1484 114.746C56.0417 114.949 55.9883 115.195 55.9883 115.484ZM61.2773 119V113H62.6914V119H61.2773ZM61.9883 112.148C61.7643 112.148 61.5716 112.074 61.4102 111.926C61.2487 111.775 61.168 111.594 61.168 111.383C61.168 111.169 61.2487 110.988 61.4102 110.84C61.5716 110.689 61.7643 110.613 61.9883 110.613C62.2148 110.613 62.4076 110.689 62.5664 110.84C62.7279 110.988 62.8086 111.169 62.8086 111.383C62.8086 111.594 62.7279 111.775 62.5664 111.926C62.4076 112.074 62.2148 112.148 61.9883 112.148ZM64.1455 119V113H65.4971V114.02H65.5674C65.6924 113.676 65.8994 113.408 66.1885 113.215C66.4775 113.02 66.8226 112.922 67.2236 112.922C67.6299 112.922 67.9723 113.021 68.251 113.219C68.5322 113.414 68.7301 113.681 68.8447 114.02H68.9072C69.04 113.686 69.264 113.421 69.5791 113.223C69.8968 113.022 70.2731 112.922 70.708 112.922C71.2601 112.922 71.7106 113.096 72.0596 113.445C72.4085 113.794 72.583 114.303 72.583 114.973V119H71.165V115.191C71.165 114.819 71.0661 114.547 70.8682 114.375C70.6702 114.201 70.4281 114.113 70.1416 114.113C69.8005 114.113 69.5335 114.22 69.3408 114.434C69.1507 114.645 69.0557 114.919 69.0557 115.258V119H67.6689V115.133C67.6689 114.823 67.5752 114.576 67.3877 114.391C67.2028 114.206 66.9606 114.113 66.6611 114.113C66.458 114.113 66.2731 114.165 66.1064 114.27C65.9398 114.371 65.807 114.516 65.708 114.703C65.609 114.888 65.5596 115.104 65.5596 115.352V119H64.1455ZM75.7441 119.121C75.3639 119.121 75.0215 119.053 74.7168 118.918C74.4147 118.78 74.1751 118.577 73.998 118.309C73.8236 118.04 73.7363 117.71 73.7363 117.316C73.7363 116.978 73.7988 116.698 73.9238 116.477C74.0488 116.255 74.2194 116.078 74.4355 115.945C74.6517 115.812 74.8952 115.712 75.166 115.645C75.4395 115.574 75.722 115.523 76.0137 115.492C76.3652 115.456 76.6504 115.423 76.8691 115.395C77.0879 115.363 77.2467 115.316 77.3457 115.254C77.4473 115.189 77.498 115.089 77.498 114.953V114.93C77.498 114.635 77.4108 114.408 77.2363 114.246C77.0618 114.085 76.8105 114.004 76.4824 114.004C76.1361 114.004 75.8613 114.079 75.6582 114.23C75.4577 114.382 75.3223 114.56 75.252 114.766L73.9316 114.578C74.0358 114.214 74.2077 113.909 74.4473 113.664C74.6868 113.417 74.9798 113.232 75.3262 113.109C75.6725 112.984 76.0553 112.922 76.4746 112.922C76.7637 112.922 77.0514 112.956 77.3379 113.023C77.6243 113.091 77.8861 113.203 78.123 113.359C78.36 113.513 78.5501 113.723 78.6934 113.988C78.8392 114.254 78.9121 114.586 78.9121 114.984V119H77.5527V118.176H77.5059C77.4199 118.342 77.2988 118.499 77.1426 118.645C76.9889 118.788 76.7949 118.904 76.5605 118.992C76.3288 119.078 76.0566 119.121 75.7441 119.121ZM76.1113 118.082C76.3952 118.082 76.6413 118.026 76.8496 117.914C77.0579 117.799 77.2181 117.648 77.3301 117.461C77.4447 117.273 77.502 117.069 77.502 116.848V116.141C77.4577 116.177 77.3822 116.211 77.2754 116.242C77.1712 116.273 77.054 116.301 76.9238 116.324C76.7936 116.348 76.6647 116.368 76.5371 116.387C76.4095 116.405 76.2988 116.421 76.2051 116.434C75.9941 116.462 75.8053 116.509 75.6387 116.574C75.472 116.639 75.3405 116.73 75.2441 116.848C75.1478 116.962 75.0996 117.111 75.0996 117.293C75.0996 117.553 75.1947 117.75 75.3848 117.883C75.5749 118.016 75.8171 118.082 76.1113 118.082ZM83.3301 113V114.094H79.8809V113H83.3301ZM80.7324 111.562H82.1465V117.195C82.1465 117.385 82.1751 117.531 82.2324 117.633C82.2923 117.732 82.3704 117.799 82.4668 117.836C82.5632 117.872 82.6699 117.891 82.7871 117.891C82.8757 117.891 82.9564 117.884 83.0293 117.871C83.1048 117.858 83.1621 117.846 83.2012 117.836L83.4395 118.941C83.3639 118.967 83.2559 118.996 83.1152 119.027C82.9772 119.059 82.8079 119.077 82.6074 119.082C82.2533 119.092 81.9342 119.039 81.6504 118.922C81.3665 118.802 81.1413 118.617 80.9746 118.367C80.8105 118.117 80.7298 117.805 80.7324 117.43V111.562ZM84.5127 119V113H85.9268V119H84.5127ZM85.2236 112.148C84.9997 112.148 84.807 112.074 84.6455 111.926C84.484 111.775 84.4033 111.594 84.4033 111.383C84.4033 111.169 84.484 110.988 84.6455 110.84C84.807 110.689 84.9997 110.613 85.2236 110.613C85.4502 110.613 85.6429 110.689 85.8018 110.84C85.9632 110.988 86.0439 111.169 86.0439 111.383C86.0439 111.594 85.9632 111.775 85.8018 111.926C85.6429 112.074 85.4502 112.148 85.2236 112.148ZM89.998 119.117C89.4121 119.117 88.9043 118.988 88.4746 118.73C88.0449 118.473 87.7116 118.112 87.4746 117.648C87.2402 117.185 87.123 116.643 87.123 116.023C87.123 115.404 87.2402 114.861 87.4746 114.395C87.7116 113.928 88.0449 113.566 88.4746 113.309C88.9043 113.051 89.4121 112.922 89.998 112.922C90.584 112.922 91.0918 113.051 91.5215 113.309C91.9512 113.566 92.2832 113.928 92.5176 114.395C92.7546 114.861 92.873 115.404 92.873 116.023C92.873 116.643 92.7546 117.185 92.5176 117.648C92.2832 118.112 91.9512 118.473 91.5215 118.73C91.0918 118.988 90.584 119.117 89.998 119.117ZM90.0059 117.984C90.3236 117.984 90.5892 117.897 90.8027 117.723C91.0163 117.546 91.1751 117.309 91.2793 117.012C91.3861 116.715 91.4395 116.384 91.4395 116.02C91.4395 115.652 91.3861 115.32 91.2793 115.023C91.1751 114.724 91.0163 114.486 90.8027 114.309C90.5892 114.132 90.3236 114.043 90.0059 114.043C89.6803 114.043 89.4095 114.132 89.1934 114.309C88.9798 114.486 88.8197 114.724 88.7129 115.023C88.6087 115.32 88.5566 115.652 88.5566 116.02C88.5566 116.384 88.6087 116.715 88.7129 117.012C88.8197 117.309 88.9798 117.546 89.1934 117.723C89.4095 117.897 89.6803 117.984 90.0059 117.984ZM95.4873 115.484V119H94.0732V113H95.4248V114.02H95.4951C95.6331 113.684 95.8532 113.417 96.1553 113.219C96.46 113.021 96.8363 112.922 97.2842 112.922C97.6982 112.922 98.0589 113.01 98.3662 113.187C98.6761 113.365 98.9157 113.621 99.085 113.957C99.2568 114.293 99.3415 114.701 99.3389 115.18V119H97.9248V115.398C97.9248 114.997 97.8206 114.684 97.6123 114.457C97.4066 114.23 97.1214 114.117 96.7568 114.117C96.5094 114.117 96.2894 114.172 96.0967 114.281C95.9066 114.388 95.7568 114.543 95.6475 114.746C95.5407 114.949 95.4873 115.195 95.4873 115.484Z" fill="#7B7B7B"/>
<path d="M134.789 119V111H139.992V112.215H136.238V114.387H139.723V115.602H136.238V117.785H140.023V119H134.789ZM144.447 113V114.094H140.9V113H144.447ZM141.787 119V112.434C141.787 112.03 141.87 111.694 142.037 111.426C142.206 111.158 142.433 110.957 142.717 110.824C143.001 110.691 143.316 110.625 143.662 110.625C143.907 110.625 144.124 110.645 144.314 110.684C144.505 110.723 144.645 110.758 144.736 110.789L144.455 111.883C144.395 111.865 144.32 111.846 144.229 111.828C144.137 111.807 144.036 111.797 143.924 111.797C143.661 111.797 143.475 111.861 143.365 111.988C143.258 112.113 143.205 112.293 143.205 112.527V119H141.787ZM148.594 113V114.094H145.047V113H148.594ZM145.934 119V112.434C145.934 112.03 146.017 111.694 146.184 111.426C146.353 111.158 146.579 110.957 146.863 110.824C147.147 110.691 147.462 110.625 147.809 110.625C148.053 110.625 148.271 110.645 148.461 110.684C148.651 110.723 148.792 110.758 148.883 110.789L148.602 111.883C148.542 111.865 148.466 111.846 148.375 111.828C148.284 111.807 148.182 111.797 148.07 111.797C147.807 111.797 147.621 111.861 147.512 111.988C147.405 112.113 147.352 112.293 147.352 112.527V119H145.934ZM152.132 119.117C151.53 119.117 151.011 118.992 150.573 118.742C150.138 118.49 149.804 118.133 149.569 117.672C149.335 117.208 149.218 116.663 149.218 116.035C149.218 115.418 149.335 114.876 149.569 114.41C149.806 113.941 150.137 113.577 150.562 113.316C150.986 113.053 151.485 112.922 152.058 112.922C152.427 112.922 152.776 112.982 153.104 113.102C153.435 113.219 153.727 113.401 153.979 113.648C154.235 113.896 154.435 114.211 154.581 114.594C154.727 114.974 154.8 115.427 154.8 115.953V116.387H149.882V115.434H153.444C153.442 115.163 153.383 114.922 153.269 114.711C153.154 114.497 152.994 114.329 152.788 114.207C152.585 114.085 152.348 114.023 152.077 114.023C151.788 114.023 151.534 114.094 151.315 114.234C151.097 114.372 150.926 114.555 150.804 114.781C150.684 115.005 150.623 115.251 150.62 115.52V116.352C150.62 116.701 150.684 117 150.812 117.25C150.939 117.497 151.118 117.687 151.347 117.82C151.576 117.951 151.844 118.016 152.151 118.016C152.357 118.016 152.543 117.987 152.71 117.93C152.877 117.87 153.021 117.783 153.144 117.668C153.266 117.553 153.358 117.411 153.421 117.242L154.741 117.391C154.658 117.74 154.499 118.044 154.265 118.305C154.033 118.562 153.736 118.763 153.374 118.906C153.012 119.047 152.598 119.117 152.132 119.117ZM158.613 119.117C158.014 119.117 157.5 118.986 157.07 118.723C156.643 118.46 156.314 118.096 156.082 117.633C155.853 117.167 155.738 116.63 155.738 116.023C155.738 115.414 155.855 114.876 156.09 114.41C156.324 113.941 156.655 113.577 157.082 113.316C157.512 113.053 158.02 112.922 158.605 112.922C159.092 112.922 159.523 113.012 159.898 113.191C160.276 113.368 160.577 113.62 160.801 113.945C161.025 114.268 161.152 114.646 161.184 115.078H159.832C159.777 114.789 159.647 114.548 159.441 114.355C159.238 114.16 158.966 114.062 158.625 114.062C158.336 114.062 158.082 114.141 157.863 114.297C157.645 114.451 157.474 114.672 157.352 114.961C157.232 115.25 157.172 115.596 157.172 116C157.172 116.409 157.232 116.76 157.352 117.055C157.471 117.346 157.639 117.572 157.855 117.73C158.074 117.887 158.331 117.965 158.625 117.965C158.833 117.965 159.02 117.926 159.184 117.848C159.35 117.767 159.49 117.651 159.602 117.5C159.714 117.349 159.79 117.165 159.832 116.949H161.184C161.15 117.374 161.025 117.75 160.809 118.078C160.592 118.404 160.298 118.659 159.926 118.844C159.553 119.026 159.116 119.117 158.613 119.117ZM165.341 113V114.094H161.892V113H165.341ZM162.743 111.562H164.157V117.195C164.157 117.385 164.186 117.531 164.243 117.633C164.303 117.732 164.381 117.799 164.478 117.836C164.574 117.872 164.681 117.891 164.798 117.891C164.886 117.891 164.967 117.884 165.04 117.871C165.116 117.858 165.173 117.846 165.212 117.836L165.45 118.941C165.375 118.967 165.267 118.996 165.126 119.027C164.988 119.059 164.819 119.077 164.618 119.082C164.264 119.092 163.945 119.039 163.661 118.922C163.377 118.802 163.152 118.617 162.985 118.367C162.821 118.117 162.741 117.805 162.743 117.43V111.562ZM171.18 114.586L169.891 114.727C169.854 114.596 169.79 114.474 169.699 114.359C169.611 114.245 169.491 114.152 169.34 114.082C169.189 114.012 169.004 113.977 168.785 113.977C168.491 113.977 168.243 114.04 168.043 114.168C167.845 114.296 167.747 114.461 167.75 114.664C167.747 114.839 167.811 114.98 167.941 115.09C168.074 115.199 168.293 115.289 168.598 115.359L169.621 115.578C170.189 115.701 170.611 115.895 170.887 116.16C171.165 116.426 171.306 116.773 171.309 117.203C171.306 117.581 171.195 117.914 170.977 118.203C170.76 118.49 170.46 118.714 170.074 118.875C169.689 119.036 169.246 119.117 168.746 119.117C168.012 119.117 167.421 118.964 166.973 118.656C166.525 118.346 166.258 117.915 166.172 117.363L167.551 117.23C167.613 117.501 167.746 117.706 167.949 117.844C168.152 117.982 168.417 118.051 168.742 118.051C169.078 118.051 169.348 117.982 169.551 117.844C169.757 117.706 169.859 117.535 169.859 117.332C169.859 117.16 169.793 117.018 169.66 116.906C169.53 116.794 169.327 116.708 169.051 116.648L168.027 116.434C167.452 116.314 167.026 116.112 166.75 115.828C166.474 115.542 166.337 115.18 166.34 114.742C166.337 114.372 166.438 114.052 166.641 113.781C166.846 113.508 167.132 113.297 167.496 113.148C167.863 112.997 168.286 112.922 168.766 112.922C169.469 112.922 170.022 113.072 170.426 113.371C170.832 113.671 171.083 114.076 171.18 114.586Z" fill="#7B7B7B"/>
<path d="M30.4375 134.215V133H36.8203V134.215H34.3477V141H32.9102V134.215H30.4375ZM37.3652 141V135H38.7363V136H38.7988C38.9082 135.654 39.0957 135.387 39.3613 135.199C39.6296 135.009 39.9355 134.914 40.2793 134.914C40.3574 134.914 40.4447 134.918 40.541 134.926C40.64 134.931 40.722 134.94 40.7871 134.953V136.254C40.7272 136.233 40.6322 136.215 40.502 136.199C40.3743 136.181 40.2507 136.172 40.1309 136.172C39.873 136.172 39.6413 136.228 39.4355 136.34C39.2324 136.449 39.0723 136.602 38.9551 136.797C38.8379 136.992 38.7793 137.217 38.7793 137.473V141H37.3652ZM43.3457 141.121C42.9655 141.121 42.623 141.053 42.3184 140.918C42.0163 140.78 41.7767 140.577 41.5996 140.309C41.4251 140.04 41.3379 139.71 41.3379 139.316C41.3379 138.978 41.4004 138.698 41.5254 138.477C41.6504 138.255 41.821 138.078 42.0371 137.945C42.2533 137.812 42.4967 137.712 42.7676 137.645C43.041 137.574 43.3236 137.523 43.6152 137.492C43.9668 137.456 44.252 137.423 44.4707 137.395C44.6895 137.363 44.8483 137.316 44.9473 137.254C45.0488 137.189 45.0996 137.089 45.0996 136.953V136.93C45.0996 136.635 45.0124 136.408 44.8379 136.246C44.6634 136.085 44.4121 136.004 44.084 136.004C43.7376 136.004 43.4629 136.079 43.2598 136.23C43.0592 136.382 42.9238 136.56 42.8535 136.766L41.5332 136.578C41.6374 136.214 41.8092 135.909 42.0488 135.664C42.2884 135.417 42.5814 135.232 42.9277 135.109C43.2741 134.984 43.6569 134.922 44.0762 134.922C44.3652 134.922 44.653 134.956 44.9395 135.023C45.2259 135.091 45.4876 135.203 45.7246 135.359C45.9616 135.513 46.1517 135.723 46.2949 135.988C46.4408 136.254 46.5137 136.586 46.5137 136.984V141H45.1543V140.176H45.1074C45.0215 140.342 44.9004 140.499 44.7441 140.645C44.5905 140.788 44.3965 140.904 44.1621 140.992C43.9303 141.078 43.6582 141.121 43.3457 141.121ZM43.7129 140.082C43.9967 140.082 44.2428 140.026 44.4512 139.914C44.6595 139.799 44.8197 139.648 44.9316 139.461C45.0462 139.273 45.1035 139.069 45.1035 138.848V138.141C45.0592 138.177 44.9837 138.211 44.877 138.242C44.7728 138.273 44.6556 138.301 44.5254 138.324C44.3952 138.348 44.2663 138.368 44.1387 138.387C44.0111 138.405 43.9004 138.421 43.8066 138.434C43.5957 138.462 43.4069 138.509 43.2402 138.574C43.0736 138.639 42.9421 138.73 42.8457 138.848C42.7493 138.962 42.7012 139.111 42.7012 139.293C42.7012 139.553 42.7962 139.75 42.9863 139.883C43.1764 140.016 43.4186 140.082 43.7129 140.082ZM49.3496 137.484V141H47.9355V135H49.2871V136.02H49.3574C49.4954 135.684 49.7155 135.417 50.0176 135.219C50.3223 135.021 50.6986 134.922 51.1465 134.922C51.5605 134.922 51.9212 135.01 52.2285 135.187C52.5384 135.365 52.778 135.621 52.9473 135.957C53.1191 136.293 53.2038 136.701 53.2012 137.18V141H51.7871V137.398C51.7871 136.997 51.6829 136.684 51.4746 136.457C51.2689 136.23 50.9837 136.117 50.6191 136.117C50.3717 136.117 50.1517 136.172 49.959 136.281C49.7689 136.388 49.6191 136.543 49.5098 136.746C49.403 136.949 49.3496 137.195 49.3496 137.484ZM59.3809 136.586L58.0918 136.727C58.0553 136.596 57.9915 136.474 57.9004 136.359C57.8118 136.245 57.6921 136.152 57.541 136.082C57.39 136.012 57.2051 135.977 56.9863 135.977C56.6921 135.977 56.4447 136.04 56.2441 136.168C56.0462 136.296 55.9486 136.461 55.9512 136.664C55.9486 136.839 56.0124 136.98 56.1426 137.09C56.2754 137.199 56.4941 137.289 56.7988 137.359L57.8223 137.578C58.39 137.701 58.8118 137.895 59.0879 138.16C59.3665 138.426 59.5072 138.773 59.5098 139.203C59.5072 139.581 59.3965 139.914 59.1777 140.203C58.9616 140.49 58.6608 140.714 58.2754 140.875C57.89 141.036 57.4473 141.117 56.9473 141.117C56.2129 141.117 55.6217 140.964 55.1738 140.656C54.7259 140.346 54.459 139.915 54.373 139.363L55.752 139.23C55.8145 139.501 55.9473 139.706 56.1504 139.844C56.3535 139.982 56.6178 140.051 56.9434 140.051C57.2793 140.051 57.5488 139.982 57.752 139.844C57.9577 139.706 58.0605 139.535 58.0605 139.332C58.0605 139.16 57.9941 139.018 57.8613 138.906C57.7311 138.794 57.528 138.708 57.252 138.648L56.2285 138.434C55.653 138.314 55.2272 138.112 54.9512 137.828C54.6751 137.542 54.5384 137.18 54.541 136.742C54.5384 136.372 54.6387 136.052 54.8418 135.781C55.0475 135.508 55.3327 135.297 55.6973 135.148C56.0645 134.997 56.4876 134.922 56.9668 134.922C57.6699 134.922 58.2233 135.072 58.627 135.371C59.0332 135.671 59.2845 136.076 59.3809 136.586ZM60.6758 141V135H62.0898V141H60.6758ZM61.3867 134.148C61.1628 134.148 60.9701 134.074 60.8086 133.926C60.6471 133.775 60.5664 133.594 60.5664 133.383C60.5664 133.169 60.6471 132.988 60.8086 132.84C60.9701 132.689 61.1628 132.613 61.3867 132.613C61.6133 132.613 61.806 132.689 61.9648 132.84C62.1263 132.988 62.207 133.169 62.207 133.383C62.207 133.594 62.1263 133.775 61.9648 133.926C61.806 134.074 61.6133 134.148 61.3867 134.148ZM66.54 135V136.094H63.0908V135H66.54ZM63.9424 133.562H65.3564V139.195C65.3564 139.385 65.3851 139.531 65.4424 139.633C65.5023 139.732 65.5804 139.799 65.6768 139.836C65.7731 139.872 65.8799 139.891 65.9971 139.891C66.0856 139.891 66.1663 139.884 66.2393 139.871C66.3148 139.858 66.3721 139.846 66.4111 139.836L66.6494 140.941C66.5739 140.967 66.4658 140.996 66.3252 141.027C66.1872 141.059 66.0179 141.077 65.8174 141.082C65.4632 141.092 65.1442 141.039 64.8604 140.922C64.5765 140.802 64.3512 140.617 64.1846 140.367C64.0205 140.117 63.9398 139.805 63.9424 139.43V133.562ZM67.7227 141V135H69.1367V141H67.7227ZM68.4336 134.148C68.2096 134.148 68.0169 134.074 67.8555 133.926C67.694 133.775 67.6133 133.594 67.6133 133.383C67.6133 133.169 67.694 132.988 67.8555 132.84C68.0169 132.689 68.2096 132.613 68.4336 132.613C68.6602 132.613 68.8529 132.689 69.0117 132.84C69.1732 132.988 69.2539 133.169 69.2539 133.383C69.2539 133.594 69.1732 133.775 69.0117 133.926C68.8529 134.074 68.6602 134.148 68.4336 134.148ZM73.208 141.117C72.6221 141.117 72.1143 140.988 71.6846 140.73C71.2549 140.473 70.9215 140.112 70.6846 139.648C70.4502 139.185 70.333 138.643 70.333 138.023C70.333 137.404 70.4502 136.861 70.6846 136.395C70.9215 135.928 71.2549 135.566 71.6846 135.309C72.1143 135.051 72.6221 134.922 73.208 134.922C73.7939 134.922 74.3018 135.051 74.7314 135.309C75.1611 135.566 75.4932 135.928 75.7275 136.395C75.9645 136.861 76.083 137.404 76.083 138.023C76.083 138.643 75.9645 139.185 75.7275 139.648C75.4932 140.112 75.1611 140.473 74.7314 140.73C74.3018 140.988 73.7939 141.117 73.208 141.117ZM73.2158 139.984C73.5335 139.984 73.7992 139.897 74.0127 139.723C74.2262 139.546 74.3851 139.309 74.4893 139.012C74.596 138.715 74.6494 138.384 74.6494 138.02C74.6494 137.652 74.596 137.32 74.4893 137.023C74.3851 136.724 74.2262 136.486 74.0127 136.309C73.7992 136.132 73.5335 136.043 73.2158 136.043C72.8903 136.043 72.6195 136.132 72.4033 136.309C72.1898 136.486 72.0296 136.724 71.9229 137.023C71.8187 137.32 71.7666 137.652 71.7666 138.02C71.7666 138.384 71.8187 138.715 71.9229 139.012C72.0296 139.309 72.1898 139.546 72.4033 139.723C72.6195 139.897 72.8903 139.984 73.2158 139.984ZM78.6973 137.484V141H77.2832V135H78.6348V136.02H78.7051C78.8431 135.684 79.0632 135.417 79.3652 135.219C79.6699 135.021 80.0462 134.922 80.4941 134.922C80.9082 134.922 81.2689 135.01 81.5762 135.187C81.8861 135.365 82.1257 135.621 82.2949 135.957C82.4668 136.293 82.5514 136.701 82.5488 137.18V141H81.1348V137.398C81.1348 136.997 81.0306 136.684 80.8223 136.457C80.6165 136.23 80.3314 136.117 79.9668 136.117C79.7194 136.117 79.4993 136.172 79.3066 136.281C79.1165 136.388 78.9668 136.543 78.8574 136.746C78.7507 136.949 78.6973 137.195 78.6973 137.484ZM88.7285 136.586L87.4395 136.727C87.403 136.596 87.3392 136.474 87.248 136.359C87.1595 136.245 87.0397 136.152 86.8887 136.082C86.7376 136.012 86.5527 135.977 86.334 135.977C86.0397 135.977 85.7923 136.04 85.5918 136.168C85.3939 136.296 85.2962 136.461 85.2988 136.664C85.2962 136.839 85.36 136.98 85.4902 137.09C85.623 137.199 85.8418 137.289 86.1465 137.359L87.1699 137.578C87.7376 137.701 88.1595 137.895 88.4355 138.16C88.7142 138.426 88.8548 138.773 88.8574 139.203C88.8548 139.581 88.7441 139.914 88.5254 140.203C88.3092 140.49 88.0085 140.714 87.623 140.875C87.2376 141.036 86.7949 141.117 86.2949 141.117C85.5605 141.117 84.9694 140.964 84.5215 140.656C84.0736 140.346 83.8066 139.915 83.7207 139.363L85.0996 139.23C85.1621 139.501 85.2949 139.706 85.498 139.844C85.7012 139.982 85.9655 140.051 86.291 140.051C86.627 140.051 86.8965 139.982 87.0996 139.844C87.3053 139.706 87.4082 139.535 87.4082 139.332C87.4082 139.16 87.3418 139.018 87.209 138.906C87.0788 138.794 86.8757 138.708 86.5996 138.648L85.5762 138.434C85.0007 138.314 84.5749 138.112 84.2988 137.828C84.0228 137.542 83.8861 137.18 83.8887 136.742C83.8861 136.372 83.9863 136.052 84.1895 135.781C84.3952 135.508 84.6803 135.297 85.0449 135.148C85.4121 134.997 85.8353 134.922 86.3145 134.922C87.0176 134.922 87.571 135.072 87.9746 135.371C88.3809 135.671 88.6322 136.076 88.7285 136.586Z" fill="#7B7B7B"/>
<path d="M139.137 135.199C139.1 134.858 138.947 134.592 138.676 134.402C138.408 134.212 138.059 134.117 137.629 134.117C137.327 134.117 137.068 134.163 136.852 134.254C136.635 134.345 136.47 134.469 136.355 134.625C136.241 134.781 136.182 134.96 136.18 135.16C136.18 135.327 136.217 135.471 136.293 135.594C136.371 135.716 136.477 135.82 136.609 135.906C136.742 135.99 136.889 136.06 137.051 136.117C137.212 136.174 137.375 136.223 137.539 136.262L138.289 136.449C138.591 136.52 138.882 136.615 139.16 136.734C139.441 136.854 139.693 137.005 139.914 137.188C140.138 137.37 140.315 137.59 140.445 137.848C140.576 138.105 140.641 138.408 140.641 138.754C140.641 139.223 140.521 139.635 140.281 139.992C140.042 140.346 139.695 140.624 139.242 140.824C138.792 141.022 138.246 141.121 137.605 141.121C136.983 141.121 136.443 141.025 135.984 140.832C135.529 140.639 135.172 140.358 134.914 139.988C134.659 139.618 134.521 139.168 134.5 138.637H135.926C135.947 138.915 136.033 139.147 136.184 139.332C136.335 139.517 136.531 139.655 136.773 139.746C137.018 139.837 137.292 139.883 137.594 139.883C137.909 139.883 138.185 139.836 138.422 139.742C138.661 139.646 138.849 139.513 138.984 139.344C139.12 139.172 139.189 138.971 139.191 138.742C139.189 138.534 139.128 138.362 139.008 138.227C138.888 138.089 138.72 137.974 138.504 137.883C138.29 137.789 138.04 137.706 137.754 137.633L136.844 137.398C136.185 137.229 135.664 136.973 135.281 136.629C134.901 136.283 134.711 135.823 134.711 135.25C134.711 134.779 134.839 134.366 135.094 134.012C135.352 133.658 135.702 133.383 136.145 133.187C136.587 132.99 137.089 132.891 137.648 132.891C138.216 132.891 138.714 132.99 139.141 133.187C139.57 133.383 139.908 133.655 140.152 134.004C140.397 134.35 140.523 134.749 140.531 135.199H139.137ZM144.866 135V136.094H141.417V135H144.866ZM142.269 133.562H143.683V139.195C143.683 139.385 143.711 139.531 143.769 139.633C143.828 139.732 143.907 139.799 144.003 139.836C144.099 139.872 144.206 139.891 144.323 139.891C144.412 139.891 144.493 139.884 144.565 139.871C144.641 139.858 144.698 139.846 144.737 139.836L144.976 140.941C144.9 140.967 144.792 140.996 144.651 141.027C144.513 141.059 144.344 141.077 144.144 141.082C143.789 141.092 143.47 141.039 143.187 140.922C142.903 140.802 142.677 140.617 142.511 140.367C142.347 140.117 142.266 139.805 142.269 139.43V133.562ZM148.602 141.117C148.016 141.117 147.508 140.988 147.078 140.73C146.648 140.473 146.315 140.112 146.078 139.648C145.844 139.185 145.727 138.643 145.727 138.023C145.727 137.404 145.844 136.861 146.078 136.395C146.315 135.928 146.648 135.566 147.078 135.309C147.508 135.051 148.016 134.922 148.602 134.922C149.188 134.922 149.695 135.051 150.125 135.309C150.555 135.566 150.887 135.928 151.121 136.395C151.358 136.861 151.477 137.404 151.477 138.023C151.477 138.643 151.358 139.185 151.121 139.648C150.887 140.112 150.555 140.473 150.125 140.73C149.695 140.988 149.188 141.117 148.602 141.117ZM148.609 139.984C148.927 139.984 149.193 139.897 149.406 139.723C149.62 139.546 149.779 139.309 149.883 139.012C149.99 138.715 150.043 138.384 150.043 138.02C150.043 137.652 149.99 137.32 149.883 137.023C149.779 136.724 149.62 136.486 149.406 136.309C149.193 136.132 148.927 136.043 148.609 136.043C148.284 136.043 148.013 136.132 147.797 136.309C147.583 136.486 147.423 136.724 147.316 137.023C147.212 137.32 147.16 137.652 147.16 138.02C147.16 138.384 147.212 138.715 147.316 139.012C147.423 139.309 147.583 139.546 147.797 139.723C148.013 139.897 148.284 139.984 148.609 139.984ZM152.677 141V135H154.048V136H154.11C154.22 135.654 154.407 135.387 154.673 135.199C154.941 135.009 155.247 134.914 155.591 134.914C155.669 134.914 155.756 134.918 155.853 134.926C155.951 134.931 156.034 134.94 156.099 134.953V136.254C156.039 136.233 155.944 136.215 155.813 136.199C155.686 136.181 155.562 136.172 155.442 136.172C155.185 136.172 154.953 136.228 154.747 136.34C154.544 136.449 154.384 136.602 154.267 136.797C154.149 136.992 154.091 137.217 154.091 137.473V141H152.677ZM158.1 143.25C157.907 143.25 157.729 143.234 157.564 143.203C157.403 143.174 157.274 143.141 157.178 143.102L157.506 142C157.712 142.06 157.895 142.089 158.057 142.086C158.218 142.083 158.36 142.033 158.482 141.934C158.607 141.837 158.713 141.676 158.799 141.449L158.92 141.125L156.744 135H158.244L159.627 139.531H159.689L161.076 135H162.58L160.178 141.727C160.066 142.044 159.917 142.316 159.732 142.543C159.548 142.772 159.321 142.947 159.053 143.066C158.787 143.189 158.469 143.25 158.1 143.25ZM166.555 135V136.094H163.105V135H166.555ZM163.957 133.562H165.371V139.195C165.371 139.385 165.4 139.531 165.457 139.633C165.517 139.732 165.595 139.799 165.691 139.836C165.788 139.872 165.895 139.891 166.012 139.891C166.1 139.891 166.181 139.884 166.254 139.871C166.329 139.858 166.387 139.846 166.426 139.836L166.664 140.941C166.589 140.967 166.48 140.996 166.34 141.027C166.202 141.059 166.033 141.077 165.832 141.082C165.478 141.092 165.159 141.039 164.875 140.922C164.591 140.802 164.366 140.617 164.199 140.367C164.035 140.117 163.954 139.805 163.957 139.43V133.562ZM170.329 141.117C169.728 141.117 169.208 140.992 168.771 140.742C168.336 140.49 168.001 140.133 167.767 139.672C167.532 139.208 167.415 138.663 167.415 138.035C167.415 137.418 167.532 136.876 167.767 136.41C168.004 135.941 168.334 135.577 168.759 135.316C169.183 135.053 169.682 134.922 170.255 134.922C170.625 134.922 170.974 134.982 171.302 135.102C171.632 135.219 171.924 135.401 172.177 135.648C172.432 135.896 172.632 136.211 172.778 136.594C172.924 136.974 172.997 137.427 172.997 137.953V138.387H168.079V137.434H171.642C171.639 137.163 171.58 136.922 171.466 136.711C171.351 136.497 171.191 136.329 170.985 136.207C170.782 136.085 170.545 136.023 170.274 136.023C169.985 136.023 169.731 136.094 169.513 136.234C169.294 136.372 169.123 136.555 169.001 136.781C168.881 137.005 168.82 137.251 168.817 137.52V138.352C168.817 138.701 168.881 139 169.009 139.25C169.136 139.497 169.315 139.687 169.544 139.82C169.773 139.951 170.041 140.016 170.349 140.016C170.554 140.016 170.741 139.987 170.907 139.93C171.074 139.87 171.218 139.783 171.341 139.668C171.463 139.553 171.556 139.411 171.618 139.242L172.938 139.391C172.855 139.74 172.696 140.044 172.462 140.305C172.23 140.562 171.933 140.763 171.571 140.906C171.209 141.047 170.795 141.117 170.329 141.117ZM175.607 133V141H174.193V133H175.607ZM178.476 133V141H177.062V133H178.476ZM179.93 141V135H181.344V141H179.93ZM180.641 134.148C180.417 134.148 180.224 134.074 180.062 133.926C179.901 133.775 179.82 133.594 179.82 133.383C179.82 133.169 179.901 132.988 180.062 132.84C180.224 132.689 180.417 132.613 180.641 132.613C180.867 132.613 181.06 132.689 181.219 132.84C181.38 132.988 181.461 133.169 181.461 133.383C181.461 133.594 181.38 133.775 181.219 133.926C181.06 134.074 180.867 134.148 180.641 134.148ZM184.212 137.484V141H182.798V135H184.149V136.02H184.22C184.358 135.684 184.578 135.417 184.88 135.219C185.185 135.021 185.561 134.922 186.009 134.922C186.423 134.922 186.784 135.01 187.091 135.187C187.401 135.365 187.64 135.621 187.81 135.957C187.981 136.293 188.066 136.701 188.063 137.18V141H186.649V137.398C186.649 136.997 186.545 136.684 186.337 136.457C186.131 136.23 185.846 136.117 185.481 136.117C185.234 136.117 185.014 136.172 184.821 136.281C184.631 136.388 184.481 136.543 184.372 136.746C184.265 136.949 184.212 137.195 184.212 137.484ZM192.11 143.375C191.603 143.375 191.166 143.306 190.802 143.168C190.437 143.033 190.144 142.85 189.923 142.621C189.701 142.392 189.548 142.138 189.462 141.859L190.735 141.551C190.793 141.668 190.876 141.784 190.985 141.898C191.095 142.016 191.242 142.112 191.427 142.188C191.614 142.266 191.85 142.305 192.134 142.305C192.535 142.305 192.867 142.207 193.13 142.012C193.393 141.819 193.524 141.501 193.524 141.059V139.922H193.454C193.381 140.068 193.274 140.217 193.134 140.371C192.996 140.525 192.812 140.654 192.583 140.758C192.356 140.862 192.071 140.914 191.728 140.914C191.267 140.914 190.849 140.806 190.474 140.59C190.101 140.371 189.804 140.046 189.583 139.613C189.364 139.178 189.255 138.634 189.255 137.98C189.255 137.322 189.364 136.766 189.583 136.312C189.804 135.857 190.103 135.512 190.478 135.277C190.853 135.04 191.271 134.922 191.731 134.922C192.083 134.922 192.372 134.982 192.599 135.102C192.828 135.219 193.01 135.361 193.146 135.527C193.281 135.691 193.384 135.846 193.454 135.992H193.532V135H194.927V141.098C194.927 141.611 194.804 142.035 194.56 142.371C194.315 142.707 193.98 142.958 193.556 143.125C193.131 143.292 192.649 143.375 192.11 143.375ZM192.122 139.805C192.422 139.805 192.677 139.732 192.888 139.586C193.099 139.44 193.259 139.23 193.368 138.957C193.478 138.684 193.532 138.355 193.532 137.973C193.532 137.595 193.478 137.264 193.368 136.98C193.261 136.697 193.103 136.477 192.892 136.32C192.683 136.161 192.427 136.082 192.122 136.082C191.807 136.082 191.544 136.164 191.333 136.328C191.122 136.492 190.963 136.717 190.856 137.004C190.75 137.288 190.696 137.611 190.696 137.973C190.696 138.34 190.75 138.661 190.856 138.938C190.966 139.211 191.126 139.424 191.337 139.578C191.55 139.729 191.812 139.805 192.122 139.805Z" fill="#7B7B7B"/>
<path d="M50.73 21.0637H25.7604C21.4535 21.0637 17.9561 24.5612 17.9561 28.868V41.3543C17.9561 45.6612 21.4535 49.1586 25.7604 49.1586H50.733C55.0398 49.1586 58.5373 45.6612 58.5373 41.3543V28.868C58.5373 24.5612 55.0398 21.0637 50.733 21.0637H50.73ZM55.415 41.3543C55.415 43.9302 53.3088 46.0363 50.733 46.0363H25.7604C23.1845 46.0363 21.0784 43.9302 21.0784 41.3543V28.868C21.0784 26.2922 23.1845 24.186 25.7604 24.186H50.733C53.3088 24.186 55.415 26.2922 55.415 28.868V41.3543Z" fill="#9C0000"/>
<path d="M55.539 55.4003H49.061C48.2014 55.4003 47.5013 56.1033 47.5013 56.9599C47.5013 57.8166 48.2044 58.5196 49.061 58.5196H55.539C56.3986 58.5196 57.0987 57.8166 57.0987 56.9599C57.0987 56.1033 56.3957 55.4003 55.539 55.4003Z" fill="#9C0000"/>
<path d="M39.8063 52.278C37.777 52.278 36.0608 53.5895 35.405 55.4003H19.5157C18.6561 55.4003 17.9561 56.1033 17.9561 56.9599C17.9561 57.8166 18.6591 58.5196 19.5157 58.5196H35.405C36.046 60.3304 37.7622 61.6419 39.8063 61.6419C42.3822 61.6419 44.4883 59.5358 44.4883 56.9599C44.4883 54.3841 42.3822 52.278 39.8063 52.278ZM39.8063 58.5226C38.9792 58.5226 38.3087 57.8668 38.2614 57.0397C38.2614 57.0072 38.2762 56.9924 38.2762 56.9629C38.2762 56.9334 38.2762 56.9156 38.2614 56.8861C38.3087 56.059 38.9792 55.4032 39.8063 55.4032C40.6335 55.4032 41.366 56.1063 41.366 56.9629C41.366 57.8195 40.663 58.5226 39.8063 58.5226Z" fill="#9C0000"/>
<path d="M47.6107 28.868C45.5666 28.868 43.8326 30.2091 43.1946 32.0524C43.1 32.0376 43.0232 31.9904 42.9287 31.9904C37.0445 31.9904 33.612 34.8941 31.8485 37.7033C29.8664 35.1599 27.4471 35.1127 27.3231 35.1127C26.4812 35.1127 25.8077 35.7832 25.7929 36.628C25.7604 37.4699 26.4487 38.1877 27.2906 38.235C27.3674 38.235 29.382 38.3915 30.5369 41.8565C30.7555 42.4975 31.3493 42.917 32.0198 42.917H32.1143C32.8174 42.8697 33.4111 42.3705 33.55 41.6852C33.612 41.4193 35.0328 35.1304 42.9464 35.1304C43.041 35.1304 43.1178 35.0979 43.2123 35.0684C43.8356 36.9087 45.5695 38.2527 47.6284 38.2527C50.2043 38.2527 52.3104 36.1466 52.3104 33.5707C52.3104 30.9949 50.2043 28.8887 47.6284 28.8887L47.6137 28.874L47.6107 28.868ZM47.6107 35.1097C46.7511 35.1097 46.051 34.4067 46.051 33.55C46.051 32.6934 46.7541 31.9904 47.6107 31.9904C48.4674 31.9904 49.1704 32.6934 49.1704 33.55C49.1704 34.4067 48.4674 35.1097 47.6107 35.1097Z" fill="#9C0000"/>
</svg>
