<svg width="13" height="13" viewBox="0 0 13 13" fill="none" xmlns="http://www.w3.org/2000/svg">
<path d="M1.44444 13C1.04722 13 0.707176 12.8586 0.424306 12.5757C0.141435 12.2928 0 11.9528 0 11.5556V1.44444C0 1.04722 0.141435 0.707176 0.424306 0.424306C0.707176 0.141435 1.04722 0 1.44444 0H11.5556C11.9528 0 12.2928 0.141435 12.5757 0.424306C12.8586 0.707176 13 1.04722 13 1.44444V11.5556C13 11.9528 12.8586 12.2928 12.5757 12.5757C12.2928 12.8586 11.9528 13 11.5556 13H1.44444ZM1.44444 11.5556H11.5556V1.44444H1.44444V11.5556ZM2.16667 10.1111H10.8333L8.125 6.5L5.95833 9.38889L4.33333 7.22222L2.16667 10.1111Z" fill="black"/>
</svg>
