<?xml version="1.0" encoding="UTF-8"?>
<svg id="Capa_1" data-name="Capa 1" xmlns="http://www.w3.org/2000/svg" viewBox="0 0 49 36">
  <defs>
    <style>
      .cls-1 {
        fill: #242424;
      }
    </style>
  </defs>
  <path class="cls-1" d="M11.9,36h-3.9c-.5-1-1.1-2.4-1.7-4.1-.6-1.7-1.2-3.5-1.9-5.5-.6-2-1.3-4-1.8-6-.6-2-1.1-3.9-1.6-5.7s-.8-3.3-1-4.5c.6-.2,1.4-.4,2.3-.5.9-.1,1.8-.2,2.7-.3s1.6-.1,2.2-.1c0,.2,0,.7.3,1.4.2.8.4,1.7.6,2.8.3,1.1.5,2.4.8,3.8s.6,2.9,1,4.4.7,3.1,1,4.6c.3,1.6.6,3,.9,4.4h-.5c.2-.8.5-2,.8-3.3.3-1.4.5-2.8.8-4.4s.5-3.1.8-4.6c.2-1.5.5-3,.6-4.3s.4-2.4.5-3.3.2-1.5.2-1.7c1.1,0,2.2.1,3.5.3s2.5.5,3.5.8c-.5,2.2-1,4.5-1.5,6.8-.6,2.3-1.1,4.5-1.7,6.6s-1.1,4.1-1.6,5.8-.9,3.2-1.2,4.3-.5,1.8-.6,2.2h-3.5v.1Z"/>
  <path class="cls-1" d="M24.3,24.5v-8.6c0-1.8,0-3.6.1-5.5,0-1.9,0-3.7.1-5.4s.1-3.3.2-4.7h4.8C30.4,0,31.1,0,31.7,0h1s0,.4.3.9c.2.6.4,1.3.6,2.2.3.9.5,1.9.8,3s.6,2.2.9,3.3c.3,1.1.6,2.2.9,3.2.3,1,.5,1.9.7,2.6s.3,1.2.4,1.5h-.7c0-.3.3-.9.6-1.7s.6-1.8.9-2.9c.3-1.1.7-2.2,1-3.5.4-1.2.7-2.4,1-3.5s.6-2.2.8-3.1c.2-.9.4-1.6.5-2h2.1C44.4,0,45.2,0,46.1.1c.9,0,1.6.1,2.2.2.3,1.2.4,2.7.6,4.5v10.9c0,1.7,0,3.3-.2,4.8,0,1.5-.2,2.8-.3,3.8h-2.1c-.7,0-1.5,0-2.1-.1-.7,0-1.2,0-1.6-.1,0-.8,0-1.9.2-3.3v-10.8c0,.5-.3,1.2-.6,2s-.5,1.7-.9,2.7c-.3,1-.7,2-1,3-.4,1-.7,1.9-1,2.8s-.6,1.7-.8,2.3c-.2.6-.4,1.1-.6,1.4h-2.7c-.4,0-.8,0-1.2-.1,0-.2,0-.5-.2-1.1,0-.5-.3-1.2-.5-2s-.4-1.6-.6-2.6c-.2-.9-.5-1.9-.7-2.8-.2-1-.5-1.9-.7-2.8-.2-.9-.4-1.7-.6-2.5-.2-.7-.4-1.4-.5-1.8v15.8h-6.2v.2h.3Z"/>
</svg>