<?xml version="1.0" encoding="UTF-8"?>
<svg id="Capa_1" data-name="Capa 1" xmlns="http://www.w3.org/2000/svg" viewBox="0 0 19 19">
  <defs>
    <style>
      .cls-1 {
        fill: #d5da26;
      }
    </style>
  </defs>
  <path class="cls-1" d="M17.32,19c-2.12,0-4.22-.46-6.29-1.39-2.07-.93-3.96-2.24-5.65-3.93-1.7-1.7-3.01-3.58-3.93-5.65C.52,5.95.06,3.86.06,1.74c0-.31.1-.56.31-.76.2-.2.46-.31.76-.31h4.13c.24,0,.45.08.64.24.19.16.3.35.33.57l.66,3.56c.03.27.03.5-.03.69-.05.19-.14.35-.28.48l-2.47,2.5c.34.63.74,1.23,1.21,1.82.47.59.98,1.15,1.54,1.69.53.53,1.08,1.01,1.66,1.46.58.45,1.19.86,1.83,1.23l2.39-2.39c.15-.15.35-.27.6-.34.25-.08.49-.1.73-.06l3.51.71c.24.07.43.19.59.37.15.18.23.38.23.6v4.12c0,.31-.1.56-.31.76-.2.2-.46.31-.76.31ZM3.14,6.78l1.68-1.68-.43-2.39h-2.27c.08.7.2,1.38.36,2.06.15.68.37,1.35.66,2.01ZM12.25,15.89c.66.29,1.34.52,2.02.69.69.17,1.38.28,2.08.33v-2.24l-2.39-.48-1.71,1.71Z"/>
</svg>