<svg width="13" height="10" viewBox="0 0 13 10" fill="none" xmlns="http://www.w3.org/2000/svg">
<path d="M4.875 7.8125L9.425 5L4.875 2.1875V7.8125ZM1.3 10C0.9425 10 0.636458 9.8776 0.381875 9.63281C0.127292 9.38802 0 9.09375 0 8.75V1.25C0 0.90625 0.127292 0.611979 0.381875 0.367188C0.636458 0.122396 0.9425 0 1.3 0H11.7C12.0575 0 12.3635 0.122396 12.6181 0.367188C12.8727 0.611979 13 0.90625 13 1.25V8.75C13 9.09375 12.8727 9.38802 12.6181 9.63281C12.3635 9.8776 12.0575 10 11.7 10H1.3ZM1.3 8.75H11.7V1.25H1.3V8.75Z" fill="black"/>
</svg>
